%
M48
M72
T01C0.01378
T02C0.01575
T03C0.01969
T04C0.02756
T05C0.03543
T06C0.03937
T07C0.04331
T08C0.05906
T09C0.08661
%
T01
X332996Y209768
X343626Y229846
X353075Y241237
X375909Y260949
X398350Y264098
X396382Y277091
X394020Y292051
X399925Y221185
X424335Y223547
X451500Y216067
X395988Y192051
X287694Y367642
X251894Y380240
X247563Y375122
T02
X245201Y380240
X251894Y366461
X224335Y371185
X204256Y370791
X197957Y365280
X202681Y380240
X217642Y394413
X165673Y388114
X159374Y378272
X141237Y384965
X137327Y378665
X131028Y372366
X111343Y391657
X79059Y366461
X90083Y349531
X101500Y339295
X104256Y328665
X212524Y328272
X225122Y328665
X214492Y318429
X237327Y290476
X240870Y287989
X213311Y275909
X224728Y268823
X228665Y270791
X202681Y264886
X197563Y259406
X198744Y255831
X190083Y220004
X183783Y214492
X188508Y190083
X176303Y182602
X128272Y191264
X122760Y192839
X125909Y182996
X82602Y167248
X261736Y212524
X284965Y186146
X292839Y170398
X298350Y157406
X316475Y175924
X357406Y174335
X367923Y174447
X375516Y178665
X360161Y180634
X366461Y196382
X388114Y192051
X404256Y172760
X413311Y171579
X409558Y163127
X379846Y163705
X414886Y190083
X420165Y198511
X416854Y201500
X423941Y205043
X420398Y213705
X416823Y213504
X430634Y214098
X431028Y196382
X463311Y198744
X420791Y231815
X418245Y236724
X424335Y243232
X431028Y233783
X412130Y246382
X404256Y246382
X400319Y246776
X395988Y255043
X395988Y260161
X410161Y268823
X420791Y259768
X420732Y255562
X438508Y254775
X401894Y293232
X399406Y300713
X352287Y263705
X360161Y253075
X361343Y247713
X366067Y247713
X370004Y239689
X373954Y239702
X371185Y226303
X317457Y255253
X314098Y249138
X307012Y252287
X300713Y252681
X301894Y238902
X308193Y240083
X328272Y368035
X310161Y377091
X293626Y370791
X287720Y380240
T03
X304650Y390083
X334965Y390083
X373941Y356618
X371185Y274728
X344807Y251894
X344020Y240942
X387327Y250319
X385752Y221579
X377484Y201894
X325122Y194807
X277878Y167642
X267642Y164886
X251894Y163705
X251894Y153862
X240083Y153862
X238114Y164886
X209768Y164886
X200713Y169610
X190870Y157799
X190870Y138114
X190870Y118429
X190870Y96776
X190870Y73154
X190870Y47563
X190870Y37720
X190870Y27878
X190870Y18035
X202681Y18035
X214492Y18035
X226303Y18035
X238114Y18035
X240083Y27878
X240083Y35752
X247957Y41657
X259768Y41657
X267642Y39689
X265673Y47563
X259768Y53469
X253862Y59374
X247957Y65280
X242051Y71185
X255831Y73154
X261736Y67248
X267642Y61343
X273547Y55437
X285358Y55437
X279453Y47563
X279453Y41657
X295201Y45594
X297169Y33783
X279453Y23941
X277484Y18035
X267642Y18035
X267642Y27878
X287327Y18035
X297169Y18035
X277484Y63311
X251894Y82996
X240083Y82996
X240083Y94807
X251894Y94807
X251894Y106618
X240083Y106618
X240083Y118429
X251894Y118429
X251894Y130240
X240083Y130240
X240083Y142051
X251894Y142051
X249925Y189295
X230240Y189295
X214492Y189295
X202681Y189295
X238902Y253075
X244020Y252681
X264492Y252287
X221185Y261343
X385752Y163311
X395988Y163311
X438114Y206618
X438381Y223815
X438508Y244413
X612917Y322760
X160949Y389197
X160949Y395299
X160949Y402406
X160949Y407524
X118429Y407524
X118429Y402406
X118429Y395299
X118429Y389197
T04
X85358Y224748
X85358Y215102
T05
X108193Y183746
X108193Y173746
X71264Y179157
X61264Y179157
X265673Y183746
X265673Y173746
X423154Y173746
X423154Y183746
X580634Y183746
X580634Y173746
X580634Y370596
X580634Y380596
X423154Y380596
X423154Y370596
X265673Y370596
X265673Y380596
X108193Y380596
X108193Y370596
T06
X48154Y235358
X48154Y182602
X340083Y350713
T07
X285291Y348451
X276811Y343152
X276811Y271659
X285291Y266360
X324795Y266360
X333276Y271659
X434291Y271659
X442771Y266360
X482276Y266360
X490756Y271659
X591771Y271659
X600252Y266360
X639756Y266360
X648237Y271659
X591771Y343152
X600252Y348451
X442771Y348451
X434291Y343152
X175796Y271659
X167315Y266360
X127811Y266360
X119330Y271659
X119330Y343152
X127811Y348451
X127811Y151601
X119330Y146301
X119330Y74809
X127811Y69510
X167315Y69510
X175796Y74809
X276811Y74809
X285291Y69510
X324795Y69510
X333276Y74809
X434291Y74809
X442771Y69510
X482276Y69510
X490756Y74809
X591771Y74809
X600252Y69510
X639756Y69510
X648237Y74809
X591771Y146301
X600252Y151601
X442771Y151601
X434291Y146301
X285291Y151601
X276811Y146301
T08
X86933Y204079
T09
X68823Y31815
X68823Y110555
X72760Y158488
X226303Y110555
X226303Y31815
X383783Y31815
X383783Y110555
X541264Y110555
X541264Y31815
X698744Y31815
X698744Y110555
X698744Y307406
X698744Y386146
X541264Y386146
X541264Y307406
X383783Y307406
X383783Y386146
X226303Y386146
X226303Y307406
X68823Y307406
X72760Y259472
X68823Y386146
M30
