G75*
%MOIN*%
%OFA0B0*%
%FSLAX25Y25*%
%IPPOS*%
%LPD*%
%AMOC8*
5,1,8,0,0,1.08239X$1,22.5*
%
%ADD10C,0.00300*%
%ADD11C,0.00004*%
%ADD12C,0.00000*%
D10*
X0480791Y0183933D02*
X0482024Y0183933D01*
X0482024Y0183934D02*
X0482080Y0183936D01*
X0482136Y0183942D01*
X0482191Y0183951D01*
X0482246Y0183964D01*
X0482299Y0183981D01*
X0482351Y0184002D01*
X0482402Y0184026D01*
X0482451Y0184054D01*
X0482498Y0184084D01*
X0482543Y0184118D01*
X0482585Y0184155D01*
X0482625Y0184195D01*
X0482662Y0184237D01*
X0482696Y0184282D01*
X0482726Y0184329D01*
X0482754Y0184378D01*
X0482778Y0184429D01*
X0482799Y0184481D01*
X0482816Y0184534D01*
X0482829Y0184589D01*
X0482838Y0184644D01*
X0482844Y0184700D01*
X0482846Y0184756D01*
X0482846Y0186811D01*
X0482844Y0186867D01*
X0482838Y0186923D01*
X0482829Y0186978D01*
X0482816Y0187033D01*
X0482799Y0187086D01*
X0482778Y0187138D01*
X0482754Y0187189D01*
X0482726Y0187238D01*
X0482696Y0187285D01*
X0482662Y0187330D01*
X0482625Y0187372D01*
X0482585Y0187412D01*
X0482543Y0187449D01*
X0482498Y0187483D01*
X0482451Y0187513D01*
X0482402Y0187541D01*
X0482351Y0187565D01*
X0482299Y0187586D01*
X0482246Y0187603D01*
X0482191Y0187616D01*
X0482136Y0187625D01*
X0482080Y0187631D01*
X0482024Y0187633D01*
X0480791Y0187633D01*
X0480791Y0185989D02*
X0480791Y0183933D01*
X0480791Y0185989D02*
X0481407Y0185989D01*
X0481202Y0193776D02*
X0482024Y0193776D01*
X0482080Y0193778D01*
X0482136Y0193784D01*
X0482191Y0193793D01*
X0482246Y0193806D01*
X0482299Y0193823D01*
X0482351Y0193844D01*
X0482402Y0193868D01*
X0482451Y0193896D01*
X0482498Y0193926D01*
X0482543Y0193960D01*
X0482585Y0193997D01*
X0482625Y0194037D01*
X0482662Y0194079D01*
X0482696Y0194124D01*
X0482726Y0194171D01*
X0482754Y0194220D01*
X0482778Y0194271D01*
X0482799Y0194323D01*
X0482816Y0194376D01*
X0482829Y0194431D01*
X0482838Y0194486D01*
X0482844Y0194542D01*
X0482846Y0194598D01*
X0482846Y0196654D01*
X0482844Y0196710D01*
X0482838Y0196766D01*
X0482829Y0196821D01*
X0482816Y0196876D01*
X0482799Y0196929D01*
X0482778Y0196981D01*
X0482754Y0197032D01*
X0482726Y0197081D01*
X0482696Y0197128D01*
X0482662Y0197173D01*
X0482625Y0197215D01*
X0482585Y0197255D01*
X0482543Y0197292D01*
X0482498Y0197326D01*
X0482451Y0197356D01*
X0482402Y0197384D01*
X0482351Y0197408D01*
X0482299Y0197429D01*
X0482246Y0197446D01*
X0482191Y0197459D01*
X0482136Y0197468D01*
X0482080Y0197474D01*
X0482024Y0197476D01*
X0481202Y0197476D01*
X0481818Y0204012D02*
X0482846Y0204012D01*
X0482846Y0207712D01*
X0481818Y0207712D01*
X0481756Y0207710D01*
X0481694Y0207705D01*
X0481633Y0207695D01*
X0481572Y0207682D01*
X0481512Y0207665D01*
X0481453Y0207645D01*
X0481396Y0207621D01*
X0481340Y0207594D01*
X0481286Y0207564D01*
X0481234Y0207530D01*
X0481184Y0207493D01*
X0481136Y0207453D01*
X0481091Y0207411D01*
X0481049Y0207366D01*
X0481009Y0207318D01*
X0480972Y0207268D01*
X0480938Y0207216D01*
X0480908Y0207162D01*
X0480881Y0207106D01*
X0480857Y0207049D01*
X0480837Y0206990D01*
X0480820Y0206930D01*
X0480807Y0206869D01*
X0480797Y0206808D01*
X0480792Y0206746D01*
X0480790Y0206684D01*
X0480791Y0206684D02*
X0480791Y0205040D01*
X0480790Y0205040D02*
X0480792Y0204978D01*
X0480797Y0204916D01*
X0480807Y0204855D01*
X0480820Y0204794D01*
X0480837Y0204734D01*
X0480857Y0204675D01*
X0480881Y0204618D01*
X0480908Y0204562D01*
X0480938Y0204508D01*
X0480972Y0204456D01*
X0481009Y0204406D01*
X0481049Y0204358D01*
X0481091Y0204313D01*
X0481136Y0204271D01*
X0481184Y0204231D01*
X0481234Y0204194D01*
X0481286Y0204160D01*
X0481340Y0204130D01*
X0481396Y0204103D01*
X0481453Y0204079D01*
X0481512Y0204059D01*
X0481572Y0204042D01*
X0481633Y0204029D01*
X0481694Y0204019D01*
X0481756Y0204014D01*
X0481818Y0204012D01*
X0383240Y0286133D02*
X0381145Y0286133D01*
X0381090Y0286135D01*
X0381035Y0286141D01*
X0380981Y0286150D01*
X0380928Y0286163D01*
X0380875Y0286180D01*
X0380824Y0286200D01*
X0380774Y0286223D01*
X0380726Y0286250D01*
X0380680Y0286281D01*
X0380636Y0286314D01*
X0380595Y0286350D01*
X0380556Y0286389D01*
X0380520Y0286430D01*
X0380487Y0286474D01*
X0380456Y0286520D01*
X0380429Y0286568D01*
X0380406Y0286618D01*
X0380386Y0286669D01*
X0380369Y0286722D01*
X0380356Y0286775D01*
X0380347Y0286829D01*
X0380341Y0286884D01*
X0380339Y0286939D01*
X0380341Y0286994D01*
X0380347Y0287049D01*
X0380356Y0287103D01*
X0380369Y0287156D01*
X0380386Y0287209D01*
X0380406Y0287260D01*
X0380429Y0287310D01*
X0380456Y0287358D01*
X0380487Y0287404D01*
X0380520Y0287448D01*
X0380556Y0287489D01*
X0380595Y0287528D01*
X0380636Y0287564D01*
X0380680Y0287597D01*
X0380726Y0287628D01*
X0380774Y0287655D01*
X0380824Y0287678D01*
X0380875Y0287698D01*
X0380928Y0287715D01*
X0380981Y0287728D01*
X0381035Y0287737D01*
X0381090Y0287743D01*
X0381145Y0287745D01*
X0381145Y0287744D02*
X0383240Y0287744D01*
X0383240Y0289109D02*
X0383240Y0290720D01*
X0381951Y0290076D02*
X0381951Y0289109D01*
X0383240Y0289109D01*
X0381950Y0290076D02*
X0381948Y0290124D01*
X0381943Y0290172D01*
X0381934Y0290219D01*
X0381921Y0290266D01*
X0381905Y0290311D01*
X0381886Y0290355D01*
X0381864Y0290398D01*
X0381838Y0290439D01*
X0381809Y0290478D01*
X0381778Y0290514D01*
X0381744Y0290548D01*
X0381708Y0290579D01*
X0381669Y0290608D01*
X0381628Y0290634D01*
X0381585Y0290656D01*
X0381541Y0290675D01*
X0381496Y0290691D01*
X0381449Y0290704D01*
X0381402Y0290713D01*
X0381354Y0290718D01*
X0381306Y0290720D01*
X0380984Y0290720D01*
X0380933Y0290718D01*
X0380883Y0290712D01*
X0380834Y0290702D01*
X0380785Y0290688D01*
X0380738Y0290671D01*
X0380692Y0290650D01*
X0380648Y0290625D01*
X0380605Y0290597D01*
X0380566Y0290566D01*
X0380529Y0290531D01*
X0380494Y0290494D01*
X0380463Y0290455D01*
X0380435Y0290412D01*
X0380410Y0290368D01*
X0380389Y0290322D01*
X0380372Y0290275D01*
X0380358Y0290226D01*
X0380348Y0290177D01*
X0380342Y0290127D01*
X0380340Y0290076D01*
X0380340Y0289109D01*
D11*
X0049138Y0149467D02*
X0049138Y0031815D01*
X0049144Y0031339D01*
X0049161Y0030864D01*
X0049190Y0030389D01*
X0049230Y0029915D01*
X0049282Y0029442D01*
X0049345Y0028971D01*
X0049419Y0028501D01*
X0049505Y0028033D01*
X0049602Y0027567D01*
X0049710Y0027104D01*
X0049829Y0026644D01*
X0049960Y0026186D01*
X0050101Y0025732D01*
X0050254Y0025281D01*
X0050417Y0024835D01*
X0050591Y0024392D01*
X0050776Y0023954D01*
X0050971Y0023520D01*
X0051177Y0023091D01*
X0051393Y0022667D01*
X0051619Y0022248D01*
X0051855Y0021835D01*
X0052101Y0021428D01*
X0052357Y0021027D01*
X0052623Y0020633D01*
X0052898Y0020244D01*
X0053182Y0019863D01*
X0053475Y0019489D01*
X0053777Y0019121D01*
X0054089Y0018761D01*
X0054408Y0018409D01*
X0054736Y0018065D01*
X0055073Y0017728D01*
X0055417Y0017400D01*
X0055769Y0017081D01*
X0056129Y0016769D01*
X0056497Y0016467D01*
X0056871Y0016174D01*
X0057252Y0015890D01*
X0057641Y0015615D01*
X0058035Y0015349D01*
X0058436Y0015093D01*
X0058843Y0014847D01*
X0059256Y0014611D01*
X0059675Y0014385D01*
X0060099Y0014169D01*
X0060528Y0013963D01*
X0060962Y0013768D01*
X0061400Y0013583D01*
X0061843Y0013409D01*
X0062289Y0013246D01*
X0062740Y0013093D01*
X0063194Y0012952D01*
X0063652Y0012821D01*
X0064112Y0012702D01*
X0064575Y0012594D01*
X0065041Y0012497D01*
X0065509Y0012411D01*
X0065979Y0012337D01*
X0066450Y0012274D01*
X0066923Y0012222D01*
X0067397Y0012182D01*
X0067872Y0012153D01*
X0068347Y0012136D01*
X0068823Y0012130D01*
X0698744Y0012130D01*
X0699220Y0012136D01*
X0699695Y0012153D01*
X0700170Y0012182D01*
X0700644Y0012222D01*
X0701117Y0012274D01*
X0701588Y0012337D01*
X0702058Y0012411D01*
X0702526Y0012497D01*
X0702992Y0012594D01*
X0703455Y0012702D01*
X0703915Y0012821D01*
X0704373Y0012952D01*
X0704827Y0013093D01*
X0705278Y0013246D01*
X0705724Y0013409D01*
X0706167Y0013583D01*
X0706605Y0013768D01*
X0707039Y0013963D01*
X0707468Y0014169D01*
X0707892Y0014385D01*
X0708311Y0014611D01*
X0708724Y0014847D01*
X0709131Y0015093D01*
X0709532Y0015349D01*
X0709926Y0015615D01*
X0710315Y0015890D01*
X0710696Y0016174D01*
X0711070Y0016467D01*
X0711438Y0016769D01*
X0711798Y0017081D01*
X0712150Y0017400D01*
X0712494Y0017728D01*
X0712831Y0018065D01*
X0713159Y0018409D01*
X0713478Y0018761D01*
X0713790Y0019121D01*
X0714092Y0019489D01*
X0714385Y0019863D01*
X0714669Y0020244D01*
X0714944Y0020633D01*
X0715210Y0021027D01*
X0715466Y0021428D01*
X0715712Y0021835D01*
X0715948Y0022248D01*
X0716174Y0022667D01*
X0716390Y0023091D01*
X0716596Y0023520D01*
X0716791Y0023954D01*
X0716976Y0024392D01*
X0717150Y0024835D01*
X0717313Y0025281D01*
X0717466Y0025732D01*
X0717607Y0026186D01*
X0717738Y0026644D01*
X0717857Y0027104D01*
X0717965Y0027567D01*
X0718062Y0028033D01*
X0718148Y0028501D01*
X0718222Y0028971D01*
X0718285Y0029442D01*
X0718337Y0029915D01*
X0718377Y0030389D01*
X0718406Y0030864D01*
X0718423Y0031339D01*
X0718429Y0031815D01*
X0718429Y0386146D01*
X0718423Y0386622D01*
X0718406Y0387097D01*
X0718377Y0387572D01*
X0718337Y0388046D01*
X0718285Y0388519D01*
X0718222Y0388990D01*
X0718148Y0389460D01*
X0718062Y0389928D01*
X0717965Y0390394D01*
X0717857Y0390857D01*
X0717738Y0391317D01*
X0717607Y0391775D01*
X0717466Y0392229D01*
X0717313Y0392680D01*
X0717150Y0393126D01*
X0716976Y0393569D01*
X0716791Y0394007D01*
X0716596Y0394441D01*
X0716390Y0394870D01*
X0716174Y0395294D01*
X0715948Y0395713D01*
X0715712Y0396126D01*
X0715466Y0396533D01*
X0715210Y0396934D01*
X0714944Y0397328D01*
X0714669Y0397717D01*
X0714385Y0398098D01*
X0714092Y0398472D01*
X0713790Y0398840D01*
X0713478Y0399200D01*
X0713159Y0399552D01*
X0712831Y0399896D01*
X0712494Y0400233D01*
X0712150Y0400561D01*
X0711798Y0400880D01*
X0711438Y0401192D01*
X0711070Y0401494D01*
X0710696Y0401787D01*
X0710315Y0402071D01*
X0709926Y0402346D01*
X0709532Y0402612D01*
X0709131Y0402868D01*
X0708724Y0403114D01*
X0708311Y0403350D01*
X0707892Y0403576D01*
X0707468Y0403792D01*
X0707039Y0403998D01*
X0706605Y0404193D01*
X0706167Y0404378D01*
X0705724Y0404552D01*
X0705278Y0404715D01*
X0704827Y0404868D01*
X0704373Y0405009D01*
X0703915Y0405140D01*
X0703455Y0405259D01*
X0702992Y0405367D01*
X0702526Y0405464D01*
X0702058Y0405550D01*
X0701588Y0405624D01*
X0701117Y0405687D01*
X0700644Y0405739D01*
X0700170Y0405779D01*
X0699695Y0405808D01*
X0699220Y0405825D01*
X0698744Y0405831D01*
X0186111Y0405831D01*
X0185988Y0405829D01*
X0185864Y0405823D01*
X0185741Y0405814D01*
X0185619Y0405800D01*
X0185497Y0405783D01*
X0185375Y0405762D01*
X0185254Y0405737D01*
X0185134Y0405708D01*
X0185015Y0405676D01*
X0184898Y0405639D01*
X0184781Y0405599D01*
X0184665Y0405556D01*
X0184551Y0405509D01*
X0184439Y0405458D01*
X0184328Y0405404D01*
X0184219Y0405347D01*
X0184112Y0405286D01*
X0184006Y0405221D01*
X0183903Y0405154D01*
X0183802Y0405083D01*
X0183703Y0405009D01*
X0183607Y0404932D01*
X0183513Y0404852D01*
X0183422Y0404769D01*
X0183333Y0404684D01*
X0183247Y0404595D01*
X0183164Y0404504D01*
X0183083Y0404411D01*
X0183006Y0404315D01*
X0182932Y0404216D01*
X0182861Y0404115D01*
X0182793Y0404013D01*
X0182728Y0403908D01*
X0182666Y0403801D01*
X0182608Y0403692D01*
X0182554Y0403581D01*
X0182503Y0403469D01*
X0182504Y0403469D02*
X0182441Y0403330D01*
X0182375Y0403193D01*
X0182305Y0403058D01*
X0182232Y0402924D01*
X0182156Y0402793D01*
X0182076Y0402664D01*
X0181993Y0402536D01*
X0181906Y0402411D01*
X0181816Y0402288D01*
X0181724Y0402168D01*
X0181628Y0402050D01*
X0181529Y0401934D01*
X0181427Y0401821D01*
X0181322Y0401711D01*
X0181215Y0401603D01*
X0181105Y0401498D01*
X0180992Y0401396D01*
X0180876Y0401297D01*
X0180758Y0401201D01*
X0180638Y0401109D01*
X0180515Y0401019D01*
X0180390Y0400932D01*
X0180263Y0400849D01*
X0180133Y0400769D01*
X0180002Y0400692D01*
X0179869Y0400619D01*
X0179733Y0400549D01*
X0179597Y0400483D01*
X0179458Y0400420D01*
X0179318Y0400361D01*
X0179176Y0400305D01*
X0179033Y0400254D01*
X0178889Y0400205D01*
X0178744Y0400161D01*
X0178597Y0400120D01*
X0178449Y0400083D01*
X0178301Y0400050D01*
X0178152Y0400021D01*
X0178002Y0399996D01*
X0177851Y0399974D01*
X0177700Y0399956D01*
X0177549Y0399943D01*
X0177397Y0399933D01*
X0177245Y0399927D01*
X0177093Y0399925D01*
X0176941Y0399927D01*
X0176789Y0399933D01*
X0176637Y0399942D01*
X0176485Y0399956D01*
X0176334Y0399974D01*
X0176184Y0399995D01*
X0176034Y0400020D01*
X0175884Y0400050D01*
X0175736Y0400083D01*
X0175588Y0400119D01*
X0175442Y0400160D01*
X0175296Y0400204D01*
X0175152Y0400252D01*
X0175009Y0400304D01*
X0174867Y0400360D01*
X0174727Y0400419D01*
X0174588Y0400481D01*
X0174452Y0400548D01*
X0174316Y0400617D01*
X0174183Y0400691D01*
X0174052Y0400767D01*
X0173922Y0400847D01*
X0173795Y0400930D01*
X0173670Y0401017D01*
X0173547Y0401107D01*
X0173426Y0401199D01*
X0173308Y0401295D01*
X0173193Y0401394D01*
X0173080Y0401496D01*
X0172970Y0401601D01*
X0172862Y0401708D01*
X0172757Y0401819D01*
X0172655Y0401932D01*
X0172556Y0402047D01*
X0172460Y0402165D01*
X0172368Y0402286D01*
X0172278Y0402408D01*
X0172191Y0402533D01*
X0172108Y0402661D01*
X0172028Y0402790D01*
X0171951Y0402921D01*
X0171878Y0403055D01*
X0171808Y0403190D01*
X0171742Y0403327D01*
X0171679Y0403465D01*
X0171620Y0403606D01*
X0171565Y0403747D01*
X0171513Y0403890D01*
X0171465Y0404035D01*
X0171420Y0404180D01*
X0171380Y0404327D01*
X0171343Y0404474D01*
X0171310Y0404623D01*
X0171281Y0404772D01*
X0171255Y0404922D01*
X0171234Y0405072D01*
X0171216Y0405224D01*
X0171203Y0405375D01*
X0171193Y0405527D01*
X0171187Y0405679D01*
X0171185Y0405831D01*
X0171185Y0411343D01*
X0171183Y0411467D01*
X0171177Y0411590D01*
X0171168Y0411714D01*
X0171154Y0411836D01*
X0171137Y0411959D01*
X0171115Y0412081D01*
X0171090Y0412202D01*
X0171061Y0412322D01*
X0171029Y0412441D01*
X0170992Y0412560D01*
X0170952Y0412677D01*
X0170909Y0412792D01*
X0170861Y0412907D01*
X0170810Y0413019D01*
X0170756Y0413130D01*
X0170698Y0413240D01*
X0170637Y0413347D01*
X0170572Y0413453D01*
X0170504Y0413556D01*
X0170433Y0413657D01*
X0170359Y0413756D01*
X0170282Y0413853D01*
X0170201Y0413947D01*
X0170118Y0414038D01*
X0170032Y0414127D01*
X0169943Y0414213D01*
X0169852Y0414296D01*
X0169758Y0414377D01*
X0169661Y0414454D01*
X0169562Y0414528D01*
X0169461Y0414599D01*
X0169358Y0414667D01*
X0169252Y0414732D01*
X0169145Y0414793D01*
X0169035Y0414851D01*
X0168924Y0414905D01*
X0168812Y0414956D01*
X0168697Y0415004D01*
X0168582Y0415047D01*
X0168465Y0415087D01*
X0168346Y0415124D01*
X0168227Y0415156D01*
X0168107Y0415185D01*
X0167986Y0415210D01*
X0167864Y0415232D01*
X0167741Y0415249D01*
X0167619Y0415263D01*
X0167495Y0415272D01*
X0167372Y0415278D01*
X0167248Y0415280D01*
X0158094Y0415280D01*
X0121283Y0415280D02*
X0112130Y0415280D01*
X0112006Y0415278D01*
X0111883Y0415272D01*
X0111759Y0415263D01*
X0111637Y0415249D01*
X0111514Y0415232D01*
X0111392Y0415210D01*
X0111271Y0415185D01*
X0111151Y0415156D01*
X0111032Y0415124D01*
X0110913Y0415087D01*
X0110796Y0415047D01*
X0110681Y0415004D01*
X0110566Y0414956D01*
X0110454Y0414905D01*
X0110343Y0414851D01*
X0110233Y0414793D01*
X0110126Y0414732D01*
X0110020Y0414667D01*
X0109917Y0414599D01*
X0109816Y0414528D01*
X0109717Y0414454D01*
X0109620Y0414377D01*
X0109526Y0414296D01*
X0109435Y0414213D01*
X0109346Y0414127D01*
X0109260Y0414038D01*
X0109177Y0413947D01*
X0109096Y0413853D01*
X0109019Y0413756D01*
X0108945Y0413657D01*
X0108874Y0413556D01*
X0108806Y0413453D01*
X0108741Y0413347D01*
X0108680Y0413240D01*
X0108622Y0413130D01*
X0108568Y0413019D01*
X0108517Y0412907D01*
X0108469Y0412792D01*
X0108426Y0412677D01*
X0108386Y0412560D01*
X0108349Y0412441D01*
X0108317Y0412322D01*
X0108288Y0412202D01*
X0108263Y0412081D01*
X0108241Y0411959D01*
X0108224Y0411836D01*
X0108210Y0411714D01*
X0108201Y0411590D01*
X0108195Y0411467D01*
X0108193Y0411343D01*
X0108193Y0405831D01*
X0108191Y0405679D01*
X0108185Y0405527D01*
X0108175Y0405375D01*
X0108162Y0405224D01*
X0108144Y0405072D01*
X0108123Y0404922D01*
X0108097Y0404772D01*
X0108068Y0404623D01*
X0108035Y0404474D01*
X0107998Y0404327D01*
X0107958Y0404180D01*
X0107913Y0404035D01*
X0107865Y0403890D01*
X0107813Y0403747D01*
X0107758Y0403606D01*
X0107699Y0403465D01*
X0107636Y0403327D01*
X0107570Y0403190D01*
X0107500Y0403055D01*
X0107427Y0402921D01*
X0107350Y0402790D01*
X0107270Y0402661D01*
X0107187Y0402533D01*
X0107100Y0402408D01*
X0107010Y0402286D01*
X0106918Y0402165D01*
X0106822Y0402047D01*
X0106723Y0401932D01*
X0106621Y0401819D01*
X0106516Y0401708D01*
X0106408Y0401601D01*
X0106298Y0401496D01*
X0106185Y0401394D01*
X0106070Y0401295D01*
X0105952Y0401199D01*
X0105831Y0401107D01*
X0105708Y0401017D01*
X0105583Y0400930D01*
X0105456Y0400847D01*
X0105326Y0400767D01*
X0105195Y0400691D01*
X0105062Y0400617D01*
X0104926Y0400548D01*
X0104790Y0400481D01*
X0104651Y0400419D01*
X0104511Y0400360D01*
X0104369Y0400304D01*
X0104226Y0400252D01*
X0104082Y0400204D01*
X0103936Y0400160D01*
X0103790Y0400119D01*
X0103642Y0400083D01*
X0103494Y0400050D01*
X0103344Y0400020D01*
X0103194Y0399995D01*
X0103044Y0399974D01*
X0102893Y0399956D01*
X0102741Y0399942D01*
X0102589Y0399933D01*
X0102437Y0399927D01*
X0102285Y0399925D01*
X0102133Y0399927D01*
X0101981Y0399933D01*
X0101829Y0399943D01*
X0101678Y0399956D01*
X0101527Y0399974D01*
X0101376Y0399996D01*
X0101226Y0400021D01*
X0101077Y0400050D01*
X0100929Y0400083D01*
X0100781Y0400120D01*
X0100634Y0400161D01*
X0100489Y0400205D01*
X0100345Y0400254D01*
X0100202Y0400305D01*
X0100060Y0400361D01*
X0099920Y0400420D01*
X0099781Y0400483D01*
X0099645Y0400549D01*
X0099509Y0400619D01*
X0099376Y0400692D01*
X0099245Y0400769D01*
X0099115Y0400849D01*
X0098988Y0400932D01*
X0098863Y0401019D01*
X0098740Y0401109D01*
X0098620Y0401201D01*
X0098502Y0401297D01*
X0098386Y0401396D01*
X0098273Y0401498D01*
X0098163Y0401603D01*
X0098056Y0401711D01*
X0097951Y0401821D01*
X0097849Y0401934D01*
X0097750Y0402050D01*
X0097654Y0402168D01*
X0097562Y0402288D01*
X0097472Y0402411D01*
X0097385Y0402536D01*
X0097302Y0402664D01*
X0097222Y0402793D01*
X0097146Y0402924D01*
X0097073Y0403058D01*
X0097003Y0403193D01*
X0096937Y0403330D01*
X0096874Y0403469D01*
X0096875Y0403469D02*
X0096824Y0403581D01*
X0096770Y0403692D01*
X0096712Y0403801D01*
X0096650Y0403908D01*
X0096585Y0404013D01*
X0096517Y0404115D01*
X0096446Y0404216D01*
X0096372Y0404315D01*
X0096295Y0404411D01*
X0096214Y0404504D01*
X0096131Y0404595D01*
X0096045Y0404684D01*
X0095956Y0404769D01*
X0095865Y0404852D01*
X0095771Y0404932D01*
X0095675Y0405009D01*
X0095576Y0405083D01*
X0095475Y0405154D01*
X0095372Y0405221D01*
X0095266Y0405286D01*
X0095159Y0405347D01*
X0095050Y0405404D01*
X0094939Y0405458D01*
X0094827Y0405509D01*
X0094713Y0405556D01*
X0094597Y0405599D01*
X0094480Y0405639D01*
X0094363Y0405676D01*
X0094244Y0405708D01*
X0094124Y0405737D01*
X0094003Y0405762D01*
X0093881Y0405783D01*
X0093759Y0405800D01*
X0093637Y0405814D01*
X0093514Y0405823D01*
X0093390Y0405829D01*
X0093267Y0405831D01*
X0068823Y0405831D01*
X0068347Y0405825D01*
X0067872Y0405808D01*
X0067397Y0405779D01*
X0066923Y0405739D01*
X0066450Y0405687D01*
X0065979Y0405624D01*
X0065509Y0405550D01*
X0065041Y0405464D01*
X0064575Y0405367D01*
X0064112Y0405259D01*
X0063652Y0405140D01*
X0063194Y0405009D01*
X0062740Y0404868D01*
X0062289Y0404715D01*
X0061843Y0404552D01*
X0061400Y0404378D01*
X0060962Y0404193D01*
X0060528Y0403998D01*
X0060099Y0403792D01*
X0059675Y0403576D01*
X0059256Y0403350D01*
X0058843Y0403114D01*
X0058436Y0402868D01*
X0058035Y0402612D01*
X0057641Y0402346D01*
X0057252Y0402071D01*
X0056871Y0401787D01*
X0056497Y0401494D01*
X0056129Y0401192D01*
X0055769Y0400880D01*
X0055417Y0400561D01*
X0055073Y0400233D01*
X0054736Y0399896D01*
X0054408Y0399552D01*
X0054089Y0399200D01*
X0053777Y0398840D01*
X0053475Y0398472D01*
X0053182Y0398098D01*
X0052898Y0397717D01*
X0052623Y0397328D01*
X0052357Y0396934D01*
X0052101Y0396533D01*
X0051855Y0396126D01*
X0051619Y0395713D01*
X0051393Y0395294D01*
X0051177Y0394870D01*
X0050971Y0394441D01*
X0050776Y0394007D01*
X0050591Y0393569D01*
X0050417Y0393126D01*
X0050254Y0392680D01*
X0050101Y0392229D01*
X0049960Y0391775D01*
X0049829Y0391317D01*
X0049710Y0390857D01*
X0049602Y0390394D01*
X0049505Y0389928D01*
X0049419Y0389460D01*
X0049345Y0388990D01*
X0049282Y0388519D01*
X0049230Y0388046D01*
X0049190Y0387572D01*
X0049161Y0387097D01*
X0049144Y0386622D01*
X0049138Y0386146D01*
X0049138Y0268493D01*
X0049140Y0268370D01*
X0049146Y0268246D01*
X0049155Y0268123D01*
X0049169Y0268001D01*
X0049186Y0267879D01*
X0049207Y0267757D01*
X0049232Y0267636D01*
X0049261Y0267516D01*
X0049293Y0267397D01*
X0049330Y0267280D01*
X0049370Y0267163D01*
X0049413Y0267047D01*
X0049460Y0266933D01*
X0049511Y0266821D01*
X0049565Y0266710D01*
X0049622Y0266601D01*
X0049683Y0266494D01*
X0049748Y0266388D01*
X0049815Y0266285D01*
X0049886Y0266184D01*
X0049960Y0266085D01*
X0050037Y0265989D01*
X0050117Y0265895D01*
X0050200Y0265804D01*
X0050285Y0265715D01*
X0050374Y0265629D01*
X0050465Y0265546D01*
X0050558Y0265465D01*
X0050654Y0265388D01*
X0050753Y0265314D01*
X0050854Y0265243D01*
X0050956Y0265175D01*
X0051061Y0265110D01*
X0051168Y0265048D01*
X0051277Y0264990D01*
X0051388Y0264936D01*
X0051500Y0264885D01*
X0051639Y0264822D01*
X0051776Y0264756D01*
X0051911Y0264686D01*
X0052045Y0264613D01*
X0052176Y0264537D01*
X0052305Y0264457D01*
X0052433Y0264374D01*
X0052558Y0264287D01*
X0052681Y0264197D01*
X0052801Y0264105D01*
X0052919Y0264009D01*
X0053035Y0263910D01*
X0053148Y0263808D01*
X0053258Y0263703D01*
X0053366Y0263596D01*
X0053471Y0263486D01*
X0053573Y0263373D01*
X0053672Y0263257D01*
X0053768Y0263139D01*
X0053860Y0263019D01*
X0053950Y0262896D01*
X0054037Y0262771D01*
X0054120Y0262644D01*
X0054200Y0262514D01*
X0054277Y0262383D01*
X0054350Y0262250D01*
X0054420Y0262114D01*
X0054486Y0261978D01*
X0054549Y0261839D01*
X0054608Y0261699D01*
X0054664Y0261557D01*
X0054715Y0261414D01*
X0054764Y0261270D01*
X0054808Y0261125D01*
X0054849Y0260978D01*
X0054886Y0260830D01*
X0054919Y0260682D01*
X0054948Y0260533D01*
X0054973Y0260383D01*
X0054995Y0260232D01*
X0055013Y0260081D01*
X0055026Y0259930D01*
X0055036Y0259778D01*
X0055042Y0259626D01*
X0055044Y0259474D01*
X0055042Y0259322D01*
X0055036Y0259170D01*
X0055027Y0259018D01*
X0055013Y0258866D01*
X0054995Y0258715D01*
X0054974Y0258565D01*
X0054949Y0258415D01*
X0054919Y0258265D01*
X0054886Y0258117D01*
X0054850Y0257969D01*
X0054809Y0257823D01*
X0054765Y0257677D01*
X0054717Y0257533D01*
X0054665Y0257390D01*
X0054609Y0257248D01*
X0054550Y0257108D01*
X0054488Y0256969D01*
X0054421Y0256833D01*
X0054352Y0256697D01*
X0054278Y0256564D01*
X0054202Y0256433D01*
X0054122Y0256303D01*
X0054039Y0256176D01*
X0053952Y0256051D01*
X0053862Y0255928D01*
X0053770Y0255807D01*
X0053674Y0255689D01*
X0053575Y0255574D01*
X0053473Y0255461D01*
X0053368Y0255351D01*
X0053261Y0255243D01*
X0053150Y0255138D01*
X0053037Y0255036D01*
X0052922Y0254937D01*
X0052804Y0254841D01*
X0052683Y0254749D01*
X0052561Y0254659D01*
X0052436Y0254572D01*
X0052308Y0254489D01*
X0052179Y0254409D01*
X0052048Y0254332D01*
X0051914Y0254259D01*
X0051779Y0254189D01*
X0051642Y0254123D01*
X0051504Y0254060D01*
X0051363Y0254001D01*
X0051222Y0253946D01*
X0051079Y0253894D01*
X0050934Y0253846D01*
X0050789Y0253801D01*
X0050642Y0253761D01*
X0050495Y0253724D01*
X0050346Y0253691D01*
X0050197Y0253662D01*
X0050047Y0253636D01*
X0049897Y0253615D01*
X0049745Y0253597D01*
X0049594Y0253584D01*
X0049442Y0253574D01*
X0049290Y0253568D01*
X0049138Y0253566D01*
X0049138Y0253567D02*
X0042642Y0253567D01*
X0042518Y0253565D01*
X0042395Y0253559D01*
X0042271Y0253550D01*
X0042149Y0253536D01*
X0042026Y0253519D01*
X0041904Y0253497D01*
X0041783Y0253472D01*
X0041663Y0253443D01*
X0041544Y0253411D01*
X0041425Y0253374D01*
X0041308Y0253334D01*
X0041193Y0253291D01*
X0041078Y0253243D01*
X0040966Y0253192D01*
X0040855Y0253138D01*
X0040745Y0253080D01*
X0040638Y0253019D01*
X0040532Y0252954D01*
X0040429Y0252886D01*
X0040328Y0252815D01*
X0040229Y0252741D01*
X0040132Y0252664D01*
X0040038Y0252583D01*
X0039947Y0252500D01*
X0039858Y0252414D01*
X0039772Y0252325D01*
X0039689Y0252234D01*
X0039608Y0252140D01*
X0039531Y0252043D01*
X0039457Y0251944D01*
X0039386Y0251843D01*
X0039318Y0251740D01*
X0039253Y0251634D01*
X0039192Y0251527D01*
X0039134Y0251417D01*
X0039080Y0251306D01*
X0039029Y0251194D01*
X0038981Y0251079D01*
X0038938Y0250964D01*
X0038898Y0250847D01*
X0038861Y0250728D01*
X0038829Y0250609D01*
X0038800Y0250489D01*
X0038775Y0250368D01*
X0038753Y0250246D01*
X0038736Y0250123D01*
X0038722Y0250001D01*
X0038713Y0249877D01*
X0038707Y0249754D01*
X0038705Y0249630D01*
X0038705Y0229945D01*
X0038705Y0188016D02*
X0038705Y0168331D01*
X0038707Y0168207D01*
X0038713Y0168084D01*
X0038722Y0167960D01*
X0038736Y0167838D01*
X0038753Y0167715D01*
X0038775Y0167593D01*
X0038800Y0167472D01*
X0038829Y0167352D01*
X0038861Y0167233D01*
X0038898Y0167114D01*
X0038938Y0166997D01*
X0038981Y0166882D01*
X0039029Y0166767D01*
X0039080Y0166655D01*
X0039134Y0166544D01*
X0039192Y0166434D01*
X0039253Y0166327D01*
X0039318Y0166221D01*
X0039386Y0166118D01*
X0039457Y0166017D01*
X0039531Y0165918D01*
X0039608Y0165821D01*
X0039689Y0165727D01*
X0039772Y0165636D01*
X0039858Y0165547D01*
X0039947Y0165461D01*
X0040038Y0165378D01*
X0040132Y0165297D01*
X0040229Y0165220D01*
X0040328Y0165146D01*
X0040429Y0165075D01*
X0040532Y0165007D01*
X0040638Y0164942D01*
X0040745Y0164881D01*
X0040855Y0164823D01*
X0040966Y0164769D01*
X0041078Y0164718D01*
X0041193Y0164670D01*
X0041308Y0164627D01*
X0041425Y0164587D01*
X0041544Y0164550D01*
X0041663Y0164518D01*
X0041783Y0164489D01*
X0041904Y0164464D01*
X0042026Y0164442D01*
X0042149Y0164425D01*
X0042271Y0164411D01*
X0042395Y0164402D01*
X0042518Y0164396D01*
X0042642Y0164394D01*
X0049138Y0164394D01*
X0049290Y0164392D01*
X0049442Y0164386D01*
X0049594Y0164376D01*
X0049745Y0164363D01*
X0049897Y0164345D01*
X0050047Y0164324D01*
X0050197Y0164298D01*
X0050346Y0164269D01*
X0050495Y0164236D01*
X0050642Y0164199D01*
X0050789Y0164159D01*
X0050934Y0164114D01*
X0051079Y0164066D01*
X0051222Y0164014D01*
X0051363Y0163959D01*
X0051504Y0163900D01*
X0051642Y0163837D01*
X0051779Y0163771D01*
X0051914Y0163701D01*
X0052048Y0163628D01*
X0052179Y0163551D01*
X0052308Y0163471D01*
X0052436Y0163388D01*
X0052561Y0163301D01*
X0052683Y0163211D01*
X0052804Y0163119D01*
X0052922Y0163023D01*
X0053037Y0162924D01*
X0053150Y0162822D01*
X0053261Y0162717D01*
X0053368Y0162609D01*
X0053473Y0162499D01*
X0053575Y0162386D01*
X0053674Y0162271D01*
X0053770Y0162153D01*
X0053862Y0162032D01*
X0053952Y0161909D01*
X0054039Y0161784D01*
X0054122Y0161657D01*
X0054202Y0161527D01*
X0054278Y0161396D01*
X0054352Y0161263D01*
X0054421Y0161127D01*
X0054488Y0160991D01*
X0054550Y0160852D01*
X0054609Y0160712D01*
X0054665Y0160570D01*
X0054717Y0160427D01*
X0054765Y0160283D01*
X0054809Y0160137D01*
X0054850Y0159991D01*
X0054886Y0159843D01*
X0054919Y0159695D01*
X0054949Y0159545D01*
X0054974Y0159395D01*
X0054995Y0159245D01*
X0055013Y0159094D01*
X0055027Y0158942D01*
X0055036Y0158790D01*
X0055042Y0158638D01*
X0055044Y0158486D01*
X0055042Y0158334D01*
X0055036Y0158182D01*
X0055026Y0158030D01*
X0055013Y0157879D01*
X0054995Y0157728D01*
X0054973Y0157577D01*
X0054948Y0157427D01*
X0054919Y0157278D01*
X0054886Y0157130D01*
X0054849Y0156982D01*
X0054808Y0156835D01*
X0054764Y0156690D01*
X0054715Y0156546D01*
X0054664Y0156403D01*
X0054608Y0156261D01*
X0054549Y0156121D01*
X0054486Y0155982D01*
X0054420Y0155846D01*
X0054350Y0155710D01*
X0054277Y0155577D01*
X0054200Y0155446D01*
X0054120Y0155316D01*
X0054037Y0155189D01*
X0053950Y0155064D01*
X0053860Y0154941D01*
X0053768Y0154821D01*
X0053672Y0154703D01*
X0053573Y0154587D01*
X0053471Y0154474D01*
X0053366Y0154364D01*
X0053258Y0154257D01*
X0053148Y0154152D01*
X0053035Y0154050D01*
X0052919Y0153951D01*
X0052801Y0153855D01*
X0052681Y0153763D01*
X0052558Y0153673D01*
X0052433Y0153586D01*
X0052305Y0153503D01*
X0052176Y0153423D01*
X0052045Y0153347D01*
X0051911Y0153274D01*
X0051776Y0153204D01*
X0051639Y0153138D01*
X0051500Y0153075D01*
X0051388Y0153024D01*
X0051277Y0152970D01*
X0051168Y0152912D01*
X0051061Y0152850D01*
X0050956Y0152785D01*
X0050854Y0152717D01*
X0050753Y0152646D01*
X0050654Y0152572D01*
X0050558Y0152495D01*
X0050465Y0152414D01*
X0050374Y0152331D01*
X0050285Y0152245D01*
X0050200Y0152156D01*
X0050117Y0152065D01*
X0050037Y0151971D01*
X0049960Y0151875D01*
X0049886Y0151776D01*
X0049815Y0151675D01*
X0049748Y0151572D01*
X0049683Y0151466D01*
X0049622Y0151359D01*
X0049565Y0151250D01*
X0049511Y0151139D01*
X0049460Y0151027D01*
X0049413Y0150913D01*
X0049370Y0150797D01*
X0049330Y0150680D01*
X0049293Y0150563D01*
X0049261Y0150444D01*
X0049232Y0150324D01*
X0049207Y0150203D01*
X0049186Y0150081D01*
X0049169Y0149959D01*
X0049155Y0149837D01*
X0049146Y0149714D01*
X0049140Y0149590D01*
X0049138Y0149467D01*
D12*
X0038705Y0176205D02*
X0038705Y0188016D01*
X0081224Y0188016D01*
X0081224Y0229945D01*
X0038705Y0229945D01*
X0038705Y0241756D01*
X0122957Y0392760D02*
X0156421Y0392760D01*
X0158094Y0394433D01*
X0158094Y0415280D01*
X0159374Y0415280D01*
X0121283Y0415280D02*
X0121283Y0394433D01*
X0122957Y0392760D01*
X0121283Y0415280D02*
X0120004Y0415280D01*
M02*
