G75*
%MOIN*%
%OFA0B0*%
%FSLAX25Y25*%
%IPPOS*%
%LPD*%
%AMOC8*
5,1,8,0,0,1.08239X$1,22.5*
%
%ADD10C,0.00004*%
%ADD11C,0.00000*%
%ADD12R,0.00984X0.05906*%
%ADD13R,0.08268X0.05512*%
%ADD14C,0.02362*%
%ADD15R,0.03543X0.02756*%
%ADD16R,0.02756X0.03543*%
%ADD17C,0.14961*%
%ADD18R,0.01000X0.03200*%
%ADD19R,0.09800X0.06900*%
%ADD20R,0.04882X0.08740*%
%ADD21R,0.01654X0.02362*%
%ADD22R,0.02362X0.01654*%
%ADD23R,0.03937X0.05512*%
%ADD24R,0.05800X0.01400*%
%ADD25R,0.01575X0.03937*%
D10*
X0029475Y0069444D02*
X0031670Y0068646D01*
X0031801Y0068600D01*
X0031934Y0068558D01*
X0032068Y0068520D01*
X0032203Y0068485D01*
X0032339Y0068455D01*
X0032476Y0068428D01*
X0032613Y0068405D01*
X0032751Y0068386D01*
X0032889Y0068371D01*
X0033028Y0068360D01*
X0033167Y0068353D01*
X0033307Y0068349D01*
X0033446Y0068350D01*
X0033585Y0068354D01*
X0033724Y0068363D01*
X0033863Y0068375D01*
X0034001Y0068392D01*
X0034139Y0068412D01*
X0034276Y0068436D01*
X0034412Y0068464D01*
X0034548Y0068496D01*
X0034683Y0068532D01*
X0034816Y0068572D01*
X0034949Y0068615D01*
X0035080Y0068662D01*
X0035209Y0068713D01*
X0035338Y0068767D01*
X0035464Y0068825D01*
X0035589Y0068886D01*
X0035712Y0068951D01*
X0035834Y0069020D01*
X0035953Y0069092D01*
X0036070Y0069167D01*
X0036185Y0069246D01*
X0036298Y0069327D01*
X0036408Y0069412D01*
X0036516Y0069500D01*
X0036622Y0069591D01*
X0036724Y0069685D01*
X0036824Y0069782D01*
X0036922Y0069882D01*
X0037016Y0069984D01*
X0037108Y0070089D01*
X0037196Y0070197D01*
X0037282Y0070307D01*
X0037364Y0070419D01*
X0037443Y0070534D01*
X0037519Y0070650D01*
X0037591Y0070769D01*
X0037660Y0070890D01*
X0037726Y0071013D01*
X0037788Y0071138D01*
X0037847Y0071264D01*
X0037902Y0071392D01*
X0037953Y0071522D01*
X0038001Y0071653D01*
X0038044Y0071785D01*
X0038085Y0071918D01*
X0038121Y0072052D01*
X0038154Y0072188D01*
X0038182Y0072324D01*
X0038207Y0072461D01*
X0038228Y0072599D01*
X0038245Y0072737D01*
X0038258Y0072876D01*
X0038267Y0073015D01*
X0038273Y0073154D01*
X0038274Y0073293D01*
X0038271Y0073432D01*
X0038265Y0073572D01*
X0038254Y0073710D01*
X0038240Y0073849D01*
X0038221Y0073987D01*
X0038199Y0074125D01*
X0038173Y0074261D01*
X0038143Y0074397D01*
X0038109Y0074532D01*
X0038072Y0074667D01*
X0038030Y0074800D01*
X0037985Y0074931D01*
X0037936Y0075062D01*
X0037884Y0075191D01*
X0037828Y0075318D01*
X0037768Y0075444D01*
X0037705Y0075568D01*
X0037638Y0075690D01*
X0037568Y0075810D01*
X0037494Y0075929D01*
X0037417Y0076045D01*
X0037337Y0076159D01*
X0037254Y0076270D01*
X0037167Y0076379D01*
X0037078Y0076486D01*
X0036985Y0076590D01*
X0036890Y0076692D01*
X0036791Y0076790D01*
X0036690Y0076886D01*
X0036587Y0076979D01*
X0036480Y0077069D01*
X0036372Y0077156D01*
X0036260Y0077240D01*
X0036147Y0077321D01*
X0036031Y0077398D01*
X0035913Y0077472D01*
X0035793Y0077543D01*
X0035671Y0077611D01*
X0035548Y0077674D01*
X0035422Y0077735D01*
X0035295Y0077792D01*
X0035166Y0077845D01*
X0035036Y0077894D01*
X0035036Y0077895D02*
X0032842Y0078693D01*
X0032841Y0078694D02*
X0033420Y0079885D01*
X0034027Y0081061D01*
X0034664Y0082222D01*
X0035328Y0083368D01*
X0036020Y0084496D01*
X0036740Y0085608D01*
X0037486Y0086701D01*
X0038260Y0087776D01*
X0039059Y0088832D01*
X0039884Y0089868D01*
X0040733Y0090883D01*
X0041608Y0091877D01*
X0042506Y0092850D01*
X0043428Y0093800D01*
X0044373Y0094727D01*
X0045340Y0095631D01*
X0046330Y0096512D01*
X0047340Y0097367D01*
X0048371Y0098198D01*
X0049422Y0099003D01*
X0050492Y0099782D01*
X0051582Y0100535D01*
X0052689Y0101261D01*
X0053814Y0101960D01*
X0054955Y0102631D01*
X0056112Y0103274D01*
X0057285Y0103888D01*
X0058473Y0104474D01*
X0059674Y0105030D01*
X0060889Y0105557D01*
X0062116Y0106054D01*
X0063355Y0106521D01*
X0064605Y0106957D01*
X0065866Y0107363D01*
X0067136Y0107737D01*
X0068414Y0108081D01*
X0069701Y0108393D01*
X0070995Y0108673D01*
X0072296Y0108922D01*
X0073602Y0109139D01*
X0074913Y0109324D01*
X0076228Y0109477D01*
X0077547Y0109597D01*
X0078868Y0109686D01*
X0080190Y0109742D01*
X0081514Y0109765D01*
X0082838Y0109756D01*
X0084162Y0109715D01*
X0085484Y0109642D01*
X0086804Y0109536D01*
X0088120Y0109398D01*
X0089433Y0109228D01*
X0090742Y0109025D01*
X0092045Y0108791D01*
X0093342Y0108525D01*
X0094632Y0108227D01*
X0095915Y0107898D01*
X0097189Y0107538D01*
X0098454Y0107146D01*
X0099708Y0106724D01*
X0100953Y0106271D01*
X0102185Y0105788D01*
X0103406Y0105275D01*
X0104614Y0104732D01*
X0105808Y0104160D01*
X0106987Y0103559D01*
X0108152Y0102929D01*
X0109301Y0102270D01*
X0110433Y0101584D01*
X0111548Y0100871D01*
X0112646Y0100130D01*
X0113725Y0099363D01*
X0114785Y0098569D01*
X0115825Y0097750D01*
X0116845Y0096906D01*
X0117844Y0096037D01*
X0118821Y0095144D01*
X0119777Y0094227D01*
X0120709Y0093287D01*
X0121618Y0092324D01*
X0122504Y0091340D01*
X0123365Y0090334D01*
X0124201Y0089308D01*
X0125012Y0088261D01*
X0125797Y0087195D01*
X0126556Y0086110D01*
X0127288Y0085007D01*
X0127993Y0083886D01*
X0128670Y0082748D01*
X0129319Y0081594D01*
X0129940Y0080425D01*
X0130532Y0079240D01*
X0131095Y0078042D01*
X0131628Y0076830D01*
X0132132Y0075605D01*
X0132605Y0074369D01*
X0133048Y0073121D01*
X0133460Y0071863D01*
X0133842Y0070595D01*
X0134192Y0069318D01*
X0134511Y0068033D01*
X0134799Y0066741D01*
X0135055Y0065442D01*
X0135279Y0064137D01*
X0135471Y0062827D01*
X0135631Y0061512D01*
X0135758Y0060194D01*
X0135854Y0058874D01*
X0135917Y0057551D01*
X0135948Y0056228D01*
X0135946Y0054904D01*
X0135912Y0053580D01*
X0135846Y0052258D01*
X0135747Y0050937D01*
X0135616Y0049620D01*
X0135453Y0048306D01*
X0135258Y0046996D01*
X0135031Y0045692D01*
X0134772Y0044393D01*
X0134481Y0043102D01*
X0134159Y0041817D01*
X0131965Y0042616D01*
X0131965Y0042615D02*
X0131834Y0042661D01*
X0131701Y0042703D01*
X0131567Y0042741D01*
X0131432Y0042776D01*
X0131296Y0042806D01*
X0131159Y0042833D01*
X0131022Y0042856D01*
X0130884Y0042875D01*
X0130746Y0042890D01*
X0130607Y0042901D01*
X0130468Y0042908D01*
X0130328Y0042912D01*
X0130189Y0042911D01*
X0130050Y0042907D01*
X0129911Y0042898D01*
X0129772Y0042886D01*
X0129634Y0042869D01*
X0129496Y0042849D01*
X0129359Y0042825D01*
X0129223Y0042797D01*
X0129087Y0042765D01*
X0128952Y0042729D01*
X0128819Y0042689D01*
X0128686Y0042646D01*
X0128555Y0042599D01*
X0128426Y0042548D01*
X0128297Y0042494D01*
X0128171Y0042436D01*
X0128046Y0042375D01*
X0127923Y0042310D01*
X0127801Y0042241D01*
X0127682Y0042169D01*
X0127565Y0042094D01*
X0127450Y0042015D01*
X0127337Y0041934D01*
X0127227Y0041849D01*
X0127119Y0041761D01*
X0127013Y0041670D01*
X0126911Y0041576D01*
X0126811Y0041479D01*
X0126713Y0041379D01*
X0126619Y0041277D01*
X0126527Y0041172D01*
X0126439Y0041064D01*
X0126353Y0040954D01*
X0126271Y0040842D01*
X0126192Y0040727D01*
X0126116Y0040611D01*
X0126044Y0040492D01*
X0125975Y0040371D01*
X0125909Y0040248D01*
X0125847Y0040123D01*
X0125788Y0039997D01*
X0125733Y0039869D01*
X0125682Y0039739D01*
X0125634Y0039608D01*
X0125591Y0039476D01*
X0125550Y0039343D01*
X0125514Y0039209D01*
X0125481Y0039073D01*
X0125453Y0038937D01*
X0125428Y0038800D01*
X0125407Y0038662D01*
X0125390Y0038524D01*
X0125377Y0038385D01*
X0125368Y0038246D01*
X0125362Y0038107D01*
X0125361Y0037968D01*
X0125364Y0037829D01*
X0125370Y0037689D01*
X0125381Y0037551D01*
X0125395Y0037412D01*
X0125414Y0037274D01*
X0125436Y0037136D01*
X0125462Y0037000D01*
X0125492Y0036864D01*
X0125526Y0036729D01*
X0125563Y0036594D01*
X0125605Y0036461D01*
X0125650Y0036330D01*
X0125699Y0036199D01*
X0125751Y0036070D01*
X0125807Y0035943D01*
X0125867Y0035817D01*
X0125930Y0035693D01*
X0125997Y0035571D01*
X0126067Y0035451D01*
X0126141Y0035332D01*
X0126218Y0035216D01*
X0126298Y0035102D01*
X0126381Y0034991D01*
X0126468Y0034882D01*
X0126557Y0034775D01*
X0126650Y0034671D01*
X0126745Y0034569D01*
X0126844Y0034471D01*
X0126945Y0034375D01*
X0127048Y0034282D01*
X0127155Y0034192D01*
X0127263Y0034105D01*
X0127375Y0034021D01*
X0127488Y0033940D01*
X0127604Y0033863D01*
X0127722Y0033789D01*
X0127842Y0033718D01*
X0127964Y0033650D01*
X0128087Y0033587D01*
X0128213Y0033526D01*
X0128340Y0033469D01*
X0128469Y0033416D01*
X0128599Y0033367D01*
X0128598Y0033367D02*
X0130793Y0032568D01*
X0079849Y0001533D02*
X0078539Y0001596D01*
X0077231Y0001692D01*
X0075926Y0001818D01*
X0074624Y0001977D01*
X0073327Y0002167D01*
X0072035Y0002388D01*
X0070748Y0002641D01*
X0069468Y0002924D01*
X0068195Y0003239D01*
X0066930Y0003584D01*
X0065674Y0003960D01*
X0064427Y0004366D01*
X0063190Y0004802D01*
X0061965Y0005268D01*
X0060751Y0005764D01*
X0059549Y0006289D01*
X0058361Y0006843D01*
X0057186Y0007425D01*
X0056026Y0008036D01*
X0054881Y0008674D01*
X0053751Y0009341D01*
X0052638Y0010034D01*
X0051542Y0010754D01*
X0050464Y0011500D01*
X0049405Y0012273D01*
X0048364Y0013071D01*
X0047343Y0013893D01*
X0046342Y0014740D01*
X0045362Y0015612D01*
X0044404Y0016506D01*
X0043467Y0017424D01*
X0042553Y0018364D01*
X0041662Y0019326D01*
X0040794Y0020309D01*
X0039951Y0021313D01*
X0039132Y0022337D01*
X0038338Y0023381D01*
X0037570Y0024443D01*
X0036827Y0025524D01*
X0036111Y0026622D01*
X0035422Y0027738D01*
X0034760Y0028870D01*
X0034126Y0030017D01*
X0033520Y0031180D01*
X0032942Y0032357D01*
X0032392Y0033547D01*
X0031872Y0034751D01*
X0031381Y0035967D01*
X0030919Y0037194D01*
X0030488Y0038432D01*
X0030086Y0039681D01*
X0029715Y0040938D01*
X0029375Y0042204D01*
X0029065Y0043478D01*
X0028786Y0044760D01*
X0028538Y0046047D01*
X0028322Y0047340D01*
X0028137Y0048639D01*
X0027983Y0049941D01*
X0027861Y0051246D01*
X0027770Y0052554D01*
X0027712Y0053864D01*
X0027685Y0055175D01*
X0027690Y0056486D01*
X0027726Y0057797D01*
X0027795Y0059107D01*
X0027895Y0060414D01*
X0028026Y0061719D01*
X0028190Y0063020D01*
X0028384Y0064316D01*
X0028610Y0065608D01*
X0028868Y0066894D01*
X0029156Y0068173D01*
X0029475Y0069445D01*
X0079848Y0001533D02*
X0079852Y0001620D01*
X0079859Y0001707D01*
X0079870Y0001794D01*
X0079886Y0001880D01*
X0079904Y0001965D01*
X0079927Y0002049D01*
X0079953Y0002133D01*
X0079983Y0002215D01*
X0080017Y0002295D01*
X0080054Y0002374D01*
X0080095Y0002452D01*
X0080139Y0002527D01*
X0080186Y0002600D01*
X0080237Y0002672D01*
X0080290Y0002741D01*
X0080347Y0002807D01*
X0080407Y0002871D01*
X0080469Y0002932D01*
X0080534Y0002990D01*
X0080601Y0003046D01*
X0080671Y0003098D01*
X0080743Y0003148D01*
X0080818Y0003194D01*
X0080894Y0003236D01*
X0080972Y0003275D01*
X0081052Y0003311D01*
X0081133Y0003343D01*
X0081215Y0003372D01*
X0081299Y0003397D01*
X0081384Y0003418D01*
X0081469Y0003435D01*
X0081556Y0003449D01*
X0081643Y0003458D01*
X0081730Y0003464D01*
X0081817Y0003466D01*
X0081904Y0003464D01*
X0081991Y0003458D01*
X0082078Y0003449D01*
X0082165Y0003435D01*
X0082250Y0003418D01*
X0082335Y0003397D01*
X0082419Y0003372D01*
X0082501Y0003343D01*
X0082582Y0003311D01*
X0082662Y0003275D01*
X0082740Y0003236D01*
X0082816Y0003194D01*
X0082891Y0003148D01*
X0082963Y0003098D01*
X0083033Y0003046D01*
X0083100Y0002990D01*
X0083165Y0002932D01*
X0083227Y0002871D01*
X0083287Y0002807D01*
X0083344Y0002741D01*
X0083397Y0002672D01*
X0083448Y0002600D01*
X0083495Y0002527D01*
X0083539Y0002452D01*
X0083580Y0002374D01*
X0083617Y0002295D01*
X0083651Y0002215D01*
X0083681Y0002133D01*
X0083707Y0002049D01*
X0083730Y0001965D01*
X0083748Y0001880D01*
X0083764Y0001794D01*
X0083775Y0001707D01*
X0083782Y0001620D01*
X0083786Y0001533D01*
D11*
X0083785Y0001533D02*
X0085100Y0001597D01*
X0086413Y0001692D01*
X0087723Y0001820D01*
X0089030Y0001980D01*
X0090333Y0002171D01*
X0091630Y0002394D01*
X0092922Y0002648D01*
X0094207Y0002934D01*
X0095484Y0003251D01*
X0096754Y0003599D01*
X0098015Y0003977D01*
X0099266Y0004386D01*
X0100507Y0004826D01*
X0101737Y0005295D01*
X0102955Y0005794D01*
X0104160Y0006323D01*
X0105353Y0006881D01*
X0106531Y0007468D01*
X0107695Y0008083D01*
X0108843Y0008726D01*
X0109976Y0009397D01*
X0111092Y0010096D01*
X0112190Y0010821D01*
X0113271Y0011573D01*
X0114333Y0012351D01*
X0115376Y0013154D01*
X0116399Y0013983D01*
X0117401Y0014836D01*
X0118383Y0015713D01*
X0119343Y0016614D01*
X0120280Y0017538D01*
X0121195Y0018485D01*
X0122087Y0019453D01*
X0122955Y0020443D01*
X0123798Y0021454D01*
X0124617Y0022485D01*
X0125410Y0023535D01*
X0126178Y0024605D01*
X0126919Y0025692D01*
X0127633Y0026798D01*
X0128321Y0027921D01*
X0128981Y0029060D01*
X0129613Y0030214D01*
X0130217Y0031384D01*
X0130792Y0032568D01*
X0100451Y0069782D02*
X0100453Y0069851D01*
X0100459Y0069919D01*
X0100469Y0069987D01*
X0100483Y0070054D01*
X0100501Y0070121D01*
X0100522Y0070186D01*
X0100548Y0070250D01*
X0100577Y0070312D01*
X0100609Y0070372D01*
X0100645Y0070431D01*
X0100685Y0070487D01*
X0100727Y0070541D01*
X0100773Y0070592D01*
X0100822Y0070641D01*
X0100873Y0070687D01*
X0100927Y0070729D01*
X0100983Y0070769D01*
X0101041Y0070805D01*
X0101102Y0070837D01*
X0101164Y0070866D01*
X0101228Y0070892D01*
X0101293Y0070913D01*
X0101360Y0070931D01*
X0101427Y0070945D01*
X0101495Y0070955D01*
X0101563Y0070961D01*
X0101632Y0070963D01*
X0101701Y0070961D01*
X0101769Y0070955D01*
X0101837Y0070945D01*
X0101904Y0070931D01*
X0101971Y0070913D01*
X0102036Y0070892D01*
X0102100Y0070866D01*
X0102162Y0070837D01*
X0102222Y0070805D01*
X0102281Y0070769D01*
X0102337Y0070729D01*
X0102391Y0070687D01*
X0102442Y0070641D01*
X0102491Y0070592D01*
X0102537Y0070541D01*
X0102579Y0070487D01*
X0102619Y0070431D01*
X0102655Y0070372D01*
X0102687Y0070312D01*
X0102716Y0070250D01*
X0102742Y0070186D01*
X0102763Y0070121D01*
X0102781Y0070054D01*
X0102795Y0069987D01*
X0102805Y0069919D01*
X0102811Y0069851D01*
X0102813Y0069782D01*
X0102811Y0069713D01*
X0102805Y0069645D01*
X0102795Y0069577D01*
X0102781Y0069510D01*
X0102763Y0069443D01*
X0102742Y0069378D01*
X0102716Y0069314D01*
X0102687Y0069252D01*
X0102655Y0069191D01*
X0102619Y0069133D01*
X0102579Y0069077D01*
X0102537Y0069023D01*
X0102491Y0068972D01*
X0102442Y0068923D01*
X0102391Y0068877D01*
X0102337Y0068835D01*
X0102281Y0068795D01*
X0102223Y0068759D01*
X0102162Y0068727D01*
X0102100Y0068698D01*
X0102036Y0068672D01*
X0101971Y0068651D01*
X0101904Y0068633D01*
X0101837Y0068619D01*
X0101769Y0068609D01*
X0101701Y0068603D01*
X0101632Y0068601D01*
X0101563Y0068603D01*
X0101495Y0068609D01*
X0101427Y0068619D01*
X0101360Y0068633D01*
X0101293Y0068651D01*
X0101228Y0068672D01*
X0101164Y0068698D01*
X0101102Y0068727D01*
X0101041Y0068759D01*
X0100983Y0068795D01*
X0100927Y0068835D01*
X0100873Y0068877D01*
X0100822Y0068923D01*
X0100773Y0068972D01*
X0100727Y0069023D01*
X0100685Y0069077D01*
X0100645Y0069133D01*
X0100609Y0069191D01*
X0100577Y0069252D01*
X0100548Y0069314D01*
X0100522Y0069378D01*
X0100501Y0069443D01*
X0100483Y0069510D01*
X0100469Y0069577D01*
X0100459Y0069645D01*
X0100453Y0069713D01*
X0100451Y0069782D01*
X0074554Y0079208D02*
X0074556Y0079277D01*
X0074562Y0079345D01*
X0074572Y0079413D01*
X0074586Y0079480D01*
X0074604Y0079547D01*
X0074625Y0079612D01*
X0074651Y0079676D01*
X0074680Y0079738D01*
X0074712Y0079798D01*
X0074748Y0079857D01*
X0074788Y0079913D01*
X0074830Y0079967D01*
X0074876Y0080018D01*
X0074925Y0080067D01*
X0074976Y0080113D01*
X0075030Y0080155D01*
X0075086Y0080195D01*
X0075144Y0080231D01*
X0075205Y0080263D01*
X0075267Y0080292D01*
X0075331Y0080318D01*
X0075396Y0080339D01*
X0075463Y0080357D01*
X0075530Y0080371D01*
X0075598Y0080381D01*
X0075666Y0080387D01*
X0075735Y0080389D01*
X0075804Y0080387D01*
X0075872Y0080381D01*
X0075940Y0080371D01*
X0076007Y0080357D01*
X0076074Y0080339D01*
X0076139Y0080318D01*
X0076203Y0080292D01*
X0076265Y0080263D01*
X0076325Y0080231D01*
X0076384Y0080195D01*
X0076440Y0080155D01*
X0076494Y0080113D01*
X0076545Y0080067D01*
X0076594Y0080018D01*
X0076640Y0079967D01*
X0076682Y0079913D01*
X0076722Y0079857D01*
X0076758Y0079798D01*
X0076790Y0079738D01*
X0076819Y0079676D01*
X0076845Y0079612D01*
X0076866Y0079547D01*
X0076884Y0079480D01*
X0076898Y0079413D01*
X0076908Y0079345D01*
X0076914Y0079277D01*
X0076916Y0079208D01*
X0076914Y0079139D01*
X0076908Y0079071D01*
X0076898Y0079003D01*
X0076884Y0078936D01*
X0076866Y0078869D01*
X0076845Y0078804D01*
X0076819Y0078740D01*
X0076790Y0078678D01*
X0076758Y0078617D01*
X0076722Y0078559D01*
X0076682Y0078503D01*
X0076640Y0078449D01*
X0076594Y0078398D01*
X0076545Y0078349D01*
X0076494Y0078303D01*
X0076440Y0078261D01*
X0076384Y0078221D01*
X0076326Y0078185D01*
X0076265Y0078153D01*
X0076203Y0078124D01*
X0076139Y0078098D01*
X0076074Y0078077D01*
X0076007Y0078059D01*
X0075940Y0078045D01*
X0075872Y0078035D01*
X0075804Y0078029D01*
X0075735Y0078027D01*
X0075666Y0078029D01*
X0075598Y0078035D01*
X0075530Y0078045D01*
X0075463Y0078059D01*
X0075396Y0078077D01*
X0075331Y0078098D01*
X0075267Y0078124D01*
X0075205Y0078153D01*
X0075144Y0078185D01*
X0075086Y0078221D01*
X0075030Y0078261D01*
X0074976Y0078303D01*
X0074925Y0078349D01*
X0074876Y0078398D01*
X0074830Y0078449D01*
X0074788Y0078503D01*
X0074748Y0078559D01*
X0074712Y0078617D01*
X0074680Y0078678D01*
X0074651Y0078740D01*
X0074625Y0078804D01*
X0074604Y0078869D01*
X0074586Y0078936D01*
X0074572Y0079003D01*
X0074562Y0079071D01*
X0074556Y0079139D01*
X0074554Y0079208D01*
D12*
G36*
X0078466Y0070882D02*
X0077541Y0071219D01*
X0079560Y0076768D01*
X0080485Y0076431D01*
X0078466Y0070882D01*
G37*
G36*
X0080316Y0070209D02*
X0079391Y0070546D01*
X0081410Y0076095D01*
X0082335Y0075758D01*
X0080316Y0070209D01*
G37*
G36*
X0082166Y0069536D02*
X0081241Y0069873D01*
X0083260Y0075422D01*
X0084185Y0075085D01*
X0082166Y0069536D01*
G37*
G36*
X0084016Y0068863D02*
X0083091Y0069200D01*
X0085110Y0074749D01*
X0086035Y0074412D01*
X0084016Y0068863D01*
G37*
G36*
X0085866Y0068189D02*
X0084941Y0068526D01*
X0086960Y0074075D01*
X0087885Y0073738D01*
X0085866Y0068189D01*
G37*
G36*
X0087715Y0067516D02*
X0086790Y0067853D01*
X0088809Y0073402D01*
X0089734Y0073065D01*
X0087715Y0067516D01*
G37*
G36*
X0089565Y0066843D02*
X0088640Y0067180D01*
X0090659Y0072729D01*
X0091584Y0072392D01*
X0089565Y0066843D01*
G37*
G36*
X0091415Y0066169D02*
X0090490Y0066506D01*
X0092509Y0072055D01*
X0093434Y0071718D01*
X0091415Y0066169D01*
G37*
G36*
X0093265Y0065496D02*
X0092340Y0065833D01*
X0094359Y0071382D01*
X0095284Y0071045D01*
X0093265Y0065496D01*
G37*
G36*
X0095114Y0064823D02*
X0094189Y0065160D01*
X0096208Y0070709D01*
X0097133Y0070372D01*
X0095114Y0064823D01*
G37*
G36*
X0102924Y0086280D02*
X0101999Y0086617D01*
X0104018Y0092166D01*
X0104943Y0091829D01*
X0102924Y0086280D01*
G37*
G36*
X0101075Y0086954D02*
X0100150Y0087291D01*
X0102169Y0092840D01*
X0103094Y0092503D01*
X0101075Y0086954D01*
G37*
G36*
X0099225Y0087627D02*
X0098300Y0087964D01*
X0100319Y0093513D01*
X0101244Y0093176D01*
X0099225Y0087627D01*
G37*
G36*
X0097375Y0088300D02*
X0096450Y0088637D01*
X0098469Y0094186D01*
X0099394Y0093849D01*
X0097375Y0088300D01*
G37*
G36*
X0095525Y0088974D02*
X0094600Y0089311D01*
X0096619Y0094860D01*
X0097544Y0094523D01*
X0095525Y0088974D01*
G37*
G36*
X0093675Y0089647D02*
X0092750Y0089984D01*
X0094769Y0095533D01*
X0095694Y0095196D01*
X0093675Y0089647D01*
G37*
G36*
X0091826Y0090320D02*
X0090901Y0090657D01*
X0092920Y0096206D01*
X0093845Y0095869D01*
X0091826Y0090320D01*
G37*
G36*
X0089976Y0090993D02*
X0089051Y0091330D01*
X0091070Y0096879D01*
X0091995Y0096542D01*
X0089976Y0090993D01*
G37*
G36*
X0088126Y0091667D02*
X0087201Y0092004D01*
X0089220Y0097553D01*
X0090145Y0097216D01*
X0088126Y0091667D01*
G37*
G36*
X0086276Y0092340D02*
X0085351Y0092677D01*
X0087370Y0098226D01*
X0088295Y0097889D01*
X0086276Y0092340D01*
G37*
D13*
G36*
X0078597Y0090526D02*
X0075769Y0082757D01*
X0070591Y0084642D01*
X0073419Y0092411D01*
X0078597Y0090526D01*
G37*
G36*
X0111893Y0078407D02*
X0109065Y0070638D01*
X0103887Y0072523D01*
X0106715Y0080292D01*
X0111893Y0078407D01*
G37*
D14*
X0101632Y0069782D03*
X0075735Y0079208D03*
D15*
X0060164Y0062520D03*
X0060164Y0057402D03*
X0064494Y0058583D03*
X0064494Y0053465D03*
X0044694Y0027596D03*
X0044694Y0022478D03*
X0071581Y0019607D03*
X0071581Y0014489D03*
X0092053Y0012914D03*
X0096778Y0012914D03*
X0096778Y0018032D03*
X0092053Y0018032D03*
X0108983Y0019607D03*
X0108983Y0024725D03*
X0110164Y0031812D03*
X0114888Y0032206D03*
X0114888Y0037324D03*
X0110164Y0036930D03*
X0105439Y0036930D03*
X0105439Y0042048D03*
X0101109Y0047560D03*
X0105439Y0049922D03*
X0101109Y0052678D03*
X0105439Y0055040D03*
X0110557Y0060158D03*
X0110557Y0065276D03*
X0122368Y0058190D03*
X0127093Y0058190D03*
X0131817Y0058190D03*
X0131817Y0053072D03*
X0127093Y0053072D03*
X0122368Y0053072D03*
D16*
X0116266Y0043426D03*
X0111148Y0043426D03*
X0103274Y0030828D03*
X0098156Y0030828D03*
G36*
X0076643Y0045534D02*
X0074054Y0046477D01*
X0075265Y0049804D01*
X0077854Y0048861D01*
X0076643Y0045534D01*
G37*
G36*
X0070297Y0046867D02*
X0072886Y0045924D01*
X0071675Y0042597D01*
X0069086Y0043540D01*
X0070297Y0046867D01*
G37*
G36*
X0071834Y0047284D02*
X0069245Y0048227D01*
X0070456Y0051554D01*
X0073045Y0050611D01*
X0071834Y0047284D01*
G37*
G36*
X0065487Y0048617D02*
X0068076Y0047674D01*
X0066865Y0044347D01*
X0064276Y0045290D01*
X0065487Y0048617D01*
G37*
G36*
X0071834Y0052009D02*
X0069245Y0052952D01*
X0070456Y0056279D01*
X0073045Y0055336D01*
X0071834Y0052009D01*
G37*
G36*
X0076643Y0050258D02*
X0074054Y0051201D01*
X0075265Y0054528D01*
X0077854Y0053585D01*
X0076643Y0050258D01*
G37*
X0070990Y0038702D03*
X0073353Y0034371D03*
X0068235Y0034371D03*
X0065872Y0038702D03*
G36*
X0057481Y0042818D02*
X0055532Y0044767D01*
X0058035Y0047270D01*
X0059984Y0045321D01*
X0057481Y0042818D01*
G37*
G36*
X0052014Y0045417D02*
X0053963Y0043468D01*
X0051460Y0040965D01*
X0049511Y0042914D01*
X0052014Y0045417D01*
G37*
G36*
X0048395Y0049036D02*
X0050344Y0047087D01*
X0047841Y0044584D01*
X0045892Y0046533D01*
X0048395Y0049036D01*
G37*
G36*
X0053862Y0046437D02*
X0051913Y0048386D01*
X0054416Y0050889D01*
X0056365Y0048940D01*
X0053862Y0046437D01*
G37*
X0052486Y0056812D03*
X0052486Y0061536D03*
X0047368Y0061536D03*
X0047368Y0056812D03*
X0040282Y0064489D03*
X0035164Y0064489D03*
G36*
X0042306Y0068150D02*
X0039717Y0069093D01*
X0040928Y0072420D01*
X0043517Y0071477D01*
X0042306Y0068150D01*
G37*
G36*
X0047116Y0066400D02*
X0044527Y0067343D01*
X0045738Y0070670D01*
X0048327Y0069727D01*
X0047116Y0066400D01*
G37*
G36*
X0068116Y0069269D02*
X0067173Y0066680D01*
X0063846Y0067891D01*
X0064789Y0070480D01*
X0068116Y0069269D01*
G37*
G36*
X0069867Y0074079D02*
X0068924Y0071490D01*
X0065597Y0072701D01*
X0066540Y0075290D01*
X0069867Y0074079D01*
G37*
G36*
X0099196Y0065728D02*
X0101785Y0064785D01*
X0100574Y0061458D01*
X0097985Y0062401D01*
X0099196Y0065728D01*
G37*
G36*
X0104005Y0063977D02*
X0106594Y0063034D01*
X0105383Y0059707D01*
X0102794Y0060650D01*
X0104005Y0063977D01*
G37*
D17*
X0040897Y0038681D03*
X0122737Y0072580D03*
D18*
X0085360Y0030228D03*
X0083392Y0030228D03*
X0081423Y0030228D03*
X0079455Y0030228D03*
X0077486Y0030228D03*
X0077486Y0018828D03*
X0079455Y0018828D03*
X0081423Y0018828D03*
X0083392Y0018828D03*
X0085360Y0018828D03*
D19*
X0081423Y0024528D03*
D20*
X0077132Y0010749D03*
X0085715Y0010749D03*
D21*
X0057998Y0030237D03*
X0055439Y0030237D03*
X0052880Y0030237D03*
X0053864Y0025906D03*
X0051305Y0025906D03*
X0056423Y0025906D03*
X0056423Y0018426D03*
X0053864Y0018426D03*
X0051305Y0018426D03*
X0052880Y0037717D03*
X0055439Y0037717D03*
X0057998Y0037717D03*
D22*
X0060360Y0026300D03*
X0060360Y0023741D03*
X0060360Y0021182D03*
X0067841Y0021182D03*
X0067841Y0023741D03*
X0067841Y0026300D03*
X0109573Y0048741D03*
X0109573Y0051300D03*
X0109573Y0053859D03*
X0117053Y0053859D03*
X0117053Y0051300D03*
X0117053Y0048741D03*
D23*
X0041463Y0050513D03*
X0033983Y0050513D03*
X0037723Y0059174D03*
D24*
G36*
X0067119Y0061971D02*
X0072568Y0059988D01*
X0072089Y0058673D01*
X0066640Y0060656D01*
X0067119Y0061971D01*
G37*
G36*
X0067994Y0064375D02*
X0073443Y0062392D01*
X0072964Y0061077D01*
X0067515Y0063060D01*
X0067994Y0064375D01*
G37*
G36*
X0068869Y0066780D02*
X0074318Y0064797D01*
X0073839Y0063482D01*
X0068390Y0065465D01*
X0068869Y0066780D01*
G37*
G36*
X0069745Y0069185D02*
X0075194Y0067202D01*
X0074715Y0065887D01*
X0069266Y0067870D01*
X0069745Y0069185D01*
G37*
G36*
X0088920Y0054036D02*
X0094369Y0052053D01*
X0093890Y0050738D01*
X0088441Y0052721D01*
X0088920Y0054036D01*
G37*
G36*
X0089795Y0056441D02*
X0095244Y0054458D01*
X0094765Y0053143D01*
X0089316Y0055126D01*
X0089795Y0056441D01*
G37*
G36*
X0090670Y0058845D02*
X0096119Y0056862D01*
X0095640Y0055547D01*
X0090191Y0057530D01*
X0090670Y0058845D01*
G37*
G36*
X0091545Y0061250D02*
X0096994Y0059267D01*
X0096515Y0057952D01*
X0091066Y0059935D01*
X0091545Y0061250D01*
G37*
D25*
G36*
X0080519Y0048442D02*
X0081057Y0049920D01*
X0084755Y0048574D01*
X0084217Y0047096D01*
X0080519Y0048442D01*
G37*
G36*
X0079644Y0046037D02*
X0080182Y0047515D01*
X0083880Y0046169D01*
X0083342Y0044691D01*
X0079644Y0046037D01*
G37*
G36*
X0078768Y0043632D02*
X0079306Y0045110D01*
X0083004Y0043764D01*
X0082466Y0042286D01*
X0078768Y0043632D01*
G37*
G36*
X0077893Y0041228D02*
X0078431Y0042706D01*
X0082129Y0041360D01*
X0081591Y0039882D01*
X0077893Y0041228D01*
G37*
G36*
X0094634Y0035135D02*
X0095172Y0036613D01*
X0098870Y0035267D01*
X0098332Y0033789D01*
X0094634Y0035135D01*
G37*
G36*
X0095509Y0037539D02*
X0096047Y0039017D01*
X0099745Y0037671D01*
X0099207Y0036193D01*
X0095509Y0037539D01*
G37*
G36*
X0096384Y0039944D02*
X0096922Y0041422D01*
X0100620Y0040076D01*
X0100082Y0038598D01*
X0096384Y0039944D01*
G37*
G36*
X0097260Y0042349D02*
X0097798Y0043827D01*
X0101496Y0042481D01*
X0100958Y0041003D01*
X0097260Y0042349D01*
G37*
M02*
