G75*
%MOIN*%
%OFA0B0*%
%FSLAX25Y25*%
%IPPOS*%
%LPD*%
%AMOC8*
5,1,8,0,0,1.08239X$1,22.5*
%
%ADD10C,0.00004*%
%ADD11C,0.00000*%
%ADD12C,0.00300*%
%ADD13C,0.01000*%
%ADD14C,0.00600*%
%ADD15C,0.00200*%
D10*
X0029475Y0069444D02*
X0031670Y0068646D01*
X0031801Y0068600D01*
X0031934Y0068558D01*
X0032068Y0068520D01*
X0032203Y0068485D01*
X0032339Y0068455D01*
X0032476Y0068428D01*
X0032613Y0068405D01*
X0032751Y0068386D01*
X0032889Y0068371D01*
X0033028Y0068360D01*
X0033167Y0068353D01*
X0033307Y0068349D01*
X0033446Y0068350D01*
X0033585Y0068354D01*
X0033724Y0068363D01*
X0033863Y0068375D01*
X0034001Y0068392D01*
X0034139Y0068412D01*
X0034276Y0068436D01*
X0034412Y0068464D01*
X0034548Y0068496D01*
X0034683Y0068532D01*
X0034816Y0068572D01*
X0034949Y0068615D01*
X0035080Y0068662D01*
X0035209Y0068713D01*
X0035338Y0068767D01*
X0035464Y0068825D01*
X0035589Y0068886D01*
X0035712Y0068951D01*
X0035834Y0069020D01*
X0035953Y0069092D01*
X0036070Y0069167D01*
X0036185Y0069246D01*
X0036298Y0069327D01*
X0036408Y0069412D01*
X0036516Y0069500D01*
X0036622Y0069591D01*
X0036724Y0069685D01*
X0036824Y0069782D01*
X0036922Y0069882D01*
X0037016Y0069984D01*
X0037108Y0070089D01*
X0037196Y0070197D01*
X0037282Y0070307D01*
X0037364Y0070419D01*
X0037443Y0070534D01*
X0037519Y0070650D01*
X0037591Y0070769D01*
X0037660Y0070890D01*
X0037726Y0071013D01*
X0037788Y0071138D01*
X0037847Y0071264D01*
X0037902Y0071392D01*
X0037953Y0071522D01*
X0038001Y0071653D01*
X0038044Y0071785D01*
X0038085Y0071918D01*
X0038121Y0072052D01*
X0038154Y0072188D01*
X0038182Y0072324D01*
X0038207Y0072461D01*
X0038228Y0072599D01*
X0038245Y0072737D01*
X0038258Y0072876D01*
X0038267Y0073015D01*
X0038273Y0073154D01*
X0038274Y0073293D01*
X0038271Y0073432D01*
X0038265Y0073572D01*
X0038254Y0073710D01*
X0038240Y0073849D01*
X0038221Y0073987D01*
X0038199Y0074125D01*
X0038173Y0074261D01*
X0038143Y0074397D01*
X0038109Y0074532D01*
X0038072Y0074667D01*
X0038030Y0074800D01*
X0037985Y0074931D01*
X0037936Y0075062D01*
X0037884Y0075191D01*
X0037828Y0075318D01*
X0037768Y0075444D01*
X0037705Y0075568D01*
X0037638Y0075690D01*
X0037568Y0075810D01*
X0037494Y0075929D01*
X0037417Y0076045D01*
X0037337Y0076159D01*
X0037254Y0076270D01*
X0037167Y0076379D01*
X0037078Y0076486D01*
X0036985Y0076590D01*
X0036890Y0076692D01*
X0036791Y0076790D01*
X0036690Y0076886D01*
X0036587Y0076979D01*
X0036480Y0077069D01*
X0036372Y0077156D01*
X0036260Y0077240D01*
X0036147Y0077321D01*
X0036031Y0077398D01*
X0035913Y0077472D01*
X0035793Y0077543D01*
X0035671Y0077611D01*
X0035548Y0077674D01*
X0035422Y0077735D01*
X0035295Y0077792D01*
X0035166Y0077845D01*
X0035036Y0077894D01*
X0035036Y0077895D02*
X0032842Y0078693D01*
X0032841Y0078694D02*
X0033420Y0079885D01*
X0034027Y0081061D01*
X0034664Y0082222D01*
X0035328Y0083368D01*
X0036020Y0084496D01*
X0036740Y0085608D01*
X0037486Y0086701D01*
X0038260Y0087776D01*
X0039059Y0088832D01*
X0039884Y0089868D01*
X0040733Y0090883D01*
X0041608Y0091877D01*
X0042506Y0092850D01*
X0043428Y0093800D01*
X0044373Y0094727D01*
X0045340Y0095631D01*
X0046330Y0096512D01*
X0047340Y0097367D01*
X0048371Y0098198D01*
X0049422Y0099003D01*
X0050492Y0099782D01*
X0051582Y0100535D01*
X0052689Y0101261D01*
X0053814Y0101960D01*
X0054955Y0102631D01*
X0056112Y0103274D01*
X0057285Y0103888D01*
X0058473Y0104474D01*
X0059674Y0105030D01*
X0060889Y0105557D01*
X0062116Y0106054D01*
X0063355Y0106521D01*
X0064605Y0106957D01*
X0065866Y0107363D01*
X0067136Y0107737D01*
X0068414Y0108081D01*
X0069701Y0108393D01*
X0070995Y0108673D01*
X0072296Y0108922D01*
X0073602Y0109139D01*
X0074913Y0109324D01*
X0076228Y0109477D01*
X0077547Y0109597D01*
X0078868Y0109686D01*
X0080190Y0109742D01*
X0081514Y0109765D01*
X0082838Y0109756D01*
X0084162Y0109715D01*
X0085484Y0109642D01*
X0086804Y0109536D01*
X0088120Y0109398D01*
X0089433Y0109228D01*
X0090742Y0109025D01*
X0092045Y0108791D01*
X0093342Y0108525D01*
X0094632Y0108227D01*
X0095915Y0107898D01*
X0097189Y0107538D01*
X0098454Y0107146D01*
X0099708Y0106724D01*
X0100953Y0106271D01*
X0102185Y0105788D01*
X0103406Y0105275D01*
X0104614Y0104732D01*
X0105808Y0104160D01*
X0106987Y0103559D01*
X0108152Y0102929D01*
X0109301Y0102270D01*
X0110433Y0101584D01*
X0111548Y0100871D01*
X0112646Y0100130D01*
X0113725Y0099363D01*
X0114785Y0098569D01*
X0115825Y0097750D01*
X0116845Y0096906D01*
X0117844Y0096037D01*
X0118821Y0095144D01*
X0119777Y0094227D01*
X0120709Y0093287D01*
X0121618Y0092324D01*
X0122504Y0091340D01*
X0123365Y0090334D01*
X0124201Y0089308D01*
X0125012Y0088261D01*
X0125797Y0087195D01*
X0126556Y0086110D01*
X0127288Y0085007D01*
X0127993Y0083886D01*
X0128670Y0082748D01*
X0129319Y0081594D01*
X0129940Y0080425D01*
X0130532Y0079240D01*
X0131095Y0078042D01*
X0131628Y0076830D01*
X0132132Y0075605D01*
X0132605Y0074369D01*
X0133048Y0073121D01*
X0133460Y0071863D01*
X0133842Y0070595D01*
X0134192Y0069318D01*
X0134511Y0068033D01*
X0134799Y0066741D01*
X0135055Y0065442D01*
X0135279Y0064137D01*
X0135471Y0062827D01*
X0135631Y0061512D01*
X0135758Y0060194D01*
X0135854Y0058874D01*
X0135917Y0057551D01*
X0135948Y0056228D01*
X0135946Y0054904D01*
X0135912Y0053580D01*
X0135846Y0052258D01*
X0135747Y0050937D01*
X0135616Y0049620D01*
X0135453Y0048306D01*
X0135258Y0046996D01*
X0135031Y0045692D01*
X0134772Y0044393D01*
X0134481Y0043102D01*
X0134159Y0041817D01*
X0131965Y0042616D01*
X0131965Y0042615D02*
X0131834Y0042661D01*
X0131701Y0042703D01*
X0131567Y0042741D01*
X0131432Y0042776D01*
X0131296Y0042806D01*
X0131159Y0042833D01*
X0131022Y0042856D01*
X0130884Y0042875D01*
X0130746Y0042890D01*
X0130607Y0042901D01*
X0130468Y0042908D01*
X0130328Y0042912D01*
X0130189Y0042911D01*
X0130050Y0042907D01*
X0129911Y0042898D01*
X0129772Y0042886D01*
X0129634Y0042869D01*
X0129496Y0042849D01*
X0129359Y0042825D01*
X0129223Y0042797D01*
X0129087Y0042765D01*
X0128952Y0042729D01*
X0128819Y0042689D01*
X0128686Y0042646D01*
X0128555Y0042599D01*
X0128426Y0042548D01*
X0128297Y0042494D01*
X0128171Y0042436D01*
X0128046Y0042375D01*
X0127923Y0042310D01*
X0127801Y0042241D01*
X0127682Y0042169D01*
X0127565Y0042094D01*
X0127450Y0042015D01*
X0127337Y0041934D01*
X0127227Y0041849D01*
X0127119Y0041761D01*
X0127013Y0041670D01*
X0126911Y0041576D01*
X0126811Y0041479D01*
X0126713Y0041379D01*
X0126619Y0041277D01*
X0126527Y0041172D01*
X0126439Y0041064D01*
X0126353Y0040954D01*
X0126271Y0040842D01*
X0126192Y0040727D01*
X0126116Y0040611D01*
X0126044Y0040492D01*
X0125975Y0040371D01*
X0125909Y0040248D01*
X0125847Y0040123D01*
X0125788Y0039997D01*
X0125733Y0039869D01*
X0125682Y0039739D01*
X0125634Y0039608D01*
X0125591Y0039476D01*
X0125550Y0039343D01*
X0125514Y0039209D01*
X0125481Y0039073D01*
X0125453Y0038937D01*
X0125428Y0038800D01*
X0125407Y0038662D01*
X0125390Y0038524D01*
X0125377Y0038385D01*
X0125368Y0038246D01*
X0125362Y0038107D01*
X0125361Y0037968D01*
X0125364Y0037829D01*
X0125370Y0037689D01*
X0125381Y0037551D01*
X0125395Y0037412D01*
X0125414Y0037274D01*
X0125436Y0037136D01*
X0125462Y0037000D01*
X0125492Y0036864D01*
X0125526Y0036729D01*
X0125563Y0036594D01*
X0125605Y0036461D01*
X0125650Y0036330D01*
X0125699Y0036199D01*
X0125751Y0036070D01*
X0125807Y0035943D01*
X0125867Y0035817D01*
X0125930Y0035693D01*
X0125997Y0035571D01*
X0126067Y0035451D01*
X0126141Y0035332D01*
X0126218Y0035216D01*
X0126298Y0035102D01*
X0126381Y0034991D01*
X0126468Y0034882D01*
X0126557Y0034775D01*
X0126650Y0034671D01*
X0126745Y0034569D01*
X0126844Y0034471D01*
X0126945Y0034375D01*
X0127048Y0034282D01*
X0127155Y0034192D01*
X0127263Y0034105D01*
X0127375Y0034021D01*
X0127488Y0033940D01*
X0127604Y0033863D01*
X0127722Y0033789D01*
X0127842Y0033718D01*
X0127964Y0033650D01*
X0128087Y0033587D01*
X0128213Y0033526D01*
X0128340Y0033469D01*
X0128469Y0033416D01*
X0128599Y0033367D01*
X0128598Y0033367D02*
X0130793Y0032568D01*
X0079849Y0001533D02*
X0078539Y0001596D01*
X0077231Y0001692D01*
X0075926Y0001818D01*
X0074624Y0001977D01*
X0073327Y0002167D01*
X0072035Y0002388D01*
X0070748Y0002641D01*
X0069468Y0002924D01*
X0068195Y0003239D01*
X0066930Y0003584D01*
X0065674Y0003960D01*
X0064427Y0004366D01*
X0063190Y0004802D01*
X0061965Y0005268D01*
X0060751Y0005764D01*
X0059549Y0006289D01*
X0058361Y0006843D01*
X0057186Y0007425D01*
X0056026Y0008036D01*
X0054881Y0008674D01*
X0053751Y0009341D01*
X0052638Y0010034D01*
X0051542Y0010754D01*
X0050464Y0011500D01*
X0049405Y0012273D01*
X0048364Y0013071D01*
X0047343Y0013893D01*
X0046342Y0014740D01*
X0045362Y0015612D01*
X0044404Y0016506D01*
X0043467Y0017424D01*
X0042553Y0018364D01*
X0041662Y0019326D01*
X0040794Y0020309D01*
X0039951Y0021313D01*
X0039132Y0022337D01*
X0038338Y0023381D01*
X0037570Y0024443D01*
X0036827Y0025524D01*
X0036111Y0026622D01*
X0035422Y0027738D01*
X0034760Y0028870D01*
X0034126Y0030017D01*
X0033520Y0031180D01*
X0032942Y0032357D01*
X0032392Y0033547D01*
X0031872Y0034751D01*
X0031381Y0035967D01*
X0030919Y0037194D01*
X0030488Y0038432D01*
X0030086Y0039681D01*
X0029715Y0040938D01*
X0029375Y0042204D01*
X0029065Y0043478D01*
X0028786Y0044760D01*
X0028538Y0046047D01*
X0028322Y0047340D01*
X0028137Y0048639D01*
X0027983Y0049941D01*
X0027861Y0051246D01*
X0027770Y0052554D01*
X0027712Y0053864D01*
X0027685Y0055175D01*
X0027690Y0056486D01*
X0027726Y0057797D01*
X0027795Y0059107D01*
X0027895Y0060414D01*
X0028026Y0061719D01*
X0028190Y0063020D01*
X0028384Y0064316D01*
X0028610Y0065608D01*
X0028868Y0066894D01*
X0029156Y0068173D01*
X0029475Y0069445D01*
X0079848Y0001533D02*
X0079852Y0001620D01*
X0079859Y0001707D01*
X0079870Y0001794D01*
X0079886Y0001880D01*
X0079904Y0001965D01*
X0079927Y0002049D01*
X0079953Y0002133D01*
X0079983Y0002215D01*
X0080017Y0002295D01*
X0080054Y0002374D01*
X0080095Y0002452D01*
X0080139Y0002527D01*
X0080186Y0002600D01*
X0080237Y0002672D01*
X0080290Y0002741D01*
X0080347Y0002807D01*
X0080407Y0002871D01*
X0080469Y0002932D01*
X0080534Y0002990D01*
X0080601Y0003046D01*
X0080671Y0003098D01*
X0080743Y0003148D01*
X0080818Y0003194D01*
X0080894Y0003236D01*
X0080972Y0003275D01*
X0081052Y0003311D01*
X0081133Y0003343D01*
X0081215Y0003372D01*
X0081299Y0003397D01*
X0081384Y0003418D01*
X0081469Y0003435D01*
X0081556Y0003449D01*
X0081643Y0003458D01*
X0081730Y0003464D01*
X0081817Y0003466D01*
X0081904Y0003464D01*
X0081991Y0003458D01*
X0082078Y0003449D01*
X0082165Y0003435D01*
X0082250Y0003418D01*
X0082335Y0003397D01*
X0082419Y0003372D01*
X0082501Y0003343D01*
X0082582Y0003311D01*
X0082662Y0003275D01*
X0082740Y0003236D01*
X0082816Y0003194D01*
X0082891Y0003148D01*
X0082963Y0003098D01*
X0083033Y0003046D01*
X0083100Y0002990D01*
X0083165Y0002932D01*
X0083227Y0002871D01*
X0083287Y0002807D01*
X0083344Y0002741D01*
X0083397Y0002672D01*
X0083448Y0002600D01*
X0083495Y0002527D01*
X0083539Y0002452D01*
X0083580Y0002374D01*
X0083617Y0002295D01*
X0083651Y0002215D01*
X0083681Y0002133D01*
X0083707Y0002049D01*
X0083730Y0001965D01*
X0083748Y0001880D01*
X0083764Y0001794D01*
X0083775Y0001707D01*
X0083782Y0001620D01*
X0083786Y0001533D01*
D11*
X0083785Y0001533D02*
X0085100Y0001597D01*
X0086413Y0001692D01*
X0087723Y0001820D01*
X0089030Y0001980D01*
X0090333Y0002171D01*
X0091630Y0002394D01*
X0092922Y0002648D01*
X0094207Y0002934D01*
X0095484Y0003251D01*
X0096754Y0003599D01*
X0098015Y0003977D01*
X0099266Y0004386D01*
X0100507Y0004826D01*
X0101737Y0005295D01*
X0102955Y0005794D01*
X0104160Y0006323D01*
X0105353Y0006881D01*
X0106531Y0007468D01*
X0107695Y0008083D01*
X0108843Y0008726D01*
X0109976Y0009397D01*
X0111092Y0010096D01*
X0112190Y0010821D01*
X0113271Y0011573D01*
X0114333Y0012351D01*
X0115376Y0013154D01*
X0116399Y0013983D01*
X0117401Y0014836D01*
X0118383Y0015713D01*
X0119343Y0016614D01*
X0120280Y0017538D01*
X0121195Y0018485D01*
X0122087Y0019453D01*
X0122955Y0020443D01*
X0123798Y0021454D01*
X0124617Y0022485D01*
X0125410Y0023535D01*
X0126178Y0024605D01*
X0126919Y0025692D01*
X0127633Y0026798D01*
X0128321Y0027921D01*
X0128981Y0029060D01*
X0129613Y0030214D01*
X0130217Y0031384D01*
X0130792Y0032568D01*
X0100451Y0069782D02*
X0100453Y0069851D01*
X0100459Y0069919D01*
X0100469Y0069987D01*
X0100483Y0070054D01*
X0100501Y0070121D01*
X0100522Y0070186D01*
X0100548Y0070250D01*
X0100577Y0070312D01*
X0100609Y0070372D01*
X0100645Y0070431D01*
X0100685Y0070487D01*
X0100727Y0070541D01*
X0100773Y0070592D01*
X0100822Y0070641D01*
X0100873Y0070687D01*
X0100927Y0070729D01*
X0100983Y0070769D01*
X0101041Y0070805D01*
X0101102Y0070837D01*
X0101164Y0070866D01*
X0101228Y0070892D01*
X0101293Y0070913D01*
X0101360Y0070931D01*
X0101427Y0070945D01*
X0101495Y0070955D01*
X0101563Y0070961D01*
X0101632Y0070963D01*
X0101701Y0070961D01*
X0101769Y0070955D01*
X0101837Y0070945D01*
X0101904Y0070931D01*
X0101971Y0070913D01*
X0102036Y0070892D01*
X0102100Y0070866D01*
X0102162Y0070837D01*
X0102222Y0070805D01*
X0102281Y0070769D01*
X0102337Y0070729D01*
X0102391Y0070687D01*
X0102442Y0070641D01*
X0102491Y0070592D01*
X0102537Y0070541D01*
X0102579Y0070487D01*
X0102619Y0070431D01*
X0102655Y0070372D01*
X0102687Y0070312D01*
X0102716Y0070250D01*
X0102742Y0070186D01*
X0102763Y0070121D01*
X0102781Y0070054D01*
X0102795Y0069987D01*
X0102805Y0069919D01*
X0102811Y0069851D01*
X0102813Y0069782D01*
X0102811Y0069713D01*
X0102805Y0069645D01*
X0102795Y0069577D01*
X0102781Y0069510D01*
X0102763Y0069443D01*
X0102742Y0069378D01*
X0102716Y0069314D01*
X0102687Y0069252D01*
X0102655Y0069191D01*
X0102619Y0069133D01*
X0102579Y0069077D01*
X0102537Y0069023D01*
X0102491Y0068972D01*
X0102442Y0068923D01*
X0102391Y0068877D01*
X0102337Y0068835D01*
X0102281Y0068795D01*
X0102223Y0068759D01*
X0102162Y0068727D01*
X0102100Y0068698D01*
X0102036Y0068672D01*
X0101971Y0068651D01*
X0101904Y0068633D01*
X0101837Y0068619D01*
X0101769Y0068609D01*
X0101701Y0068603D01*
X0101632Y0068601D01*
X0101563Y0068603D01*
X0101495Y0068609D01*
X0101427Y0068619D01*
X0101360Y0068633D01*
X0101293Y0068651D01*
X0101228Y0068672D01*
X0101164Y0068698D01*
X0101102Y0068727D01*
X0101041Y0068759D01*
X0100983Y0068795D01*
X0100927Y0068835D01*
X0100873Y0068877D01*
X0100822Y0068923D01*
X0100773Y0068972D01*
X0100727Y0069023D01*
X0100685Y0069077D01*
X0100645Y0069133D01*
X0100609Y0069191D01*
X0100577Y0069252D01*
X0100548Y0069314D01*
X0100522Y0069378D01*
X0100501Y0069443D01*
X0100483Y0069510D01*
X0100469Y0069577D01*
X0100459Y0069645D01*
X0100453Y0069713D01*
X0100451Y0069782D01*
X0074554Y0079208D02*
X0074556Y0079277D01*
X0074562Y0079345D01*
X0074572Y0079413D01*
X0074586Y0079480D01*
X0074604Y0079547D01*
X0074625Y0079612D01*
X0074651Y0079676D01*
X0074680Y0079738D01*
X0074712Y0079798D01*
X0074748Y0079857D01*
X0074788Y0079913D01*
X0074830Y0079967D01*
X0074876Y0080018D01*
X0074925Y0080067D01*
X0074976Y0080113D01*
X0075030Y0080155D01*
X0075086Y0080195D01*
X0075144Y0080231D01*
X0075205Y0080263D01*
X0075267Y0080292D01*
X0075331Y0080318D01*
X0075396Y0080339D01*
X0075463Y0080357D01*
X0075530Y0080371D01*
X0075598Y0080381D01*
X0075666Y0080387D01*
X0075735Y0080389D01*
X0075804Y0080387D01*
X0075872Y0080381D01*
X0075940Y0080371D01*
X0076007Y0080357D01*
X0076074Y0080339D01*
X0076139Y0080318D01*
X0076203Y0080292D01*
X0076265Y0080263D01*
X0076325Y0080231D01*
X0076384Y0080195D01*
X0076440Y0080155D01*
X0076494Y0080113D01*
X0076545Y0080067D01*
X0076594Y0080018D01*
X0076640Y0079967D01*
X0076682Y0079913D01*
X0076722Y0079857D01*
X0076758Y0079798D01*
X0076790Y0079738D01*
X0076819Y0079676D01*
X0076845Y0079612D01*
X0076866Y0079547D01*
X0076884Y0079480D01*
X0076898Y0079413D01*
X0076908Y0079345D01*
X0076914Y0079277D01*
X0076916Y0079208D01*
X0076914Y0079139D01*
X0076908Y0079071D01*
X0076898Y0079003D01*
X0076884Y0078936D01*
X0076866Y0078869D01*
X0076845Y0078804D01*
X0076819Y0078740D01*
X0076790Y0078678D01*
X0076758Y0078617D01*
X0076722Y0078559D01*
X0076682Y0078503D01*
X0076640Y0078449D01*
X0076594Y0078398D01*
X0076545Y0078349D01*
X0076494Y0078303D01*
X0076440Y0078261D01*
X0076384Y0078221D01*
X0076326Y0078185D01*
X0076265Y0078153D01*
X0076203Y0078124D01*
X0076139Y0078098D01*
X0076074Y0078077D01*
X0076007Y0078059D01*
X0075940Y0078045D01*
X0075872Y0078035D01*
X0075804Y0078029D01*
X0075735Y0078027D01*
X0075666Y0078029D01*
X0075598Y0078035D01*
X0075530Y0078045D01*
X0075463Y0078059D01*
X0075396Y0078077D01*
X0075331Y0078098D01*
X0075267Y0078124D01*
X0075205Y0078153D01*
X0075144Y0078185D01*
X0075086Y0078221D01*
X0075030Y0078261D01*
X0074976Y0078303D01*
X0074925Y0078349D01*
X0074876Y0078398D01*
X0074830Y0078449D01*
X0074788Y0078503D01*
X0074748Y0078559D01*
X0074712Y0078617D01*
X0074680Y0078678D01*
X0074651Y0078740D01*
X0074625Y0078804D01*
X0074604Y0078869D01*
X0074586Y0078936D01*
X0074572Y0079003D01*
X0074562Y0079071D01*
X0074556Y0079139D01*
X0074554Y0079208D01*
D12*
X0065150Y0095038D02*
X0063700Y0097550D01*
X0064397Y0097952D01*
X0064397Y0097953D02*
X0064447Y0097979D01*
X0064498Y0098002D01*
X0064551Y0098022D01*
X0064605Y0098037D01*
X0064660Y0098049D01*
X0064716Y0098057D01*
X0064772Y0098061D01*
X0064828Y0098061D01*
X0064884Y0098057D01*
X0064940Y0098049D01*
X0064995Y0098037D01*
X0065049Y0098022D01*
X0065102Y0098002D01*
X0065153Y0097979D01*
X0065203Y0097953D01*
X0065251Y0097923D01*
X0065296Y0097890D01*
X0065339Y0097854D01*
X0065380Y0097815D01*
X0065417Y0097773D01*
X0065452Y0097729D01*
X0065484Y0097682D01*
X0065512Y0097633D01*
X0065536Y0097583D01*
X0065557Y0097531D01*
X0065575Y0097477D01*
X0065588Y0097423D01*
X0065598Y0097367D01*
X0065604Y0097311D01*
X0065606Y0097255D01*
X0065604Y0097199D01*
X0065598Y0097143D01*
X0065588Y0097087D01*
X0065575Y0097033D01*
X0065557Y0096979D01*
X0065536Y0096927D01*
X0065512Y0096877D01*
X0065484Y0096828D01*
X0065452Y0096781D01*
X0065417Y0096737D01*
X0065380Y0096695D01*
X0065339Y0096656D01*
X0065296Y0096620D01*
X0065251Y0096587D01*
X0065203Y0096557D01*
X0064505Y0096154D01*
X0065343Y0096638D02*
X0066545Y0095844D01*
X0068324Y0096871D02*
X0067572Y0099785D01*
X0066177Y0098980D01*
X0066338Y0098700D01*
X0046959Y0072154D02*
X0046959Y0070543D01*
X0044703Y0071187D01*
X0043666Y0071510D02*
X0043666Y0070543D01*
X0043666Y0071510D02*
X0043664Y0071558D01*
X0043659Y0071606D01*
X0043650Y0071653D01*
X0043637Y0071700D01*
X0043621Y0071745D01*
X0043602Y0071789D01*
X0043580Y0071832D01*
X0043554Y0071873D01*
X0043525Y0071912D01*
X0043494Y0071948D01*
X0043460Y0071982D01*
X0043424Y0072013D01*
X0043385Y0072042D01*
X0043344Y0072068D01*
X0043301Y0072090D01*
X0043257Y0072109D01*
X0043212Y0072125D01*
X0043165Y0072138D01*
X0043118Y0072147D01*
X0043070Y0072152D01*
X0043022Y0072154D01*
X0042700Y0072154D01*
X0042649Y0072152D01*
X0042599Y0072146D01*
X0042550Y0072136D01*
X0042501Y0072122D01*
X0042454Y0072105D01*
X0042408Y0072084D01*
X0042364Y0072059D01*
X0042321Y0072031D01*
X0042282Y0072000D01*
X0042245Y0071965D01*
X0042210Y0071928D01*
X0042179Y0071889D01*
X0042151Y0071846D01*
X0042126Y0071802D01*
X0042105Y0071756D01*
X0042088Y0071709D01*
X0042074Y0071660D01*
X0042064Y0071611D01*
X0042058Y0071561D01*
X0042056Y0071510D01*
X0042055Y0071510D02*
X0042055Y0070543D01*
X0040766Y0070543D01*
X0040766Y0072154D01*
X0042378Y0068650D02*
X0043666Y0069294D01*
X0044703Y0068489D02*
X0044703Y0067683D01*
X0047603Y0067683D01*
X0046315Y0067683D02*
X0046315Y0068489D01*
X0046315Y0068650D02*
X0047603Y0069294D01*
X0046315Y0068489D02*
X0046313Y0068544D01*
X0046307Y0068599D01*
X0046298Y0068653D01*
X0046285Y0068706D01*
X0046268Y0068759D01*
X0046248Y0068810D01*
X0046225Y0068860D01*
X0046198Y0068908D01*
X0046167Y0068954D01*
X0046134Y0068998D01*
X0046098Y0069039D01*
X0046059Y0069078D01*
X0046018Y0069114D01*
X0045974Y0069147D01*
X0045928Y0069178D01*
X0045880Y0069205D01*
X0045830Y0069228D01*
X0045779Y0069248D01*
X0045726Y0069265D01*
X0045673Y0069278D01*
X0045619Y0069287D01*
X0045564Y0069293D01*
X0045509Y0069295D01*
X0045454Y0069293D01*
X0045399Y0069287D01*
X0045345Y0069278D01*
X0045292Y0069265D01*
X0045239Y0069248D01*
X0045188Y0069228D01*
X0045138Y0069205D01*
X0045090Y0069178D01*
X0045044Y0069147D01*
X0045000Y0069114D01*
X0044959Y0069078D01*
X0044920Y0069039D01*
X0044884Y0068998D01*
X0044851Y0068954D01*
X0044820Y0068908D01*
X0044793Y0068860D01*
X0044770Y0068810D01*
X0044750Y0068759D01*
X0044733Y0068706D01*
X0044720Y0068653D01*
X0044711Y0068599D01*
X0044705Y0068544D01*
X0044703Y0068489D01*
X0043666Y0067683D02*
X0040766Y0067683D01*
X0040766Y0068489D01*
X0040768Y0068544D01*
X0040774Y0068599D01*
X0040783Y0068653D01*
X0040796Y0068706D01*
X0040813Y0068759D01*
X0040833Y0068810D01*
X0040856Y0068860D01*
X0040883Y0068908D01*
X0040914Y0068954D01*
X0040947Y0068998D01*
X0040983Y0069039D01*
X0041022Y0069078D01*
X0041063Y0069114D01*
X0041107Y0069147D01*
X0041153Y0069178D01*
X0041201Y0069205D01*
X0041251Y0069228D01*
X0041302Y0069248D01*
X0041355Y0069265D01*
X0041408Y0069278D01*
X0041462Y0069287D01*
X0041517Y0069293D01*
X0041572Y0069295D01*
X0041627Y0069293D01*
X0041682Y0069287D01*
X0041736Y0069278D01*
X0041789Y0069265D01*
X0041842Y0069248D01*
X0041893Y0069228D01*
X0041943Y0069205D01*
X0041991Y0069178D01*
X0042037Y0069147D01*
X0042081Y0069114D01*
X0042122Y0069078D01*
X0042161Y0069039D01*
X0042197Y0068998D01*
X0042230Y0068954D01*
X0042261Y0068908D01*
X0042288Y0068860D01*
X0042311Y0068810D01*
X0042331Y0068759D01*
X0042348Y0068706D01*
X0042361Y0068653D01*
X0042370Y0068599D01*
X0042376Y0068544D01*
X0042378Y0068489D01*
X0042378Y0067683D01*
X0042053Y0062127D02*
X0031030Y0062127D01*
X0031030Y0049135D01*
X0042053Y0049135D01*
X0042053Y0062127D01*
X0038510Y0058780D02*
X0032605Y0058780D01*
X0032605Y0052481D01*
X0038510Y0052481D01*
X0038510Y0058780D01*
X0035373Y0064836D02*
X0033762Y0064836D01*
X0035132Y0066447D01*
X0034648Y0067735D02*
X0034589Y0067733D01*
X0034531Y0067728D01*
X0034473Y0067718D01*
X0034416Y0067706D01*
X0034360Y0067689D01*
X0034305Y0067670D01*
X0034251Y0067646D01*
X0034199Y0067620D01*
X0034149Y0067590D01*
X0034100Y0067557D01*
X0034054Y0067521D01*
X0034010Y0067482D01*
X0033969Y0067441D01*
X0033930Y0067397D01*
X0033894Y0067351D01*
X0033862Y0067302D01*
X0033832Y0067252D01*
X0033805Y0067200D01*
X0033782Y0067146D01*
X0033762Y0067091D01*
X0035131Y0066447D02*
X0035168Y0066484D01*
X0035202Y0066524D01*
X0035234Y0066566D01*
X0035262Y0066611D01*
X0035288Y0066657D01*
X0035310Y0066704D01*
X0035329Y0066753D01*
X0035345Y0066803D01*
X0035357Y0066854D01*
X0035366Y0066906D01*
X0035371Y0066958D01*
X0035373Y0067011D01*
X0035371Y0067063D01*
X0035366Y0067114D01*
X0035356Y0067165D01*
X0035344Y0067215D01*
X0035327Y0067264D01*
X0035307Y0067312D01*
X0035284Y0067358D01*
X0035258Y0067403D01*
X0035228Y0067445D01*
X0035196Y0067486D01*
X0035161Y0067524D01*
X0035123Y0067559D01*
X0035082Y0067591D01*
X0035040Y0067621D01*
X0034995Y0067647D01*
X0034949Y0067670D01*
X0034901Y0067690D01*
X0034852Y0067707D01*
X0034802Y0067719D01*
X0034751Y0067729D01*
X0034700Y0067734D01*
X0034648Y0067736D01*
X0032397Y0066930D02*
X0032397Y0065641D01*
X0032398Y0065641D02*
X0032396Y0065586D01*
X0032390Y0065531D01*
X0032381Y0065477D01*
X0032368Y0065424D01*
X0032351Y0065371D01*
X0032331Y0065320D01*
X0032308Y0065270D01*
X0032281Y0065222D01*
X0032250Y0065176D01*
X0032217Y0065132D01*
X0032181Y0065091D01*
X0032142Y0065052D01*
X0032101Y0065016D01*
X0032057Y0064983D01*
X0032011Y0064952D01*
X0031963Y0064925D01*
X0031913Y0064902D01*
X0031862Y0064882D01*
X0031809Y0064865D01*
X0031756Y0064852D01*
X0031702Y0064843D01*
X0031647Y0064837D01*
X0031592Y0064835D01*
X0031592Y0064836D02*
X0030786Y0064836D01*
X0030786Y0067736D01*
X0031592Y0067736D01*
X0031647Y0067734D01*
X0031702Y0067728D01*
X0031756Y0067719D01*
X0031809Y0067706D01*
X0031862Y0067689D01*
X0031913Y0067669D01*
X0031963Y0067646D01*
X0032011Y0067619D01*
X0032057Y0067588D01*
X0032101Y0067555D01*
X0032142Y0067519D01*
X0032181Y0067480D01*
X0032217Y0067439D01*
X0032250Y0067395D01*
X0032281Y0067349D01*
X0032308Y0067301D01*
X0032331Y0067251D01*
X0032351Y0067200D01*
X0032368Y0067147D01*
X0032381Y0067094D01*
X0032390Y0067040D01*
X0032396Y0066985D01*
X0032398Y0066930D01*
X0046315Y0071671D02*
X0047603Y0071671D01*
X0103227Y0098712D02*
X0103227Y0100807D01*
X0104838Y0100807D02*
X0104838Y0098712D01*
X0104839Y0098712D02*
X0104837Y0098657D01*
X0104831Y0098602D01*
X0104822Y0098548D01*
X0104809Y0098495D01*
X0104792Y0098442D01*
X0104772Y0098391D01*
X0104749Y0098341D01*
X0104722Y0098293D01*
X0104691Y0098247D01*
X0104658Y0098203D01*
X0104622Y0098162D01*
X0104583Y0098123D01*
X0104542Y0098087D01*
X0104498Y0098054D01*
X0104452Y0098023D01*
X0104404Y0097996D01*
X0104354Y0097973D01*
X0104303Y0097953D01*
X0104250Y0097936D01*
X0104197Y0097923D01*
X0104143Y0097914D01*
X0104088Y0097908D01*
X0104033Y0097906D01*
X0103978Y0097908D01*
X0103923Y0097914D01*
X0103869Y0097923D01*
X0103816Y0097936D01*
X0103763Y0097953D01*
X0103712Y0097973D01*
X0103662Y0097996D01*
X0103614Y0098023D01*
X0103568Y0098054D01*
X0103524Y0098087D01*
X0103483Y0098123D01*
X0103444Y0098162D01*
X0103408Y0098203D01*
X0103375Y0098247D01*
X0103344Y0098293D01*
X0103317Y0098341D01*
X0103294Y0098391D01*
X0103274Y0098442D01*
X0103257Y0098495D01*
X0103244Y0098548D01*
X0103235Y0098602D01*
X0103229Y0098657D01*
X0103227Y0098712D01*
X0106203Y0097907D02*
X0107814Y0097907D01*
X0106203Y0097907D02*
X0107572Y0099518D01*
X0107089Y0100806D02*
X0107030Y0100804D01*
X0106972Y0100799D01*
X0106914Y0100789D01*
X0106857Y0100777D01*
X0106801Y0100760D01*
X0106746Y0100741D01*
X0106692Y0100717D01*
X0106640Y0100691D01*
X0106590Y0100661D01*
X0106541Y0100628D01*
X0106495Y0100592D01*
X0106451Y0100553D01*
X0106410Y0100512D01*
X0106371Y0100468D01*
X0106335Y0100422D01*
X0106303Y0100373D01*
X0106273Y0100323D01*
X0106246Y0100271D01*
X0106223Y0100217D01*
X0106203Y0100162D01*
X0107572Y0099518D02*
X0107609Y0099555D01*
X0107643Y0099595D01*
X0107675Y0099637D01*
X0107703Y0099682D01*
X0107729Y0099728D01*
X0107751Y0099775D01*
X0107770Y0099824D01*
X0107786Y0099874D01*
X0107798Y0099925D01*
X0107807Y0099977D01*
X0107812Y0100029D01*
X0107814Y0100082D01*
X0107812Y0100134D01*
X0107807Y0100185D01*
X0107797Y0100236D01*
X0107785Y0100286D01*
X0107768Y0100335D01*
X0107748Y0100383D01*
X0107725Y0100429D01*
X0107699Y0100474D01*
X0107669Y0100516D01*
X0107637Y0100557D01*
X0107602Y0100595D01*
X0107564Y0100630D01*
X0107523Y0100662D01*
X0107481Y0100692D01*
X0107436Y0100718D01*
X0107390Y0100741D01*
X0107342Y0100761D01*
X0107293Y0100778D01*
X0107243Y0100790D01*
X0107192Y0100800D01*
X0107141Y0100805D01*
X0107089Y0100807D01*
X0121581Y0062127D02*
X0121581Y0049135D01*
X0132605Y0049135D01*
X0132605Y0062127D01*
X0121581Y0062127D01*
X0125124Y0058780D02*
X0125124Y0052481D01*
X0131030Y0052481D01*
X0131030Y0058780D01*
X0125124Y0058780D01*
X0126455Y0046082D02*
X0127261Y0046082D01*
X0127261Y0046083D02*
X0127316Y0046081D01*
X0127371Y0046075D01*
X0127425Y0046066D01*
X0127478Y0046053D01*
X0127531Y0046036D01*
X0127582Y0046016D01*
X0127632Y0045993D01*
X0127680Y0045966D01*
X0127726Y0045935D01*
X0127770Y0045902D01*
X0127811Y0045866D01*
X0127850Y0045827D01*
X0127886Y0045786D01*
X0127919Y0045742D01*
X0127950Y0045696D01*
X0127977Y0045648D01*
X0128000Y0045598D01*
X0128020Y0045547D01*
X0128037Y0045494D01*
X0128050Y0045441D01*
X0128059Y0045387D01*
X0128065Y0045332D01*
X0128067Y0045277D01*
X0128066Y0045277D02*
X0128066Y0043988D01*
X0128067Y0043988D02*
X0128065Y0043933D01*
X0128059Y0043878D01*
X0128050Y0043824D01*
X0128037Y0043771D01*
X0128020Y0043718D01*
X0128000Y0043667D01*
X0127977Y0043617D01*
X0127950Y0043569D01*
X0127919Y0043523D01*
X0127886Y0043479D01*
X0127850Y0043438D01*
X0127811Y0043399D01*
X0127770Y0043363D01*
X0127726Y0043330D01*
X0127680Y0043299D01*
X0127632Y0043272D01*
X0127582Y0043249D01*
X0127531Y0043229D01*
X0127478Y0043212D01*
X0127425Y0043199D01*
X0127371Y0043190D01*
X0127316Y0043184D01*
X0127261Y0043182D01*
X0126455Y0043182D01*
X0126455Y0046082D01*
X0129431Y0045438D02*
X0130237Y0046082D01*
X0130237Y0043182D01*
X0131042Y0043182D02*
X0129431Y0043182D01*
X0124187Y0041383D02*
X0124187Y0039772D01*
X0124187Y0040577D02*
X0121287Y0040577D01*
X0121931Y0039772D01*
X0121287Y0038602D02*
X0124187Y0037958D01*
X0122254Y0037313D01*
X0124187Y0036669D01*
X0121287Y0036024D01*
X0122495Y0033742D02*
X0122469Y0033702D01*
X0122440Y0033663D01*
X0122408Y0033626D01*
X0122373Y0033592D01*
X0122336Y0033561D01*
X0122297Y0033532D01*
X0122256Y0033506D01*
X0122213Y0033484D01*
X0122168Y0033465D01*
X0122122Y0033449D01*
X0122076Y0033436D01*
X0122028Y0033427D01*
X0121980Y0033422D01*
X0121931Y0033420D01*
X0121931Y0033421D02*
X0121883Y0033423D01*
X0121835Y0033428D01*
X0121788Y0033437D01*
X0121741Y0033450D01*
X0121696Y0033466D01*
X0121652Y0033485D01*
X0121609Y0033507D01*
X0121568Y0033533D01*
X0121529Y0033562D01*
X0121493Y0033593D01*
X0121459Y0033627D01*
X0121428Y0033663D01*
X0121399Y0033702D01*
X0121373Y0033743D01*
X0121351Y0033786D01*
X0121332Y0033830D01*
X0121316Y0033875D01*
X0121303Y0033922D01*
X0121294Y0033969D01*
X0121289Y0034017D01*
X0121287Y0034065D01*
X0121289Y0034130D01*
X0121294Y0034194D01*
X0121303Y0034259D01*
X0121315Y0034322D01*
X0121330Y0034385D01*
X0121349Y0034447D01*
X0121371Y0034508D01*
X0121396Y0034567D01*
X0121425Y0034626D01*
X0121457Y0034682D01*
X0121491Y0034737D01*
X0121529Y0034790D01*
X0123783Y0033340D02*
X0123833Y0033391D01*
X0123880Y0033446D01*
X0123923Y0033502D01*
X0123964Y0033561D01*
X0124002Y0033622D01*
X0124036Y0033685D01*
X0124067Y0033750D01*
X0124095Y0033816D01*
X0124119Y0033883D01*
X0124139Y0033952D01*
X0124156Y0034022D01*
X0124169Y0034092D01*
X0124178Y0034163D01*
X0124184Y0034234D01*
X0124186Y0034306D01*
X0124184Y0034354D01*
X0124179Y0034402D01*
X0124170Y0034449D01*
X0124157Y0034496D01*
X0124141Y0034541D01*
X0124122Y0034585D01*
X0124100Y0034628D01*
X0124074Y0034669D01*
X0124045Y0034708D01*
X0124014Y0034744D01*
X0123980Y0034778D01*
X0123944Y0034809D01*
X0123905Y0034838D01*
X0123864Y0034864D01*
X0123821Y0034886D01*
X0123777Y0034905D01*
X0123732Y0034921D01*
X0123685Y0034934D01*
X0123638Y0034943D01*
X0123590Y0034948D01*
X0123542Y0034950D01*
X0122979Y0034629D02*
X0122495Y0033743D01*
X0122978Y0034629D02*
X0123004Y0034669D01*
X0123033Y0034708D01*
X0123065Y0034745D01*
X0123100Y0034779D01*
X0123137Y0034810D01*
X0123176Y0034839D01*
X0123217Y0034865D01*
X0123260Y0034887D01*
X0123305Y0034906D01*
X0123351Y0034922D01*
X0123397Y0034935D01*
X0123445Y0034944D01*
X0123493Y0034949D01*
X0123542Y0034951D01*
X0103727Y0010649D02*
X0103727Y0007749D01*
X0104532Y0007749D02*
X0102921Y0007749D01*
X0101556Y0008555D02*
X0101556Y0009844D01*
X0101557Y0009844D02*
X0101555Y0009899D01*
X0101549Y0009954D01*
X0101540Y0010008D01*
X0101527Y0010061D01*
X0101510Y0010114D01*
X0101490Y0010165D01*
X0101467Y0010215D01*
X0101440Y0010263D01*
X0101409Y0010309D01*
X0101376Y0010353D01*
X0101340Y0010394D01*
X0101301Y0010433D01*
X0101260Y0010469D01*
X0101216Y0010502D01*
X0101170Y0010533D01*
X0101122Y0010560D01*
X0101072Y0010583D01*
X0101021Y0010603D01*
X0100968Y0010620D01*
X0100915Y0010633D01*
X0100861Y0010642D01*
X0100806Y0010648D01*
X0100751Y0010650D01*
X0100751Y0010649D02*
X0099945Y0010649D01*
X0099945Y0007749D01*
X0100751Y0007749D01*
X0100806Y0007751D01*
X0100861Y0007757D01*
X0100915Y0007766D01*
X0100968Y0007779D01*
X0101021Y0007796D01*
X0101072Y0007816D01*
X0101122Y0007839D01*
X0101170Y0007866D01*
X0101216Y0007897D01*
X0101260Y0007930D01*
X0101301Y0007966D01*
X0101340Y0008005D01*
X0101376Y0008046D01*
X0101409Y0008090D01*
X0101440Y0008136D01*
X0101467Y0008184D01*
X0101490Y0008234D01*
X0101510Y0008285D01*
X0101527Y0008338D01*
X0101540Y0008391D01*
X0101549Y0008445D01*
X0101555Y0008500D01*
X0101557Y0008555D01*
X0102921Y0010005D02*
X0103727Y0010649D01*
X0098744Y0010649D02*
X0097455Y0010649D01*
X0097455Y0007749D01*
X0098744Y0007749D01*
X0098422Y0009360D02*
X0097455Y0009360D01*
X0096248Y0007749D02*
X0094959Y0007749D01*
X0094959Y0010649D01*
X0057049Y0013755D02*
X0056058Y0011029D01*
X0055301Y0011305D02*
X0056815Y0010754D01*
X0054248Y0011688D02*
X0053642Y0011909D01*
X0053643Y0011909D02*
X0053598Y0011927D01*
X0053555Y0011948D01*
X0053514Y0011973D01*
X0053474Y0012001D01*
X0053437Y0012031D01*
X0053402Y0012064D01*
X0053370Y0012100D01*
X0053340Y0012138D01*
X0053313Y0012178D01*
X0053290Y0012220D01*
X0053270Y0012264D01*
X0053253Y0012309D01*
X0053239Y0012355D01*
X0053229Y0012402D01*
X0053222Y0012450D01*
X0053219Y0012498D01*
X0053220Y0012546D01*
X0053224Y0012594D01*
X0053232Y0012642D01*
X0053243Y0012688D01*
X0053258Y0012734D01*
X0053257Y0012734D02*
X0053808Y0014248D01*
X0053809Y0014248D02*
X0053827Y0014293D01*
X0053848Y0014336D01*
X0053873Y0014377D01*
X0053901Y0014417D01*
X0053931Y0014454D01*
X0053964Y0014489D01*
X0054000Y0014521D01*
X0054038Y0014551D01*
X0054078Y0014578D01*
X0054120Y0014601D01*
X0054164Y0014621D01*
X0054209Y0014638D01*
X0054255Y0014652D01*
X0054302Y0014662D01*
X0054350Y0014669D01*
X0054398Y0014672D01*
X0054446Y0014671D01*
X0054494Y0014667D01*
X0054542Y0014659D01*
X0054588Y0014648D01*
X0054634Y0014633D01*
X0054634Y0014634D02*
X0055240Y0014413D01*
X0056072Y0013424D02*
X0057049Y0013755D01*
D13*
X0045614Y0031102D02*
X0072545Y0105093D01*
X0120713Y0087561D01*
X0093783Y0013570D01*
X0045614Y0031102D01*
D14*
X0046314Y0027672D02*
X0043667Y0020399D01*
X0058265Y0015085D01*
X0060913Y0022359D01*
X0046314Y0027672D01*
X0046711Y0047076D02*
X0042908Y0047076D01*
X0042908Y0058674D01*
X0046711Y0058674D01*
X0046711Y0047076D01*
X0047238Y0047076D02*
X0047238Y0058674D01*
X0051042Y0058674D01*
X0051042Y0047076D01*
X0047238Y0047076D01*
X0047121Y0059098D02*
X0053521Y0059098D01*
X0053521Y0068698D02*
X0047121Y0068698D01*
X0049370Y0087963D02*
X0048341Y0089189D01*
X0049731Y0094533D02*
X0053868Y0098004D01*
X0058915Y0100835D02*
X0068960Y0106634D01*
X0070861Y0103340D01*
X0060817Y0097541D01*
X0058915Y0100835D01*
X0059372Y0098445D02*
X0060401Y0097219D01*
X0059010Y0091875D02*
X0054874Y0088404D01*
X0106513Y0045195D02*
X0106513Y0032995D01*
X0109730Y0027906D02*
X0098298Y0021306D01*
X0096417Y0017565D02*
X0096398Y0017593D01*
X0096377Y0017619D01*
X0096353Y0017642D01*
X0096326Y0017663D01*
X0096297Y0017680D01*
X0096267Y0017694D01*
X0096235Y0017705D01*
X0096202Y0017712D01*
X0096168Y0017715D01*
X0096135Y0017714D01*
X0096101Y0017710D01*
X0096069Y0017702D01*
X0096037Y0017690D01*
X0096007Y0017675D01*
X0095979Y0017656D01*
X0095953Y0017635D01*
X0095930Y0017611D01*
X0095909Y0017584D01*
X0095892Y0017555D01*
X0095878Y0017525D01*
X0095867Y0017493D01*
X0095860Y0017460D01*
X0095857Y0017426D01*
X0095858Y0017393D01*
X0095862Y0017359D01*
X0095870Y0017327D01*
X0095882Y0017295D01*
X0095897Y0017265D01*
X0095916Y0017237D01*
X0095937Y0017211D01*
X0095961Y0017188D01*
X0095988Y0017167D01*
X0096017Y0017150D01*
X0096047Y0017136D01*
X0096079Y0017125D01*
X0096112Y0017118D01*
X0096146Y0017115D01*
X0096179Y0017116D01*
X0096213Y0017120D01*
X0096245Y0017128D01*
X0096277Y0017140D01*
X0096307Y0017155D01*
X0096335Y0017174D01*
X0096361Y0017195D01*
X0096384Y0017219D01*
X0096405Y0017246D01*
X0096422Y0017275D01*
X0096436Y0017305D01*
X0096447Y0017337D01*
X0096454Y0017370D01*
X0096457Y0017404D01*
X0096456Y0017437D01*
X0096452Y0017471D01*
X0096444Y0017503D01*
X0096432Y0017535D01*
X0096417Y0017565D01*
X0104298Y0010914D02*
X0115730Y0017514D01*
X0114713Y0030295D02*
X0111913Y0030295D01*
X0120113Y0032995D02*
X0120113Y0045195D01*
X0114713Y0047895D02*
X0111913Y0047895D01*
D15*
X0044847Y0064122D02*
X0044180Y0063455D01*
X0044014Y0063789D02*
X0042680Y0063789D01*
X0042680Y0063788D02*
X0042623Y0063786D01*
X0042567Y0063780D01*
X0042511Y0063771D01*
X0042455Y0063757D01*
X0042401Y0063740D01*
X0042348Y0063719D01*
X0042297Y0063695D01*
X0042247Y0063667D01*
X0042200Y0063636D01*
X0042154Y0063601D01*
X0042111Y0063564D01*
X0042071Y0063524D01*
X0042034Y0063481D01*
X0041999Y0063435D01*
X0041968Y0063388D01*
X0041940Y0063338D01*
X0041916Y0063287D01*
X0041895Y0063234D01*
X0041878Y0063180D01*
X0041864Y0063124D01*
X0041855Y0063068D01*
X0041849Y0063012D01*
X0041847Y0062955D01*
X0041849Y0062898D01*
X0041855Y0062842D01*
X0041864Y0062786D01*
X0041878Y0062730D01*
X0041895Y0062676D01*
X0041916Y0062623D01*
X0041940Y0062572D01*
X0041968Y0062522D01*
X0041999Y0062475D01*
X0042034Y0062429D01*
X0042071Y0062386D01*
X0042111Y0062346D01*
X0042154Y0062309D01*
X0042200Y0062274D01*
X0042247Y0062243D01*
X0042297Y0062215D01*
X0042348Y0062191D01*
X0042401Y0062170D01*
X0042455Y0062153D01*
X0042511Y0062139D01*
X0042567Y0062130D01*
X0042623Y0062124D01*
X0042680Y0062122D01*
X0044014Y0062122D01*
X0044071Y0062124D01*
X0044127Y0062130D01*
X0044183Y0062139D01*
X0044239Y0062153D01*
X0044293Y0062170D01*
X0044346Y0062191D01*
X0044397Y0062215D01*
X0044447Y0062243D01*
X0044494Y0062274D01*
X0044540Y0062309D01*
X0044583Y0062346D01*
X0044623Y0062386D01*
X0044660Y0062429D01*
X0044695Y0062475D01*
X0044726Y0062522D01*
X0044754Y0062572D01*
X0044778Y0062623D01*
X0044799Y0062676D01*
X0044816Y0062730D01*
X0044830Y0062786D01*
X0044839Y0062842D01*
X0044845Y0062898D01*
X0044847Y0062955D01*
X0044845Y0063012D01*
X0044839Y0063068D01*
X0044830Y0063124D01*
X0044816Y0063180D01*
X0044799Y0063234D01*
X0044778Y0063287D01*
X0044754Y0063338D01*
X0044726Y0063388D01*
X0044695Y0063435D01*
X0044660Y0063481D01*
X0044623Y0063524D01*
X0044583Y0063564D01*
X0044540Y0063601D01*
X0044494Y0063636D01*
X0044447Y0063667D01*
X0044397Y0063695D01*
X0044346Y0063719D01*
X0044293Y0063740D01*
X0044239Y0063757D01*
X0044183Y0063771D01*
X0044127Y0063780D01*
X0044071Y0063786D01*
X0044014Y0063788D01*
X0044847Y0064948D02*
X0044847Y0066615D01*
X0044847Y0064948D02*
X0043180Y0066365D01*
X0041847Y0065865D02*
X0041849Y0065804D01*
X0041855Y0065744D01*
X0041864Y0065684D01*
X0041877Y0065625D01*
X0041894Y0065567D01*
X0041915Y0065510D01*
X0041939Y0065454D01*
X0041966Y0065400D01*
X0041997Y0065348D01*
X0042031Y0065298D01*
X0042069Y0065250D01*
X0042109Y0065205D01*
X0042152Y0065162D01*
X0042197Y0065122D01*
X0042245Y0065085D01*
X0042295Y0065051D01*
X0042347Y0065020D01*
X0042401Y0064992D01*
X0042457Y0064968D01*
X0042514Y0064948D01*
X0043181Y0066365D02*
X0043142Y0066403D01*
X0043101Y0066438D01*
X0043057Y0066471D01*
X0043011Y0066500D01*
X0042964Y0066527D01*
X0042914Y0066550D01*
X0042864Y0066570D01*
X0042812Y0066586D01*
X0042759Y0066599D01*
X0042705Y0066608D01*
X0042651Y0066613D01*
X0042597Y0066615D01*
X0042543Y0066613D01*
X0042490Y0066607D01*
X0042438Y0066598D01*
X0042386Y0066585D01*
X0042335Y0066568D01*
X0042285Y0066547D01*
X0042238Y0066523D01*
X0042192Y0066496D01*
X0042148Y0066465D01*
X0042106Y0066432D01*
X0042067Y0066395D01*
X0042030Y0066356D01*
X0041997Y0066314D01*
X0041966Y0066270D01*
X0041939Y0066224D01*
X0041915Y0066177D01*
X0041894Y0066127D01*
X0041877Y0066076D01*
X0041864Y0066024D01*
X0041855Y0065972D01*
X0041849Y0065919D01*
X0041847Y0065865D01*
M02*
