G75*
%MOIN*%
%OFA0B0*%
%FSLAX25Y25*%
%IPPOS*%
%LPD*%
%AMOC8*
5,1,8,0,0,1.08239X$1,22.5*
%
%ADD10C,0.00004*%
%ADD11C,0.00000*%
%ADD12C,0.08858*%
%ADD13C,0.02775*%
%ADD14C,0.00600*%
%ADD15C,0.00800*%
%ADD16C,0.02578*%
%ADD17C,0.03169*%
D10*
X0029475Y0069444D02*
X0031670Y0068646D01*
X0031801Y0068600D01*
X0031934Y0068558D01*
X0032068Y0068520D01*
X0032203Y0068485D01*
X0032339Y0068455D01*
X0032476Y0068428D01*
X0032613Y0068405D01*
X0032751Y0068386D01*
X0032889Y0068371D01*
X0033028Y0068360D01*
X0033167Y0068353D01*
X0033307Y0068349D01*
X0033446Y0068350D01*
X0033585Y0068354D01*
X0033724Y0068363D01*
X0033863Y0068375D01*
X0034001Y0068392D01*
X0034139Y0068412D01*
X0034276Y0068436D01*
X0034412Y0068464D01*
X0034548Y0068496D01*
X0034683Y0068532D01*
X0034816Y0068572D01*
X0034949Y0068615D01*
X0035080Y0068662D01*
X0035209Y0068713D01*
X0035338Y0068767D01*
X0035464Y0068825D01*
X0035589Y0068886D01*
X0035712Y0068951D01*
X0035834Y0069020D01*
X0035953Y0069092D01*
X0036070Y0069167D01*
X0036185Y0069246D01*
X0036298Y0069327D01*
X0036408Y0069412D01*
X0036516Y0069500D01*
X0036622Y0069591D01*
X0036724Y0069685D01*
X0036824Y0069782D01*
X0036922Y0069882D01*
X0037016Y0069984D01*
X0037108Y0070089D01*
X0037196Y0070197D01*
X0037282Y0070307D01*
X0037364Y0070419D01*
X0037443Y0070534D01*
X0037519Y0070650D01*
X0037591Y0070769D01*
X0037660Y0070890D01*
X0037726Y0071013D01*
X0037788Y0071138D01*
X0037847Y0071264D01*
X0037902Y0071392D01*
X0037953Y0071522D01*
X0038001Y0071653D01*
X0038044Y0071785D01*
X0038085Y0071918D01*
X0038121Y0072052D01*
X0038154Y0072188D01*
X0038182Y0072324D01*
X0038207Y0072461D01*
X0038228Y0072599D01*
X0038245Y0072737D01*
X0038258Y0072876D01*
X0038267Y0073015D01*
X0038273Y0073154D01*
X0038274Y0073293D01*
X0038271Y0073432D01*
X0038265Y0073572D01*
X0038254Y0073710D01*
X0038240Y0073849D01*
X0038221Y0073987D01*
X0038199Y0074125D01*
X0038173Y0074261D01*
X0038143Y0074397D01*
X0038109Y0074532D01*
X0038072Y0074667D01*
X0038030Y0074800D01*
X0037985Y0074931D01*
X0037936Y0075062D01*
X0037884Y0075191D01*
X0037828Y0075318D01*
X0037768Y0075444D01*
X0037705Y0075568D01*
X0037638Y0075690D01*
X0037568Y0075810D01*
X0037494Y0075929D01*
X0037417Y0076045D01*
X0037337Y0076159D01*
X0037254Y0076270D01*
X0037167Y0076379D01*
X0037078Y0076486D01*
X0036985Y0076590D01*
X0036890Y0076692D01*
X0036791Y0076790D01*
X0036690Y0076886D01*
X0036587Y0076979D01*
X0036480Y0077069D01*
X0036372Y0077156D01*
X0036260Y0077240D01*
X0036147Y0077321D01*
X0036031Y0077398D01*
X0035913Y0077472D01*
X0035793Y0077543D01*
X0035671Y0077611D01*
X0035548Y0077674D01*
X0035422Y0077735D01*
X0035295Y0077792D01*
X0035166Y0077845D01*
X0035036Y0077894D01*
X0035036Y0077895D02*
X0032842Y0078693D01*
X0032841Y0078694D02*
X0033420Y0079885D01*
X0034027Y0081061D01*
X0034664Y0082222D01*
X0035328Y0083368D01*
X0036020Y0084496D01*
X0036740Y0085608D01*
X0037486Y0086701D01*
X0038260Y0087776D01*
X0039059Y0088832D01*
X0039884Y0089868D01*
X0040733Y0090883D01*
X0041608Y0091877D01*
X0042506Y0092850D01*
X0043428Y0093800D01*
X0044373Y0094727D01*
X0045340Y0095631D01*
X0046330Y0096512D01*
X0047340Y0097367D01*
X0048371Y0098198D01*
X0049422Y0099003D01*
X0050492Y0099782D01*
X0051582Y0100535D01*
X0052689Y0101261D01*
X0053814Y0101960D01*
X0054955Y0102631D01*
X0056112Y0103274D01*
X0057285Y0103888D01*
X0058473Y0104474D01*
X0059674Y0105030D01*
X0060889Y0105557D01*
X0062116Y0106054D01*
X0063355Y0106521D01*
X0064605Y0106957D01*
X0065866Y0107363D01*
X0067136Y0107737D01*
X0068414Y0108081D01*
X0069701Y0108393D01*
X0070995Y0108673D01*
X0072296Y0108922D01*
X0073602Y0109139D01*
X0074913Y0109324D01*
X0076228Y0109477D01*
X0077547Y0109597D01*
X0078868Y0109686D01*
X0080190Y0109742D01*
X0081514Y0109765D01*
X0082838Y0109756D01*
X0084162Y0109715D01*
X0085484Y0109642D01*
X0086804Y0109536D01*
X0088120Y0109398D01*
X0089433Y0109228D01*
X0090742Y0109025D01*
X0092045Y0108791D01*
X0093342Y0108525D01*
X0094632Y0108227D01*
X0095915Y0107898D01*
X0097189Y0107538D01*
X0098454Y0107146D01*
X0099708Y0106724D01*
X0100953Y0106271D01*
X0102185Y0105788D01*
X0103406Y0105275D01*
X0104614Y0104732D01*
X0105808Y0104160D01*
X0106987Y0103559D01*
X0108152Y0102929D01*
X0109301Y0102270D01*
X0110433Y0101584D01*
X0111548Y0100871D01*
X0112646Y0100130D01*
X0113725Y0099363D01*
X0114785Y0098569D01*
X0115825Y0097750D01*
X0116845Y0096906D01*
X0117844Y0096037D01*
X0118821Y0095144D01*
X0119777Y0094227D01*
X0120709Y0093287D01*
X0121618Y0092324D01*
X0122504Y0091340D01*
X0123365Y0090334D01*
X0124201Y0089308D01*
X0125012Y0088261D01*
X0125797Y0087195D01*
X0126556Y0086110D01*
X0127288Y0085007D01*
X0127993Y0083886D01*
X0128670Y0082748D01*
X0129319Y0081594D01*
X0129940Y0080425D01*
X0130532Y0079240D01*
X0131095Y0078042D01*
X0131628Y0076830D01*
X0132132Y0075605D01*
X0132605Y0074369D01*
X0133048Y0073121D01*
X0133460Y0071863D01*
X0133842Y0070595D01*
X0134192Y0069318D01*
X0134511Y0068033D01*
X0134799Y0066741D01*
X0135055Y0065442D01*
X0135279Y0064137D01*
X0135471Y0062827D01*
X0135631Y0061512D01*
X0135758Y0060194D01*
X0135854Y0058874D01*
X0135917Y0057551D01*
X0135948Y0056228D01*
X0135946Y0054904D01*
X0135912Y0053580D01*
X0135846Y0052258D01*
X0135747Y0050937D01*
X0135616Y0049620D01*
X0135453Y0048306D01*
X0135258Y0046996D01*
X0135031Y0045692D01*
X0134772Y0044393D01*
X0134481Y0043102D01*
X0134159Y0041817D01*
X0131965Y0042616D01*
X0131965Y0042615D02*
X0131834Y0042661D01*
X0131701Y0042703D01*
X0131567Y0042741D01*
X0131432Y0042776D01*
X0131296Y0042806D01*
X0131159Y0042833D01*
X0131022Y0042856D01*
X0130884Y0042875D01*
X0130746Y0042890D01*
X0130607Y0042901D01*
X0130468Y0042908D01*
X0130328Y0042912D01*
X0130189Y0042911D01*
X0130050Y0042907D01*
X0129911Y0042898D01*
X0129772Y0042886D01*
X0129634Y0042869D01*
X0129496Y0042849D01*
X0129359Y0042825D01*
X0129223Y0042797D01*
X0129087Y0042765D01*
X0128952Y0042729D01*
X0128819Y0042689D01*
X0128686Y0042646D01*
X0128555Y0042599D01*
X0128426Y0042548D01*
X0128297Y0042494D01*
X0128171Y0042436D01*
X0128046Y0042375D01*
X0127923Y0042310D01*
X0127801Y0042241D01*
X0127682Y0042169D01*
X0127565Y0042094D01*
X0127450Y0042015D01*
X0127337Y0041934D01*
X0127227Y0041849D01*
X0127119Y0041761D01*
X0127013Y0041670D01*
X0126911Y0041576D01*
X0126811Y0041479D01*
X0126713Y0041379D01*
X0126619Y0041277D01*
X0126527Y0041172D01*
X0126439Y0041064D01*
X0126353Y0040954D01*
X0126271Y0040842D01*
X0126192Y0040727D01*
X0126116Y0040611D01*
X0126044Y0040492D01*
X0125975Y0040371D01*
X0125909Y0040248D01*
X0125847Y0040123D01*
X0125788Y0039997D01*
X0125733Y0039869D01*
X0125682Y0039739D01*
X0125634Y0039608D01*
X0125591Y0039476D01*
X0125550Y0039343D01*
X0125514Y0039209D01*
X0125481Y0039073D01*
X0125453Y0038937D01*
X0125428Y0038800D01*
X0125407Y0038662D01*
X0125390Y0038524D01*
X0125377Y0038385D01*
X0125368Y0038246D01*
X0125362Y0038107D01*
X0125361Y0037968D01*
X0125364Y0037829D01*
X0125370Y0037689D01*
X0125381Y0037551D01*
X0125395Y0037412D01*
X0125414Y0037274D01*
X0125436Y0037136D01*
X0125462Y0037000D01*
X0125492Y0036864D01*
X0125526Y0036729D01*
X0125563Y0036594D01*
X0125605Y0036461D01*
X0125650Y0036330D01*
X0125699Y0036199D01*
X0125751Y0036070D01*
X0125807Y0035943D01*
X0125867Y0035817D01*
X0125930Y0035693D01*
X0125997Y0035571D01*
X0126067Y0035451D01*
X0126141Y0035332D01*
X0126218Y0035216D01*
X0126298Y0035102D01*
X0126381Y0034991D01*
X0126468Y0034882D01*
X0126557Y0034775D01*
X0126650Y0034671D01*
X0126745Y0034569D01*
X0126844Y0034471D01*
X0126945Y0034375D01*
X0127048Y0034282D01*
X0127155Y0034192D01*
X0127263Y0034105D01*
X0127375Y0034021D01*
X0127488Y0033940D01*
X0127604Y0033863D01*
X0127722Y0033789D01*
X0127842Y0033718D01*
X0127964Y0033650D01*
X0128087Y0033587D01*
X0128213Y0033526D01*
X0128340Y0033469D01*
X0128469Y0033416D01*
X0128599Y0033367D01*
X0128598Y0033367D02*
X0130793Y0032568D01*
X0079849Y0001533D02*
X0078539Y0001596D01*
X0077231Y0001692D01*
X0075926Y0001818D01*
X0074624Y0001977D01*
X0073327Y0002167D01*
X0072035Y0002388D01*
X0070748Y0002641D01*
X0069468Y0002924D01*
X0068195Y0003239D01*
X0066930Y0003584D01*
X0065674Y0003960D01*
X0064427Y0004366D01*
X0063190Y0004802D01*
X0061965Y0005268D01*
X0060751Y0005764D01*
X0059549Y0006289D01*
X0058361Y0006843D01*
X0057186Y0007425D01*
X0056026Y0008036D01*
X0054881Y0008674D01*
X0053751Y0009341D01*
X0052638Y0010034D01*
X0051542Y0010754D01*
X0050464Y0011500D01*
X0049405Y0012273D01*
X0048364Y0013071D01*
X0047343Y0013893D01*
X0046342Y0014740D01*
X0045362Y0015612D01*
X0044404Y0016506D01*
X0043467Y0017424D01*
X0042553Y0018364D01*
X0041662Y0019326D01*
X0040794Y0020309D01*
X0039951Y0021313D01*
X0039132Y0022337D01*
X0038338Y0023381D01*
X0037570Y0024443D01*
X0036827Y0025524D01*
X0036111Y0026622D01*
X0035422Y0027738D01*
X0034760Y0028870D01*
X0034126Y0030017D01*
X0033520Y0031180D01*
X0032942Y0032357D01*
X0032392Y0033547D01*
X0031872Y0034751D01*
X0031381Y0035967D01*
X0030919Y0037194D01*
X0030488Y0038432D01*
X0030086Y0039681D01*
X0029715Y0040938D01*
X0029375Y0042204D01*
X0029065Y0043478D01*
X0028786Y0044760D01*
X0028538Y0046047D01*
X0028322Y0047340D01*
X0028137Y0048639D01*
X0027983Y0049941D01*
X0027861Y0051246D01*
X0027770Y0052554D01*
X0027712Y0053864D01*
X0027685Y0055175D01*
X0027690Y0056486D01*
X0027726Y0057797D01*
X0027795Y0059107D01*
X0027895Y0060414D01*
X0028026Y0061719D01*
X0028190Y0063020D01*
X0028384Y0064316D01*
X0028610Y0065608D01*
X0028868Y0066894D01*
X0029156Y0068173D01*
X0029475Y0069445D01*
X0079848Y0001533D02*
X0079852Y0001620D01*
X0079859Y0001707D01*
X0079870Y0001794D01*
X0079886Y0001880D01*
X0079904Y0001965D01*
X0079927Y0002049D01*
X0079953Y0002133D01*
X0079983Y0002215D01*
X0080017Y0002295D01*
X0080054Y0002374D01*
X0080095Y0002452D01*
X0080139Y0002527D01*
X0080186Y0002600D01*
X0080237Y0002672D01*
X0080290Y0002741D01*
X0080347Y0002807D01*
X0080407Y0002871D01*
X0080469Y0002932D01*
X0080534Y0002990D01*
X0080601Y0003046D01*
X0080671Y0003098D01*
X0080743Y0003148D01*
X0080818Y0003194D01*
X0080894Y0003236D01*
X0080972Y0003275D01*
X0081052Y0003311D01*
X0081133Y0003343D01*
X0081215Y0003372D01*
X0081299Y0003397D01*
X0081384Y0003418D01*
X0081469Y0003435D01*
X0081556Y0003449D01*
X0081643Y0003458D01*
X0081730Y0003464D01*
X0081817Y0003466D01*
X0081904Y0003464D01*
X0081991Y0003458D01*
X0082078Y0003449D01*
X0082165Y0003435D01*
X0082250Y0003418D01*
X0082335Y0003397D01*
X0082419Y0003372D01*
X0082501Y0003343D01*
X0082582Y0003311D01*
X0082662Y0003275D01*
X0082740Y0003236D01*
X0082816Y0003194D01*
X0082891Y0003148D01*
X0082963Y0003098D01*
X0083033Y0003046D01*
X0083100Y0002990D01*
X0083165Y0002932D01*
X0083227Y0002871D01*
X0083287Y0002807D01*
X0083344Y0002741D01*
X0083397Y0002672D01*
X0083448Y0002600D01*
X0083495Y0002527D01*
X0083539Y0002452D01*
X0083580Y0002374D01*
X0083617Y0002295D01*
X0083651Y0002215D01*
X0083681Y0002133D01*
X0083707Y0002049D01*
X0083730Y0001965D01*
X0083748Y0001880D01*
X0083764Y0001794D01*
X0083775Y0001707D01*
X0083782Y0001620D01*
X0083786Y0001533D01*
D11*
X0083785Y0001533D02*
X0085100Y0001597D01*
X0086413Y0001692D01*
X0087723Y0001820D01*
X0089030Y0001980D01*
X0090333Y0002171D01*
X0091630Y0002394D01*
X0092922Y0002648D01*
X0094207Y0002934D01*
X0095484Y0003251D01*
X0096754Y0003599D01*
X0098015Y0003977D01*
X0099266Y0004386D01*
X0100507Y0004826D01*
X0101737Y0005295D01*
X0102955Y0005794D01*
X0104160Y0006323D01*
X0105353Y0006881D01*
X0106531Y0007468D01*
X0107695Y0008083D01*
X0108843Y0008726D01*
X0109976Y0009397D01*
X0111092Y0010096D01*
X0112190Y0010821D01*
X0113271Y0011573D01*
X0114333Y0012351D01*
X0115376Y0013154D01*
X0116399Y0013983D01*
X0117401Y0014836D01*
X0118383Y0015713D01*
X0119343Y0016614D01*
X0120280Y0017538D01*
X0121195Y0018485D01*
X0122087Y0019453D01*
X0122955Y0020443D01*
X0123798Y0021454D01*
X0124617Y0022485D01*
X0125410Y0023535D01*
X0126178Y0024605D01*
X0126919Y0025692D01*
X0127633Y0026798D01*
X0128321Y0027921D01*
X0128981Y0029060D01*
X0129613Y0030214D01*
X0130217Y0031384D01*
X0130792Y0032568D01*
X0100451Y0069782D02*
X0100453Y0069851D01*
X0100459Y0069919D01*
X0100469Y0069987D01*
X0100483Y0070054D01*
X0100501Y0070121D01*
X0100522Y0070186D01*
X0100548Y0070250D01*
X0100577Y0070312D01*
X0100609Y0070372D01*
X0100645Y0070431D01*
X0100685Y0070487D01*
X0100727Y0070541D01*
X0100773Y0070592D01*
X0100822Y0070641D01*
X0100873Y0070687D01*
X0100927Y0070729D01*
X0100983Y0070769D01*
X0101041Y0070805D01*
X0101102Y0070837D01*
X0101164Y0070866D01*
X0101228Y0070892D01*
X0101293Y0070913D01*
X0101360Y0070931D01*
X0101427Y0070945D01*
X0101495Y0070955D01*
X0101563Y0070961D01*
X0101632Y0070963D01*
X0101701Y0070961D01*
X0101769Y0070955D01*
X0101837Y0070945D01*
X0101904Y0070931D01*
X0101971Y0070913D01*
X0102036Y0070892D01*
X0102100Y0070866D01*
X0102162Y0070837D01*
X0102222Y0070805D01*
X0102281Y0070769D01*
X0102337Y0070729D01*
X0102391Y0070687D01*
X0102442Y0070641D01*
X0102491Y0070592D01*
X0102537Y0070541D01*
X0102579Y0070487D01*
X0102619Y0070431D01*
X0102655Y0070372D01*
X0102687Y0070312D01*
X0102716Y0070250D01*
X0102742Y0070186D01*
X0102763Y0070121D01*
X0102781Y0070054D01*
X0102795Y0069987D01*
X0102805Y0069919D01*
X0102811Y0069851D01*
X0102813Y0069782D01*
X0102811Y0069713D01*
X0102805Y0069645D01*
X0102795Y0069577D01*
X0102781Y0069510D01*
X0102763Y0069443D01*
X0102742Y0069378D01*
X0102716Y0069314D01*
X0102687Y0069252D01*
X0102655Y0069191D01*
X0102619Y0069133D01*
X0102579Y0069077D01*
X0102537Y0069023D01*
X0102491Y0068972D01*
X0102442Y0068923D01*
X0102391Y0068877D01*
X0102337Y0068835D01*
X0102281Y0068795D01*
X0102223Y0068759D01*
X0102162Y0068727D01*
X0102100Y0068698D01*
X0102036Y0068672D01*
X0101971Y0068651D01*
X0101904Y0068633D01*
X0101837Y0068619D01*
X0101769Y0068609D01*
X0101701Y0068603D01*
X0101632Y0068601D01*
X0101563Y0068603D01*
X0101495Y0068609D01*
X0101427Y0068619D01*
X0101360Y0068633D01*
X0101293Y0068651D01*
X0101228Y0068672D01*
X0101164Y0068698D01*
X0101102Y0068727D01*
X0101041Y0068759D01*
X0100983Y0068795D01*
X0100927Y0068835D01*
X0100873Y0068877D01*
X0100822Y0068923D01*
X0100773Y0068972D01*
X0100727Y0069023D01*
X0100685Y0069077D01*
X0100645Y0069133D01*
X0100609Y0069191D01*
X0100577Y0069252D01*
X0100548Y0069314D01*
X0100522Y0069378D01*
X0100501Y0069443D01*
X0100483Y0069510D01*
X0100469Y0069577D01*
X0100459Y0069645D01*
X0100453Y0069713D01*
X0100451Y0069782D01*
X0074554Y0079208D02*
X0074556Y0079277D01*
X0074562Y0079345D01*
X0074572Y0079413D01*
X0074586Y0079480D01*
X0074604Y0079547D01*
X0074625Y0079612D01*
X0074651Y0079676D01*
X0074680Y0079738D01*
X0074712Y0079798D01*
X0074748Y0079857D01*
X0074788Y0079913D01*
X0074830Y0079967D01*
X0074876Y0080018D01*
X0074925Y0080067D01*
X0074976Y0080113D01*
X0075030Y0080155D01*
X0075086Y0080195D01*
X0075144Y0080231D01*
X0075205Y0080263D01*
X0075267Y0080292D01*
X0075331Y0080318D01*
X0075396Y0080339D01*
X0075463Y0080357D01*
X0075530Y0080371D01*
X0075598Y0080381D01*
X0075666Y0080387D01*
X0075735Y0080389D01*
X0075804Y0080387D01*
X0075872Y0080381D01*
X0075940Y0080371D01*
X0076007Y0080357D01*
X0076074Y0080339D01*
X0076139Y0080318D01*
X0076203Y0080292D01*
X0076265Y0080263D01*
X0076325Y0080231D01*
X0076384Y0080195D01*
X0076440Y0080155D01*
X0076494Y0080113D01*
X0076545Y0080067D01*
X0076594Y0080018D01*
X0076640Y0079967D01*
X0076682Y0079913D01*
X0076722Y0079857D01*
X0076758Y0079798D01*
X0076790Y0079738D01*
X0076819Y0079676D01*
X0076845Y0079612D01*
X0076866Y0079547D01*
X0076884Y0079480D01*
X0076898Y0079413D01*
X0076908Y0079345D01*
X0076914Y0079277D01*
X0076916Y0079208D01*
X0076914Y0079139D01*
X0076908Y0079071D01*
X0076898Y0079003D01*
X0076884Y0078936D01*
X0076866Y0078869D01*
X0076845Y0078804D01*
X0076819Y0078740D01*
X0076790Y0078678D01*
X0076758Y0078617D01*
X0076722Y0078559D01*
X0076682Y0078503D01*
X0076640Y0078449D01*
X0076594Y0078398D01*
X0076545Y0078349D01*
X0076494Y0078303D01*
X0076440Y0078261D01*
X0076384Y0078221D01*
X0076326Y0078185D01*
X0076265Y0078153D01*
X0076203Y0078124D01*
X0076139Y0078098D01*
X0076074Y0078077D01*
X0076007Y0078059D01*
X0075940Y0078045D01*
X0075872Y0078035D01*
X0075804Y0078029D01*
X0075735Y0078027D01*
X0075666Y0078029D01*
X0075598Y0078035D01*
X0075530Y0078045D01*
X0075463Y0078059D01*
X0075396Y0078077D01*
X0075331Y0078098D01*
X0075267Y0078124D01*
X0075205Y0078153D01*
X0075144Y0078185D01*
X0075086Y0078221D01*
X0075030Y0078261D01*
X0074976Y0078303D01*
X0074925Y0078349D01*
X0074876Y0078398D01*
X0074830Y0078449D01*
X0074788Y0078503D01*
X0074748Y0078559D01*
X0074712Y0078617D01*
X0074680Y0078678D01*
X0074651Y0078740D01*
X0074625Y0078804D01*
X0074604Y0078869D01*
X0074586Y0078936D01*
X0074572Y0079003D01*
X0074562Y0079071D01*
X0074556Y0079139D01*
X0074554Y0079208D01*
D12*
X0040897Y0038681D03*
X0122737Y0072580D03*
D13*
X0117443Y0064485D03*
X0114344Y0059417D03*
X0117644Y0057993D03*
X0107014Y0067048D03*
X0100321Y0057599D03*
X0093609Y0048544D03*
X0094913Y0041354D03*
X0085360Y0037520D03*
X0089691Y0029253D03*
X0089691Y0026103D03*
X0092841Y0007599D03*
X0114494Y0026891D03*
X0119219Y0025104D03*
X0119325Y0021529D03*
X0121033Y0045964D03*
X0088490Y0063678D03*
X0086453Y0060660D03*
X0083628Y0062907D03*
X0080242Y0061143D03*
X0079136Y0064717D03*
X0077343Y0067979D03*
X0073943Y0071772D03*
X0064494Y0080040D03*
X0059770Y0081221D03*
X0053864Y0076103D03*
X0048746Y0071772D03*
X0055439Y0069410D03*
X0059376Y0067442D03*
X0061738Y0073347D03*
X0049927Y0065080D03*
X0042222Y0060533D03*
X0039305Y0067435D03*
X0032998Y0057993D03*
X0055833Y0056725D03*
X0055046Y0041064D03*
X0060557Y0041064D03*
X0062293Y0036525D03*
X0063752Y0020814D03*
X0060444Y0018368D03*
X0067644Y0013898D03*
X0067250Y0010324D03*
X0063313Y0009174D03*
X0079908Y0052589D03*
X0086553Y0055993D03*
X0116644Y0081221D03*
X0113313Y0094213D03*
X0105833Y0095788D03*
X0100715Y0097363D03*
X0098746Y0100513D03*
X0094991Y0102300D03*
X0092085Y0104450D03*
X0088510Y0103269D03*
X0084179Y0105237D03*
X0094510Y0098376D03*
X0070006Y0094607D03*
X0067250Y0087914D03*
D14*
X0035729Y0031915D02*
X0037394Y0029240D01*
X0037470Y0029425D01*
X0038338Y0030293D01*
X0039471Y0030762D01*
X0040698Y0030762D01*
X0041832Y0030293D01*
X0042700Y0029425D01*
X0043169Y0028291D01*
X0043169Y0027064D01*
X0042700Y0025931D01*
X0041832Y0025063D01*
X0040698Y0024594D01*
X0040326Y0024594D01*
X0045748Y0018407D01*
X0052265Y0013049D01*
X0059565Y0008819D01*
X0060479Y0008472D01*
X0060426Y0008600D01*
X0060426Y0009748D01*
X0060865Y0010810D01*
X0061678Y0011622D01*
X0062739Y0012061D01*
X0063888Y0012061D01*
X0064705Y0011723D01*
X0064802Y0011959D01*
X0065615Y0012771D01*
X0066676Y0013211D01*
X0067825Y0013211D01*
X0068886Y0012771D01*
X0069698Y0011959D01*
X0070138Y0010898D01*
X0070138Y0009749D01*
X0069698Y0008688D01*
X0068886Y0007876D01*
X0067825Y0007436D01*
X0066676Y0007436D01*
X0065859Y0007775D01*
X0065761Y0007538D01*
X0064986Y0006764D01*
X0067454Y0005829D01*
X0075723Y0004158D01*
X0078312Y0003958D01*
X0078722Y0004649D01*
X0078722Y0004649D01*
X0078722Y0004649D01*
X0080687Y0005767D01*
X0082948Y0005767D01*
X0084912Y0004649D01*
X0084912Y0004649D01*
X0085325Y0003954D01*
X0087741Y0004136D01*
X0095686Y0005687D01*
X0103293Y0008455D01*
X0110376Y0012374D01*
X0116763Y0017348D01*
X0116763Y0017348D01*
X0118192Y0018874D01*
X0117690Y0019082D01*
X0116878Y0019894D01*
X0116438Y0020955D01*
X0116438Y0022104D01*
X0116878Y0023165D01*
X0116976Y0023264D01*
X0116771Y0023469D01*
X0116331Y0024530D01*
X0116331Y0024644D01*
X0116130Y0024443D01*
X0115069Y0024003D01*
X0113920Y0024003D01*
X0112859Y0024443D01*
X0112047Y0025255D01*
X0111607Y0026316D01*
X0111607Y0027465D01*
X0112047Y0028526D01*
X0112859Y0029338D01*
X0113920Y0029778D01*
X0115069Y0029778D01*
X0116130Y0029338D01*
X0116942Y0028526D01*
X0117382Y0027465D01*
X0117382Y0027351D01*
X0117583Y0027552D01*
X0118644Y0027992D01*
X0119793Y0027992D01*
X0120854Y0027552D01*
X0121667Y0026740D01*
X0122106Y0025679D01*
X0122106Y0024530D01*
X0121667Y0023469D01*
X0121568Y0023370D01*
X0121773Y0023165D01*
X0121908Y0022840D01*
X0122297Y0023256D01*
X0126844Y0029953D01*
X0127544Y0031301D01*
X0126915Y0031530D01*
X0126461Y0031695D01*
X0126461Y0031695D01*
X0124342Y0033636D01*
X0124342Y0033636D01*
X0123128Y0036241D01*
X0123128Y0036241D01*
X0123003Y0039111D01*
X0123003Y0039111D01*
X0123985Y0041812D01*
X0123985Y0041812D01*
X0125927Y0043930D01*
X0125927Y0043930D01*
X0128531Y0045145D01*
X0128531Y0045145D01*
X0131402Y0045270D01*
X0131402Y0045270D01*
X0131856Y0045105D01*
X0132478Y0044878D01*
X0132850Y0046564D01*
X0133646Y0055040D01*
X0133044Y0063531D01*
X0131060Y0071809D01*
X0127748Y0079651D01*
X0123197Y0086845D01*
X0117530Y0093197D01*
X0110900Y0098536D01*
X0103485Y0102717D01*
X0095486Y0105629D01*
X0094658Y0105783D01*
X0094905Y0105187D01*
X0095565Y0105187D01*
X0096626Y0104748D01*
X0097438Y0103935D01*
X0097735Y0103219D01*
X0098172Y0103400D01*
X0099321Y0103400D01*
X0100382Y0102960D01*
X0101194Y0102148D01*
X0101634Y0101087D01*
X0101634Y0100108D01*
X0102350Y0099811D01*
X0103163Y0098999D01*
X0103602Y0097937D01*
X0103602Y0096789D01*
X0103163Y0095727D01*
X0102350Y0094915D01*
X0101289Y0094476D01*
X0100140Y0094476D01*
X0099079Y0094915D01*
X0098267Y0095727D01*
X0097827Y0096789D01*
X0097827Y0097768D01*
X0097397Y0097946D01*
X0097397Y0097801D01*
X0096958Y0096740D01*
X0096146Y0095928D01*
X0095084Y0095488D01*
X0093936Y0095488D01*
X0092874Y0095928D01*
X0092062Y0096740D01*
X0091623Y0097801D01*
X0091623Y0098950D01*
X0092062Y0100011D01*
X0092629Y0100578D01*
X0092543Y0100664D01*
X0092171Y0101562D01*
X0091511Y0101562D01*
X0091014Y0101768D01*
X0090958Y0101633D01*
X0090146Y0100821D01*
X0089084Y0100381D01*
X0087936Y0100381D01*
X0086875Y0100821D01*
X0086062Y0101633D01*
X0085623Y0102694D01*
X0085623Y0103843D01*
X0086062Y0104904D01*
X0086875Y0105716D01*
X0087936Y0106156D01*
X0089084Y0106156D01*
X0089581Y0105950D01*
X0089637Y0106085D01*
X0090173Y0106621D01*
X0087118Y0107192D01*
X0078607Y0107364D01*
X0071279Y0106300D01*
X0064101Y0084765D01*
X0058919Y0070329D01*
X0059951Y0070329D01*
X0061012Y0069890D01*
X0061824Y0069077D01*
X0062264Y0068016D01*
X0062264Y0066867D01*
X0061824Y0065806D01*
X0061012Y0064994D01*
X0059951Y0064554D01*
X0058802Y0064554D01*
X0057741Y0064994D01*
X0057198Y0065536D01*
X0057156Y0065420D01*
X0040472Y0071710D01*
X0039955Y0070291D01*
X0040941Y0069883D01*
X0041753Y0069071D01*
X0042193Y0068010D01*
X0042193Y0066861D01*
X0041753Y0065800D01*
X0040941Y0064987D01*
X0039880Y0064548D01*
X0038731Y0064548D01*
X0037670Y0064987D01*
X0036857Y0065800D01*
X0036463Y0066751D01*
X0035103Y0066117D01*
X0035103Y0066117D01*
X0032232Y0065991D01*
X0032232Y0065991D01*
X0031778Y0066157D01*
X0031155Y0066383D01*
X0030791Y0064734D01*
X0030230Y0058856D01*
X0030550Y0059628D01*
X0031363Y0060441D01*
X0032424Y0060880D01*
X0033573Y0060880D01*
X0034634Y0060441D01*
X0035446Y0059628D01*
X0035886Y0058567D01*
X0035886Y0057419D01*
X0035446Y0056357D01*
X0034634Y0055545D01*
X0033573Y0055106D01*
X0032424Y0055106D01*
X0031363Y0055545D01*
X0030550Y0056357D01*
X0030111Y0057419D01*
X0030111Y0057602D01*
X0029990Y0056336D01*
X0030562Y0047919D01*
X0032492Y0039706D01*
X0035729Y0031915D01*
X0035869Y0031690D02*
X0126474Y0031690D01*
X0125813Y0032289D02*
X0035574Y0032289D01*
X0035325Y0032887D02*
X0039391Y0032887D01*
X0039718Y0032752D02*
X0042077Y0032752D01*
X0044256Y0033655D01*
X0045924Y0035323D01*
X0046826Y0037502D01*
X0046826Y0039861D01*
X0045924Y0042040D01*
X0044256Y0043708D01*
X0042077Y0044610D01*
X0039718Y0044610D01*
X0037539Y0043708D01*
X0035871Y0042040D01*
X0034968Y0039861D01*
X0034968Y0037502D01*
X0035871Y0035323D01*
X0037539Y0033655D01*
X0039718Y0032752D01*
X0037946Y0033486D02*
X0035077Y0033486D01*
X0034828Y0034084D02*
X0037109Y0034084D01*
X0036511Y0034683D02*
X0034579Y0034683D01*
X0034331Y0035281D02*
X0035912Y0035281D01*
X0035640Y0035880D02*
X0034082Y0035880D01*
X0033833Y0036478D02*
X0035392Y0036478D01*
X0035144Y0037077D02*
X0033585Y0037077D01*
X0033336Y0037675D02*
X0034968Y0037675D01*
X0034968Y0038274D02*
X0033087Y0038274D01*
X0032839Y0038872D02*
X0034968Y0038872D01*
X0034968Y0039471D02*
X0032590Y0039471D01*
X0032407Y0040069D02*
X0035055Y0040069D01*
X0035303Y0040668D02*
X0032266Y0040668D01*
X0032126Y0041266D02*
X0035551Y0041266D01*
X0035798Y0041865D02*
X0031985Y0041865D01*
X0031844Y0042463D02*
X0036295Y0042463D01*
X0036893Y0043062D02*
X0031704Y0043062D01*
X0031563Y0043660D02*
X0037492Y0043660D01*
X0038870Y0044259D02*
X0031422Y0044259D01*
X0031282Y0044858D02*
X0118366Y0044858D01*
X0118585Y0044328D02*
X0119397Y0043516D01*
X0120459Y0043076D01*
X0121607Y0043076D01*
X0122669Y0043516D01*
X0123481Y0044328D01*
X0123920Y0045389D01*
X0123920Y0046538D01*
X0123481Y0047599D01*
X0122669Y0048411D01*
X0121607Y0048851D01*
X0120459Y0048851D01*
X0119397Y0048411D01*
X0118585Y0047599D01*
X0118146Y0046538D01*
X0118146Y0045389D01*
X0118585Y0044328D01*
X0118654Y0044259D02*
X0042925Y0044259D01*
X0044303Y0043660D02*
X0059281Y0043660D01*
X0058922Y0043512D02*
X0059983Y0043951D01*
X0061132Y0043951D01*
X0062193Y0043512D01*
X0063005Y0042699D01*
X0063445Y0041638D01*
X0063445Y0040489D01*
X0063005Y0039428D01*
X0062953Y0039376D01*
X0063928Y0038973D01*
X0064741Y0038160D01*
X0065180Y0037099D01*
X0065180Y0035950D01*
X0064741Y0034889D01*
X0063928Y0034077D01*
X0062867Y0033637D01*
X0061718Y0033637D01*
X0060657Y0034077D01*
X0059845Y0034889D01*
X0059405Y0035950D01*
X0059405Y0037099D01*
X0059845Y0038160D01*
X0059897Y0038212D01*
X0058922Y0038616D01*
X0058110Y0039428D01*
X0057670Y0040489D01*
X0057670Y0041638D01*
X0058110Y0042699D01*
X0058922Y0043512D01*
X0058472Y0043062D02*
X0044902Y0043062D01*
X0045500Y0042463D02*
X0058012Y0042463D01*
X0057764Y0041865D02*
X0045996Y0041865D01*
X0046244Y0041266D02*
X0057670Y0041266D01*
X0057670Y0040668D02*
X0046492Y0040668D01*
X0046740Y0040069D02*
X0057844Y0040069D01*
X0058092Y0039471D02*
X0046826Y0039471D01*
X0046826Y0038872D02*
X0058665Y0038872D01*
X0059748Y0038274D02*
X0046826Y0038274D01*
X0046826Y0037675D02*
X0059644Y0037675D01*
X0059405Y0037077D02*
X0046650Y0037077D01*
X0046403Y0036478D02*
X0059405Y0036478D01*
X0059435Y0035880D02*
X0046155Y0035880D01*
X0045883Y0035281D02*
X0059682Y0035281D01*
X0060051Y0034683D02*
X0045284Y0034683D01*
X0044686Y0034084D02*
X0060650Y0034084D01*
X0063936Y0034084D02*
X0124133Y0034084D01*
X0123854Y0034683D02*
X0064534Y0034683D01*
X0064903Y0035281D02*
X0123575Y0035281D01*
X0123296Y0035880D02*
X0065151Y0035880D01*
X0065180Y0036478D02*
X0123118Y0036478D01*
X0123091Y0037077D02*
X0065180Y0037077D01*
X0064941Y0037675D02*
X0123065Y0037675D01*
X0123039Y0038274D02*
X0064627Y0038274D01*
X0064028Y0038872D02*
X0093358Y0038872D01*
X0093277Y0038906D02*
X0094339Y0038466D01*
X0095487Y0038466D01*
X0096549Y0038906D01*
X0097361Y0039718D01*
X0097800Y0040779D01*
X0097800Y0041928D01*
X0097361Y0042989D01*
X0096549Y0043802D01*
X0095487Y0044241D01*
X0094339Y0044241D01*
X0093277Y0043802D01*
X0092465Y0042989D01*
X0092026Y0041928D01*
X0092026Y0040779D01*
X0092465Y0039718D01*
X0093277Y0038906D01*
X0092712Y0039471D02*
X0063023Y0039471D01*
X0063271Y0040069D02*
X0092320Y0040069D01*
X0092072Y0040668D02*
X0063445Y0040668D01*
X0063445Y0041266D02*
X0092026Y0041266D01*
X0092026Y0041865D02*
X0063351Y0041865D01*
X0063103Y0042463D02*
X0092247Y0042463D01*
X0092538Y0043062D02*
X0062643Y0043062D01*
X0061833Y0043660D02*
X0093136Y0043660D01*
X0096690Y0043660D02*
X0119253Y0043660D01*
X0118146Y0045456D02*
X0031141Y0045456D01*
X0031000Y0046055D02*
X0118146Y0046055D01*
X0118193Y0046653D02*
X0030860Y0046653D01*
X0030719Y0047252D02*
X0118441Y0047252D01*
X0118836Y0047850D02*
X0030578Y0047850D01*
X0030526Y0048449D02*
X0119487Y0048449D01*
X0122579Y0048449D02*
X0133027Y0048449D01*
X0133083Y0049047D02*
X0030486Y0049047D01*
X0030445Y0049646D02*
X0133139Y0049646D01*
X0133196Y0050244D02*
X0081646Y0050244D01*
X0081543Y0050141D02*
X0082356Y0050953D01*
X0082795Y0052015D01*
X0082795Y0053163D01*
X0082356Y0054225D01*
X0081543Y0055037D01*
X0080482Y0055476D01*
X0079333Y0055476D01*
X0078272Y0055037D01*
X0077460Y0054225D01*
X0077020Y0053163D01*
X0077020Y0052015D01*
X0077460Y0050953D01*
X0078272Y0050141D01*
X0079333Y0049702D01*
X0080482Y0049702D01*
X0081543Y0050141D01*
X0082245Y0050843D02*
X0133252Y0050843D01*
X0133308Y0051441D02*
X0082558Y0051441D01*
X0082795Y0052040D02*
X0133364Y0052040D01*
X0133420Y0052638D02*
X0082795Y0052638D01*
X0082765Y0053237D02*
X0085662Y0053237D01*
X0085979Y0053105D02*
X0087127Y0053105D01*
X0088189Y0053545D01*
X0089001Y0054357D01*
X0089440Y0055418D01*
X0089440Y0056567D01*
X0089001Y0057628D01*
X0088253Y0058377D01*
X0088900Y0059024D01*
X0089340Y0060086D01*
X0089340Y0060905D01*
X0090125Y0061230D01*
X0090938Y0062043D01*
X0091377Y0063104D01*
X0091377Y0064252D01*
X0090938Y0065314D01*
X0090125Y0066126D01*
X0089064Y0066566D01*
X0087916Y0066566D01*
X0086854Y0066126D01*
X0086042Y0065314D01*
X0085826Y0064792D01*
X0085264Y0065355D01*
X0084202Y0065795D01*
X0083054Y0065795D01*
X0081997Y0065357D01*
X0081584Y0066353D01*
X0080772Y0067165D01*
X0080224Y0067392D01*
X0080230Y0067405D01*
X0080230Y0068554D01*
X0079790Y0069615D01*
X0078978Y0070427D01*
X0077917Y0070867D01*
X0076768Y0070867D01*
X0075707Y0070427D01*
X0074895Y0069615D01*
X0074455Y0068554D01*
X0074455Y0067405D01*
X0074895Y0066344D01*
X0075707Y0065532D01*
X0076254Y0065305D01*
X0076249Y0065292D01*
X0076249Y0064143D01*
X0076688Y0063082D01*
X0077500Y0062270D01*
X0077572Y0062240D01*
X0077355Y0061717D01*
X0077355Y0060568D01*
X0077795Y0059507D01*
X0078607Y0058695D01*
X0079668Y0058255D01*
X0080817Y0058255D01*
X0081878Y0058695D01*
X0082690Y0059507D01*
X0082925Y0060073D01*
X0083054Y0060020D01*
X0083592Y0060020D01*
X0084005Y0059024D01*
X0084753Y0058276D01*
X0084105Y0057628D01*
X0083666Y0056567D01*
X0083666Y0055418D01*
X0084105Y0054357D01*
X0084917Y0053545D01*
X0085979Y0053105D01*
X0087444Y0053237D02*
X0133477Y0053237D01*
X0133533Y0053835D02*
X0088479Y0053835D01*
X0089033Y0054434D02*
X0133589Y0054434D01*
X0133645Y0055032D02*
X0101669Y0055032D01*
X0101957Y0055151D02*
X0102769Y0055964D01*
X0103209Y0057025D01*
X0103209Y0058174D01*
X0102769Y0059235D01*
X0101957Y0060047D01*
X0100895Y0060487D01*
X0099747Y0060487D01*
X0098686Y0060047D01*
X0097873Y0059235D01*
X0097434Y0058174D01*
X0097434Y0057025D01*
X0097873Y0055964D01*
X0098686Y0055151D01*
X0099747Y0054712D01*
X0100895Y0054712D01*
X0101957Y0055151D01*
X0102436Y0055631D02*
X0133604Y0055631D01*
X0133562Y0056229D02*
X0102879Y0056229D01*
X0103127Y0056828D02*
X0113050Y0056828D01*
X0112708Y0056969D02*
X0113770Y0056530D01*
X0114918Y0056530D01*
X0115979Y0056969D01*
X0116792Y0057782D01*
X0117231Y0058843D01*
X0117231Y0059992D01*
X0116792Y0061053D01*
X0115979Y0061865D01*
X0114918Y0062305D01*
X0113770Y0062305D01*
X0112708Y0061865D01*
X0111896Y0061053D01*
X0111456Y0059992D01*
X0111456Y0058843D01*
X0111896Y0057782D01*
X0112708Y0056969D01*
X0112251Y0057426D02*
X0103209Y0057426D01*
X0103209Y0058025D02*
X0111795Y0058025D01*
X0111547Y0058623D02*
X0103022Y0058623D01*
X0102774Y0059222D02*
X0111456Y0059222D01*
X0111456Y0059820D02*
X0102183Y0059820D01*
X0101059Y0060419D02*
X0111633Y0060419D01*
X0111881Y0061017D02*
X0089611Y0061017D01*
X0089340Y0060419D02*
X0099583Y0060419D01*
X0098459Y0059820D02*
X0089230Y0059820D01*
X0088982Y0059222D02*
X0097868Y0059222D01*
X0097620Y0058623D02*
X0088499Y0058623D01*
X0088605Y0058025D02*
X0097434Y0058025D01*
X0097434Y0057426D02*
X0089085Y0057426D01*
X0089333Y0056828D02*
X0097515Y0056828D01*
X0097763Y0056229D02*
X0089440Y0056229D01*
X0089440Y0055631D02*
X0098206Y0055631D01*
X0098973Y0055032D02*
X0089280Y0055032D01*
X0084627Y0053835D02*
X0082517Y0053835D01*
X0082147Y0054434D02*
X0084074Y0054434D01*
X0083826Y0055032D02*
X0081548Y0055032D01*
X0083666Y0055631D02*
X0058505Y0055631D01*
X0058720Y0056151D02*
X0058281Y0055090D01*
X0057469Y0054277D01*
X0056407Y0053838D01*
X0055259Y0053838D01*
X0054197Y0054277D01*
X0053385Y0055090D01*
X0052946Y0056151D01*
X0052946Y0057300D01*
X0053385Y0058361D01*
X0054197Y0059173D01*
X0055259Y0059613D01*
X0056407Y0059613D01*
X0057469Y0059173D01*
X0058281Y0058361D01*
X0058720Y0057300D01*
X0058720Y0056151D01*
X0058720Y0056229D02*
X0083666Y0056229D01*
X0083774Y0056828D02*
X0058720Y0056828D01*
X0058668Y0057426D02*
X0084022Y0057426D01*
X0084502Y0058025D02*
X0058420Y0058025D01*
X0058018Y0058623D02*
X0078779Y0058623D01*
X0078080Y0059222D02*
X0057351Y0059222D01*
X0054315Y0059222D02*
X0044804Y0059222D01*
X0044670Y0058897D02*
X0045109Y0059959D01*
X0045109Y0061107D01*
X0044670Y0062169D01*
X0043857Y0062981D01*
X0042796Y0063420D01*
X0041648Y0063420D01*
X0040586Y0062981D01*
X0039774Y0062169D01*
X0039335Y0061107D01*
X0039335Y0059959D01*
X0039774Y0058897D01*
X0040586Y0058085D01*
X0041648Y0057646D01*
X0042796Y0057646D01*
X0043857Y0058085D01*
X0044670Y0058897D01*
X0044396Y0058623D02*
X0053648Y0058623D01*
X0053246Y0058025D02*
X0043711Y0058025D01*
X0045052Y0059820D02*
X0077665Y0059820D01*
X0077417Y0060419D02*
X0045109Y0060419D01*
X0045109Y0061017D02*
X0077355Y0061017D01*
X0077355Y0061616D02*
X0044899Y0061616D01*
X0044624Y0062214D02*
X0077561Y0062214D01*
X0076957Y0062813D02*
X0044026Y0062813D01*
X0042818Y0063411D02*
X0076552Y0063411D01*
X0076304Y0064010D02*
X0030722Y0064010D01*
X0030779Y0064608D02*
X0038585Y0064608D01*
X0037450Y0065207D02*
X0030895Y0065207D01*
X0031027Y0065805D02*
X0036855Y0065805D01*
X0036607Y0066404D02*
X0035719Y0066404D01*
X0040026Y0064608D02*
X0058671Y0064608D01*
X0057528Y0065207D02*
X0041160Y0065207D01*
X0041755Y0065805D02*
X0056133Y0065805D01*
X0054546Y0066404D02*
X0042003Y0066404D01*
X0042193Y0067002D02*
X0052958Y0067002D01*
X0051371Y0067601D02*
X0042193Y0067601D01*
X0042114Y0068199D02*
X0049784Y0068199D01*
X0048196Y0068798D02*
X0041866Y0068798D01*
X0041427Y0069396D02*
X0046609Y0069396D01*
X0045022Y0069995D02*
X0040671Y0069995D01*
X0040065Y0070593D02*
X0043434Y0070593D01*
X0041847Y0071192D02*
X0040283Y0071192D01*
X0041626Y0063411D02*
X0030665Y0063411D01*
X0030608Y0062813D02*
X0040418Y0062813D01*
X0039820Y0062214D02*
X0030551Y0062214D01*
X0030494Y0061616D02*
X0039545Y0061616D01*
X0039335Y0061017D02*
X0030437Y0061017D01*
X0030379Y0060419D02*
X0031341Y0060419D01*
X0030742Y0059820D02*
X0030322Y0059820D01*
X0030265Y0059222D02*
X0030382Y0059222D01*
X0030111Y0057426D02*
X0030094Y0057426D01*
X0030037Y0056828D02*
X0030356Y0056828D01*
X0030679Y0056229D02*
X0029997Y0056229D01*
X0030038Y0055631D02*
X0031277Y0055631D01*
X0030079Y0055032D02*
X0053443Y0055032D01*
X0053161Y0055631D02*
X0034719Y0055631D01*
X0035318Y0056229D02*
X0052946Y0056229D01*
X0052946Y0056828D02*
X0035641Y0056828D01*
X0035886Y0057426D02*
X0052998Y0057426D01*
X0054041Y0054434D02*
X0030119Y0054434D01*
X0030160Y0053835D02*
X0077299Y0053835D01*
X0077051Y0053237D02*
X0030201Y0053237D01*
X0030241Y0052638D02*
X0077020Y0052638D01*
X0077020Y0052040D02*
X0030282Y0052040D01*
X0030323Y0051441D02*
X0077258Y0051441D01*
X0077571Y0050843D02*
X0030364Y0050843D01*
X0030404Y0050244D02*
X0078169Y0050244D01*
X0077669Y0054434D02*
X0057625Y0054434D01*
X0058223Y0055032D02*
X0078268Y0055032D01*
X0081705Y0058623D02*
X0084406Y0058623D01*
X0083923Y0059222D02*
X0082405Y0059222D01*
X0082820Y0059820D02*
X0083675Y0059820D01*
X0085412Y0065207D02*
X0085998Y0065207D01*
X0086534Y0065805D02*
X0081811Y0065805D01*
X0081533Y0066404D02*
X0087525Y0066404D01*
X0089454Y0066404D02*
X0100692Y0066404D01*
X0100940Y0066301D02*
X0102325Y0066301D01*
X0103604Y0066831D01*
X0104584Y0067810D01*
X0105114Y0069090D01*
X0105114Y0070475D01*
X0104584Y0071754D01*
X0103604Y0072733D01*
X0102325Y0073263D01*
X0100940Y0073263D01*
X0099661Y0072733D01*
X0098681Y0071754D01*
X0098151Y0070475D01*
X0098151Y0069090D01*
X0098681Y0067810D01*
X0099661Y0066831D01*
X0100940Y0066301D01*
X0099489Y0067002D02*
X0080934Y0067002D01*
X0080230Y0067601D02*
X0098891Y0067601D01*
X0098520Y0068199D02*
X0080230Y0068199D01*
X0080129Y0068798D02*
X0098272Y0068798D01*
X0098151Y0069396D02*
X0079881Y0069396D01*
X0079410Y0069995D02*
X0098151Y0069995D01*
X0098201Y0070593D02*
X0078577Y0070593D01*
X0076109Y0070593D02*
X0059014Y0070593D01*
X0059228Y0071192D02*
X0098448Y0071192D01*
X0098718Y0071791D02*
X0059443Y0071791D01*
X0059658Y0072389D02*
X0099316Y0072389D01*
X0100274Y0072988D02*
X0059873Y0072988D01*
X0060088Y0073586D02*
X0117096Y0073586D01*
X0117149Y0073922D02*
X0117008Y0073031D01*
X0117008Y0072880D01*
X0122437Y0072880D01*
X0122437Y0072280D01*
X0123037Y0072280D01*
X0123037Y0066851D01*
X0123188Y0066851D01*
X0124079Y0066992D01*
X0124936Y0067271D01*
X0125740Y0067680D01*
X0126469Y0068210D01*
X0127107Y0068848D01*
X0127637Y0069578D01*
X0128046Y0070381D01*
X0128325Y0071239D01*
X0128466Y0072129D01*
X0128466Y0072280D01*
X0123037Y0072280D01*
X0123037Y0072880D01*
X0128466Y0072880D01*
X0128466Y0073031D01*
X0128325Y0073922D01*
X0128046Y0074780D01*
X0127637Y0075583D01*
X0127107Y0076313D01*
X0126469Y0076950D01*
X0125740Y0077480D01*
X0124936Y0077890D01*
X0124079Y0078168D01*
X0123188Y0078309D01*
X0123037Y0078309D01*
X0123037Y0072880D01*
X0122437Y0072880D01*
X0122437Y0078309D01*
X0122286Y0078309D01*
X0121395Y0078168D01*
X0120538Y0077890D01*
X0119734Y0077480D01*
X0119005Y0076950D01*
X0118367Y0076313D01*
X0117837Y0075583D01*
X0117428Y0074780D01*
X0117149Y0073922D01*
X0117234Y0074185D02*
X0060303Y0074185D01*
X0060518Y0074783D02*
X0117429Y0074783D01*
X0117734Y0075382D02*
X0060732Y0075382D01*
X0060947Y0075980D02*
X0074432Y0075980D01*
X0075043Y0075727D02*
X0076428Y0075727D01*
X0077707Y0076257D01*
X0078687Y0077236D01*
X0079217Y0078516D01*
X0079217Y0079901D01*
X0078687Y0081180D01*
X0077707Y0082159D01*
X0076428Y0082689D01*
X0075043Y0082689D01*
X0073764Y0082159D01*
X0072784Y0081180D01*
X0072254Y0079901D01*
X0072254Y0078516D01*
X0072784Y0077236D01*
X0073764Y0076257D01*
X0075043Y0075727D01*
X0073442Y0076579D02*
X0061162Y0076579D01*
X0061377Y0077177D02*
X0072843Y0077177D01*
X0072561Y0077776D02*
X0061592Y0077776D01*
X0061807Y0078374D02*
X0072313Y0078374D01*
X0072254Y0078973D02*
X0062021Y0078973D01*
X0062236Y0079571D02*
X0072254Y0079571D01*
X0072366Y0080170D02*
X0062451Y0080170D01*
X0062666Y0080768D02*
X0072614Y0080768D01*
X0072971Y0081367D02*
X0062881Y0081367D01*
X0063096Y0081965D02*
X0073570Y0081965D01*
X0074740Y0082564D02*
X0063311Y0082564D01*
X0063525Y0083162D02*
X0114502Y0083162D01*
X0114196Y0082857D02*
X0113757Y0081796D01*
X0113757Y0080647D01*
X0114196Y0079586D01*
X0115009Y0078773D01*
X0116070Y0078334D01*
X0117218Y0078334D01*
X0118280Y0078773D01*
X0119092Y0079586D01*
X0119532Y0080647D01*
X0119532Y0081796D01*
X0119092Y0082857D01*
X0118280Y0083669D01*
X0117218Y0084109D01*
X0116070Y0084109D01*
X0115009Y0083669D01*
X0114196Y0082857D01*
X0114075Y0082564D02*
X0076731Y0082564D01*
X0077901Y0081965D02*
X0113827Y0081965D01*
X0113757Y0081367D02*
X0078500Y0081367D01*
X0078857Y0080768D02*
X0113757Y0080768D01*
X0113954Y0080170D02*
X0079105Y0080170D01*
X0079217Y0079571D02*
X0114211Y0079571D01*
X0114809Y0078973D02*
X0079217Y0078973D01*
X0079158Y0078374D02*
X0115973Y0078374D01*
X0117316Y0078374D02*
X0128287Y0078374D01*
X0128540Y0077776D02*
X0125160Y0077776D01*
X0126157Y0077177D02*
X0128793Y0077177D01*
X0129046Y0076579D02*
X0126841Y0076579D01*
X0127349Y0075980D02*
X0129298Y0075980D01*
X0129551Y0075382D02*
X0127740Y0075382D01*
X0128045Y0074783D02*
X0129804Y0074783D01*
X0130057Y0074185D02*
X0128240Y0074185D01*
X0128378Y0073586D02*
X0130309Y0073586D01*
X0130562Y0072988D02*
X0128466Y0072988D01*
X0128412Y0071791D02*
X0131064Y0071791D01*
X0131208Y0071192D02*
X0128310Y0071192D01*
X0128115Y0070593D02*
X0131351Y0070593D01*
X0131495Y0069995D02*
X0127850Y0069995D01*
X0127505Y0069396D02*
X0131638Y0069396D01*
X0131782Y0068798D02*
X0127057Y0068798D01*
X0126454Y0068199D02*
X0131925Y0068199D01*
X0132068Y0067601D02*
X0125584Y0067601D01*
X0124110Y0067002D02*
X0132212Y0067002D01*
X0132355Y0066404D02*
X0119607Y0066404D01*
X0119891Y0066120D02*
X0119079Y0066933D01*
X0118017Y0067372D01*
X0116869Y0067372D01*
X0115807Y0066933D01*
X0114995Y0066120D01*
X0114556Y0065059D01*
X0114556Y0063911D01*
X0114995Y0062849D01*
X0115807Y0062037D01*
X0116869Y0061598D01*
X0118017Y0061598D01*
X0119079Y0062037D01*
X0119891Y0062849D01*
X0120330Y0063911D01*
X0120330Y0065059D01*
X0119891Y0066120D01*
X0120021Y0065805D02*
X0132499Y0065805D01*
X0132642Y0065207D02*
X0120269Y0065207D01*
X0120330Y0064608D02*
X0132786Y0064608D01*
X0132929Y0064010D02*
X0120330Y0064010D01*
X0120124Y0063411D02*
X0133052Y0063411D01*
X0133095Y0062813D02*
X0119854Y0062813D01*
X0119256Y0062214D02*
X0133137Y0062214D01*
X0133180Y0061616D02*
X0118062Y0061616D01*
X0116824Y0061616D02*
X0116229Y0061616D01*
X0116806Y0061017D02*
X0133222Y0061017D01*
X0133264Y0060419D02*
X0117054Y0060419D01*
X0117231Y0059820D02*
X0133307Y0059820D01*
X0133349Y0059222D02*
X0117231Y0059222D01*
X0117140Y0058623D02*
X0133392Y0058623D01*
X0133434Y0058025D02*
X0116892Y0058025D01*
X0116436Y0057426D02*
X0133477Y0057426D01*
X0133519Y0056828D02*
X0115637Y0056828D01*
X0112459Y0061616D02*
X0090511Y0061616D01*
X0091009Y0062214D02*
X0113552Y0062214D01*
X0115032Y0062813D02*
X0091257Y0062813D01*
X0091377Y0063411D02*
X0114762Y0063411D01*
X0114556Y0064010D02*
X0091377Y0064010D01*
X0091230Y0064608D02*
X0114556Y0064608D01*
X0114617Y0065207D02*
X0090982Y0065207D01*
X0090446Y0065805D02*
X0114865Y0065805D01*
X0115279Y0066404D02*
X0102573Y0066404D01*
X0103776Y0067002D02*
X0115976Y0067002D01*
X0118910Y0067002D02*
X0121364Y0067002D01*
X0121395Y0066992D02*
X0122286Y0066851D01*
X0122437Y0066851D01*
X0122437Y0072280D01*
X0117008Y0072280D01*
X0117008Y0072129D01*
X0117149Y0071239D01*
X0117428Y0070381D01*
X0117837Y0069578D01*
X0118367Y0068848D01*
X0119005Y0068210D01*
X0119734Y0067680D01*
X0120538Y0067271D01*
X0121395Y0066992D01*
X0122437Y0067002D02*
X0123037Y0067002D01*
X0123037Y0067601D02*
X0122437Y0067601D01*
X0122437Y0068199D02*
X0123037Y0068199D01*
X0123037Y0068798D02*
X0122437Y0068798D01*
X0122437Y0069396D02*
X0123037Y0069396D01*
X0123037Y0069995D02*
X0122437Y0069995D01*
X0122437Y0070593D02*
X0123037Y0070593D01*
X0123037Y0071192D02*
X0122437Y0071192D01*
X0122437Y0071791D02*
X0123037Y0071791D01*
X0123037Y0072389D02*
X0130815Y0072389D01*
X0128034Y0078973D02*
X0118479Y0078973D01*
X0119077Y0079571D02*
X0127782Y0079571D01*
X0127420Y0080170D02*
X0119334Y0080170D01*
X0119532Y0080768D02*
X0127041Y0080768D01*
X0126663Y0081367D02*
X0119532Y0081367D01*
X0119461Y0081965D02*
X0126284Y0081965D01*
X0125905Y0082564D02*
X0119213Y0082564D01*
X0118787Y0083162D02*
X0125527Y0083162D01*
X0125148Y0083761D02*
X0118058Y0083761D01*
X0115230Y0083761D02*
X0063740Y0083761D01*
X0063955Y0084359D02*
X0124769Y0084359D01*
X0124391Y0084958D02*
X0064165Y0084958D01*
X0064365Y0085556D02*
X0124012Y0085556D01*
X0123634Y0086155D02*
X0064564Y0086155D01*
X0064764Y0086753D02*
X0123255Y0086753D01*
X0122745Y0087352D02*
X0064963Y0087352D01*
X0065163Y0087950D02*
X0122211Y0087950D01*
X0121677Y0088549D02*
X0065362Y0088549D01*
X0065562Y0089147D02*
X0121143Y0089147D01*
X0120609Y0089746D02*
X0065761Y0089746D01*
X0065961Y0090344D02*
X0120075Y0090344D01*
X0119541Y0090943D02*
X0066160Y0090943D01*
X0066360Y0091541D02*
X0119007Y0091541D01*
X0118473Y0092140D02*
X0066559Y0092140D01*
X0066759Y0092738D02*
X0117939Y0092738D01*
X0117356Y0093337D02*
X0066958Y0093337D01*
X0067158Y0093935D02*
X0116613Y0093935D01*
X0115869Y0094534D02*
X0101430Y0094534D01*
X0102568Y0095132D02*
X0115126Y0095132D01*
X0114383Y0095731D02*
X0103164Y0095731D01*
X0103412Y0096329D02*
X0113640Y0096329D01*
X0112896Y0096928D02*
X0103602Y0096928D01*
X0103602Y0097527D02*
X0112153Y0097527D01*
X0111410Y0098125D02*
X0103524Y0098125D01*
X0103277Y0098724D02*
X0110567Y0098724D01*
X0109505Y0099322D02*
X0102839Y0099322D01*
X0102085Y0099921D02*
X0108444Y0099921D01*
X0107383Y0100519D02*
X0101634Y0100519D01*
X0101621Y0101118D02*
X0106321Y0101118D01*
X0105260Y0101716D02*
X0101373Y0101716D01*
X0101028Y0102315D02*
X0104199Y0102315D01*
X0102947Y0102913D02*
X0100429Y0102913D01*
X0101302Y0103512D02*
X0097614Y0103512D01*
X0097264Y0104110D02*
X0099658Y0104110D01*
X0098013Y0104709D02*
X0096665Y0104709D01*
X0096369Y0105307D02*
X0094855Y0105307D01*
X0092355Y0101118D02*
X0090443Y0101118D01*
X0090992Y0101716D02*
X0091139Y0101716D01*
X0092570Y0100519D02*
X0089417Y0100519D01*
X0091777Y0099322D02*
X0068953Y0099322D01*
X0068754Y0098724D02*
X0091623Y0098724D01*
X0091623Y0098125D02*
X0068554Y0098125D01*
X0068355Y0097527D02*
X0091736Y0097527D01*
X0091984Y0096928D02*
X0068155Y0096928D01*
X0067956Y0096329D02*
X0092473Y0096329D01*
X0093350Y0095731D02*
X0067756Y0095731D01*
X0067557Y0095132D02*
X0098862Y0095132D01*
X0098266Y0095731D02*
X0095670Y0095731D01*
X0096547Y0096329D02*
X0098018Y0096329D01*
X0097827Y0096928D02*
X0097036Y0096928D01*
X0097283Y0097527D02*
X0097827Y0097527D01*
X0100000Y0094534D02*
X0067357Y0094534D01*
X0069153Y0099921D02*
X0092025Y0099921D01*
X0087603Y0100519D02*
X0069352Y0100519D01*
X0069552Y0101118D02*
X0086578Y0101118D01*
X0086028Y0101716D02*
X0069751Y0101716D01*
X0069951Y0102315D02*
X0085780Y0102315D01*
X0085623Y0102913D02*
X0070150Y0102913D01*
X0070350Y0103512D02*
X0085623Y0103512D01*
X0085733Y0104110D02*
X0070549Y0104110D01*
X0070749Y0104709D02*
X0085981Y0104709D01*
X0086465Y0105307D02*
X0070948Y0105307D01*
X0071148Y0105906D02*
X0087332Y0105906D01*
X0087594Y0107103D02*
X0076808Y0107103D01*
X0072687Y0106504D02*
X0090056Y0106504D01*
X0078910Y0077776D02*
X0120314Y0077776D01*
X0119317Y0077177D02*
X0078627Y0077177D01*
X0078029Y0076579D02*
X0118633Y0076579D01*
X0118126Y0075980D02*
X0077039Y0075980D01*
X0075275Y0069995D02*
X0060757Y0069995D01*
X0061505Y0069396D02*
X0074804Y0069396D01*
X0074556Y0068798D02*
X0061940Y0068798D01*
X0062188Y0068199D02*
X0074455Y0068199D01*
X0074455Y0067601D02*
X0062264Y0067601D01*
X0062264Y0067002D02*
X0074622Y0067002D01*
X0074870Y0066404D02*
X0062072Y0066404D01*
X0061823Y0065805D02*
X0075433Y0065805D01*
X0076249Y0065207D02*
X0061225Y0065207D01*
X0060081Y0064608D02*
X0076249Y0064608D01*
X0097288Y0043062D02*
X0125131Y0043062D01*
X0124583Y0042463D02*
X0097579Y0042463D01*
X0097800Y0041865D02*
X0124034Y0041865D01*
X0123787Y0041266D02*
X0097800Y0041266D01*
X0097754Y0040668D02*
X0123569Y0040668D01*
X0123351Y0040069D02*
X0097506Y0040069D01*
X0097114Y0039471D02*
X0123133Y0039471D01*
X0123013Y0038872D02*
X0096468Y0038872D01*
X0100495Y0028794D02*
X0099361Y0028324D01*
X0098494Y0027457D01*
X0098024Y0026323D01*
X0098024Y0025096D01*
X0098494Y0023962D01*
X0099361Y0023095D01*
X0100495Y0022625D01*
X0101722Y0022625D01*
X0102856Y0023095D01*
X0103723Y0023962D01*
X0104193Y0025096D01*
X0104193Y0026323D01*
X0103723Y0027457D01*
X0102856Y0028324D01*
X0101722Y0028794D01*
X0100495Y0028794D01*
X0100263Y0028698D02*
X0043001Y0028698D01*
X0043169Y0028099D02*
X0099136Y0028099D01*
X0098538Y0027501D02*
X0043169Y0027501D01*
X0043102Y0026902D02*
X0098264Y0026902D01*
X0098024Y0026304D02*
X0042854Y0026304D01*
X0042474Y0025705D02*
X0098024Y0025705D01*
X0098024Y0025107D02*
X0041875Y0025107D01*
X0040926Y0023910D02*
X0098547Y0023910D01*
X0098268Y0024508D02*
X0040401Y0024508D01*
X0041450Y0023311D02*
X0099145Y0023311D01*
X0100284Y0022713D02*
X0041975Y0022713D01*
X0042499Y0022114D02*
X0116442Y0022114D01*
X0116438Y0021516D02*
X0043024Y0021516D01*
X0043549Y0020917D02*
X0059054Y0020917D01*
X0058809Y0020816D02*
X0059870Y0021255D01*
X0061019Y0021255D01*
X0062080Y0020816D01*
X0062892Y0020003D01*
X0063332Y0018942D01*
X0063332Y0017793D01*
X0062892Y0016732D01*
X0062080Y0015920D01*
X0061019Y0015480D01*
X0059870Y0015480D01*
X0058809Y0015920D01*
X0057997Y0016732D01*
X0057557Y0017793D01*
X0057557Y0018942D01*
X0057997Y0020003D01*
X0058809Y0020816D01*
X0058312Y0020319D02*
X0044073Y0020319D01*
X0044598Y0019720D02*
X0057879Y0019720D01*
X0057631Y0019122D02*
X0045122Y0019122D01*
X0045647Y0018523D02*
X0057557Y0018523D01*
X0057557Y0017924D02*
X0046336Y0017924D01*
X0047064Y0017326D02*
X0057751Y0017326D01*
X0058001Y0016727D02*
X0047791Y0016727D01*
X0048519Y0016129D02*
X0058600Y0016129D01*
X0059749Y0015530D02*
X0049247Y0015530D01*
X0049975Y0014932D02*
X0113660Y0014932D01*
X0112892Y0014333D02*
X0050703Y0014333D01*
X0051431Y0013735D02*
X0112123Y0013735D01*
X0111355Y0013136D02*
X0068005Y0013136D01*
X0069119Y0012538D02*
X0110586Y0012538D01*
X0109590Y0011939D02*
X0069706Y0011939D01*
X0069954Y0011341D02*
X0108509Y0011341D01*
X0107427Y0010742D02*
X0070138Y0010742D01*
X0070138Y0010144D02*
X0106345Y0010144D01*
X0105263Y0009545D02*
X0070053Y0009545D01*
X0069805Y0008947D02*
X0104182Y0008947D01*
X0102999Y0008348D02*
X0069358Y0008348D01*
X0068582Y0007750D02*
X0101355Y0007750D01*
X0099710Y0007151D02*
X0065374Y0007151D01*
X0065543Y0006553D02*
X0098066Y0006553D01*
X0096421Y0005954D02*
X0067123Y0005954D01*
X0065919Y0007750D02*
X0065849Y0007750D01*
X0069795Y0005356D02*
X0079964Y0005356D01*
X0078912Y0004757D02*
X0072758Y0004757D01*
X0075721Y0004159D02*
X0078431Y0004159D01*
X0083671Y0005356D02*
X0093990Y0005356D01*
X0090922Y0004757D02*
X0084722Y0004757D01*
X0085203Y0004159D02*
X0087855Y0004159D01*
X0101933Y0022713D02*
X0116690Y0022713D01*
X0116929Y0023311D02*
X0103072Y0023311D01*
X0103670Y0023910D02*
X0116588Y0023910D01*
X0116340Y0024508D02*
X0116195Y0024508D01*
X0117367Y0027501D02*
X0117532Y0027501D01*
X0117119Y0028099D02*
X0125585Y0028099D01*
X0125179Y0027501D02*
X0120906Y0027501D01*
X0121504Y0026902D02*
X0124773Y0026902D01*
X0124366Y0026304D02*
X0121847Y0026304D01*
X0122095Y0025705D02*
X0123960Y0025705D01*
X0123554Y0025107D02*
X0122106Y0025107D01*
X0122097Y0024508D02*
X0123147Y0024508D01*
X0122741Y0023910D02*
X0121849Y0023910D01*
X0121627Y0023311D02*
X0122335Y0023311D01*
X0117650Y0019122D02*
X0063257Y0019122D01*
X0063332Y0018523D02*
X0117863Y0018523D01*
X0117303Y0017924D02*
X0063332Y0017924D01*
X0063138Y0017326D02*
X0116734Y0017326D01*
X0115966Y0016727D02*
X0062888Y0016727D01*
X0062289Y0016129D02*
X0115197Y0016129D01*
X0114429Y0015530D02*
X0061140Y0015530D01*
X0062444Y0011939D02*
X0054180Y0011939D01*
X0055212Y0011341D02*
X0061397Y0011341D01*
X0060838Y0010742D02*
X0056245Y0010742D01*
X0057278Y0010144D02*
X0060590Y0010144D01*
X0060426Y0009545D02*
X0058311Y0009545D01*
X0059344Y0008947D02*
X0060426Y0008947D01*
X0064182Y0011939D02*
X0064794Y0011939D01*
X0065381Y0012538D02*
X0053147Y0012538D01*
X0052159Y0013136D02*
X0066496Y0013136D01*
X0063010Y0019720D02*
X0117051Y0019720D01*
X0116702Y0020319D02*
X0062577Y0020319D01*
X0061835Y0020917D02*
X0116454Y0020917D01*
X0112793Y0024508D02*
X0103949Y0024508D01*
X0104193Y0025107D02*
X0112195Y0025107D01*
X0111860Y0025705D02*
X0104193Y0025705D01*
X0104193Y0026304D02*
X0111612Y0026304D01*
X0111607Y0026902D02*
X0103953Y0026902D01*
X0103679Y0027501D02*
X0111622Y0027501D01*
X0111870Y0028099D02*
X0103081Y0028099D01*
X0101954Y0028698D02*
X0112218Y0028698D01*
X0112817Y0029296D02*
X0042753Y0029296D01*
X0042230Y0029895D02*
X0126804Y0029895D01*
X0127125Y0030493D02*
X0041348Y0030493D01*
X0038822Y0030493D02*
X0036614Y0030493D01*
X0036987Y0029895D02*
X0037940Y0029895D01*
X0037417Y0029296D02*
X0037359Y0029296D01*
X0036242Y0031092D02*
X0127436Y0031092D01*
X0126398Y0029296D02*
X0116172Y0029296D01*
X0116771Y0028698D02*
X0125992Y0028698D01*
X0125160Y0032887D02*
X0042403Y0032887D01*
X0043848Y0033486D02*
X0124507Y0033486D01*
X0125680Y0043660D02*
X0122813Y0043660D01*
X0123412Y0044259D02*
X0126632Y0044259D01*
X0127915Y0044858D02*
X0123700Y0044858D01*
X0123920Y0045456D02*
X0132606Y0045456D01*
X0132738Y0046055D02*
X0123920Y0046055D01*
X0123873Y0046653D02*
X0132858Y0046653D01*
X0132915Y0047252D02*
X0123625Y0047252D01*
X0123230Y0047850D02*
X0132971Y0047850D01*
X0115630Y0062214D02*
X0115136Y0062214D01*
X0119890Y0067601D02*
X0104374Y0067601D01*
X0104745Y0068199D02*
X0119020Y0068199D01*
X0118417Y0068798D02*
X0104993Y0068798D01*
X0105114Y0069396D02*
X0117969Y0069396D01*
X0117624Y0069995D02*
X0105114Y0069995D01*
X0105064Y0070593D02*
X0117359Y0070593D01*
X0117164Y0071192D02*
X0104816Y0071192D01*
X0104547Y0071791D02*
X0117062Y0071791D01*
X0117008Y0072988D02*
X0102991Y0072988D01*
X0103949Y0072389D02*
X0122437Y0072389D01*
X0122437Y0072988D02*
X0123037Y0072988D01*
X0123037Y0073586D02*
X0122437Y0073586D01*
X0122437Y0074185D02*
X0123037Y0074185D01*
X0123037Y0074783D02*
X0122437Y0074783D01*
X0122437Y0075382D02*
X0123037Y0075382D01*
X0123037Y0075980D02*
X0122437Y0075980D01*
X0122437Y0076579D02*
X0123037Y0076579D01*
X0123037Y0077177D02*
X0122437Y0077177D01*
X0122437Y0077776D02*
X0123037Y0077776D01*
X0040732Y0058025D02*
X0035886Y0058025D01*
X0035862Y0058623D02*
X0040048Y0058623D01*
X0039640Y0059222D02*
X0035615Y0059222D01*
X0035254Y0059820D02*
X0039392Y0059820D01*
X0039335Y0060419D02*
X0034656Y0060419D01*
D15*
X0044416Y0070198D02*
X0068038Y0089883D01*
X0071581Y0088308D01*
X0061738Y0063505D01*
X0044416Y0070198D01*
X0044917Y0070004D02*
X0064317Y0070004D01*
X0064001Y0069205D02*
X0060989Y0069205D01*
X0060365Y0069829D02*
X0058387Y0069829D01*
X0056989Y0068431D01*
X0056989Y0066453D01*
X0058387Y0065054D01*
X0060365Y0065054D01*
X0061764Y0066453D01*
X0061764Y0068431D01*
X0060365Y0069829D01*
X0061764Y0068407D02*
X0063684Y0068407D01*
X0063367Y0067608D02*
X0061764Y0067608D01*
X0061764Y0066810D02*
X0063050Y0066810D01*
X0062733Y0066011D02*
X0061322Y0066011D01*
X0060524Y0065213D02*
X0062416Y0065213D01*
X0062099Y0064414D02*
X0059384Y0064414D01*
X0058229Y0065213D02*
X0057317Y0065213D01*
X0057430Y0066011D02*
X0055251Y0066011D01*
X0056989Y0066810D02*
X0053184Y0066810D01*
X0051117Y0067608D02*
X0056989Y0067608D01*
X0056989Y0068407D02*
X0049050Y0068407D01*
X0046984Y0069205D02*
X0057764Y0069205D01*
X0061451Y0063616D02*
X0061783Y0063616D01*
X0064634Y0070802D02*
X0045141Y0070802D01*
X0046100Y0071601D02*
X0064951Y0071601D01*
X0065268Y0072399D02*
X0047058Y0072399D01*
X0048016Y0073198D02*
X0065585Y0073198D01*
X0065902Y0073996D02*
X0048974Y0073996D01*
X0049932Y0074795D02*
X0066219Y0074795D01*
X0066536Y0075593D02*
X0050891Y0075593D01*
X0051849Y0076392D02*
X0066852Y0076392D01*
X0067169Y0077191D02*
X0052807Y0077191D01*
X0053765Y0077989D02*
X0067486Y0077989D01*
X0067803Y0078788D02*
X0054723Y0078788D01*
X0055682Y0079586D02*
X0068120Y0079586D01*
X0068437Y0080385D02*
X0056640Y0080385D01*
X0057598Y0081183D02*
X0068754Y0081183D01*
X0069071Y0081982D02*
X0058556Y0081982D01*
X0059515Y0082780D02*
X0069387Y0082780D01*
X0069704Y0083579D02*
X0060473Y0083579D01*
X0061431Y0084377D02*
X0070021Y0084377D01*
X0070338Y0085176D02*
X0062389Y0085176D01*
X0063347Y0085974D02*
X0070655Y0085974D01*
X0070972Y0086773D02*
X0064306Y0086773D01*
X0065264Y0087571D02*
X0071289Y0087571D01*
X0071442Y0088370D02*
X0066222Y0088370D01*
X0067180Y0089168D02*
X0069645Y0089168D01*
D16*
X0059156Y0053527D03*
D17*
X0040085Y0027678D03*
X0101109Y0025709D03*
M02*
