%
M48
M72
T01C0.01378
T02C0.01575
T03C0.01969
T04C0.02362
T05C0.05906
%
T01
X59156Y53527
T02
X55833Y56725
X49927Y65080
X55439Y69410
X59376Y67442
X61738Y73347
X64494Y80040
X59770Y81221
X53864Y76103
X48746Y71772
X39305Y67435
X42222Y60533
X32998Y57993
X55046Y41064
X60557Y41064
X62293Y36525
X63752Y20814
X60444Y18368
X67644Y13898
X67250Y10324
X63313Y9174
X89691Y26103
X89691Y29253
X85360Y37520
X94913Y41354
X93609Y48544
X86553Y55993
X86453Y60660
X83628Y62907
X80242Y61143
X79136Y64717
X77343Y67979
X73943Y71772
X88490Y63678
X100321Y57599
X107014Y67048
X114344Y59417
X117644Y57993
X117443Y64485
X116644Y81221
X113313Y94213
X105833Y95788
X100715Y97363
X98746Y100513
X94991Y102300
X92085Y104450
X88510Y103269
X84179Y105237
X94510Y98376
X70006Y94607
X67250Y87914
X79908Y52589
X114494Y26891
X119219Y25104
X119325Y21529
X121033Y45964
X92841Y7599
T03
X40085Y27678
X101109Y25709
T04
X101632Y69782
X75735Y79208
T05
X122737Y72580
X40897Y38681
M30
