G75*
%MOIN*%
%OFA0B0*%
%FSLAX25Y25*%
%IPPOS*%
%LPD*%
%AMOC8*
5,1,8,0,0,1.08239X$1,22.5*
%
%ADD10C,0.00004*%
%ADD11C,0.00000*%
%ADD12C,0.00600*%
%ADD13C,0.00300*%
%ADD14C,0.00200*%
%ADD15C,0.00500*%
%ADD16C,0.00787*%
D10*
X0029475Y0069444D02*
X0031670Y0068646D01*
X0031801Y0068600D01*
X0031934Y0068558D01*
X0032068Y0068520D01*
X0032203Y0068485D01*
X0032339Y0068455D01*
X0032476Y0068428D01*
X0032613Y0068405D01*
X0032751Y0068386D01*
X0032889Y0068371D01*
X0033028Y0068360D01*
X0033167Y0068353D01*
X0033307Y0068349D01*
X0033446Y0068350D01*
X0033585Y0068354D01*
X0033724Y0068363D01*
X0033863Y0068375D01*
X0034001Y0068392D01*
X0034139Y0068412D01*
X0034276Y0068436D01*
X0034412Y0068464D01*
X0034548Y0068496D01*
X0034683Y0068532D01*
X0034816Y0068572D01*
X0034949Y0068615D01*
X0035080Y0068662D01*
X0035209Y0068713D01*
X0035338Y0068767D01*
X0035464Y0068825D01*
X0035589Y0068886D01*
X0035712Y0068951D01*
X0035834Y0069020D01*
X0035953Y0069092D01*
X0036070Y0069167D01*
X0036185Y0069246D01*
X0036298Y0069327D01*
X0036408Y0069412D01*
X0036516Y0069500D01*
X0036622Y0069591D01*
X0036724Y0069685D01*
X0036824Y0069782D01*
X0036922Y0069882D01*
X0037016Y0069984D01*
X0037108Y0070089D01*
X0037196Y0070197D01*
X0037282Y0070307D01*
X0037364Y0070419D01*
X0037443Y0070534D01*
X0037519Y0070650D01*
X0037591Y0070769D01*
X0037660Y0070890D01*
X0037726Y0071013D01*
X0037788Y0071138D01*
X0037847Y0071264D01*
X0037902Y0071392D01*
X0037953Y0071522D01*
X0038001Y0071653D01*
X0038044Y0071785D01*
X0038085Y0071918D01*
X0038121Y0072052D01*
X0038154Y0072188D01*
X0038182Y0072324D01*
X0038207Y0072461D01*
X0038228Y0072599D01*
X0038245Y0072737D01*
X0038258Y0072876D01*
X0038267Y0073015D01*
X0038273Y0073154D01*
X0038274Y0073293D01*
X0038271Y0073432D01*
X0038265Y0073572D01*
X0038254Y0073710D01*
X0038240Y0073849D01*
X0038221Y0073987D01*
X0038199Y0074125D01*
X0038173Y0074261D01*
X0038143Y0074397D01*
X0038109Y0074532D01*
X0038072Y0074667D01*
X0038030Y0074800D01*
X0037985Y0074931D01*
X0037936Y0075062D01*
X0037884Y0075191D01*
X0037828Y0075318D01*
X0037768Y0075444D01*
X0037705Y0075568D01*
X0037638Y0075690D01*
X0037568Y0075810D01*
X0037494Y0075929D01*
X0037417Y0076045D01*
X0037337Y0076159D01*
X0037254Y0076270D01*
X0037167Y0076379D01*
X0037078Y0076486D01*
X0036985Y0076590D01*
X0036890Y0076692D01*
X0036791Y0076790D01*
X0036690Y0076886D01*
X0036587Y0076979D01*
X0036480Y0077069D01*
X0036372Y0077156D01*
X0036260Y0077240D01*
X0036147Y0077321D01*
X0036031Y0077398D01*
X0035913Y0077472D01*
X0035793Y0077543D01*
X0035671Y0077611D01*
X0035548Y0077674D01*
X0035422Y0077735D01*
X0035295Y0077792D01*
X0035166Y0077845D01*
X0035036Y0077894D01*
X0035036Y0077895D02*
X0032842Y0078693D01*
X0032841Y0078694D02*
X0033420Y0079885D01*
X0034027Y0081061D01*
X0034664Y0082222D01*
X0035328Y0083368D01*
X0036020Y0084496D01*
X0036740Y0085608D01*
X0037486Y0086701D01*
X0038260Y0087776D01*
X0039059Y0088832D01*
X0039884Y0089868D01*
X0040733Y0090883D01*
X0041608Y0091877D01*
X0042506Y0092850D01*
X0043428Y0093800D01*
X0044373Y0094727D01*
X0045340Y0095631D01*
X0046330Y0096512D01*
X0047340Y0097367D01*
X0048371Y0098198D01*
X0049422Y0099003D01*
X0050492Y0099782D01*
X0051582Y0100535D01*
X0052689Y0101261D01*
X0053814Y0101960D01*
X0054955Y0102631D01*
X0056112Y0103274D01*
X0057285Y0103888D01*
X0058473Y0104474D01*
X0059674Y0105030D01*
X0060889Y0105557D01*
X0062116Y0106054D01*
X0063355Y0106521D01*
X0064605Y0106957D01*
X0065866Y0107363D01*
X0067136Y0107737D01*
X0068414Y0108081D01*
X0069701Y0108393D01*
X0070995Y0108673D01*
X0072296Y0108922D01*
X0073602Y0109139D01*
X0074913Y0109324D01*
X0076228Y0109477D01*
X0077547Y0109597D01*
X0078868Y0109686D01*
X0080190Y0109742D01*
X0081514Y0109765D01*
X0082838Y0109756D01*
X0084162Y0109715D01*
X0085484Y0109642D01*
X0086804Y0109536D01*
X0088120Y0109398D01*
X0089433Y0109228D01*
X0090742Y0109025D01*
X0092045Y0108791D01*
X0093342Y0108525D01*
X0094632Y0108227D01*
X0095915Y0107898D01*
X0097189Y0107538D01*
X0098454Y0107146D01*
X0099708Y0106724D01*
X0100953Y0106271D01*
X0102185Y0105788D01*
X0103406Y0105275D01*
X0104614Y0104732D01*
X0105808Y0104160D01*
X0106987Y0103559D01*
X0108152Y0102929D01*
X0109301Y0102270D01*
X0110433Y0101584D01*
X0111548Y0100871D01*
X0112646Y0100130D01*
X0113725Y0099363D01*
X0114785Y0098569D01*
X0115825Y0097750D01*
X0116845Y0096906D01*
X0117844Y0096037D01*
X0118821Y0095144D01*
X0119777Y0094227D01*
X0120709Y0093287D01*
X0121618Y0092324D01*
X0122504Y0091340D01*
X0123365Y0090334D01*
X0124201Y0089308D01*
X0125012Y0088261D01*
X0125797Y0087195D01*
X0126556Y0086110D01*
X0127288Y0085007D01*
X0127993Y0083886D01*
X0128670Y0082748D01*
X0129319Y0081594D01*
X0129940Y0080425D01*
X0130532Y0079240D01*
X0131095Y0078042D01*
X0131628Y0076830D01*
X0132132Y0075605D01*
X0132605Y0074369D01*
X0133048Y0073121D01*
X0133460Y0071863D01*
X0133842Y0070595D01*
X0134192Y0069318D01*
X0134511Y0068033D01*
X0134799Y0066741D01*
X0135055Y0065442D01*
X0135279Y0064137D01*
X0135471Y0062827D01*
X0135631Y0061512D01*
X0135758Y0060194D01*
X0135854Y0058874D01*
X0135917Y0057551D01*
X0135948Y0056228D01*
X0135946Y0054904D01*
X0135912Y0053580D01*
X0135846Y0052258D01*
X0135747Y0050937D01*
X0135616Y0049620D01*
X0135453Y0048306D01*
X0135258Y0046996D01*
X0135031Y0045692D01*
X0134772Y0044393D01*
X0134481Y0043102D01*
X0134159Y0041817D01*
X0131965Y0042616D01*
X0131965Y0042615D02*
X0131834Y0042661D01*
X0131701Y0042703D01*
X0131567Y0042741D01*
X0131432Y0042776D01*
X0131296Y0042806D01*
X0131159Y0042833D01*
X0131022Y0042856D01*
X0130884Y0042875D01*
X0130746Y0042890D01*
X0130607Y0042901D01*
X0130468Y0042908D01*
X0130328Y0042912D01*
X0130189Y0042911D01*
X0130050Y0042907D01*
X0129911Y0042898D01*
X0129772Y0042886D01*
X0129634Y0042869D01*
X0129496Y0042849D01*
X0129359Y0042825D01*
X0129223Y0042797D01*
X0129087Y0042765D01*
X0128952Y0042729D01*
X0128819Y0042689D01*
X0128686Y0042646D01*
X0128555Y0042599D01*
X0128426Y0042548D01*
X0128297Y0042494D01*
X0128171Y0042436D01*
X0128046Y0042375D01*
X0127923Y0042310D01*
X0127801Y0042241D01*
X0127682Y0042169D01*
X0127565Y0042094D01*
X0127450Y0042015D01*
X0127337Y0041934D01*
X0127227Y0041849D01*
X0127119Y0041761D01*
X0127013Y0041670D01*
X0126911Y0041576D01*
X0126811Y0041479D01*
X0126713Y0041379D01*
X0126619Y0041277D01*
X0126527Y0041172D01*
X0126439Y0041064D01*
X0126353Y0040954D01*
X0126271Y0040842D01*
X0126192Y0040727D01*
X0126116Y0040611D01*
X0126044Y0040492D01*
X0125975Y0040371D01*
X0125909Y0040248D01*
X0125847Y0040123D01*
X0125788Y0039997D01*
X0125733Y0039869D01*
X0125682Y0039739D01*
X0125634Y0039608D01*
X0125591Y0039476D01*
X0125550Y0039343D01*
X0125514Y0039209D01*
X0125481Y0039073D01*
X0125453Y0038937D01*
X0125428Y0038800D01*
X0125407Y0038662D01*
X0125390Y0038524D01*
X0125377Y0038385D01*
X0125368Y0038246D01*
X0125362Y0038107D01*
X0125361Y0037968D01*
X0125364Y0037829D01*
X0125370Y0037689D01*
X0125381Y0037551D01*
X0125395Y0037412D01*
X0125414Y0037274D01*
X0125436Y0037136D01*
X0125462Y0037000D01*
X0125492Y0036864D01*
X0125526Y0036729D01*
X0125563Y0036594D01*
X0125605Y0036461D01*
X0125650Y0036330D01*
X0125699Y0036199D01*
X0125751Y0036070D01*
X0125807Y0035943D01*
X0125867Y0035817D01*
X0125930Y0035693D01*
X0125997Y0035571D01*
X0126067Y0035451D01*
X0126141Y0035332D01*
X0126218Y0035216D01*
X0126298Y0035102D01*
X0126381Y0034991D01*
X0126468Y0034882D01*
X0126557Y0034775D01*
X0126650Y0034671D01*
X0126745Y0034569D01*
X0126844Y0034471D01*
X0126945Y0034375D01*
X0127048Y0034282D01*
X0127155Y0034192D01*
X0127263Y0034105D01*
X0127375Y0034021D01*
X0127488Y0033940D01*
X0127604Y0033863D01*
X0127722Y0033789D01*
X0127842Y0033718D01*
X0127964Y0033650D01*
X0128087Y0033587D01*
X0128213Y0033526D01*
X0128340Y0033469D01*
X0128469Y0033416D01*
X0128599Y0033367D01*
X0128598Y0033367D02*
X0130793Y0032568D01*
X0079849Y0001533D02*
X0078539Y0001596D01*
X0077231Y0001692D01*
X0075926Y0001818D01*
X0074624Y0001977D01*
X0073327Y0002167D01*
X0072035Y0002388D01*
X0070748Y0002641D01*
X0069468Y0002924D01*
X0068195Y0003239D01*
X0066930Y0003584D01*
X0065674Y0003960D01*
X0064427Y0004366D01*
X0063190Y0004802D01*
X0061965Y0005268D01*
X0060751Y0005764D01*
X0059549Y0006289D01*
X0058361Y0006843D01*
X0057186Y0007425D01*
X0056026Y0008036D01*
X0054881Y0008674D01*
X0053751Y0009341D01*
X0052638Y0010034D01*
X0051542Y0010754D01*
X0050464Y0011500D01*
X0049405Y0012273D01*
X0048364Y0013071D01*
X0047343Y0013893D01*
X0046342Y0014740D01*
X0045362Y0015612D01*
X0044404Y0016506D01*
X0043467Y0017424D01*
X0042553Y0018364D01*
X0041662Y0019326D01*
X0040794Y0020309D01*
X0039951Y0021313D01*
X0039132Y0022337D01*
X0038338Y0023381D01*
X0037570Y0024443D01*
X0036827Y0025524D01*
X0036111Y0026622D01*
X0035422Y0027738D01*
X0034760Y0028870D01*
X0034126Y0030017D01*
X0033520Y0031180D01*
X0032942Y0032357D01*
X0032392Y0033547D01*
X0031872Y0034751D01*
X0031381Y0035967D01*
X0030919Y0037194D01*
X0030488Y0038432D01*
X0030086Y0039681D01*
X0029715Y0040938D01*
X0029375Y0042204D01*
X0029065Y0043478D01*
X0028786Y0044760D01*
X0028538Y0046047D01*
X0028322Y0047340D01*
X0028137Y0048639D01*
X0027983Y0049941D01*
X0027861Y0051246D01*
X0027770Y0052554D01*
X0027712Y0053864D01*
X0027685Y0055175D01*
X0027690Y0056486D01*
X0027726Y0057797D01*
X0027795Y0059107D01*
X0027895Y0060414D01*
X0028026Y0061719D01*
X0028190Y0063020D01*
X0028384Y0064316D01*
X0028610Y0065608D01*
X0028868Y0066894D01*
X0029156Y0068173D01*
X0029475Y0069445D01*
X0079848Y0001533D02*
X0079852Y0001620D01*
X0079859Y0001707D01*
X0079870Y0001794D01*
X0079886Y0001880D01*
X0079904Y0001965D01*
X0079927Y0002049D01*
X0079953Y0002133D01*
X0079983Y0002215D01*
X0080017Y0002295D01*
X0080054Y0002374D01*
X0080095Y0002452D01*
X0080139Y0002527D01*
X0080186Y0002600D01*
X0080237Y0002672D01*
X0080290Y0002741D01*
X0080347Y0002807D01*
X0080407Y0002871D01*
X0080469Y0002932D01*
X0080534Y0002990D01*
X0080601Y0003046D01*
X0080671Y0003098D01*
X0080743Y0003148D01*
X0080818Y0003194D01*
X0080894Y0003236D01*
X0080972Y0003275D01*
X0081052Y0003311D01*
X0081133Y0003343D01*
X0081215Y0003372D01*
X0081299Y0003397D01*
X0081384Y0003418D01*
X0081469Y0003435D01*
X0081556Y0003449D01*
X0081643Y0003458D01*
X0081730Y0003464D01*
X0081817Y0003466D01*
X0081904Y0003464D01*
X0081991Y0003458D01*
X0082078Y0003449D01*
X0082165Y0003435D01*
X0082250Y0003418D01*
X0082335Y0003397D01*
X0082419Y0003372D01*
X0082501Y0003343D01*
X0082582Y0003311D01*
X0082662Y0003275D01*
X0082740Y0003236D01*
X0082816Y0003194D01*
X0082891Y0003148D01*
X0082963Y0003098D01*
X0083033Y0003046D01*
X0083100Y0002990D01*
X0083165Y0002932D01*
X0083227Y0002871D01*
X0083287Y0002807D01*
X0083344Y0002741D01*
X0083397Y0002672D01*
X0083448Y0002600D01*
X0083495Y0002527D01*
X0083539Y0002452D01*
X0083580Y0002374D01*
X0083617Y0002295D01*
X0083651Y0002215D01*
X0083681Y0002133D01*
X0083707Y0002049D01*
X0083730Y0001965D01*
X0083748Y0001880D01*
X0083764Y0001794D01*
X0083775Y0001707D01*
X0083782Y0001620D01*
X0083786Y0001533D01*
D11*
X0083785Y0001533D02*
X0085100Y0001597D01*
X0086413Y0001692D01*
X0087723Y0001820D01*
X0089030Y0001980D01*
X0090333Y0002171D01*
X0091630Y0002394D01*
X0092922Y0002648D01*
X0094207Y0002934D01*
X0095484Y0003251D01*
X0096754Y0003599D01*
X0098015Y0003977D01*
X0099266Y0004386D01*
X0100507Y0004826D01*
X0101737Y0005295D01*
X0102955Y0005794D01*
X0104160Y0006323D01*
X0105353Y0006881D01*
X0106531Y0007468D01*
X0107695Y0008083D01*
X0108843Y0008726D01*
X0109976Y0009397D01*
X0111092Y0010096D01*
X0112190Y0010821D01*
X0113271Y0011573D01*
X0114333Y0012351D01*
X0115376Y0013154D01*
X0116399Y0013983D01*
X0117401Y0014836D01*
X0118383Y0015713D01*
X0119343Y0016614D01*
X0120280Y0017538D01*
X0121195Y0018485D01*
X0122087Y0019453D01*
X0122955Y0020443D01*
X0123798Y0021454D01*
X0124617Y0022485D01*
X0125410Y0023535D01*
X0126178Y0024605D01*
X0126919Y0025692D01*
X0127633Y0026798D01*
X0128321Y0027921D01*
X0128981Y0029060D01*
X0129613Y0030214D01*
X0130217Y0031384D01*
X0130792Y0032568D01*
X0100451Y0069782D02*
X0100453Y0069851D01*
X0100459Y0069919D01*
X0100469Y0069987D01*
X0100483Y0070054D01*
X0100501Y0070121D01*
X0100522Y0070186D01*
X0100548Y0070250D01*
X0100577Y0070312D01*
X0100609Y0070372D01*
X0100645Y0070431D01*
X0100685Y0070487D01*
X0100727Y0070541D01*
X0100773Y0070592D01*
X0100822Y0070641D01*
X0100873Y0070687D01*
X0100927Y0070729D01*
X0100983Y0070769D01*
X0101041Y0070805D01*
X0101102Y0070837D01*
X0101164Y0070866D01*
X0101228Y0070892D01*
X0101293Y0070913D01*
X0101360Y0070931D01*
X0101427Y0070945D01*
X0101495Y0070955D01*
X0101563Y0070961D01*
X0101632Y0070963D01*
X0101701Y0070961D01*
X0101769Y0070955D01*
X0101837Y0070945D01*
X0101904Y0070931D01*
X0101971Y0070913D01*
X0102036Y0070892D01*
X0102100Y0070866D01*
X0102162Y0070837D01*
X0102222Y0070805D01*
X0102281Y0070769D01*
X0102337Y0070729D01*
X0102391Y0070687D01*
X0102442Y0070641D01*
X0102491Y0070592D01*
X0102537Y0070541D01*
X0102579Y0070487D01*
X0102619Y0070431D01*
X0102655Y0070372D01*
X0102687Y0070312D01*
X0102716Y0070250D01*
X0102742Y0070186D01*
X0102763Y0070121D01*
X0102781Y0070054D01*
X0102795Y0069987D01*
X0102805Y0069919D01*
X0102811Y0069851D01*
X0102813Y0069782D01*
X0102811Y0069713D01*
X0102805Y0069645D01*
X0102795Y0069577D01*
X0102781Y0069510D01*
X0102763Y0069443D01*
X0102742Y0069378D01*
X0102716Y0069314D01*
X0102687Y0069252D01*
X0102655Y0069191D01*
X0102619Y0069133D01*
X0102579Y0069077D01*
X0102537Y0069023D01*
X0102491Y0068972D01*
X0102442Y0068923D01*
X0102391Y0068877D01*
X0102337Y0068835D01*
X0102281Y0068795D01*
X0102223Y0068759D01*
X0102162Y0068727D01*
X0102100Y0068698D01*
X0102036Y0068672D01*
X0101971Y0068651D01*
X0101904Y0068633D01*
X0101837Y0068619D01*
X0101769Y0068609D01*
X0101701Y0068603D01*
X0101632Y0068601D01*
X0101563Y0068603D01*
X0101495Y0068609D01*
X0101427Y0068619D01*
X0101360Y0068633D01*
X0101293Y0068651D01*
X0101228Y0068672D01*
X0101164Y0068698D01*
X0101102Y0068727D01*
X0101041Y0068759D01*
X0100983Y0068795D01*
X0100927Y0068835D01*
X0100873Y0068877D01*
X0100822Y0068923D01*
X0100773Y0068972D01*
X0100727Y0069023D01*
X0100685Y0069077D01*
X0100645Y0069133D01*
X0100609Y0069191D01*
X0100577Y0069252D01*
X0100548Y0069314D01*
X0100522Y0069378D01*
X0100501Y0069443D01*
X0100483Y0069510D01*
X0100469Y0069577D01*
X0100459Y0069645D01*
X0100453Y0069713D01*
X0100451Y0069782D01*
X0074554Y0079208D02*
X0074556Y0079277D01*
X0074562Y0079345D01*
X0074572Y0079413D01*
X0074586Y0079480D01*
X0074604Y0079547D01*
X0074625Y0079612D01*
X0074651Y0079676D01*
X0074680Y0079738D01*
X0074712Y0079798D01*
X0074748Y0079857D01*
X0074788Y0079913D01*
X0074830Y0079967D01*
X0074876Y0080018D01*
X0074925Y0080067D01*
X0074976Y0080113D01*
X0075030Y0080155D01*
X0075086Y0080195D01*
X0075144Y0080231D01*
X0075205Y0080263D01*
X0075267Y0080292D01*
X0075331Y0080318D01*
X0075396Y0080339D01*
X0075463Y0080357D01*
X0075530Y0080371D01*
X0075598Y0080381D01*
X0075666Y0080387D01*
X0075735Y0080389D01*
X0075804Y0080387D01*
X0075872Y0080381D01*
X0075940Y0080371D01*
X0076007Y0080357D01*
X0076074Y0080339D01*
X0076139Y0080318D01*
X0076203Y0080292D01*
X0076265Y0080263D01*
X0076325Y0080231D01*
X0076384Y0080195D01*
X0076440Y0080155D01*
X0076494Y0080113D01*
X0076545Y0080067D01*
X0076594Y0080018D01*
X0076640Y0079967D01*
X0076682Y0079913D01*
X0076722Y0079857D01*
X0076758Y0079798D01*
X0076790Y0079738D01*
X0076819Y0079676D01*
X0076845Y0079612D01*
X0076866Y0079547D01*
X0076884Y0079480D01*
X0076898Y0079413D01*
X0076908Y0079345D01*
X0076914Y0079277D01*
X0076916Y0079208D01*
X0076914Y0079139D01*
X0076908Y0079071D01*
X0076898Y0079003D01*
X0076884Y0078936D01*
X0076866Y0078869D01*
X0076845Y0078804D01*
X0076819Y0078740D01*
X0076790Y0078678D01*
X0076758Y0078617D01*
X0076722Y0078559D01*
X0076682Y0078503D01*
X0076640Y0078449D01*
X0076594Y0078398D01*
X0076545Y0078349D01*
X0076494Y0078303D01*
X0076440Y0078261D01*
X0076384Y0078221D01*
X0076326Y0078185D01*
X0076265Y0078153D01*
X0076203Y0078124D01*
X0076139Y0078098D01*
X0076074Y0078077D01*
X0076007Y0078059D01*
X0075940Y0078045D01*
X0075872Y0078035D01*
X0075804Y0078029D01*
X0075735Y0078027D01*
X0075666Y0078029D01*
X0075598Y0078035D01*
X0075530Y0078045D01*
X0075463Y0078059D01*
X0075396Y0078077D01*
X0075331Y0078098D01*
X0075267Y0078124D01*
X0075205Y0078153D01*
X0075144Y0078185D01*
X0075086Y0078221D01*
X0075030Y0078261D01*
X0074976Y0078303D01*
X0074925Y0078349D01*
X0074876Y0078398D01*
X0074830Y0078449D01*
X0074788Y0078503D01*
X0074748Y0078559D01*
X0074712Y0078617D01*
X0074680Y0078678D01*
X0074651Y0078740D01*
X0074625Y0078804D01*
X0074604Y0078869D01*
X0074586Y0078936D01*
X0074572Y0079003D01*
X0074562Y0079071D01*
X0074556Y0079139D01*
X0074554Y0079208D01*
D12*
X0046596Y0019238D02*
X0042792Y0019238D01*
X0042792Y0030837D01*
X0046596Y0030837D01*
X0046596Y0019238D01*
X0049064Y0018966D02*
X0049064Y0025366D01*
X0050639Y0030777D02*
X0050639Y0037177D01*
X0052683Y0039555D02*
X0055373Y0042245D01*
X0047171Y0050446D01*
X0044482Y0047757D01*
X0052683Y0039555D01*
X0058704Y0041409D02*
X0061394Y0044098D01*
X0053192Y0052299D01*
X0050503Y0049610D01*
X0058704Y0041409D01*
X0062632Y0040603D02*
X0062632Y0036800D01*
X0074231Y0036800D01*
X0074231Y0040603D01*
X0062632Y0040603D01*
X0060239Y0037177D02*
X0060239Y0030777D01*
X0060901Y0028541D02*
X0067301Y0028541D01*
X0064994Y0032469D02*
X0076593Y0032469D01*
X0076593Y0036272D01*
X0064994Y0036272D01*
X0064994Y0032469D01*
X0058664Y0025366D02*
X0058664Y0018966D01*
X0060901Y0018941D02*
X0067301Y0018941D01*
X0069679Y0022847D02*
X0073483Y0022847D01*
X0073483Y0011249D01*
X0069679Y0011249D01*
X0069679Y0022847D01*
X0074823Y0017928D02*
X0075723Y0017928D01*
X0074823Y0017928D02*
X0074823Y0031128D01*
X0075723Y0031128D01*
X0082699Y0037592D02*
X0092318Y0034091D01*
X0092317Y0034091D02*
X0092383Y0034069D01*
X0092450Y0034051D01*
X0092518Y0034036D01*
X0092586Y0034025D01*
X0092655Y0034018D01*
X0092724Y0034014D01*
X0092794Y0034015D01*
X0092863Y0034019D01*
X0092932Y0034026D01*
X0093000Y0034038D01*
X0093068Y0034053D01*
X0093134Y0034072D01*
X0093200Y0034094D01*
X0093264Y0034120D01*
X0093327Y0034149D01*
X0093388Y0034182D01*
X0093448Y0034218D01*
X0093505Y0034257D01*
X0093560Y0034299D01*
X0093613Y0034344D01*
X0093663Y0034392D01*
X0093710Y0034442D01*
X0093755Y0034495D01*
X0093797Y0034550D01*
X0093836Y0034608D01*
X0093871Y0034667D01*
X0093903Y0034729D01*
X0093932Y0034792D01*
X0093958Y0034856D01*
X0097512Y0044623D01*
X0097459Y0044474D02*
X0097481Y0044540D01*
X0097499Y0044607D01*
X0097514Y0044675D01*
X0097525Y0044743D01*
X0097532Y0044812D01*
X0097536Y0044881D01*
X0097535Y0044951D01*
X0097531Y0045020D01*
X0097524Y0045089D01*
X0097512Y0045157D01*
X0097497Y0045225D01*
X0097478Y0045291D01*
X0097456Y0045357D01*
X0097430Y0045421D01*
X0097401Y0045484D01*
X0097368Y0045545D01*
X0097332Y0045605D01*
X0097293Y0045662D01*
X0097251Y0045717D01*
X0097206Y0045770D01*
X0097158Y0045820D01*
X0097108Y0045867D01*
X0097055Y0045912D01*
X0097000Y0045954D01*
X0096942Y0045993D01*
X0096883Y0046028D01*
X0096821Y0046060D01*
X0096758Y0046089D01*
X0096694Y0046115D01*
X0087075Y0049616D01*
X0087009Y0049638D01*
X0086942Y0049656D01*
X0086874Y0049671D01*
X0086806Y0049682D01*
X0086737Y0049689D01*
X0086668Y0049693D01*
X0086598Y0049692D01*
X0086529Y0049688D01*
X0086460Y0049681D01*
X0086392Y0049669D01*
X0086324Y0049654D01*
X0086258Y0049635D01*
X0086192Y0049613D01*
X0086128Y0049587D01*
X0086065Y0049558D01*
X0086004Y0049525D01*
X0085944Y0049489D01*
X0085887Y0049450D01*
X0085832Y0049408D01*
X0085779Y0049363D01*
X0085729Y0049315D01*
X0085682Y0049265D01*
X0085637Y0049212D01*
X0085595Y0049157D01*
X0085556Y0049099D01*
X0085521Y0049040D01*
X0085489Y0048978D01*
X0085460Y0048915D01*
X0085434Y0048851D01*
X0085435Y0048851D02*
X0081934Y0039232D01*
X0081933Y0039233D02*
X0081911Y0039167D01*
X0081893Y0039100D01*
X0081878Y0039032D01*
X0081867Y0038964D01*
X0081860Y0038895D01*
X0081856Y0038826D01*
X0081857Y0038756D01*
X0081861Y0038687D01*
X0081868Y0038618D01*
X0081880Y0038550D01*
X0081895Y0038482D01*
X0081914Y0038416D01*
X0081936Y0038350D01*
X0081962Y0038286D01*
X0081991Y0038223D01*
X0082024Y0038162D01*
X0082060Y0038102D01*
X0082099Y0038045D01*
X0082141Y0037990D01*
X0082186Y0037937D01*
X0082234Y0037887D01*
X0082284Y0037840D01*
X0082337Y0037795D01*
X0082392Y0037753D01*
X0082450Y0037714D01*
X0082509Y0037679D01*
X0082571Y0037647D01*
X0082634Y0037618D01*
X0082698Y0037592D01*
X0078349Y0044774D02*
X0079649Y0048348D01*
X0068750Y0052314D01*
X0067450Y0048741D01*
X0078349Y0044774D01*
X0074681Y0045411D02*
X0073380Y0041837D01*
X0062481Y0045804D01*
X0063782Y0049377D01*
X0074681Y0045411D01*
X0078349Y0049498D02*
X0079649Y0053072D01*
X0068750Y0057039D01*
X0067450Y0053465D01*
X0078349Y0049498D01*
X0088393Y0050544D02*
X0070727Y0056974D01*
X0066396Y0061824D02*
X0062593Y0061824D01*
X0062593Y0050225D01*
X0066396Y0050225D01*
X0066396Y0061824D01*
X0066660Y0064885D02*
X0063086Y0066186D01*
X0067053Y0077085D01*
X0070627Y0075784D01*
X0066660Y0064885D01*
X0062065Y0065761D02*
X0058262Y0065761D01*
X0058262Y0054162D01*
X0062065Y0054162D01*
X0062065Y0065761D01*
X0055727Y0063438D02*
X0055727Y0059635D01*
X0044128Y0059635D01*
X0044128Y0063438D01*
X0055727Y0063438D01*
X0055727Y0058713D02*
X0055727Y0054910D01*
X0044128Y0054910D01*
X0044128Y0058713D01*
X0055727Y0058713D01*
X0048821Y0065640D02*
X0050122Y0069214D01*
X0039223Y0073181D01*
X0037922Y0069607D01*
X0048821Y0065640D01*
X0043522Y0066391D02*
X0043522Y0062587D01*
X0031923Y0062587D01*
X0031923Y0066391D01*
X0043522Y0066391D01*
X0043323Y0057443D02*
X0041123Y0057443D01*
X0043323Y0057443D02*
X0043323Y0054243D01*
X0034323Y0057443D02*
X0032123Y0057443D01*
X0032123Y0054243D01*
X0075241Y0069378D02*
X0092908Y0062948D01*
X0096190Y0062914D02*
X0107089Y0058947D01*
X0108389Y0062521D01*
X0097491Y0066488D01*
X0096190Y0062914D01*
X0099207Y0055918D02*
X0099207Y0044320D01*
X0103010Y0044320D01*
X0103010Y0055918D01*
X0099207Y0055918D01*
X0103538Y0058280D02*
X0107341Y0058280D01*
X0107341Y0046682D01*
X0103538Y0046682D01*
X0103538Y0058280D01*
X0108656Y0056918D02*
X0112459Y0056918D01*
X0112459Y0068517D01*
X0108656Y0068517D01*
X0108656Y0056918D01*
X0110113Y0056100D02*
X0116513Y0056100D01*
X0120467Y0061430D02*
X0120467Y0049831D01*
X0124270Y0049831D01*
X0124270Y0061430D01*
X0120467Y0061430D01*
X0125191Y0061430D02*
X0125191Y0049831D01*
X0128994Y0049831D01*
X0128994Y0061430D01*
X0125191Y0061430D01*
X0129916Y0061430D02*
X0129916Y0049831D01*
X0133719Y0049831D01*
X0133719Y0061430D01*
X0129916Y0061430D01*
X0131030Y0064292D02*
X0131030Y0071772D01*
X0126699Y0080040D01*
X0116513Y0046500D02*
X0110113Y0046500D01*
X0107908Y0045328D02*
X0107908Y0041524D01*
X0119506Y0041524D01*
X0119506Y0045328D01*
X0107908Y0045328D01*
X0107341Y0045288D02*
X0103538Y0045288D01*
X0103538Y0033690D01*
X0107341Y0033690D01*
X0107341Y0045288D01*
X0108262Y0040170D02*
X0112065Y0040170D01*
X0112065Y0028572D01*
X0108262Y0028572D01*
X0108262Y0040170D01*
X0112986Y0040564D02*
X0112986Y0028965D01*
X0116790Y0028965D01*
X0116790Y0040564D01*
X0112986Y0040564D01*
X0106514Y0032729D02*
X0094916Y0032729D01*
X0094916Y0028926D01*
X0106514Y0028926D01*
X0106514Y0032729D01*
X0107081Y0027965D02*
X0110884Y0027965D01*
X0110884Y0016367D01*
X0107081Y0016367D01*
X0107081Y0027965D01*
X0098679Y0021272D02*
X0094876Y0021272D01*
X0094876Y0009674D01*
X0098679Y0009674D01*
X0098679Y0021272D01*
X0093955Y0021272D02*
X0090152Y0021272D01*
X0090152Y0009674D01*
X0093955Y0009674D01*
X0093955Y0021272D01*
X0088023Y0017928D02*
X0087123Y0017928D01*
X0088023Y0017928D02*
X0088023Y0031128D01*
X0087123Y0031128D01*
D13*
X0088369Y0031568D02*
X0089883Y0031017D01*
X0089126Y0031292D02*
X0090118Y0034017D01*
X0090654Y0033136D01*
X0092157Y0033275D02*
X0091441Y0031307D01*
X0091424Y0031254D01*
X0091410Y0031201D01*
X0091400Y0031147D01*
X0091394Y0031092D01*
X0091392Y0031037D01*
X0091393Y0030982D01*
X0091399Y0030927D01*
X0091408Y0030873D01*
X0091420Y0030819D01*
X0091437Y0030767D01*
X0091456Y0030716D01*
X0091480Y0030666D01*
X0091506Y0030617D01*
X0091536Y0030571D01*
X0091569Y0030527D01*
X0091605Y0030485D01*
X0091643Y0030446D01*
X0091685Y0030410D01*
X0091728Y0030376D01*
X0091774Y0030346D01*
X0091822Y0030318D01*
X0091871Y0030294D01*
X0091922Y0030274D01*
X0091975Y0030257D01*
X0092028Y0030243D01*
X0092082Y0030233D01*
X0092137Y0030227D01*
X0092192Y0030225D01*
X0092247Y0030226D01*
X0092302Y0030232D01*
X0092356Y0030241D01*
X0092410Y0030253D01*
X0092462Y0030270D01*
X0092513Y0030289D01*
X0092563Y0030313D01*
X0092612Y0030339D01*
X0092658Y0030369D01*
X0092702Y0030402D01*
X0092744Y0030438D01*
X0092783Y0030476D01*
X0092819Y0030518D01*
X0092853Y0030561D01*
X0092883Y0030607D01*
X0092911Y0030655D01*
X0092935Y0030704D01*
X0092955Y0030755D01*
X0092955Y0030756D02*
X0093671Y0032724D01*
X0099889Y0034526D02*
X0099889Y0035171D01*
X0099890Y0034526D02*
X0099892Y0034478D01*
X0099897Y0034430D01*
X0099906Y0034383D01*
X0099919Y0034336D01*
X0099935Y0034291D01*
X0099954Y0034247D01*
X0099976Y0034204D01*
X0100002Y0034163D01*
X0100031Y0034124D01*
X0100062Y0034088D01*
X0100096Y0034054D01*
X0100132Y0034023D01*
X0100171Y0033994D01*
X0100212Y0033968D01*
X0100255Y0033946D01*
X0100299Y0033927D01*
X0100344Y0033911D01*
X0100391Y0033898D01*
X0100438Y0033889D01*
X0100486Y0033884D01*
X0100534Y0033882D01*
X0102145Y0033882D01*
X0102193Y0033884D01*
X0102241Y0033889D01*
X0102288Y0033898D01*
X0102335Y0033911D01*
X0102380Y0033927D01*
X0102424Y0033946D01*
X0102467Y0033968D01*
X0102508Y0033994D01*
X0102547Y0034023D01*
X0102583Y0034054D01*
X0102617Y0034088D01*
X0102648Y0034124D01*
X0102677Y0034163D01*
X0102703Y0034204D01*
X0102725Y0034247D01*
X0102744Y0034291D01*
X0102760Y0034336D01*
X0102773Y0034383D01*
X0102782Y0034430D01*
X0102787Y0034478D01*
X0102789Y0034526D01*
X0102789Y0035171D01*
X0101500Y0037660D02*
X0101537Y0037697D01*
X0101577Y0037731D01*
X0101619Y0037763D01*
X0101664Y0037791D01*
X0101710Y0037817D01*
X0101757Y0037839D01*
X0101806Y0037858D01*
X0101856Y0037874D01*
X0101907Y0037886D01*
X0101959Y0037895D01*
X0102011Y0037900D01*
X0102064Y0037902D01*
X0101500Y0037660D02*
X0099889Y0036291D01*
X0099889Y0037902D01*
X0102145Y0036291D02*
X0102200Y0036311D01*
X0102254Y0036334D01*
X0102306Y0036361D01*
X0102356Y0036391D01*
X0102405Y0036423D01*
X0102451Y0036459D01*
X0102495Y0036498D01*
X0102536Y0036539D01*
X0102575Y0036583D01*
X0102611Y0036629D01*
X0102644Y0036678D01*
X0102674Y0036728D01*
X0102700Y0036780D01*
X0102724Y0036834D01*
X0102743Y0036889D01*
X0102760Y0036945D01*
X0102772Y0037002D01*
X0102782Y0037060D01*
X0102787Y0037118D01*
X0102789Y0037177D01*
X0102787Y0037229D01*
X0102782Y0037280D01*
X0102772Y0037331D01*
X0102760Y0037381D01*
X0102743Y0037430D01*
X0102723Y0037478D01*
X0102700Y0037524D01*
X0102674Y0037569D01*
X0102644Y0037611D01*
X0102612Y0037652D01*
X0102577Y0037690D01*
X0102539Y0037725D01*
X0102498Y0037757D01*
X0102456Y0037787D01*
X0102411Y0037813D01*
X0102365Y0037836D01*
X0102317Y0037856D01*
X0102268Y0037873D01*
X0102218Y0037885D01*
X0102167Y0037895D01*
X0102116Y0037900D01*
X0102064Y0037902D01*
X0098591Y0027390D02*
X0097947Y0027390D01*
X0098591Y0027390D02*
X0098639Y0027388D01*
X0098687Y0027383D01*
X0098734Y0027374D01*
X0098781Y0027361D01*
X0098826Y0027345D01*
X0098870Y0027326D01*
X0098913Y0027304D01*
X0098954Y0027278D01*
X0098993Y0027249D01*
X0099029Y0027218D01*
X0099063Y0027184D01*
X0099094Y0027148D01*
X0099123Y0027109D01*
X0099149Y0027068D01*
X0099171Y0027025D01*
X0099190Y0026981D01*
X0099206Y0026936D01*
X0099219Y0026889D01*
X0099228Y0026842D01*
X0099233Y0026794D01*
X0099235Y0026746D01*
X0099235Y0025135D01*
X0099233Y0025087D01*
X0099228Y0025039D01*
X0099219Y0024992D01*
X0099206Y0024945D01*
X0099190Y0024900D01*
X0099171Y0024856D01*
X0099149Y0024813D01*
X0099123Y0024772D01*
X0099094Y0024733D01*
X0099063Y0024697D01*
X0099029Y0024663D01*
X0098993Y0024632D01*
X0098954Y0024603D01*
X0098913Y0024577D01*
X0098870Y0024555D01*
X0098826Y0024536D01*
X0098781Y0024520D01*
X0098734Y0024507D01*
X0098687Y0024498D01*
X0098639Y0024493D01*
X0098591Y0024491D01*
X0098591Y0024490D02*
X0097947Y0024490D01*
X0096826Y0025296D02*
X0096826Y0026101D01*
X0095860Y0026101D01*
X0096826Y0026101D02*
X0096824Y0026171D01*
X0096818Y0026240D01*
X0096809Y0026310D01*
X0096796Y0026378D01*
X0096779Y0026446D01*
X0096759Y0026513D01*
X0096734Y0026578D01*
X0096707Y0026642D01*
X0096676Y0026705D01*
X0096641Y0026766D01*
X0096604Y0026824D01*
X0096563Y0026881D01*
X0096519Y0026935D01*
X0096473Y0026987D01*
X0096423Y0027037D01*
X0096371Y0027083D01*
X0096317Y0027127D01*
X0096260Y0027168D01*
X0096202Y0027205D01*
X0096141Y0027240D01*
X0096078Y0027271D01*
X0096014Y0027298D01*
X0095949Y0027323D01*
X0095882Y0027343D01*
X0095814Y0027360D01*
X0095746Y0027373D01*
X0095676Y0027382D01*
X0095607Y0027388D01*
X0095537Y0027390D01*
X0093278Y0027135D02*
X0093229Y0027133D01*
X0093180Y0027127D01*
X0093131Y0027118D01*
X0093084Y0027105D01*
X0093037Y0027088D01*
X0092992Y0027068D01*
X0092949Y0027045D01*
X0092907Y0027018D01*
X0092868Y0026988D01*
X0092831Y0026955D01*
X0092797Y0026919D01*
X0092766Y0026881D01*
X0092737Y0026841D01*
X0092712Y0026799D01*
X0092690Y0026754D01*
X0092672Y0026709D01*
X0092657Y0026662D01*
X0092646Y0026614D01*
X0092638Y0026565D01*
X0092634Y0026516D01*
X0092634Y0026466D01*
X0092638Y0026417D01*
X0092646Y0026368D01*
X0092657Y0026320D01*
X0092672Y0026273D01*
X0092690Y0026228D01*
X0092712Y0026183D01*
X0092737Y0026141D01*
X0092766Y0026101D01*
X0092797Y0026063D01*
X0092831Y0026027D01*
X0092868Y0025994D01*
X0092907Y0025964D01*
X0092949Y0025937D01*
X0092992Y0025914D01*
X0093037Y0025894D01*
X0093084Y0025877D01*
X0093131Y0025864D01*
X0093180Y0025855D01*
X0093229Y0025849D01*
X0093278Y0025847D01*
X0093327Y0025849D01*
X0093376Y0025855D01*
X0093425Y0025864D01*
X0093472Y0025877D01*
X0093519Y0025894D01*
X0093564Y0025914D01*
X0093607Y0025937D01*
X0093649Y0025964D01*
X0093688Y0025994D01*
X0093725Y0026027D01*
X0093759Y0026063D01*
X0093790Y0026101D01*
X0093819Y0026141D01*
X0093844Y0026183D01*
X0093866Y0026228D01*
X0093884Y0026273D01*
X0093899Y0026320D01*
X0093910Y0026368D01*
X0093918Y0026417D01*
X0093922Y0026466D01*
X0093922Y0026516D01*
X0093918Y0026565D01*
X0093910Y0026614D01*
X0093899Y0026662D01*
X0093884Y0026709D01*
X0093866Y0026754D01*
X0093844Y0026799D01*
X0093819Y0026841D01*
X0093790Y0026881D01*
X0093759Y0026919D01*
X0093725Y0026955D01*
X0093688Y0026988D01*
X0093649Y0027018D01*
X0093607Y0027045D01*
X0093564Y0027068D01*
X0093519Y0027088D01*
X0093472Y0027105D01*
X0093425Y0027118D01*
X0093376Y0027127D01*
X0093327Y0027133D01*
X0093278Y0027135D01*
X0091828Y0027297D02*
X0091773Y0027295D01*
X0091718Y0027289D01*
X0091664Y0027280D01*
X0091611Y0027267D01*
X0091558Y0027250D01*
X0091507Y0027230D01*
X0091457Y0027207D01*
X0091409Y0027180D01*
X0091363Y0027149D01*
X0091319Y0027116D01*
X0091278Y0027080D01*
X0091239Y0027041D01*
X0091203Y0027000D01*
X0091170Y0026956D01*
X0091139Y0026910D01*
X0091112Y0026862D01*
X0091089Y0026812D01*
X0091069Y0026761D01*
X0091052Y0026708D01*
X0091039Y0026655D01*
X0091030Y0026601D01*
X0091024Y0026546D01*
X0091022Y0026491D01*
X0091024Y0026436D01*
X0091030Y0026381D01*
X0091039Y0026327D01*
X0091052Y0026274D01*
X0091069Y0026221D01*
X0091089Y0026170D01*
X0091112Y0026120D01*
X0091139Y0026072D01*
X0091170Y0026026D01*
X0091203Y0025982D01*
X0091239Y0025941D01*
X0091278Y0025902D01*
X0091319Y0025866D01*
X0091363Y0025833D01*
X0091409Y0025802D01*
X0091457Y0025775D01*
X0091507Y0025752D01*
X0091558Y0025732D01*
X0091611Y0025715D01*
X0091664Y0025702D01*
X0091718Y0025693D01*
X0091773Y0025687D01*
X0091828Y0025685D01*
X0091883Y0025687D01*
X0091938Y0025693D01*
X0091992Y0025702D01*
X0092045Y0025715D01*
X0092098Y0025732D01*
X0092149Y0025752D01*
X0092199Y0025775D01*
X0092247Y0025802D01*
X0092293Y0025833D01*
X0092337Y0025866D01*
X0092378Y0025902D01*
X0092417Y0025941D01*
X0092453Y0025982D01*
X0092486Y0026026D01*
X0092517Y0026072D01*
X0092544Y0026120D01*
X0092567Y0026170D01*
X0092587Y0026221D01*
X0092604Y0026274D01*
X0092617Y0026327D01*
X0092626Y0026381D01*
X0092632Y0026436D01*
X0092634Y0026491D01*
X0092632Y0026546D01*
X0092626Y0026601D01*
X0092617Y0026655D01*
X0092604Y0026708D01*
X0092587Y0026761D01*
X0092567Y0026812D01*
X0092544Y0026862D01*
X0092517Y0026910D01*
X0092486Y0026956D01*
X0092453Y0027000D01*
X0092417Y0027041D01*
X0092378Y0027080D01*
X0092337Y0027116D01*
X0092293Y0027149D01*
X0092247Y0027180D01*
X0092199Y0027207D01*
X0092149Y0027230D01*
X0092098Y0027250D01*
X0092045Y0027267D01*
X0091992Y0027280D01*
X0091938Y0027289D01*
X0091883Y0027295D01*
X0091828Y0027297D01*
X0091828Y0024321D02*
X0093922Y0024321D01*
X0095215Y0025296D02*
X0095215Y0025457D01*
X0095216Y0025457D02*
X0095218Y0025508D01*
X0095224Y0025558D01*
X0095234Y0025607D01*
X0095248Y0025656D01*
X0095265Y0025703D01*
X0095286Y0025749D01*
X0095311Y0025793D01*
X0095339Y0025836D01*
X0095370Y0025875D01*
X0095405Y0025912D01*
X0095442Y0025947D01*
X0095481Y0025978D01*
X0095524Y0026006D01*
X0095568Y0026031D01*
X0095614Y0026052D01*
X0095661Y0026069D01*
X0095710Y0026083D01*
X0095759Y0026093D01*
X0095809Y0026099D01*
X0095860Y0026101D01*
X0095215Y0025296D02*
X0095217Y0025241D01*
X0095223Y0025186D01*
X0095232Y0025132D01*
X0095245Y0025079D01*
X0095262Y0025026D01*
X0095282Y0024975D01*
X0095305Y0024925D01*
X0095332Y0024877D01*
X0095363Y0024831D01*
X0095396Y0024787D01*
X0095432Y0024746D01*
X0095471Y0024707D01*
X0095512Y0024671D01*
X0095556Y0024638D01*
X0095602Y0024607D01*
X0095650Y0024580D01*
X0095700Y0024557D01*
X0095751Y0024537D01*
X0095804Y0024520D01*
X0095857Y0024507D01*
X0095911Y0024498D01*
X0095966Y0024492D01*
X0096021Y0024490D01*
X0096076Y0024492D01*
X0096131Y0024498D01*
X0096185Y0024507D01*
X0096238Y0024520D01*
X0096291Y0024537D01*
X0096342Y0024557D01*
X0096392Y0024580D01*
X0096440Y0024607D01*
X0096486Y0024638D01*
X0096530Y0024671D01*
X0096571Y0024707D01*
X0096610Y0024746D01*
X0096646Y0024787D01*
X0096679Y0024831D01*
X0096710Y0024877D01*
X0096737Y0024925D01*
X0096760Y0024975D01*
X0096780Y0025026D01*
X0096797Y0025079D01*
X0096810Y0025132D01*
X0096819Y0025186D01*
X0096825Y0025241D01*
X0096827Y0025296D01*
X0093922Y0022710D02*
X0091828Y0022710D01*
X0091828Y0022709D02*
X0091773Y0022711D01*
X0091718Y0022717D01*
X0091664Y0022726D01*
X0091611Y0022739D01*
X0091558Y0022756D01*
X0091507Y0022776D01*
X0091457Y0022799D01*
X0091409Y0022826D01*
X0091363Y0022857D01*
X0091319Y0022890D01*
X0091278Y0022926D01*
X0091239Y0022965D01*
X0091203Y0023006D01*
X0091170Y0023050D01*
X0091139Y0023096D01*
X0091112Y0023144D01*
X0091089Y0023194D01*
X0091069Y0023245D01*
X0091052Y0023298D01*
X0091039Y0023351D01*
X0091030Y0023405D01*
X0091024Y0023460D01*
X0091022Y0023515D01*
X0091024Y0023570D01*
X0091030Y0023625D01*
X0091039Y0023679D01*
X0091052Y0023732D01*
X0091069Y0023785D01*
X0091089Y0023836D01*
X0091112Y0023886D01*
X0091139Y0023934D01*
X0091170Y0023980D01*
X0091203Y0024024D01*
X0091239Y0024065D01*
X0091278Y0024104D01*
X0091319Y0024140D01*
X0091363Y0024173D01*
X0091409Y0024204D01*
X0091457Y0024231D01*
X0091507Y0024254D01*
X0091558Y0024274D01*
X0091611Y0024291D01*
X0091664Y0024304D01*
X0091718Y0024313D01*
X0091773Y0024319D01*
X0091828Y0024321D01*
X0101178Y0018217D02*
X0101178Y0017250D01*
X0101178Y0018217D02*
X0101108Y0018215D01*
X0101039Y0018209D01*
X0100969Y0018200D01*
X0100901Y0018187D01*
X0100833Y0018170D01*
X0100766Y0018150D01*
X0100701Y0018125D01*
X0100637Y0018098D01*
X0100574Y0018067D01*
X0100513Y0018032D01*
X0100455Y0017995D01*
X0100398Y0017954D01*
X0100344Y0017910D01*
X0100292Y0017864D01*
X0100242Y0017814D01*
X0100196Y0017762D01*
X0100152Y0017708D01*
X0100111Y0017651D01*
X0100074Y0017593D01*
X0100039Y0017532D01*
X0100008Y0017469D01*
X0099981Y0017405D01*
X0099956Y0017340D01*
X0099936Y0017273D01*
X0099919Y0017205D01*
X0099906Y0017137D01*
X0099897Y0017067D01*
X0099891Y0016998D01*
X0099889Y0016928D01*
X0099889Y0015486D02*
X0099889Y0014841D01*
X0099890Y0014841D02*
X0099892Y0014793D01*
X0099897Y0014745D01*
X0099906Y0014698D01*
X0099919Y0014651D01*
X0099935Y0014606D01*
X0099954Y0014562D01*
X0099976Y0014519D01*
X0100002Y0014478D01*
X0100031Y0014439D01*
X0100062Y0014403D01*
X0100096Y0014369D01*
X0100132Y0014338D01*
X0100171Y0014309D01*
X0100212Y0014283D01*
X0100255Y0014261D01*
X0100299Y0014242D01*
X0100344Y0014226D01*
X0100391Y0014213D01*
X0100438Y0014204D01*
X0100486Y0014199D01*
X0100534Y0014197D01*
X0102145Y0014197D01*
X0102193Y0014199D01*
X0102241Y0014204D01*
X0102288Y0014213D01*
X0102335Y0014226D01*
X0102380Y0014242D01*
X0102424Y0014261D01*
X0102467Y0014283D01*
X0102508Y0014309D01*
X0102547Y0014338D01*
X0102583Y0014369D01*
X0102617Y0014403D01*
X0102648Y0014439D01*
X0102677Y0014478D01*
X0102703Y0014519D01*
X0102725Y0014562D01*
X0102744Y0014606D01*
X0102760Y0014651D01*
X0102773Y0014698D01*
X0102782Y0014745D01*
X0102787Y0014793D01*
X0102789Y0014841D01*
X0102789Y0015486D01*
X0103433Y0015337D02*
X0103433Y0013726D01*
X0103433Y0014531D02*
X0106333Y0014531D01*
X0105688Y0013726D01*
X0106333Y0012606D02*
X0106333Y0011961D01*
X0106332Y0011961D02*
X0106330Y0011913D01*
X0106325Y0011865D01*
X0106316Y0011818D01*
X0106303Y0011771D01*
X0106287Y0011726D01*
X0106268Y0011682D01*
X0106246Y0011639D01*
X0106220Y0011598D01*
X0106191Y0011559D01*
X0106160Y0011523D01*
X0106126Y0011489D01*
X0106090Y0011458D01*
X0106051Y0011429D01*
X0106010Y0011403D01*
X0105967Y0011381D01*
X0105923Y0011362D01*
X0105878Y0011346D01*
X0105831Y0011333D01*
X0105784Y0011324D01*
X0105736Y0011319D01*
X0105688Y0011317D01*
X0104077Y0011317D01*
X0104029Y0011319D01*
X0103981Y0011324D01*
X0103934Y0011333D01*
X0103887Y0011346D01*
X0103842Y0011362D01*
X0103798Y0011381D01*
X0103755Y0011403D01*
X0103714Y0011429D01*
X0103675Y0011458D01*
X0103639Y0011489D01*
X0103605Y0011523D01*
X0103574Y0011559D01*
X0103545Y0011598D01*
X0103519Y0011639D01*
X0103497Y0011682D01*
X0103478Y0011726D01*
X0103462Y0011771D01*
X0103449Y0011818D01*
X0103440Y0011865D01*
X0103435Y0011913D01*
X0103433Y0011961D01*
X0103433Y0012606D01*
X0103836Y0017975D02*
X0103918Y0018013D01*
X0104001Y0018048D01*
X0104086Y0018080D01*
X0104171Y0018109D01*
X0104258Y0018134D01*
X0104346Y0018156D01*
X0104434Y0018174D01*
X0104523Y0018190D01*
X0104613Y0018202D01*
X0104702Y0018210D01*
X0104793Y0018215D01*
X0104883Y0018217D01*
X0104883Y0016606D02*
X0104973Y0016608D01*
X0105064Y0016613D01*
X0105153Y0016621D01*
X0105243Y0016633D01*
X0105332Y0016649D01*
X0105420Y0016667D01*
X0105508Y0016689D01*
X0105595Y0016714D01*
X0105680Y0016743D01*
X0105765Y0016775D01*
X0105848Y0016810D01*
X0105930Y0016848D01*
X0106332Y0017411D02*
X0106330Y0017457D01*
X0106325Y0017503D01*
X0106316Y0017548D01*
X0106304Y0017593D01*
X0106288Y0017636D01*
X0106269Y0017678D01*
X0106246Y0017719D01*
X0106221Y0017757D01*
X0106193Y0017794D01*
X0106162Y0017828D01*
X0106128Y0017860D01*
X0106092Y0017889D01*
X0106054Y0017915D01*
X0106014Y0017938D01*
X0105972Y0017958D01*
X0105929Y0017975D01*
X0105688Y0018056D02*
X0104077Y0016767D01*
X0103433Y0017411D02*
X0103435Y0017457D01*
X0103440Y0017503D01*
X0103449Y0017548D01*
X0103461Y0017593D01*
X0103477Y0017636D01*
X0103496Y0017678D01*
X0103519Y0017719D01*
X0103544Y0017757D01*
X0103572Y0017794D01*
X0103603Y0017828D01*
X0103637Y0017860D01*
X0103673Y0017889D01*
X0103711Y0017915D01*
X0103751Y0017938D01*
X0103793Y0017958D01*
X0103836Y0017975D01*
X0103433Y0017411D02*
X0103435Y0017365D01*
X0103440Y0017319D01*
X0103449Y0017274D01*
X0103461Y0017229D01*
X0103477Y0017186D01*
X0103496Y0017144D01*
X0103519Y0017103D01*
X0103544Y0017065D01*
X0103572Y0017028D01*
X0103603Y0016994D01*
X0103637Y0016962D01*
X0103673Y0016933D01*
X0103711Y0016907D01*
X0103751Y0016884D01*
X0103793Y0016864D01*
X0103836Y0016847D01*
X0104883Y0018217D02*
X0104973Y0018215D01*
X0105064Y0018210D01*
X0105153Y0018202D01*
X0105243Y0018190D01*
X0105332Y0018174D01*
X0105420Y0018156D01*
X0105508Y0018134D01*
X0105595Y0018109D01*
X0105680Y0018080D01*
X0105765Y0018048D01*
X0105848Y0018013D01*
X0105930Y0017975D01*
X0106332Y0017411D02*
X0106330Y0017365D01*
X0106325Y0017319D01*
X0106316Y0017274D01*
X0106304Y0017229D01*
X0106288Y0017186D01*
X0106269Y0017144D01*
X0106246Y0017103D01*
X0106221Y0017065D01*
X0106193Y0017028D01*
X0106162Y0016994D01*
X0106128Y0016962D01*
X0106092Y0016933D01*
X0106054Y0016907D01*
X0106014Y0016884D01*
X0105972Y0016864D01*
X0105929Y0016847D01*
X0104883Y0016606D02*
X0104793Y0016608D01*
X0104702Y0016613D01*
X0104613Y0016621D01*
X0104523Y0016633D01*
X0104434Y0016649D01*
X0104346Y0016667D01*
X0104258Y0016689D01*
X0104171Y0016714D01*
X0104086Y0016743D01*
X0104001Y0016775D01*
X0103918Y0016810D01*
X0103836Y0016848D01*
X0101984Y0016606D02*
X0101823Y0016606D01*
X0101775Y0016608D01*
X0101727Y0016613D01*
X0101680Y0016622D01*
X0101633Y0016635D01*
X0101588Y0016651D01*
X0101544Y0016670D01*
X0101501Y0016692D01*
X0101460Y0016718D01*
X0101421Y0016746D01*
X0101385Y0016778D01*
X0101351Y0016812D01*
X0101320Y0016848D01*
X0101291Y0016887D01*
X0101265Y0016928D01*
X0101243Y0016971D01*
X0101224Y0017015D01*
X0101208Y0017060D01*
X0101195Y0017107D01*
X0101186Y0017154D01*
X0101181Y0017202D01*
X0101179Y0017250D01*
X0101984Y0016605D02*
X0102039Y0016607D01*
X0102094Y0016613D01*
X0102148Y0016622D01*
X0102201Y0016635D01*
X0102254Y0016652D01*
X0102305Y0016672D01*
X0102355Y0016695D01*
X0102403Y0016722D01*
X0102449Y0016753D01*
X0102493Y0016786D01*
X0102534Y0016822D01*
X0102573Y0016861D01*
X0102609Y0016902D01*
X0102642Y0016946D01*
X0102673Y0016992D01*
X0102700Y0017040D01*
X0102723Y0017090D01*
X0102743Y0017141D01*
X0102760Y0017194D01*
X0102773Y0017247D01*
X0102782Y0017301D01*
X0102788Y0017356D01*
X0102790Y0017411D01*
X0102788Y0017466D01*
X0102782Y0017521D01*
X0102773Y0017575D01*
X0102760Y0017628D01*
X0102743Y0017681D01*
X0102723Y0017732D01*
X0102700Y0017782D01*
X0102673Y0017830D01*
X0102642Y0017876D01*
X0102609Y0017920D01*
X0102573Y0017961D01*
X0102534Y0018000D01*
X0102493Y0018036D01*
X0102449Y0018069D01*
X0102403Y0018100D01*
X0102355Y0018127D01*
X0102305Y0018150D01*
X0102254Y0018170D01*
X0102201Y0018187D01*
X0102148Y0018200D01*
X0102094Y0018209D01*
X0102039Y0018215D01*
X0101984Y0018217D01*
X0101178Y0018217D01*
X0112488Y0018450D02*
X0112488Y0020061D01*
X0112488Y0021330D02*
X0112488Y0022941D01*
X0112488Y0021330D02*
X0114099Y0022700D01*
X0115387Y0022216D02*
X0115385Y0022157D01*
X0115380Y0022099D01*
X0115370Y0022041D01*
X0115358Y0021984D01*
X0115341Y0021928D01*
X0115322Y0021873D01*
X0115298Y0021819D01*
X0115272Y0021767D01*
X0115242Y0021717D01*
X0115209Y0021668D01*
X0115173Y0021622D01*
X0115134Y0021578D01*
X0115093Y0021537D01*
X0115049Y0021498D01*
X0115003Y0021462D01*
X0114954Y0021430D01*
X0114904Y0021400D01*
X0114852Y0021373D01*
X0114798Y0021350D01*
X0114743Y0021330D01*
X0114099Y0022700D02*
X0114136Y0022737D01*
X0114176Y0022771D01*
X0114218Y0022803D01*
X0114263Y0022831D01*
X0114309Y0022857D01*
X0114356Y0022879D01*
X0114405Y0022898D01*
X0114455Y0022914D01*
X0114506Y0022926D01*
X0114558Y0022935D01*
X0114610Y0022940D01*
X0114663Y0022942D01*
X0114663Y0022941D02*
X0114715Y0022939D01*
X0114766Y0022934D01*
X0114817Y0022924D01*
X0114867Y0022912D01*
X0114916Y0022895D01*
X0114964Y0022875D01*
X0115010Y0022852D01*
X0115055Y0022826D01*
X0115097Y0022796D01*
X0115138Y0022764D01*
X0115176Y0022729D01*
X0115211Y0022691D01*
X0115243Y0022650D01*
X0115273Y0022608D01*
X0115299Y0022563D01*
X0115322Y0022517D01*
X0115342Y0022469D01*
X0115359Y0022420D01*
X0115371Y0022370D01*
X0115381Y0022319D01*
X0115386Y0022268D01*
X0115388Y0022216D01*
X0114099Y0019820D02*
X0112488Y0018450D01*
X0112488Y0017201D02*
X0113777Y0016557D01*
X0113777Y0016396D02*
X0113777Y0015590D01*
X0113776Y0016396D02*
X0113778Y0016451D01*
X0113784Y0016506D01*
X0113793Y0016560D01*
X0113806Y0016613D01*
X0113823Y0016666D01*
X0113843Y0016717D01*
X0113866Y0016767D01*
X0113893Y0016815D01*
X0113924Y0016861D01*
X0113957Y0016905D01*
X0113993Y0016946D01*
X0114032Y0016985D01*
X0114073Y0017021D01*
X0114117Y0017054D01*
X0114163Y0017085D01*
X0114211Y0017112D01*
X0114261Y0017135D01*
X0114312Y0017155D01*
X0114365Y0017172D01*
X0114418Y0017185D01*
X0114472Y0017194D01*
X0114527Y0017200D01*
X0114582Y0017202D01*
X0114637Y0017200D01*
X0114692Y0017194D01*
X0114746Y0017185D01*
X0114799Y0017172D01*
X0114852Y0017155D01*
X0114903Y0017135D01*
X0114953Y0017112D01*
X0115001Y0017085D01*
X0115047Y0017054D01*
X0115091Y0017021D01*
X0115132Y0016985D01*
X0115171Y0016946D01*
X0115207Y0016905D01*
X0115240Y0016861D01*
X0115271Y0016815D01*
X0115298Y0016767D01*
X0115321Y0016717D01*
X0115341Y0016666D01*
X0115358Y0016613D01*
X0115371Y0016560D01*
X0115380Y0016506D01*
X0115386Y0016451D01*
X0115388Y0016396D01*
X0115388Y0015590D01*
X0112488Y0015590D01*
X0114743Y0018450D02*
X0114798Y0018470D01*
X0114852Y0018493D01*
X0114904Y0018520D01*
X0114954Y0018550D01*
X0115003Y0018582D01*
X0115049Y0018618D01*
X0115093Y0018657D01*
X0115134Y0018698D01*
X0115173Y0018742D01*
X0115209Y0018788D01*
X0115242Y0018837D01*
X0115272Y0018887D01*
X0115298Y0018939D01*
X0115322Y0018993D01*
X0115341Y0019048D01*
X0115358Y0019104D01*
X0115370Y0019161D01*
X0115380Y0019219D01*
X0115385Y0019277D01*
X0115387Y0019336D01*
X0115388Y0019336D02*
X0115386Y0019388D01*
X0115381Y0019439D01*
X0115371Y0019490D01*
X0115359Y0019540D01*
X0115342Y0019589D01*
X0115322Y0019637D01*
X0115299Y0019683D01*
X0115273Y0019728D01*
X0115243Y0019770D01*
X0115211Y0019811D01*
X0115176Y0019849D01*
X0115138Y0019884D01*
X0115097Y0019916D01*
X0115055Y0019946D01*
X0115010Y0019972D01*
X0114964Y0019995D01*
X0114916Y0020015D01*
X0114867Y0020032D01*
X0114817Y0020044D01*
X0114766Y0020054D01*
X0114715Y0020059D01*
X0114663Y0020061D01*
X0114663Y0020062D02*
X0114610Y0020060D01*
X0114558Y0020055D01*
X0114506Y0020046D01*
X0114455Y0020034D01*
X0114405Y0020018D01*
X0114356Y0019999D01*
X0114309Y0019977D01*
X0114263Y0019951D01*
X0114218Y0019923D01*
X0114176Y0019891D01*
X0114136Y0019857D01*
X0114099Y0019820D01*
X0119757Y0026903D02*
X0121368Y0026903D01*
X0121416Y0026905D01*
X0121464Y0026910D01*
X0121511Y0026919D01*
X0121558Y0026932D01*
X0121603Y0026948D01*
X0121647Y0026967D01*
X0121690Y0026989D01*
X0121731Y0027015D01*
X0121770Y0027044D01*
X0121806Y0027075D01*
X0121840Y0027109D01*
X0121871Y0027145D01*
X0121900Y0027184D01*
X0121926Y0027225D01*
X0121948Y0027268D01*
X0121967Y0027312D01*
X0121983Y0027357D01*
X0121996Y0027404D01*
X0122005Y0027451D01*
X0122010Y0027499D01*
X0122012Y0027547D01*
X0122013Y0027547D02*
X0122013Y0028192D01*
X0122013Y0029312D02*
X0122013Y0030278D01*
X0122012Y0030278D02*
X0122010Y0030327D01*
X0122004Y0030376D01*
X0121995Y0030425D01*
X0121982Y0030472D01*
X0121965Y0030519D01*
X0121945Y0030564D01*
X0121922Y0030607D01*
X0121895Y0030649D01*
X0121865Y0030688D01*
X0121832Y0030725D01*
X0121796Y0030759D01*
X0121758Y0030790D01*
X0121718Y0030819D01*
X0121676Y0030844D01*
X0121631Y0030866D01*
X0121586Y0030884D01*
X0121539Y0030899D01*
X0121491Y0030910D01*
X0121442Y0030918D01*
X0121393Y0030922D01*
X0121343Y0030922D01*
X0121294Y0030918D01*
X0121245Y0030910D01*
X0121197Y0030899D01*
X0121150Y0030884D01*
X0121105Y0030866D01*
X0121060Y0030844D01*
X0121018Y0030819D01*
X0120978Y0030790D01*
X0120940Y0030759D01*
X0120904Y0030725D01*
X0120871Y0030688D01*
X0120841Y0030649D01*
X0120814Y0030607D01*
X0120791Y0030564D01*
X0120771Y0030519D01*
X0120754Y0030472D01*
X0120741Y0030425D01*
X0120732Y0030376D01*
X0120726Y0030327D01*
X0120724Y0030278D01*
X0120724Y0029634D01*
X0120724Y0030117D02*
X0120722Y0030172D01*
X0120716Y0030227D01*
X0120707Y0030281D01*
X0120694Y0030334D01*
X0120677Y0030387D01*
X0120657Y0030438D01*
X0120634Y0030488D01*
X0120607Y0030536D01*
X0120576Y0030582D01*
X0120543Y0030626D01*
X0120507Y0030667D01*
X0120468Y0030706D01*
X0120427Y0030742D01*
X0120383Y0030775D01*
X0120337Y0030806D01*
X0120289Y0030833D01*
X0120239Y0030856D01*
X0120188Y0030876D01*
X0120135Y0030893D01*
X0120082Y0030906D01*
X0120028Y0030915D01*
X0119973Y0030921D01*
X0119918Y0030923D01*
X0119863Y0030921D01*
X0119808Y0030915D01*
X0119754Y0030906D01*
X0119701Y0030893D01*
X0119648Y0030876D01*
X0119597Y0030856D01*
X0119547Y0030833D01*
X0119499Y0030806D01*
X0119453Y0030775D01*
X0119409Y0030742D01*
X0119368Y0030706D01*
X0119329Y0030667D01*
X0119293Y0030626D01*
X0119260Y0030582D01*
X0119229Y0030536D01*
X0119202Y0030488D01*
X0119179Y0030438D01*
X0119159Y0030387D01*
X0119142Y0030334D01*
X0119129Y0030281D01*
X0119120Y0030227D01*
X0119114Y0030172D01*
X0119112Y0030117D01*
X0119113Y0030117D02*
X0119113Y0029312D01*
X0119113Y0028192D02*
X0119113Y0027547D01*
X0119115Y0027499D01*
X0119120Y0027451D01*
X0119129Y0027404D01*
X0119142Y0027357D01*
X0119158Y0027312D01*
X0119177Y0027268D01*
X0119199Y0027225D01*
X0119225Y0027184D01*
X0119254Y0027145D01*
X0119285Y0027109D01*
X0119319Y0027075D01*
X0119355Y0027044D01*
X0119394Y0027015D01*
X0119435Y0026989D01*
X0119478Y0026967D01*
X0119522Y0026948D01*
X0119567Y0026932D01*
X0119614Y0026919D01*
X0119661Y0026910D01*
X0119709Y0026905D01*
X0119757Y0026903D01*
X0123050Y0027296D02*
X0125950Y0027296D01*
X0125950Y0028102D01*
X0125948Y0028157D01*
X0125942Y0028212D01*
X0125933Y0028266D01*
X0125920Y0028319D01*
X0125903Y0028372D01*
X0125883Y0028423D01*
X0125860Y0028473D01*
X0125833Y0028521D01*
X0125802Y0028567D01*
X0125769Y0028611D01*
X0125733Y0028652D01*
X0125694Y0028691D01*
X0125653Y0028727D01*
X0125609Y0028760D01*
X0125563Y0028791D01*
X0125515Y0028818D01*
X0125465Y0028841D01*
X0125414Y0028861D01*
X0125361Y0028878D01*
X0125308Y0028891D01*
X0125254Y0028900D01*
X0125199Y0028906D01*
X0125144Y0028908D01*
X0125089Y0028906D01*
X0125034Y0028900D01*
X0124980Y0028891D01*
X0124927Y0028878D01*
X0124874Y0028861D01*
X0124823Y0028841D01*
X0124773Y0028818D01*
X0124725Y0028791D01*
X0124679Y0028760D01*
X0124635Y0028727D01*
X0124594Y0028691D01*
X0124555Y0028652D01*
X0124519Y0028611D01*
X0124486Y0028567D01*
X0124455Y0028521D01*
X0124428Y0028473D01*
X0124405Y0028423D01*
X0124385Y0028372D01*
X0124368Y0028319D01*
X0124355Y0028266D01*
X0124346Y0028212D01*
X0124340Y0028157D01*
X0124338Y0028102D01*
X0124339Y0028102D02*
X0124339Y0027296D01*
X0124339Y0028263D02*
X0123050Y0028908D01*
X0123050Y0030156D02*
X0123050Y0031767D01*
X0123050Y0033036D02*
X0123050Y0033842D01*
X0123049Y0033842D02*
X0123051Y0033897D01*
X0123057Y0033952D01*
X0123066Y0034006D01*
X0123079Y0034059D01*
X0123096Y0034112D01*
X0123116Y0034163D01*
X0123139Y0034213D01*
X0123166Y0034261D01*
X0123197Y0034307D01*
X0123230Y0034351D01*
X0123266Y0034392D01*
X0123305Y0034431D01*
X0123346Y0034467D01*
X0123390Y0034500D01*
X0123436Y0034531D01*
X0123484Y0034558D01*
X0123534Y0034581D01*
X0123585Y0034601D01*
X0123638Y0034618D01*
X0123691Y0034631D01*
X0123745Y0034640D01*
X0123800Y0034646D01*
X0123855Y0034648D01*
X0123910Y0034646D01*
X0123965Y0034640D01*
X0124019Y0034631D01*
X0124072Y0034618D01*
X0124125Y0034601D01*
X0124176Y0034581D01*
X0124226Y0034558D01*
X0124274Y0034531D01*
X0124320Y0034500D01*
X0124364Y0034467D01*
X0124405Y0034431D01*
X0124444Y0034392D01*
X0124480Y0034351D01*
X0124513Y0034307D01*
X0124544Y0034261D01*
X0124571Y0034213D01*
X0124594Y0034163D01*
X0124614Y0034112D01*
X0124631Y0034059D01*
X0124644Y0034006D01*
X0124653Y0033952D01*
X0124659Y0033897D01*
X0124661Y0033842D01*
X0124661Y0034003D02*
X0124661Y0033359D01*
X0124661Y0034003D02*
X0124663Y0034052D01*
X0124669Y0034101D01*
X0124678Y0034150D01*
X0124691Y0034197D01*
X0124708Y0034244D01*
X0124728Y0034289D01*
X0124751Y0034332D01*
X0124778Y0034374D01*
X0124808Y0034413D01*
X0124841Y0034450D01*
X0124877Y0034484D01*
X0124915Y0034515D01*
X0124955Y0034544D01*
X0124997Y0034569D01*
X0125042Y0034591D01*
X0125087Y0034609D01*
X0125134Y0034624D01*
X0125182Y0034635D01*
X0125231Y0034643D01*
X0125280Y0034647D01*
X0125330Y0034647D01*
X0125379Y0034643D01*
X0125428Y0034635D01*
X0125476Y0034624D01*
X0125523Y0034609D01*
X0125568Y0034591D01*
X0125613Y0034569D01*
X0125655Y0034544D01*
X0125695Y0034515D01*
X0125733Y0034484D01*
X0125769Y0034450D01*
X0125802Y0034413D01*
X0125832Y0034374D01*
X0125859Y0034332D01*
X0125882Y0034289D01*
X0125902Y0034244D01*
X0125919Y0034197D01*
X0125932Y0034150D01*
X0125941Y0034101D01*
X0125947Y0034052D01*
X0125949Y0034003D01*
X0125950Y0034003D02*
X0125950Y0033036D01*
X0124661Y0031526D02*
X0123050Y0030156D01*
X0125305Y0030156D02*
X0125360Y0030176D01*
X0125414Y0030199D01*
X0125466Y0030226D01*
X0125516Y0030256D01*
X0125565Y0030288D01*
X0125611Y0030324D01*
X0125655Y0030363D01*
X0125696Y0030404D01*
X0125735Y0030448D01*
X0125771Y0030494D01*
X0125804Y0030543D01*
X0125834Y0030593D01*
X0125860Y0030645D01*
X0125884Y0030699D01*
X0125903Y0030754D01*
X0125920Y0030810D01*
X0125932Y0030867D01*
X0125942Y0030925D01*
X0125947Y0030983D01*
X0125949Y0031042D01*
X0125950Y0031042D02*
X0125948Y0031094D01*
X0125943Y0031145D01*
X0125933Y0031196D01*
X0125921Y0031246D01*
X0125904Y0031295D01*
X0125884Y0031343D01*
X0125861Y0031389D01*
X0125835Y0031434D01*
X0125805Y0031476D01*
X0125773Y0031517D01*
X0125738Y0031555D01*
X0125700Y0031590D01*
X0125659Y0031622D01*
X0125617Y0031652D01*
X0125572Y0031678D01*
X0125526Y0031701D01*
X0125478Y0031721D01*
X0125429Y0031738D01*
X0125379Y0031750D01*
X0125328Y0031760D01*
X0125277Y0031765D01*
X0125225Y0031767D01*
X0125225Y0031768D02*
X0125172Y0031766D01*
X0125120Y0031761D01*
X0125068Y0031752D01*
X0125017Y0031740D01*
X0124967Y0031724D01*
X0124918Y0031705D01*
X0124871Y0031683D01*
X0124825Y0031657D01*
X0124780Y0031629D01*
X0124738Y0031597D01*
X0124698Y0031563D01*
X0124661Y0031526D01*
X0124883Y0039451D02*
X0124883Y0042351D01*
X0124077Y0042351D01*
X0124022Y0042349D01*
X0123967Y0042343D01*
X0123913Y0042334D01*
X0123860Y0042321D01*
X0123807Y0042304D01*
X0123756Y0042284D01*
X0123706Y0042261D01*
X0123658Y0042234D01*
X0123612Y0042203D01*
X0123568Y0042170D01*
X0123527Y0042134D01*
X0123488Y0042095D01*
X0123452Y0042054D01*
X0123419Y0042010D01*
X0123388Y0041964D01*
X0123361Y0041916D01*
X0123338Y0041866D01*
X0123318Y0041815D01*
X0123301Y0041762D01*
X0123288Y0041709D01*
X0123279Y0041655D01*
X0123273Y0041600D01*
X0123271Y0041545D01*
X0123273Y0041490D01*
X0123279Y0041435D01*
X0123288Y0041381D01*
X0123301Y0041328D01*
X0123318Y0041275D01*
X0123338Y0041224D01*
X0123361Y0041174D01*
X0123388Y0041126D01*
X0123419Y0041080D01*
X0123452Y0041036D01*
X0123488Y0040995D01*
X0123527Y0040956D01*
X0123568Y0040920D01*
X0123612Y0040887D01*
X0123658Y0040856D01*
X0123706Y0040829D01*
X0123756Y0040806D01*
X0123807Y0040786D01*
X0123860Y0040769D01*
X0123913Y0040756D01*
X0123967Y0040747D01*
X0124022Y0040741D01*
X0124077Y0040739D01*
X0124077Y0040740D02*
X0124883Y0040740D01*
X0123916Y0040740D02*
X0123272Y0039451D01*
X0122023Y0039451D02*
X0120412Y0039451D01*
X0122023Y0039451D02*
X0120654Y0041062D01*
X0121137Y0042350D02*
X0121196Y0042348D01*
X0121254Y0042343D01*
X0121312Y0042333D01*
X0121369Y0042321D01*
X0121425Y0042304D01*
X0121480Y0042285D01*
X0121534Y0042261D01*
X0121586Y0042235D01*
X0121636Y0042205D01*
X0121685Y0042172D01*
X0121731Y0042136D01*
X0121775Y0042097D01*
X0121816Y0042056D01*
X0121855Y0042012D01*
X0121891Y0041966D01*
X0121923Y0041917D01*
X0121953Y0041867D01*
X0121980Y0041815D01*
X0122003Y0041761D01*
X0122023Y0041706D01*
X0120654Y0041062D02*
X0120617Y0041099D01*
X0120583Y0041139D01*
X0120551Y0041181D01*
X0120523Y0041226D01*
X0120497Y0041272D01*
X0120475Y0041319D01*
X0120456Y0041368D01*
X0120440Y0041418D01*
X0120428Y0041469D01*
X0120419Y0041521D01*
X0120414Y0041573D01*
X0120412Y0041626D01*
X0120414Y0041678D01*
X0120419Y0041729D01*
X0120429Y0041780D01*
X0120441Y0041830D01*
X0120458Y0041879D01*
X0120478Y0041927D01*
X0120501Y0041973D01*
X0120527Y0042018D01*
X0120557Y0042060D01*
X0120589Y0042101D01*
X0120624Y0042139D01*
X0120662Y0042174D01*
X0120703Y0042206D01*
X0120745Y0042236D01*
X0120790Y0042262D01*
X0120836Y0042285D01*
X0120884Y0042305D01*
X0120933Y0042322D01*
X0120983Y0042334D01*
X0121034Y0042344D01*
X0121085Y0042349D01*
X0121137Y0042351D01*
X0123050Y0043438D02*
X0125950Y0043438D01*
X0125950Y0044244D01*
X0125948Y0044299D01*
X0125942Y0044354D01*
X0125933Y0044408D01*
X0125920Y0044461D01*
X0125903Y0044514D01*
X0125883Y0044565D01*
X0125860Y0044615D01*
X0125833Y0044663D01*
X0125802Y0044709D01*
X0125769Y0044753D01*
X0125733Y0044794D01*
X0125694Y0044833D01*
X0125653Y0044869D01*
X0125609Y0044902D01*
X0125563Y0044933D01*
X0125515Y0044960D01*
X0125465Y0044983D01*
X0125414Y0045003D01*
X0125361Y0045020D01*
X0125308Y0045033D01*
X0125254Y0045042D01*
X0125199Y0045048D01*
X0125144Y0045050D01*
X0125089Y0045048D01*
X0125034Y0045042D01*
X0124980Y0045033D01*
X0124927Y0045020D01*
X0124874Y0045003D01*
X0124823Y0044983D01*
X0124773Y0044960D01*
X0124725Y0044933D01*
X0124679Y0044902D01*
X0124635Y0044869D01*
X0124594Y0044833D01*
X0124555Y0044794D01*
X0124519Y0044753D01*
X0124486Y0044709D01*
X0124455Y0044663D01*
X0124428Y0044615D01*
X0124405Y0044565D01*
X0124385Y0044514D01*
X0124368Y0044461D01*
X0124355Y0044408D01*
X0124346Y0044354D01*
X0124340Y0044299D01*
X0124338Y0044244D01*
X0124339Y0044244D02*
X0124339Y0043438D01*
X0124339Y0044405D02*
X0123050Y0045049D01*
X0123855Y0046298D02*
X0123800Y0046300D01*
X0123745Y0046306D01*
X0123691Y0046315D01*
X0123638Y0046328D01*
X0123585Y0046345D01*
X0123534Y0046365D01*
X0123484Y0046388D01*
X0123436Y0046415D01*
X0123390Y0046446D01*
X0123346Y0046479D01*
X0123305Y0046515D01*
X0123266Y0046554D01*
X0123230Y0046595D01*
X0123197Y0046639D01*
X0123166Y0046685D01*
X0123139Y0046733D01*
X0123116Y0046783D01*
X0123096Y0046834D01*
X0123079Y0046887D01*
X0123066Y0046940D01*
X0123057Y0046994D01*
X0123051Y0047049D01*
X0123049Y0047104D01*
X0123051Y0047159D01*
X0123057Y0047214D01*
X0123066Y0047268D01*
X0123079Y0047321D01*
X0123096Y0047374D01*
X0123116Y0047425D01*
X0123139Y0047475D01*
X0123166Y0047523D01*
X0123197Y0047569D01*
X0123230Y0047613D01*
X0123266Y0047654D01*
X0123305Y0047693D01*
X0123346Y0047729D01*
X0123390Y0047762D01*
X0123436Y0047793D01*
X0123484Y0047820D01*
X0123534Y0047843D01*
X0123585Y0047863D01*
X0123638Y0047880D01*
X0123691Y0047893D01*
X0123745Y0047902D01*
X0123800Y0047908D01*
X0123855Y0047910D01*
X0123910Y0047908D01*
X0123965Y0047902D01*
X0124019Y0047893D01*
X0124072Y0047880D01*
X0124125Y0047863D01*
X0124176Y0047843D01*
X0124226Y0047820D01*
X0124274Y0047793D01*
X0124320Y0047762D01*
X0124364Y0047729D01*
X0124405Y0047693D01*
X0124444Y0047654D01*
X0124480Y0047613D01*
X0124513Y0047569D01*
X0124544Y0047523D01*
X0124571Y0047475D01*
X0124594Y0047425D01*
X0124614Y0047374D01*
X0124631Y0047321D01*
X0124644Y0047268D01*
X0124653Y0047214D01*
X0124659Y0047159D01*
X0124661Y0047104D01*
X0124659Y0047049D01*
X0124653Y0046994D01*
X0124644Y0046940D01*
X0124631Y0046887D01*
X0124614Y0046834D01*
X0124594Y0046783D01*
X0124571Y0046733D01*
X0124544Y0046685D01*
X0124513Y0046639D01*
X0124480Y0046595D01*
X0124444Y0046554D01*
X0124405Y0046515D01*
X0124364Y0046479D01*
X0124320Y0046446D01*
X0124274Y0046415D01*
X0124226Y0046388D01*
X0124176Y0046365D01*
X0124125Y0046345D01*
X0124072Y0046328D01*
X0124019Y0046315D01*
X0123965Y0046306D01*
X0123910Y0046300D01*
X0123855Y0046298D01*
X0125305Y0046460D02*
X0125256Y0046462D01*
X0125207Y0046468D01*
X0125158Y0046477D01*
X0125111Y0046490D01*
X0125064Y0046507D01*
X0125019Y0046527D01*
X0124976Y0046550D01*
X0124934Y0046577D01*
X0124895Y0046607D01*
X0124858Y0046640D01*
X0124824Y0046676D01*
X0124793Y0046714D01*
X0124764Y0046754D01*
X0124739Y0046796D01*
X0124717Y0046841D01*
X0124699Y0046886D01*
X0124684Y0046933D01*
X0124673Y0046981D01*
X0124665Y0047030D01*
X0124661Y0047079D01*
X0124661Y0047129D01*
X0124665Y0047178D01*
X0124673Y0047227D01*
X0124684Y0047275D01*
X0124699Y0047322D01*
X0124717Y0047367D01*
X0124739Y0047412D01*
X0124764Y0047454D01*
X0124793Y0047494D01*
X0124824Y0047532D01*
X0124858Y0047568D01*
X0124895Y0047601D01*
X0124934Y0047631D01*
X0124976Y0047658D01*
X0125019Y0047681D01*
X0125064Y0047701D01*
X0125111Y0047718D01*
X0125158Y0047731D01*
X0125207Y0047740D01*
X0125256Y0047746D01*
X0125305Y0047748D01*
X0125354Y0047746D01*
X0125403Y0047740D01*
X0125452Y0047731D01*
X0125499Y0047718D01*
X0125546Y0047701D01*
X0125591Y0047681D01*
X0125634Y0047658D01*
X0125676Y0047631D01*
X0125715Y0047601D01*
X0125752Y0047568D01*
X0125786Y0047532D01*
X0125817Y0047494D01*
X0125846Y0047454D01*
X0125871Y0047412D01*
X0125893Y0047367D01*
X0125911Y0047322D01*
X0125926Y0047275D01*
X0125937Y0047227D01*
X0125945Y0047178D01*
X0125949Y0047129D01*
X0125949Y0047079D01*
X0125945Y0047030D01*
X0125937Y0046981D01*
X0125926Y0046933D01*
X0125911Y0046886D01*
X0125893Y0046841D01*
X0125871Y0046796D01*
X0125846Y0046754D01*
X0125817Y0046714D01*
X0125786Y0046676D01*
X0125752Y0046640D01*
X0125715Y0046607D01*
X0125676Y0046577D01*
X0125634Y0046550D01*
X0125591Y0046527D01*
X0125546Y0046507D01*
X0125499Y0046490D01*
X0125452Y0046477D01*
X0125403Y0046468D01*
X0125354Y0046462D01*
X0125305Y0046460D01*
X0126661Y0047333D02*
X0129561Y0048138D01*
X0129561Y0046527D01*
X0129239Y0046527D01*
X0129561Y0045407D02*
X0129561Y0044762D01*
X0129560Y0044762D02*
X0129558Y0044714D01*
X0129553Y0044666D01*
X0129544Y0044619D01*
X0129531Y0044572D01*
X0129515Y0044527D01*
X0129496Y0044483D01*
X0129474Y0044440D01*
X0129448Y0044399D01*
X0129419Y0044360D01*
X0129388Y0044324D01*
X0129354Y0044290D01*
X0129318Y0044259D01*
X0129279Y0044230D01*
X0129238Y0044204D01*
X0129195Y0044182D01*
X0129151Y0044163D01*
X0129106Y0044147D01*
X0129059Y0044134D01*
X0129012Y0044125D01*
X0128964Y0044120D01*
X0128916Y0044118D01*
X0127305Y0044118D01*
X0127257Y0044120D01*
X0127209Y0044125D01*
X0127162Y0044134D01*
X0127115Y0044147D01*
X0127070Y0044163D01*
X0127026Y0044182D01*
X0126983Y0044204D01*
X0126942Y0044230D01*
X0126903Y0044259D01*
X0126867Y0044290D01*
X0126833Y0044324D01*
X0126802Y0044360D01*
X0126773Y0044399D01*
X0126747Y0044440D01*
X0126725Y0044483D01*
X0126706Y0044527D01*
X0126690Y0044572D01*
X0126677Y0044619D01*
X0126668Y0044666D01*
X0126663Y0044714D01*
X0126661Y0044762D01*
X0126661Y0045407D01*
X0115781Y0062959D02*
X0112881Y0062959D01*
X0114170Y0062959D02*
X0114170Y0063764D01*
X0114170Y0063925D02*
X0112881Y0064570D01*
X0112881Y0065818D02*
X0112881Y0067430D01*
X0112881Y0066624D02*
X0115781Y0066624D01*
X0115137Y0065818D01*
X0115782Y0063764D02*
X0115780Y0063819D01*
X0115774Y0063874D01*
X0115765Y0063928D01*
X0115752Y0063981D01*
X0115735Y0064034D01*
X0115715Y0064085D01*
X0115692Y0064135D01*
X0115665Y0064183D01*
X0115634Y0064229D01*
X0115601Y0064273D01*
X0115565Y0064314D01*
X0115526Y0064353D01*
X0115485Y0064389D01*
X0115441Y0064422D01*
X0115395Y0064453D01*
X0115347Y0064480D01*
X0115297Y0064503D01*
X0115246Y0064523D01*
X0115193Y0064540D01*
X0115140Y0064553D01*
X0115086Y0064562D01*
X0115031Y0064568D01*
X0114976Y0064570D01*
X0114921Y0064568D01*
X0114866Y0064562D01*
X0114812Y0064553D01*
X0114759Y0064540D01*
X0114706Y0064523D01*
X0114655Y0064503D01*
X0114605Y0064480D01*
X0114557Y0064453D01*
X0114511Y0064422D01*
X0114467Y0064389D01*
X0114426Y0064353D01*
X0114387Y0064314D01*
X0114351Y0064273D01*
X0114318Y0064229D01*
X0114287Y0064183D01*
X0114260Y0064135D01*
X0114237Y0064085D01*
X0114217Y0064034D01*
X0114200Y0063981D01*
X0114187Y0063928D01*
X0114178Y0063874D01*
X0114172Y0063819D01*
X0114170Y0063764D01*
X0115781Y0063764D02*
X0115781Y0062959D01*
X0113463Y0069295D02*
X0114455Y0072020D01*
X0113698Y0072295D01*
X0113699Y0072295D02*
X0113645Y0072313D01*
X0113591Y0072326D01*
X0113535Y0072336D01*
X0113479Y0072342D01*
X0113423Y0072344D01*
X0113367Y0072342D01*
X0113311Y0072336D01*
X0113255Y0072326D01*
X0113201Y0072313D01*
X0113147Y0072295D01*
X0113095Y0072274D01*
X0113045Y0072250D01*
X0112996Y0072222D01*
X0112949Y0072190D01*
X0112905Y0072155D01*
X0112863Y0072118D01*
X0112824Y0072077D01*
X0112788Y0072034D01*
X0112755Y0071989D01*
X0112725Y0071941D01*
X0112699Y0071891D01*
X0112676Y0071840D01*
X0112656Y0071787D01*
X0112641Y0071733D01*
X0112629Y0071678D01*
X0112621Y0071622D01*
X0112617Y0071566D01*
X0112617Y0071510D01*
X0112621Y0071454D01*
X0112629Y0071398D01*
X0112641Y0071343D01*
X0112656Y0071289D01*
X0112676Y0071236D01*
X0112699Y0071185D01*
X0112725Y0071135D01*
X0112755Y0071087D01*
X0112788Y0071042D01*
X0112824Y0070999D01*
X0112863Y0070958D01*
X0112905Y0070921D01*
X0112949Y0070886D01*
X0112996Y0070854D01*
X0113045Y0070826D01*
X0113095Y0070802D01*
X0113147Y0070781D01*
X0113147Y0070782D02*
X0113904Y0070506D01*
X0112996Y0070837D02*
X0111949Y0069846D01*
X0110776Y0070273D02*
X0110019Y0070548D01*
X0109968Y0070568D01*
X0109919Y0070592D01*
X0109871Y0070620D01*
X0109825Y0070650D01*
X0109782Y0070684D01*
X0109740Y0070720D01*
X0109702Y0070759D01*
X0109666Y0070801D01*
X0109633Y0070845D01*
X0109603Y0070891D01*
X0109577Y0070940D01*
X0109553Y0070990D01*
X0109534Y0071041D01*
X0109517Y0071093D01*
X0109505Y0071147D01*
X0109496Y0071201D01*
X0109490Y0071256D01*
X0109489Y0071311D01*
X0109491Y0071366D01*
X0109497Y0071421D01*
X0109507Y0071475D01*
X0109521Y0071528D01*
X0109538Y0071581D01*
X0109558Y0071632D01*
X0109582Y0071681D01*
X0109610Y0071729D01*
X0109640Y0071775D01*
X0109674Y0071818D01*
X0109710Y0071860D01*
X0109749Y0071898D01*
X0109791Y0071934D01*
X0109835Y0071967D01*
X0109881Y0071997D01*
X0109930Y0072023D01*
X0109980Y0072047D01*
X0110031Y0072066D01*
X0110083Y0072083D01*
X0110137Y0072095D01*
X0110191Y0072104D01*
X0110246Y0072110D01*
X0110301Y0072111D01*
X0110356Y0072109D01*
X0110411Y0072103D01*
X0110465Y0072093D01*
X0110518Y0072079D01*
X0110571Y0072062D01*
X0110419Y0072118D02*
X0111024Y0071897D01*
X0110419Y0072118D02*
X0110373Y0072136D01*
X0110329Y0072159D01*
X0110287Y0072184D01*
X0110246Y0072212D01*
X0110208Y0072244D01*
X0110173Y0072278D01*
X0110140Y0072315D01*
X0110111Y0072355D01*
X0110084Y0072396D01*
X0110061Y0072440D01*
X0110041Y0072485D01*
X0110024Y0072531D01*
X0110011Y0072579D01*
X0110002Y0072627D01*
X0109997Y0072676D01*
X0109995Y0072726D01*
X0109997Y0072775D01*
X0110003Y0072824D01*
X0110013Y0072872D01*
X0110026Y0072920D01*
X0110043Y0072966D01*
X0110063Y0073011D01*
X0110087Y0073054D01*
X0110114Y0073096D01*
X0110144Y0073135D01*
X0110177Y0073172D01*
X0110213Y0073206D01*
X0110251Y0073237D01*
X0110291Y0073265D01*
X0110334Y0073290D01*
X0110378Y0073312D01*
X0110424Y0073330D01*
X0110471Y0073345D01*
X0110519Y0073356D01*
X0110568Y0073363D01*
X0110617Y0073367D01*
X0110666Y0073366D01*
X0110716Y0073362D01*
X0110764Y0073355D01*
X0110812Y0073343D01*
X0110859Y0073328D01*
X0110860Y0073329D02*
X0111768Y0072998D01*
X0113995Y0080052D02*
X0116895Y0080052D01*
X0116895Y0080858D01*
X0116893Y0080913D01*
X0116887Y0080968D01*
X0116878Y0081022D01*
X0116865Y0081075D01*
X0116848Y0081128D01*
X0116828Y0081179D01*
X0116805Y0081229D01*
X0116778Y0081277D01*
X0116747Y0081323D01*
X0116714Y0081367D01*
X0116678Y0081408D01*
X0116639Y0081447D01*
X0116598Y0081483D01*
X0116554Y0081516D01*
X0116508Y0081547D01*
X0116460Y0081574D01*
X0116410Y0081597D01*
X0116359Y0081617D01*
X0116306Y0081634D01*
X0116253Y0081647D01*
X0116199Y0081656D01*
X0116144Y0081662D01*
X0116089Y0081664D01*
X0116034Y0081662D01*
X0115979Y0081656D01*
X0115925Y0081647D01*
X0115872Y0081634D01*
X0115819Y0081617D01*
X0115768Y0081597D01*
X0115718Y0081574D01*
X0115670Y0081547D01*
X0115624Y0081516D01*
X0115580Y0081483D01*
X0115539Y0081447D01*
X0115500Y0081408D01*
X0115464Y0081367D01*
X0115431Y0081323D01*
X0115400Y0081277D01*
X0115373Y0081229D01*
X0115350Y0081179D01*
X0115330Y0081128D01*
X0115313Y0081075D01*
X0115300Y0081022D01*
X0115291Y0080968D01*
X0115285Y0080913D01*
X0115283Y0080858D01*
X0115284Y0080858D02*
X0115284Y0080052D01*
X0115284Y0081019D02*
X0113995Y0081663D01*
X0113995Y0082912D02*
X0113995Y0084523D01*
X0113995Y0083718D02*
X0116895Y0083718D01*
X0116250Y0082912D01*
X0118325Y0082912D02*
X0118325Y0084523D01*
X0118325Y0083718D02*
X0121225Y0083718D01*
X0120581Y0082912D01*
X0119614Y0081019D02*
X0118325Y0081663D01*
X0119614Y0080858D02*
X0119614Y0080052D01*
X0119614Y0080858D02*
X0119616Y0080913D01*
X0119622Y0080968D01*
X0119631Y0081022D01*
X0119644Y0081075D01*
X0119661Y0081128D01*
X0119681Y0081179D01*
X0119704Y0081229D01*
X0119731Y0081277D01*
X0119762Y0081323D01*
X0119795Y0081367D01*
X0119831Y0081408D01*
X0119870Y0081447D01*
X0119911Y0081483D01*
X0119955Y0081516D01*
X0120001Y0081547D01*
X0120049Y0081574D01*
X0120099Y0081597D01*
X0120150Y0081617D01*
X0120203Y0081634D01*
X0120256Y0081647D01*
X0120310Y0081656D01*
X0120365Y0081662D01*
X0120420Y0081664D01*
X0120475Y0081662D01*
X0120530Y0081656D01*
X0120584Y0081647D01*
X0120637Y0081634D01*
X0120690Y0081617D01*
X0120741Y0081597D01*
X0120791Y0081574D01*
X0120839Y0081547D01*
X0120885Y0081516D01*
X0120929Y0081483D01*
X0120970Y0081447D01*
X0121009Y0081408D01*
X0121045Y0081367D01*
X0121078Y0081323D01*
X0121109Y0081277D01*
X0121136Y0081229D01*
X0121159Y0081179D01*
X0121179Y0081128D01*
X0121196Y0081075D01*
X0121209Y0081022D01*
X0121218Y0080968D01*
X0121224Y0080913D01*
X0121226Y0080858D01*
X0121225Y0080858D02*
X0121225Y0080052D01*
X0118325Y0080052D01*
X0122262Y0080052D02*
X0125162Y0080052D01*
X0125162Y0080858D01*
X0125163Y0080858D02*
X0125161Y0080913D01*
X0125155Y0080968D01*
X0125146Y0081022D01*
X0125133Y0081075D01*
X0125116Y0081128D01*
X0125096Y0081179D01*
X0125073Y0081229D01*
X0125046Y0081277D01*
X0125015Y0081323D01*
X0124982Y0081367D01*
X0124946Y0081408D01*
X0124907Y0081447D01*
X0124866Y0081483D01*
X0124822Y0081516D01*
X0124776Y0081547D01*
X0124728Y0081574D01*
X0124678Y0081597D01*
X0124627Y0081617D01*
X0124574Y0081634D01*
X0124521Y0081647D01*
X0124467Y0081656D01*
X0124412Y0081662D01*
X0124357Y0081664D01*
X0124302Y0081662D01*
X0124247Y0081656D01*
X0124193Y0081647D01*
X0124140Y0081634D01*
X0124087Y0081617D01*
X0124036Y0081597D01*
X0123986Y0081574D01*
X0123938Y0081547D01*
X0123892Y0081516D01*
X0123848Y0081483D01*
X0123807Y0081447D01*
X0123768Y0081408D01*
X0123732Y0081367D01*
X0123699Y0081323D01*
X0123668Y0081277D01*
X0123641Y0081229D01*
X0123618Y0081179D01*
X0123598Y0081128D01*
X0123581Y0081075D01*
X0123568Y0081022D01*
X0123559Y0080968D01*
X0123553Y0080913D01*
X0123551Y0080858D01*
X0123551Y0080052D01*
X0123551Y0081019D02*
X0122262Y0081663D01*
X0122262Y0082912D02*
X0122262Y0084523D01*
X0122262Y0083718D02*
X0125162Y0083718D01*
X0124518Y0082912D01*
X0125162Y0085792D02*
X0125162Y0086759D01*
X0125160Y0086808D01*
X0125154Y0086857D01*
X0125145Y0086906D01*
X0125132Y0086953D01*
X0125115Y0087000D01*
X0125095Y0087045D01*
X0125072Y0087088D01*
X0125045Y0087130D01*
X0125015Y0087169D01*
X0124982Y0087206D01*
X0124946Y0087240D01*
X0124908Y0087271D01*
X0124868Y0087300D01*
X0124826Y0087325D01*
X0124781Y0087347D01*
X0124736Y0087365D01*
X0124689Y0087380D01*
X0124641Y0087391D01*
X0124592Y0087399D01*
X0124543Y0087403D01*
X0124493Y0087403D01*
X0124444Y0087399D01*
X0124395Y0087391D01*
X0124347Y0087380D01*
X0124300Y0087365D01*
X0124255Y0087347D01*
X0124210Y0087325D01*
X0124168Y0087300D01*
X0124128Y0087271D01*
X0124090Y0087240D01*
X0124054Y0087206D01*
X0124021Y0087169D01*
X0123991Y0087130D01*
X0123964Y0087088D01*
X0123941Y0087045D01*
X0123921Y0087000D01*
X0123904Y0086953D01*
X0123891Y0086906D01*
X0123882Y0086857D01*
X0123876Y0086808D01*
X0123874Y0086759D01*
X0123874Y0086114D01*
X0123874Y0086598D02*
X0123872Y0086653D01*
X0123866Y0086708D01*
X0123857Y0086762D01*
X0123844Y0086815D01*
X0123827Y0086868D01*
X0123807Y0086919D01*
X0123784Y0086969D01*
X0123757Y0087017D01*
X0123726Y0087063D01*
X0123693Y0087107D01*
X0123657Y0087148D01*
X0123618Y0087187D01*
X0123577Y0087223D01*
X0123533Y0087256D01*
X0123487Y0087287D01*
X0123439Y0087314D01*
X0123389Y0087337D01*
X0123338Y0087357D01*
X0123285Y0087374D01*
X0123232Y0087387D01*
X0123178Y0087396D01*
X0123123Y0087402D01*
X0123068Y0087404D01*
X0123013Y0087402D01*
X0122958Y0087396D01*
X0122904Y0087387D01*
X0122851Y0087374D01*
X0122798Y0087357D01*
X0122747Y0087337D01*
X0122697Y0087314D01*
X0122649Y0087287D01*
X0122603Y0087256D01*
X0122559Y0087223D01*
X0122518Y0087187D01*
X0122479Y0087148D01*
X0122443Y0087107D01*
X0122410Y0087063D01*
X0122379Y0087017D01*
X0122352Y0086969D01*
X0122329Y0086919D01*
X0122309Y0086868D01*
X0122292Y0086815D01*
X0122279Y0086762D01*
X0122270Y0086708D01*
X0122264Y0086653D01*
X0122262Y0086598D01*
X0122262Y0085792D01*
X0120500Y0087404D02*
X0120447Y0087402D01*
X0120395Y0087397D01*
X0120343Y0087388D01*
X0120292Y0087376D01*
X0120242Y0087360D01*
X0120193Y0087341D01*
X0120146Y0087319D01*
X0120100Y0087293D01*
X0120055Y0087265D01*
X0120013Y0087233D01*
X0119973Y0087199D01*
X0119936Y0087162D01*
X0119937Y0087162D02*
X0118325Y0085792D01*
X0118325Y0087403D01*
X0116895Y0086598D02*
X0113995Y0086598D01*
X0113995Y0087403D02*
X0113995Y0085792D01*
X0116250Y0085792D02*
X0116895Y0086598D01*
X0120581Y0085792D02*
X0120636Y0085812D01*
X0120690Y0085835D01*
X0120742Y0085862D01*
X0120792Y0085892D01*
X0120841Y0085924D01*
X0120887Y0085960D01*
X0120931Y0085999D01*
X0120972Y0086040D01*
X0121011Y0086084D01*
X0121047Y0086130D01*
X0121080Y0086179D01*
X0121110Y0086229D01*
X0121136Y0086281D01*
X0121160Y0086335D01*
X0121179Y0086390D01*
X0121196Y0086446D01*
X0121208Y0086503D01*
X0121218Y0086561D01*
X0121223Y0086619D01*
X0121225Y0086678D01*
X0121223Y0086730D01*
X0121218Y0086781D01*
X0121208Y0086832D01*
X0121196Y0086882D01*
X0121179Y0086931D01*
X0121159Y0086979D01*
X0121136Y0087025D01*
X0121110Y0087070D01*
X0121080Y0087112D01*
X0121048Y0087153D01*
X0121013Y0087191D01*
X0120975Y0087226D01*
X0120934Y0087258D01*
X0120892Y0087288D01*
X0120847Y0087314D01*
X0120801Y0087337D01*
X0120753Y0087357D01*
X0120704Y0087374D01*
X0120654Y0087386D01*
X0120603Y0087396D01*
X0120552Y0087401D01*
X0120500Y0087403D01*
X0097148Y0063155D02*
X0096612Y0061683D01*
X0098140Y0061682D01*
X0096612Y0061683D02*
X0097069Y0060266D01*
X0096612Y0061683D02*
X0095351Y0060891D01*
X0096612Y0061683D02*
X0095441Y0062665D01*
X0076155Y0072334D02*
X0076155Y0074429D01*
X0074544Y0074429D02*
X0074544Y0072334D01*
X0074546Y0072279D01*
X0074552Y0072224D01*
X0074561Y0072170D01*
X0074574Y0072117D01*
X0074591Y0072064D01*
X0074611Y0072013D01*
X0074634Y0071963D01*
X0074661Y0071915D01*
X0074692Y0071869D01*
X0074725Y0071825D01*
X0074761Y0071784D01*
X0074800Y0071745D01*
X0074841Y0071709D01*
X0074885Y0071676D01*
X0074931Y0071645D01*
X0074979Y0071618D01*
X0075029Y0071595D01*
X0075080Y0071575D01*
X0075133Y0071558D01*
X0075186Y0071545D01*
X0075240Y0071536D01*
X0075295Y0071530D01*
X0075350Y0071528D01*
X0075405Y0071530D01*
X0075460Y0071536D01*
X0075514Y0071545D01*
X0075567Y0071558D01*
X0075620Y0071575D01*
X0075671Y0071595D01*
X0075721Y0071618D01*
X0075769Y0071645D01*
X0075815Y0071676D01*
X0075859Y0071709D01*
X0075900Y0071745D01*
X0075939Y0071784D01*
X0075975Y0071825D01*
X0076008Y0071869D01*
X0076039Y0071915D01*
X0076066Y0071963D01*
X0076089Y0072013D01*
X0076109Y0072064D01*
X0076126Y0072117D01*
X0076139Y0072170D01*
X0076148Y0072224D01*
X0076154Y0072279D01*
X0076156Y0072334D01*
X0073179Y0072173D02*
X0071568Y0072173D01*
X0072052Y0071529D02*
X0072052Y0072818D01*
X0073179Y0072173D02*
X0072535Y0074429D01*
X0067535Y0079033D02*
X0068086Y0080547D01*
X0067810Y0079790D02*
X0065085Y0080782D01*
X0065966Y0081318D01*
X0066070Y0083488D02*
X0068795Y0082496D01*
X0069071Y0083253D02*
X0068520Y0081739D01*
X0066951Y0084025D02*
X0066070Y0083488D01*
X0066729Y0085298D02*
X0066949Y0085903D01*
X0066950Y0085903D02*
X0066969Y0085950D01*
X0066992Y0085995D01*
X0067018Y0086038D01*
X0067048Y0086080D01*
X0067080Y0086118D01*
X0067116Y0086154D01*
X0067154Y0086187D01*
X0067195Y0086217D01*
X0067238Y0086244D01*
X0067283Y0086267D01*
X0067329Y0086286D01*
X0067378Y0086302D01*
X0067427Y0086314D01*
X0067477Y0086322D01*
X0067527Y0086326D01*
X0067577Y0086327D01*
X0067628Y0086323D01*
X0067678Y0086315D01*
X0067727Y0086304D01*
X0067775Y0086288D01*
X0069289Y0085737D01*
X0069334Y0085719D01*
X0069377Y0085698D01*
X0069418Y0085673D01*
X0069458Y0085645D01*
X0069495Y0085615D01*
X0069530Y0085582D01*
X0069562Y0085546D01*
X0069592Y0085508D01*
X0069619Y0085468D01*
X0069642Y0085426D01*
X0069662Y0085382D01*
X0069679Y0085337D01*
X0069693Y0085291D01*
X0069703Y0085244D01*
X0069710Y0085196D01*
X0069713Y0085148D01*
X0069712Y0085100D01*
X0069708Y0085052D01*
X0069700Y0085004D01*
X0069689Y0084958D01*
X0069674Y0084912D01*
X0069674Y0084911D02*
X0069454Y0084306D01*
X0080481Y0100269D02*
X0082092Y0100269D01*
X0081286Y0100269D02*
X0081286Y0103169D01*
X0082092Y0102524D01*
X0083457Y0103169D02*
X0083457Y0100269D01*
X0085068Y0103169D01*
X0085068Y0100269D01*
X0086284Y0100269D02*
X0086928Y0100269D01*
X0086976Y0100271D01*
X0087024Y0100276D01*
X0087071Y0100285D01*
X0087118Y0100298D01*
X0087163Y0100314D01*
X0087207Y0100333D01*
X0087250Y0100355D01*
X0087291Y0100381D01*
X0087330Y0100410D01*
X0087366Y0100441D01*
X0087400Y0100475D01*
X0087431Y0100511D01*
X0087460Y0100550D01*
X0087486Y0100591D01*
X0087508Y0100634D01*
X0087527Y0100678D01*
X0087543Y0100723D01*
X0087556Y0100770D01*
X0087565Y0100817D01*
X0087570Y0100865D01*
X0087572Y0100913D01*
X0087573Y0100913D02*
X0087573Y0102524D01*
X0087572Y0102524D02*
X0087570Y0102572D01*
X0087565Y0102620D01*
X0087556Y0102667D01*
X0087543Y0102714D01*
X0087527Y0102759D01*
X0087508Y0102803D01*
X0087486Y0102846D01*
X0087460Y0102887D01*
X0087431Y0102926D01*
X0087400Y0102962D01*
X0087366Y0102996D01*
X0087330Y0103027D01*
X0087291Y0103056D01*
X0087250Y0103082D01*
X0087207Y0103104D01*
X0087163Y0103123D01*
X0087118Y0103139D01*
X0087071Y0103152D01*
X0087024Y0103161D01*
X0086976Y0103166D01*
X0086928Y0103168D01*
X0086928Y0103169D02*
X0086284Y0103169D01*
X0053414Y0016979D02*
X0052609Y0016979D01*
X0053414Y0016979D02*
X0053414Y0014079D01*
X0053414Y0015368D02*
X0052609Y0015368D01*
X0052448Y0015368D02*
X0051803Y0014079D01*
X0050554Y0014079D02*
X0048943Y0014079D01*
X0049749Y0014079D02*
X0049749Y0016979D01*
X0050554Y0016335D01*
X0052609Y0016980D02*
X0052554Y0016978D01*
X0052499Y0016972D01*
X0052445Y0016963D01*
X0052392Y0016950D01*
X0052339Y0016933D01*
X0052288Y0016913D01*
X0052238Y0016890D01*
X0052190Y0016863D01*
X0052144Y0016832D01*
X0052100Y0016799D01*
X0052059Y0016763D01*
X0052020Y0016724D01*
X0051984Y0016683D01*
X0051951Y0016639D01*
X0051920Y0016593D01*
X0051893Y0016545D01*
X0051870Y0016495D01*
X0051850Y0016444D01*
X0051833Y0016391D01*
X0051820Y0016338D01*
X0051811Y0016284D01*
X0051805Y0016229D01*
X0051803Y0016174D01*
X0051805Y0016119D01*
X0051811Y0016064D01*
X0051820Y0016010D01*
X0051833Y0015957D01*
X0051850Y0015904D01*
X0051870Y0015853D01*
X0051893Y0015803D01*
X0051920Y0015755D01*
X0051951Y0015709D01*
X0051984Y0015665D01*
X0052020Y0015624D01*
X0052059Y0015585D01*
X0052100Y0015549D01*
X0052144Y0015516D01*
X0052190Y0015485D01*
X0052238Y0015458D01*
X0052288Y0015435D01*
X0052339Y0015415D01*
X0052392Y0015398D01*
X0052445Y0015385D01*
X0052499Y0015376D01*
X0052554Y0015370D01*
X0052609Y0015368D01*
X0047674Y0016657D02*
X0047674Y0016979D01*
X0046063Y0016979D01*
X0046869Y0014079D01*
X0069574Y0006824D02*
X0069574Y0006180D01*
X0069575Y0006180D02*
X0069577Y0006132D01*
X0069582Y0006084D01*
X0069591Y0006037D01*
X0069604Y0005990D01*
X0069620Y0005945D01*
X0069639Y0005901D01*
X0069661Y0005858D01*
X0069687Y0005817D01*
X0069716Y0005778D01*
X0069747Y0005742D01*
X0069781Y0005708D01*
X0069817Y0005677D01*
X0069856Y0005648D01*
X0069897Y0005622D01*
X0069940Y0005600D01*
X0069984Y0005581D01*
X0070029Y0005565D01*
X0070076Y0005552D01*
X0070123Y0005543D01*
X0070171Y0005538D01*
X0070219Y0005536D01*
X0070219Y0005535D02*
X0071830Y0005535D01*
X0071830Y0005536D02*
X0071878Y0005538D01*
X0071926Y0005543D01*
X0071973Y0005552D01*
X0072020Y0005565D01*
X0072065Y0005581D01*
X0072109Y0005600D01*
X0072152Y0005622D01*
X0072193Y0005648D01*
X0072232Y0005677D01*
X0072268Y0005708D01*
X0072302Y0005742D01*
X0072333Y0005778D01*
X0072362Y0005817D01*
X0072388Y0005858D01*
X0072410Y0005901D01*
X0072429Y0005945D01*
X0072445Y0005990D01*
X0072458Y0006037D01*
X0072467Y0006084D01*
X0072472Y0006132D01*
X0072474Y0006180D01*
X0072474Y0006824D01*
X0071830Y0008106D02*
X0071781Y0008108D01*
X0071732Y0008114D01*
X0071683Y0008123D01*
X0071636Y0008136D01*
X0071589Y0008153D01*
X0071544Y0008173D01*
X0071501Y0008196D01*
X0071459Y0008223D01*
X0071420Y0008253D01*
X0071383Y0008286D01*
X0071349Y0008322D01*
X0071318Y0008360D01*
X0071289Y0008400D01*
X0071264Y0008442D01*
X0071242Y0008487D01*
X0071224Y0008532D01*
X0071209Y0008579D01*
X0071198Y0008627D01*
X0071190Y0008676D01*
X0071186Y0008725D01*
X0071186Y0008775D01*
X0071190Y0008824D01*
X0071198Y0008873D01*
X0071209Y0008921D01*
X0071224Y0008968D01*
X0071242Y0009013D01*
X0071264Y0009058D01*
X0071289Y0009100D01*
X0071318Y0009140D01*
X0071349Y0009178D01*
X0071383Y0009214D01*
X0071420Y0009247D01*
X0071459Y0009277D01*
X0071501Y0009304D01*
X0071544Y0009327D01*
X0071589Y0009347D01*
X0071636Y0009364D01*
X0071683Y0009377D01*
X0071732Y0009386D01*
X0071781Y0009392D01*
X0071830Y0009394D01*
X0071879Y0009392D01*
X0071928Y0009386D01*
X0071977Y0009377D01*
X0072024Y0009364D01*
X0072071Y0009347D01*
X0072116Y0009327D01*
X0072159Y0009304D01*
X0072201Y0009277D01*
X0072240Y0009247D01*
X0072277Y0009214D01*
X0072311Y0009178D01*
X0072342Y0009140D01*
X0072371Y0009100D01*
X0072396Y0009058D01*
X0072418Y0009013D01*
X0072436Y0008968D01*
X0072451Y0008921D01*
X0072462Y0008873D01*
X0072470Y0008824D01*
X0072474Y0008775D01*
X0072474Y0008725D01*
X0072470Y0008676D01*
X0072462Y0008627D01*
X0072451Y0008579D01*
X0072436Y0008532D01*
X0072418Y0008487D01*
X0072396Y0008442D01*
X0072371Y0008400D01*
X0072342Y0008360D01*
X0072311Y0008322D01*
X0072277Y0008286D01*
X0072240Y0008253D01*
X0072201Y0008223D01*
X0072159Y0008196D01*
X0072116Y0008173D01*
X0072071Y0008153D01*
X0072024Y0008136D01*
X0071977Y0008123D01*
X0071928Y0008114D01*
X0071879Y0008108D01*
X0071830Y0008106D01*
X0070380Y0007944D02*
X0070325Y0007946D01*
X0070270Y0007952D01*
X0070216Y0007961D01*
X0070163Y0007974D01*
X0070110Y0007991D01*
X0070059Y0008011D01*
X0070009Y0008034D01*
X0069961Y0008061D01*
X0069915Y0008092D01*
X0069871Y0008125D01*
X0069830Y0008161D01*
X0069791Y0008200D01*
X0069755Y0008241D01*
X0069722Y0008285D01*
X0069691Y0008331D01*
X0069664Y0008379D01*
X0069641Y0008429D01*
X0069621Y0008480D01*
X0069604Y0008533D01*
X0069591Y0008586D01*
X0069582Y0008640D01*
X0069576Y0008695D01*
X0069574Y0008750D01*
X0069576Y0008805D01*
X0069582Y0008860D01*
X0069591Y0008914D01*
X0069604Y0008967D01*
X0069621Y0009020D01*
X0069641Y0009071D01*
X0069664Y0009121D01*
X0069691Y0009169D01*
X0069722Y0009215D01*
X0069755Y0009259D01*
X0069791Y0009300D01*
X0069830Y0009339D01*
X0069871Y0009375D01*
X0069915Y0009408D01*
X0069961Y0009439D01*
X0070009Y0009466D01*
X0070059Y0009489D01*
X0070110Y0009509D01*
X0070163Y0009526D01*
X0070216Y0009539D01*
X0070270Y0009548D01*
X0070325Y0009554D01*
X0070380Y0009556D01*
X0070435Y0009554D01*
X0070490Y0009548D01*
X0070544Y0009539D01*
X0070597Y0009526D01*
X0070650Y0009509D01*
X0070701Y0009489D01*
X0070751Y0009466D01*
X0070799Y0009439D01*
X0070845Y0009408D01*
X0070889Y0009375D01*
X0070930Y0009339D01*
X0070969Y0009300D01*
X0071005Y0009259D01*
X0071038Y0009215D01*
X0071069Y0009169D01*
X0071096Y0009121D01*
X0071119Y0009071D01*
X0071139Y0009020D01*
X0071156Y0008967D01*
X0071169Y0008914D01*
X0071178Y0008860D01*
X0071184Y0008805D01*
X0071186Y0008750D01*
X0071184Y0008695D01*
X0071178Y0008640D01*
X0071169Y0008586D01*
X0071156Y0008533D01*
X0071139Y0008480D01*
X0071119Y0008429D01*
X0071096Y0008379D01*
X0071069Y0008331D01*
X0071038Y0008285D01*
X0071005Y0008241D01*
X0070969Y0008200D01*
X0070930Y0008161D01*
X0070889Y0008125D01*
X0070845Y0008092D01*
X0070799Y0008061D01*
X0070751Y0008034D01*
X0070701Y0008011D01*
X0070650Y0007991D01*
X0070597Y0007974D01*
X0070544Y0007961D01*
X0070490Y0007952D01*
X0070435Y0007946D01*
X0070380Y0007944D01*
D14*
X0075479Y0004940D02*
X0075479Y0003172D01*
X0074988Y0003172D02*
X0075971Y0003172D01*
X0076657Y0003172D02*
X0077443Y0003172D01*
X0077443Y0004940D01*
X0075971Y0004547D02*
X0075479Y0004940D01*
X0066484Y0015267D02*
X0066412Y0015269D01*
X0066340Y0015275D01*
X0066268Y0015285D01*
X0066197Y0015298D01*
X0066127Y0015316D01*
X0066058Y0015337D01*
X0065991Y0015362D01*
X0065924Y0015390D01*
X0065860Y0015422D01*
X0065797Y0015458D01*
X0065736Y0015497D01*
X0065677Y0015539D01*
X0065621Y0015584D01*
X0065567Y0015632D01*
X0065516Y0015683D01*
X0065468Y0015737D01*
X0065423Y0015793D01*
X0065381Y0015852D01*
X0065342Y0015913D01*
X0065306Y0015976D01*
X0065274Y0016040D01*
X0065246Y0016107D01*
X0065221Y0016174D01*
X0065200Y0016243D01*
X0065182Y0016313D01*
X0065169Y0016384D01*
X0065159Y0016456D01*
X0065153Y0016528D01*
X0065151Y0016600D01*
X0065151Y0017434D01*
X0065153Y0017491D01*
X0065159Y0017547D01*
X0065168Y0017603D01*
X0065182Y0017659D01*
X0065199Y0017713D01*
X0065220Y0017766D01*
X0065244Y0017817D01*
X0065272Y0017867D01*
X0065303Y0017914D01*
X0065338Y0017960D01*
X0065375Y0018003D01*
X0065415Y0018043D01*
X0065458Y0018080D01*
X0065504Y0018115D01*
X0065551Y0018146D01*
X0065601Y0018174D01*
X0065652Y0018198D01*
X0065705Y0018219D01*
X0065759Y0018236D01*
X0065815Y0018250D01*
X0065871Y0018259D01*
X0065927Y0018265D01*
X0065984Y0018267D01*
X0066041Y0018265D01*
X0066097Y0018259D01*
X0066153Y0018250D01*
X0066209Y0018236D01*
X0066263Y0018219D01*
X0066316Y0018198D01*
X0066367Y0018174D01*
X0066417Y0018146D01*
X0066464Y0018115D01*
X0066510Y0018080D01*
X0066553Y0018043D01*
X0066593Y0018003D01*
X0066630Y0017960D01*
X0066665Y0017914D01*
X0066696Y0017867D01*
X0066724Y0017817D01*
X0066748Y0017766D01*
X0066769Y0017713D01*
X0066786Y0017659D01*
X0066800Y0017603D01*
X0066809Y0017547D01*
X0066815Y0017491D01*
X0066817Y0017434D01*
X0066817Y0017267D01*
X0066818Y0017267D02*
X0066816Y0017217D01*
X0066811Y0017168D01*
X0066801Y0017119D01*
X0066788Y0017070D01*
X0066772Y0017023D01*
X0066752Y0016978D01*
X0066729Y0016934D01*
X0066702Y0016891D01*
X0066672Y0016851D01*
X0066640Y0016813D01*
X0066605Y0016778D01*
X0066567Y0016746D01*
X0066527Y0016716D01*
X0066485Y0016689D01*
X0066440Y0016666D01*
X0066395Y0016646D01*
X0066348Y0016630D01*
X0066299Y0016617D01*
X0066250Y0016607D01*
X0066201Y0016602D01*
X0066151Y0016600D01*
X0065151Y0016600D01*
X0063991Y0016100D02*
X0063991Y0017434D01*
X0063658Y0017600D02*
X0064324Y0018267D01*
X0063991Y0017434D02*
X0063989Y0017491D01*
X0063983Y0017547D01*
X0063974Y0017603D01*
X0063960Y0017659D01*
X0063943Y0017713D01*
X0063922Y0017766D01*
X0063898Y0017817D01*
X0063870Y0017867D01*
X0063839Y0017914D01*
X0063804Y0017960D01*
X0063767Y0018003D01*
X0063727Y0018043D01*
X0063684Y0018080D01*
X0063638Y0018115D01*
X0063591Y0018146D01*
X0063541Y0018174D01*
X0063490Y0018198D01*
X0063437Y0018219D01*
X0063383Y0018236D01*
X0063327Y0018250D01*
X0063271Y0018259D01*
X0063215Y0018265D01*
X0063158Y0018267D01*
X0063101Y0018265D01*
X0063045Y0018259D01*
X0062989Y0018250D01*
X0062933Y0018236D01*
X0062879Y0018219D01*
X0062826Y0018198D01*
X0062775Y0018174D01*
X0062725Y0018146D01*
X0062678Y0018115D01*
X0062632Y0018080D01*
X0062589Y0018043D01*
X0062549Y0018003D01*
X0062512Y0017960D01*
X0062477Y0017914D01*
X0062446Y0017867D01*
X0062418Y0017817D01*
X0062394Y0017766D01*
X0062373Y0017713D01*
X0062356Y0017659D01*
X0062342Y0017603D01*
X0062333Y0017547D01*
X0062327Y0017491D01*
X0062325Y0017434D01*
X0062324Y0017434D02*
X0062324Y0016100D01*
X0062325Y0016100D02*
X0062327Y0016043D01*
X0062333Y0015987D01*
X0062342Y0015931D01*
X0062356Y0015875D01*
X0062373Y0015821D01*
X0062394Y0015768D01*
X0062418Y0015717D01*
X0062446Y0015667D01*
X0062477Y0015620D01*
X0062512Y0015574D01*
X0062549Y0015531D01*
X0062589Y0015491D01*
X0062632Y0015454D01*
X0062678Y0015419D01*
X0062725Y0015388D01*
X0062775Y0015360D01*
X0062826Y0015336D01*
X0062879Y0015315D01*
X0062933Y0015298D01*
X0062989Y0015284D01*
X0063045Y0015275D01*
X0063101Y0015269D01*
X0063158Y0015267D01*
X0063215Y0015269D01*
X0063271Y0015275D01*
X0063327Y0015284D01*
X0063383Y0015298D01*
X0063437Y0015315D01*
X0063490Y0015336D01*
X0063541Y0015360D01*
X0063591Y0015388D01*
X0063638Y0015419D01*
X0063684Y0015454D01*
X0063727Y0015491D01*
X0063767Y0015531D01*
X0063804Y0015574D01*
X0063839Y0015620D01*
X0063870Y0015667D01*
X0063898Y0015717D01*
X0063922Y0015768D01*
X0063943Y0015821D01*
X0063960Y0015875D01*
X0063974Y0015931D01*
X0063983Y0015987D01*
X0063989Y0016043D01*
X0063991Y0016100D01*
X0050134Y0028334D02*
X0050134Y0030001D01*
X0048800Y0029334D02*
X0048800Y0028334D01*
X0050134Y0028334D01*
X0049300Y0027175D02*
X0047967Y0027175D01*
X0047800Y0026841D02*
X0047134Y0027508D01*
X0047134Y0028334D02*
X0047134Y0029334D01*
X0047133Y0029334D02*
X0047135Y0029384D01*
X0047140Y0029433D01*
X0047150Y0029482D01*
X0047163Y0029531D01*
X0047179Y0029578D01*
X0047199Y0029623D01*
X0047222Y0029668D01*
X0047249Y0029710D01*
X0047279Y0029750D01*
X0047311Y0029788D01*
X0047346Y0029823D01*
X0047384Y0029855D01*
X0047424Y0029885D01*
X0047467Y0029912D01*
X0047511Y0029935D01*
X0047556Y0029955D01*
X0047603Y0029971D01*
X0047652Y0029984D01*
X0047701Y0029994D01*
X0047750Y0029999D01*
X0047800Y0030001D01*
X0048134Y0030001D01*
X0048184Y0029999D01*
X0048233Y0029994D01*
X0048282Y0029984D01*
X0048331Y0029971D01*
X0048378Y0029955D01*
X0048423Y0029935D01*
X0048468Y0029912D01*
X0048510Y0029885D01*
X0048550Y0029855D01*
X0048588Y0029823D01*
X0048623Y0029788D01*
X0048655Y0029750D01*
X0048685Y0029710D01*
X0048712Y0029668D01*
X0048735Y0029623D01*
X0048755Y0029578D01*
X0048771Y0029531D01*
X0048784Y0029482D01*
X0048794Y0029433D01*
X0048799Y0029384D01*
X0048801Y0029334D01*
X0049300Y0027174D02*
X0049357Y0027172D01*
X0049413Y0027166D01*
X0049469Y0027157D01*
X0049525Y0027143D01*
X0049579Y0027126D01*
X0049632Y0027105D01*
X0049683Y0027081D01*
X0049733Y0027053D01*
X0049780Y0027022D01*
X0049826Y0026987D01*
X0049869Y0026950D01*
X0049909Y0026910D01*
X0049946Y0026867D01*
X0049981Y0026821D01*
X0050012Y0026774D01*
X0050040Y0026724D01*
X0050064Y0026673D01*
X0050085Y0026620D01*
X0050102Y0026566D01*
X0050116Y0026510D01*
X0050125Y0026454D01*
X0050131Y0026398D01*
X0050133Y0026341D01*
X0050131Y0026284D01*
X0050125Y0026228D01*
X0050116Y0026172D01*
X0050102Y0026116D01*
X0050085Y0026062D01*
X0050064Y0026009D01*
X0050040Y0025958D01*
X0050012Y0025908D01*
X0049981Y0025861D01*
X0049946Y0025815D01*
X0049909Y0025772D01*
X0049869Y0025732D01*
X0049826Y0025695D01*
X0049780Y0025660D01*
X0049733Y0025629D01*
X0049683Y0025601D01*
X0049632Y0025577D01*
X0049579Y0025556D01*
X0049525Y0025539D01*
X0049469Y0025525D01*
X0049413Y0025516D01*
X0049357Y0025510D01*
X0049300Y0025508D01*
X0047967Y0025508D01*
X0047910Y0025510D01*
X0047854Y0025516D01*
X0047798Y0025525D01*
X0047742Y0025539D01*
X0047688Y0025556D01*
X0047635Y0025577D01*
X0047584Y0025601D01*
X0047534Y0025629D01*
X0047487Y0025660D01*
X0047441Y0025695D01*
X0047398Y0025732D01*
X0047358Y0025772D01*
X0047321Y0025815D01*
X0047286Y0025861D01*
X0047255Y0025908D01*
X0047227Y0025958D01*
X0047203Y0026009D01*
X0047182Y0026062D01*
X0047165Y0026116D01*
X0047151Y0026172D01*
X0047142Y0026228D01*
X0047136Y0026284D01*
X0047134Y0026341D01*
X0047136Y0026398D01*
X0047142Y0026454D01*
X0047151Y0026510D01*
X0047165Y0026566D01*
X0047182Y0026620D01*
X0047203Y0026673D01*
X0047227Y0026724D01*
X0047255Y0026774D01*
X0047286Y0026821D01*
X0047321Y0026867D01*
X0047358Y0026910D01*
X0047398Y0026950D01*
X0047441Y0026987D01*
X0047487Y0027022D01*
X0047534Y0027053D01*
X0047584Y0027081D01*
X0047635Y0027105D01*
X0047688Y0027126D01*
X0047742Y0027143D01*
X0047798Y0027157D01*
X0047854Y0027166D01*
X0047910Y0027172D01*
X0047967Y0027174D01*
X0051211Y0037693D02*
X0052767Y0039249D01*
X0052335Y0039681D01*
X0052334Y0039681D02*
X0052298Y0039714D01*
X0052259Y0039745D01*
X0052218Y0039772D01*
X0052175Y0039796D01*
X0052130Y0039816D01*
X0052084Y0039832D01*
X0052036Y0039845D01*
X0051988Y0039854D01*
X0051939Y0039859D01*
X0051890Y0039860D01*
X0051841Y0039857D01*
X0051792Y0039850D01*
X0051744Y0039839D01*
X0051697Y0039825D01*
X0051651Y0039806D01*
X0051607Y0039784D01*
X0051565Y0039759D01*
X0051525Y0039730D01*
X0051488Y0039698D01*
X0051453Y0039663D01*
X0051421Y0039626D01*
X0051392Y0039586D01*
X0051367Y0039544D01*
X0051345Y0039500D01*
X0051326Y0039454D01*
X0051312Y0039407D01*
X0051301Y0039359D01*
X0051294Y0039310D01*
X0051291Y0039261D01*
X0051292Y0039212D01*
X0051297Y0039163D01*
X0051306Y0039115D01*
X0051319Y0039067D01*
X0051335Y0039021D01*
X0051355Y0038976D01*
X0051379Y0038933D01*
X0051406Y0038892D01*
X0051437Y0038853D01*
X0051470Y0038817D01*
X0051902Y0038385D01*
X0051384Y0038903D02*
X0050347Y0038557D01*
X0049694Y0039210D02*
X0048830Y0040075D01*
X0049262Y0039643D02*
X0050817Y0041198D01*
X0050904Y0040420D01*
X0049031Y0041602D02*
X0048599Y0041170D01*
X0049031Y0041602D02*
X0048512Y0042121D01*
X0049031Y0041601D02*
X0049073Y0041646D01*
X0049112Y0041694D01*
X0049148Y0041743D01*
X0049181Y0041795D01*
X0049210Y0041849D01*
X0049237Y0041905D01*
X0049259Y0041962D01*
X0049278Y0042020D01*
X0049293Y0042080D01*
X0049305Y0042140D01*
X0049313Y0042201D01*
X0049317Y0042262D01*
X0049317Y0042324D01*
X0049313Y0042385D01*
X0049305Y0042446D01*
X0049293Y0042506D01*
X0049278Y0042566D01*
X0049259Y0042624D01*
X0049237Y0042681D01*
X0049210Y0042737D01*
X0049181Y0042791D01*
X0049148Y0042843D01*
X0049112Y0042892D01*
X0049073Y0042940D01*
X0049031Y0042985D01*
X0047821Y0042121D02*
X0047734Y0042034D01*
X0047820Y0042121D02*
X0047852Y0042150D01*
X0047886Y0042176D01*
X0047922Y0042198D01*
X0047959Y0042218D01*
X0047999Y0042235D01*
X0048039Y0042247D01*
X0048081Y0042257D01*
X0048123Y0042262D01*
X0048166Y0042264D01*
X0048209Y0042262D01*
X0048251Y0042257D01*
X0048293Y0042247D01*
X0048333Y0042235D01*
X0048373Y0042218D01*
X0048411Y0042198D01*
X0048446Y0042176D01*
X0048480Y0042150D01*
X0048512Y0042121D01*
X0047734Y0042034D02*
X0047701Y0041998D01*
X0047670Y0041959D01*
X0047643Y0041918D01*
X0047619Y0041875D01*
X0047599Y0041830D01*
X0047583Y0041784D01*
X0047570Y0041736D01*
X0047561Y0041688D01*
X0047556Y0041639D01*
X0047555Y0041590D01*
X0047558Y0041541D01*
X0047565Y0041492D01*
X0047576Y0041444D01*
X0047590Y0041397D01*
X0047609Y0041351D01*
X0047631Y0041307D01*
X0047656Y0041265D01*
X0047685Y0041225D01*
X0047717Y0041188D01*
X0047752Y0041153D01*
X0047789Y0041121D01*
X0047829Y0041092D01*
X0047871Y0041067D01*
X0047915Y0041045D01*
X0047961Y0041026D01*
X0048008Y0041012D01*
X0048056Y0041001D01*
X0048105Y0040994D01*
X0048154Y0040991D01*
X0048203Y0040992D01*
X0048252Y0040997D01*
X0048300Y0041006D01*
X0048348Y0041019D01*
X0048394Y0041035D01*
X0048439Y0041055D01*
X0048482Y0041079D01*
X0048523Y0041106D01*
X0048562Y0041137D01*
X0048598Y0041170D01*
X0057012Y0049523D02*
X0056494Y0050041D01*
X0056493Y0050041D02*
X0056464Y0050073D01*
X0056438Y0050107D01*
X0056416Y0050143D01*
X0056396Y0050180D01*
X0056379Y0050220D01*
X0056367Y0050260D01*
X0056357Y0050302D01*
X0056352Y0050344D01*
X0056350Y0050387D01*
X0056352Y0050430D01*
X0056357Y0050472D01*
X0056367Y0050514D01*
X0056379Y0050554D01*
X0056396Y0050594D01*
X0056416Y0050632D01*
X0056438Y0050667D01*
X0056464Y0050701D01*
X0056493Y0050733D01*
X0056494Y0050733D02*
X0056667Y0050906D01*
X0056666Y0050906D02*
X0056698Y0050935D01*
X0056732Y0050961D01*
X0056767Y0050983D01*
X0056805Y0051003D01*
X0056845Y0051020D01*
X0056885Y0051032D01*
X0056927Y0051042D01*
X0056969Y0051047D01*
X0057012Y0051049D01*
X0057055Y0051047D01*
X0057097Y0051042D01*
X0057139Y0051032D01*
X0057179Y0051020D01*
X0057219Y0051003D01*
X0057257Y0050983D01*
X0057292Y0050961D01*
X0057326Y0050935D01*
X0057358Y0050906D01*
X0057877Y0050387D01*
X0058568Y0051078D01*
X0057704Y0051943D01*
X0059663Y0049983D02*
X0058108Y0048428D01*
X0058540Y0047995D02*
X0057675Y0048860D01*
X0059750Y0049205D02*
X0059663Y0049983D01*
X0061180Y0048466D02*
X0061613Y0048034D01*
X0060057Y0046478D01*
X0060748Y0047170D02*
X0060316Y0047602D01*
X0060230Y0047688D02*
X0059193Y0047342D01*
X0060316Y0047602D02*
X0060283Y0047638D01*
X0060252Y0047677D01*
X0060225Y0047718D01*
X0060201Y0047761D01*
X0060181Y0047806D01*
X0060165Y0047852D01*
X0060152Y0047900D01*
X0060143Y0047948D01*
X0060138Y0047997D01*
X0060137Y0048046D01*
X0060140Y0048095D01*
X0060147Y0048144D01*
X0060158Y0048192D01*
X0060172Y0048239D01*
X0060191Y0048285D01*
X0060213Y0048329D01*
X0060238Y0048371D01*
X0060267Y0048411D01*
X0060299Y0048448D01*
X0060334Y0048483D01*
X0060371Y0048515D01*
X0060411Y0048544D01*
X0060453Y0048569D01*
X0060497Y0048591D01*
X0060543Y0048610D01*
X0060590Y0048624D01*
X0060638Y0048635D01*
X0060687Y0048642D01*
X0060736Y0048645D01*
X0060785Y0048644D01*
X0060834Y0048639D01*
X0060882Y0048630D01*
X0060930Y0048617D01*
X0060976Y0048601D01*
X0061021Y0048581D01*
X0061064Y0048557D01*
X0061105Y0048530D01*
X0061144Y0048499D01*
X0061180Y0048466D01*
X0062113Y0044781D02*
X0062614Y0043298D01*
X0062494Y0043146D02*
X0062467Y0043116D01*
X0062438Y0043088D01*
X0062407Y0043064D01*
X0062373Y0043042D01*
X0062338Y0043023D01*
X0062301Y0043007D01*
X0062263Y0042995D01*
X0062224Y0042986D01*
X0062184Y0042980D01*
X0062144Y0042978D01*
X0062104Y0042980D01*
X0062065Y0042985D01*
X0062026Y0042993D01*
X0061987Y0043005D01*
X0061950Y0043021D01*
X0061915Y0043039D01*
X0061881Y0043061D01*
X0061850Y0043085D01*
X0061820Y0043113D01*
X0061793Y0043142D01*
X0061769Y0043174D01*
X0061748Y0043208D01*
X0061730Y0043244D01*
X0061715Y0043281D01*
X0061704Y0043319D01*
X0061696Y0043359D01*
X0061691Y0043398D01*
X0061690Y0043438D01*
X0062494Y0043146D02*
X0062551Y0043205D01*
X0062607Y0043266D01*
X0062659Y0043329D01*
X0062708Y0043395D01*
X0062755Y0043463D01*
X0062798Y0043533D01*
X0062838Y0043605D01*
X0062874Y0043678D01*
X0062908Y0043753D01*
X0062938Y0043830D01*
X0061789Y0044248D02*
X0061763Y0044170D01*
X0061740Y0044091D01*
X0061721Y0044011D01*
X0061705Y0043930D01*
X0061694Y0043849D01*
X0061685Y0043767D01*
X0061681Y0043685D01*
X0061680Y0043603D01*
X0061683Y0043521D01*
X0061690Y0043439D01*
X0062938Y0043830D02*
X0062964Y0043908D01*
X0062987Y0043987D01*
X0063006Y0044067D01*
X0063022Y0044148D01*
X0063033Y0044229D01*
X0063042Y0044311D01*
X0063046Y0044393D01*
X0063047Y0044475D01*
X0063044Y0044557D01*
X0063037Y0044639D01*
X0062740Y0045073D02*
X0062701Y0045085D01*
X0062662Y0045093D01*
X0062623Y0045098D01*
X0062583Y0045100D01*
X0062543Y0045098D01*
X0062503Y0045092D01*
X0062464Y0045083D01*
X0062426Y0045071D01*
X0062389Y0045055D01*
X0062354Y0045036D01*
X0062320Y0045014D01*
X0062289Y0044990D01*
X0062260Y0044962D01*
X0062233Y0044932D01*
X0062740Y0045073D02*
X0062777Y0045057D01*
X0062812Y0045039D01*
X0062846Y0045017D01*
X0062877Y0044993D01*
X0062907Y0044965D01*
X0062934Y0044936D01*
X0062958Y0044904D01*
X0062979Y0044870D01*
X0062997Y0044834D01*
X0063012Y0044797D01*
X0063023Y0044759D01*
X0063031Y0044719D01*
X0063036Y0044680D01*
X0063037Y0044640D01*
X0062233Y0044932D02*
X0062176Y0044873D01*
X0062120Y0044812D01*
X0062068Y0044749D01*
X0062019Y0044683D01*
X0061972Y0044615D01*
X0061929Y0044545D01*
X0061889Y0044473D01*
X0061853Y0044400D01*
X0061819Y0044325D01*
X0061789Y0044248D01*
X0064033Y0043562D02*
X0064591Y0042058D01*
X0063443Y0042476D01*
X0065177Y0043666D02*
X0065176Y0043718D01*
X0065173Y0043770D01*
X0065165Y0043822D01*
X0065153Y0043873D01*
X0065138Y0043923D01*
X0065119Y0043972D01*
X0065096Y0044019D01*
X0065071Y0044064D01*
X0065041Y0044107D01*
X0065009Y0044149D01*
X0064974Y0044187D01*
X0064936Y0044223D01*
X0064895Y0044256D01*
X0064852Y0044286D01*
X0064807Y0044312D01*
X0064760Y0044336D01*
X0064712Y0044355D01*
X0064669Y0044369D01*
X0064624Y0044379D01*
X0064579Y0044385D01*
X0064534Y0044388D01*
X0064489Y0044387D01*
X0064443Y0044382D01*
X0064399Y0044374D01*
X0064355Y0044361D01*
X0064312Y0044346D01*
X0064271Y0044326D01*
X0064232Y0044304D01*
X0064194Y0044278D01*
X0064159Y0044249D01*
X0064126Y0044218D01*
X0064096Y0044184D01*
X0064069Y0044147D01*
X0064045Y0044109D01*
X0064024Y0044068D01*
X0064007Y0044026D01*
X0063992Y0043981D01*
X0063981Y0043934D01*
X0063974Y0043887D01*
X0063971Y0043839D01*
X0063972Y0043791D01*
X0063977Y0043743D01*
X0063985Y0043696D01*
X0063997Y0043650D01*
X0064013Y0043605D01*
X0064033Y0043561D01*
X0065459Y0041742D02*
X0066253Y0042494D01*
X0066368Y0042452D02*
X0066942Y0042243D01*
X0066368Y0042452D02*
X0066322Y0042471D01*
X0066279Y0042493D01*
X0066237Y0042519D01*
X0066197Y0042548D01*
X0066160Y0042580D01*
X0066125Y0042615D01*
X0066094Y0042652D01*
X0066065Y0042693D01*
X0066040Y0042735D01*
X0066018Y0042779D01*
X0066000Y0042825D01*
X0065986Y0042872D01*
X0065975Y0042920D01*
X0065969Y0042969D01*
X0065966Y0043018D01*
X0065967Y0043067D01*
X0065973Y0043116D01*
X0065982Y0043164D01*
X0065995Y0043212D01*
X0066012Y0043258D01*
X0066032Y0043303D01*
X0066056Y0043346D01*
X0066084Y0043386D01*
X0066114Y0043425D01*
X0066148Y0043461D01*
X0066184Y0043494D01*
X0066223Y0043524D01*
X0066264Y0043551D01*
X0066308Y0043574D01*
X0066353Y0043594D01*
X0066399Y0043611D01*
X0066447Y0043623D01*
X0066495Y0043632D01*
X0066544Y0043636D01*
X0066593Y0043637D01*
X0066642Y0043633D01*
X0066691Y0043626D01*
X0066739Y0043615D01*
X0066786Y0043600D01*
X0067360Y0043391D01*
X0066607Y0041324D01*
X0074752Y0037853D02*
X0075974Y0037853D01*
X0075486Y0039565D01*
X0075119Y0038342D02*
X0075119Y0037365D01*
X0076912Y0037365D02*
X0078134Y0037365D01*
X0077523Y0037365D02*
X0077523Y0039565D01*
X0078134Y0039076D01*
X0079669Y0039564D02*
X0079621Y0039562D01*
X0079573Y0039556D01*
X0079526Y0039547D01*
X0079480Y0039534D01*
X0079435Y0039517D01*
X0079392Y0039497D01*
X0079350Y0039474D01*
X0079310Y0039447D01*
X0079272Y0039418D01*
X0079237Y0039385D01*
X0079204Y0039350D01*
X0079175Y0039312D01*
X0079148Y0039272D01*
X0079125Y0039230D01*
X0079105Y0039187D01*
X0079088Y0039142D01*
X0079075Y0039096D01*
X0079066Y0039049D01*
X0079060Y0039001D01*
X0079058Y0038953D01*
X0079060Y0038905D01*
X0079066Y0038857D01*
X0079075Y0038810D01*
X0079088Y0038764D01*
X0079105Y0038719D01*
X0079125Y0038676D01*
X0079148Y0038634D01*
X0079175Y0038594D01*
X0079204Y0038556D01*
X0079237Y0038521D01*
X0079272Y0038488D01*
X0079310Y0038459D01*
X0079350Y0038432D01*
X0079392Y0038409D01*
X0079435Y0038389D01*
X0079480Y0038372D01*
X0079526Y0038359D01*
X0079573Y0038350D01*
X0079621Y0038344D01*
X0079669Y0038342D01*
X0080280Y0038342D01*
X0079547Y0038342D02*
X0079058Y0037365D01*
X0080280Y0037365D02*
X0080280Y0039565D01*
X0079669Y0039565D01*
X0080279Y0035628D02*
X0080279Y0033428D01*
X0080890Y0033428D02*
X0079668Y0033428D01*
X0077691Y0033734D02*
X0077657Y0033808D01*
X0077626Y0033884D01*
X0077599Y0033962D01*
X0077575Y0034041D01*
X0077554Y0034120D01*
X0077538Y0034201D01*
X0077525Y0034282D01*
X0077515Y0034364D01*
X0077510Y0034446D01*
X0077508Y0034528D01*
X0078730Y0034528D02*
X0078728Y0034610D01*
X0078723Y0034692D01*
X0078713Y0034774D01*
X0078700Y0034855D01*
X0078684Y0034936D01*
X0078663Y0035015D01*
X0078639Y0035094D01*
X0078612Y0035172D01*
X0078581Y0035248D01*
X0078547Y0035322D01*
X0078119Y0035627D02*
X0078079Y0035625D01*
X0078039Y0035620D01*
X0078000Y0035611D01*
X0077962Y0035599D01*
X0077925Y0035583D01*
X0077890Y0035565D01*
X0077856Y0035543D01*
X0077825Y0035518D01*
X0077796Y0035491D01*
X0077769Y0035461D01*
X0077745Y0035429D01*
X0077724Y0035395D01*
X0077706Y0035359D01*
X0077691Y0035322D01*
X0077630Y0035139D02*
X0078608Y0033916D01*
X0078119Y0033428D02*
X0078079Y0033430D01*
X0078039Y0033435D01*
X0078000Y0033444D01*
X0077962Y0033456D01*
X0077925Y0033472D01*
X0077890Y0033490D01*
X0077856Y0033512D01*
X0077825Y0033537D01*
X0077796Y0033564D01*
X0077769Y0033594D01*
X0077745Y0033626D01*
X0077724Y0033660D01*
X0077706Y0033696D01*
X0077691Y0033733D01*
X0078119Y0033428D02*
X0078159Y0033430D01*
X0078199Y0033435D01*
X0078238Y0033444D01*
X0078276Y0033456D01*
X0078313Y0033472D01*
X0078348Y0033490D01*
X0078382Y0033512D01*
X0078413Y0033537D01*
X0078442Y0033564D01*
X0078469Y0033594D01*
X0078493Y0033626D01*
X0078514Y0033660D01*
X0078532Y0033696D01*
X0078547Y0033733D01*
X0077508Y0034528D02*
X0077510Y0034610D01*
X0077515Y0034692D01*
X0077525Y0034774D01*
X0077538Y0034855D01*
X0077554Y0034936D01*
X0077575Y0035015D01*
X0077599Y0035094D01*
X0077626Y0035172D01*
X0077657Y0035248D01*
X0077691Y0035322D01*
X0078119Y0035627D02*
X0078159Y0035625D01*
X0078199Y0035620D01*
X0078238Y0035611D01*
X0078276Y0035599D01*
X0078313Y0035583D01*
X0078348Y0035565D01*
X0078382Y0035543D01*
X0078413Y0035518D01*
X0078442Y0035491D01*
X0078469Y0035461D01*
X0078493Y0035429D01*
X0078514Y0035395D01*
X0078532Y0035359D01*
X0078547Y0035322D01*
X0080279Y0035628D02*
X0080890Y0035139D01*
X0082425Y0035627D02*
X0082377Y0035625D01*
X0082329Y0035619D01*
X0082282Y0035610D01*
X0082236Y0035597D01*
X0082191Y0035580D01*
X0082148Y0035560D01*
X0082106Y0035537D01*
X0082066Y0035510D01*
X0082028Y0035481D01*
X0081993Y0035448D01*
X0081960Y0035413D01*
X0081931Y0035375D01*
X0081904Y0035335D01*
X0081881Y0035293D01*
X0081861Y0035250D01*
X0081844Y0035205D01*
X0081831Y0035159D01*
X0081822Y0035112D01*
X0081816Y0035064D01*
X0081814Y0035016D01*
X0081816Y0034968D01*
X0081822Y0034920D01*
X0081831Y0034873D01*
X0081844Y0034827D01*
X0081861Y0034782D01*
X0081881Y0034739D01*
X0081904Y0034697D01*
X0081931Y0034657D01*
X0081960Y0034619D01*
X0081993Y0034584D01*
X0082028Y0034551D01*
X0082066Y0034522D01*
X0082106Y0034495D01*
X0082148Y0034472D01*
X0082191Y0034452D01*
X0082236Y0034435D01*
X0082282Y0034422D01*
X0082329Y0034413D01*
X0082377Y0034407D01*
X0082425Y0034405D01*
X0083036Y0034405D01*
X0082303Y0034405D02*
X0081814Y0033428D01*
X0083036Y0033428D02*
X0083036Y0035628D01*
X0082425Y0035628D01*
X0078730Y0034528D02*
X0078728Y0034446D01*
X0078723Y0034364D01*
X0078713Y0034282D01*
X0078700Y0034201D01*
X0078684Y0034120D01*
X0078663Y0034041D01*
X0078639Y0033962D01*
X0078612Y0033884D01*
X0078581Y0033808D01*
X0078547Y0033734D01*
X0064576Y0030773D02*
X0063909Y0030773D01*
X0064576Y0030774D02*
X0064626Y0030772D01*
X0064675Y0030767D01*
X0064724Y0030757D01*
X0064773Y0030744D01*
X0064820Y0030728D01*
X0064865Y0030708D01*
X0064909Y0030685D01*
X0064952Y0030658D01*
X0064992Y0030628D01*
X0065030Y0030596D01*
X0065065Y0030561D01*
X0065097Y0030523D01*
X0065127Y0030483D01*
X0065154Y0030441D01*
X0065177Y0030396D01*
X0065197Y0030351D01*
X0065213Y0030304D01*
X0065226Y0030255D01*
X0065236Y0030206D01*
X0065241Y0030157D01*
X0065243Y0030107D01*
X0065241Y0030057D01*
X0065236Y0030008D01*
X0065226Y0029959D01*
X0065213Y0029910D01*
X0065197Y0029863D01*
X0065177Y0029818D01*
X0065154Y0029774D01*
X0065127Y0029731D01*
X0065097Y0029691D01*
X0065065Y0029653D01*
X0065030Y0029618D01*
X0064992Y0029586D01*
X0064952Y0029556D01*
X0064910Y0029529D01*
X0064865Y0029506D01*
X0064820Y0029486D01*
X0064773Y0029470D01*
X0064724Y0029457D01*
X0064675Y0029447D01*
X0064626Y0029442D01*
X0064576Y0029440D01*
X0063576Y0029440D01*
X0062416Y0030273D02*
X0062416Y0031607D01*
X0062083Y0031773D02*
X0062749Y0032440D01*
X0063576Y0032440D02*
X0064409Y0032440D01*
X0064466Y0032438D01*
X0064522Y0032432D01*
X0064578Y0032423D01*
X0064634Y0032409D01*
X0064688Y0032392D01*
X0064741Y0032371D01*
X0064792Y0032347D01*
X0064842Y0032319D01*
X0064889Y0032288D01*
X0064935Y0032253D01*
X0064978Y0032216D01*
X0065018Y0032176D01*
X0065055Y0032133D01*
X0065090Y0032087D01*
X0065121Y0032040D01*
X0065149Y0031990D01*
X0065173Y0031939D01*
X0065194Y0031886D01*
X0065211Y0031832D01*
X0065225Y0031776D01*
X0065234Y0031720D01*
X0065240Y0031664D01*
X0065242Y0031607D01*
X0065240Y0031550D01*
X0065234Y0031494D01*
X0065225Y0031438D01*
X0065211Y0031382D01*
X0065194Y0031328D01*
X0065173Y0031275D01*
X0065149Y0031224D01*
X0065121Y0031174D01*
X0065090Y0031127D01*
X0065055Y0031081D01*
X0065018Y0031038D01*
X0064978Y0030998D01*
X0064935Y0030961D01*
X0064889Y0030926D01*
X0064842Y0030895D01*
X0064792Y0030867D01*
X0064741Y0030843D01*
X0064688Y0030822D01*
X0064634Y0030805D01*
X0064578Y0030791D01*
X0064522Y0030782D01*
X0064466Y0030776D01*
X0064409Y0030774D01*
X0062416Y0030273D02*
X0062414Y0030216D01*
X0062408Y0030160D01*
X0062399Y0030104D01*
X0062385Y0030048D01*
X0062368Y0029994D01*
X0062347Y0029941D01*
X0062323Y0029890D01*
X0062295Y0029840D01*
X0062264Y0029793D01*
X0062229Y0029747D01*
X0062192Y0029704D01*
X0062152Y0029664D01*
X0062109Y0029627D01*
X0062063Y0029592D01*
X0062016Y0029561D01*
X0061966Y0029533D01*
X0061915Y0029509D01*
X0061862Y0029488D01*
X0061808Y0029471D01*
X0061752Y0029457D01*
X0061696Y0029448D01*
X0061640Y0029442D01*
X0061583Y0029440D01*
X0061526Y0029442D01*
X0061470Y0029448D01*
X0061414Y0029457D01*
X0061358Y0029471D01*
X0061304Y0029488D01*
X0061251Y0029509D01*
X0061200Y0029533D01*
X0061150Y0029561D01*
X0061103Y0029592D01*
X0061057Y0029627D01*
X0061014Y0029664D01*
X0060974Y0029704D01*
X0060937Y0029747D01*
X0060902Y0029793D01*
X0060871Y0029840D01*
X0060843Y0029890D01*
X0060819Y0029941D01*
X0060798Y0029994D01*
X0060781Y0030048D01*
X0060767Y0030104D01*
X0060758Y0030160D01*
X0060752Y0030216D01*
X0060750Y0030273D01*
X0060749Y0030273D02*
X0060749Y0031607D01*
X0060750Y0031607D02*
X0060752Y0031664D01*
X0060758Y0031720D01*
X0060767Y0031776D01*
X0060781Y0031832D01*
X0060798Y0031886D01*
X0060819Y0031939D01*
X0060843Y0031990D01*
X0060871Y0032040D01*
X0060902Y0032087D01*
X0060937Y0032133D01*
X0060974Y0032176D01*
X0061014Y0032216D01*
X0061057Y0032253D01*
X0061103Y0032288D01*
X0061150Y0032319D01*
X0061200Y0032347D01*
X0061251Y0032371D01*
X0061304Y0032392D01*
X0061358Y0032409D01*
X0061414Y0032423D01*
X0061470Y0032432D01*
X0061526Y0032438D01*
X0061583Y0032440D01*
X0061640Y0032438D01*
X0061696Y0032432D01*
X0061752Y0032423D01*
X0061808Y0032409D01*
X0061862Y0032392D01*
X0061915Y0032371D01*
X0061966Y0032347D01*
X0062016Y0032319D01*
X0062063Y0032288D01*
X0062109Y0032253D01*
X0062152Y0032216D01*
X0062192Y0032176D01*
X0062229Y0032133D01*
X0062264Y0032087D01*
X0062295Y0032040D01*
X0062323Y0031990D01*
X0062347Y0031939D01*
X0062368Y0031886D01*
X0062385Y0031832D01*
X0062399Y0031776D01*
X0062408Y0031720D01*
X0062414Y0031664D01*
X0062416Y0031607D01*
X0067054Y0056486D02*
X0068276Y0056486D01*
X0068276Y0056485D02*
X0068319Y0056487D01*
X0068361Y0056492D01*
X0068403Y0056502D01*
X0068443Y0056514D01*
X0068483Y0056531D01*
X0068520Y0056551D01*
X0068556Y0056573D01*
X0068590Y0056599D01*
X0068622Y0056628D01*
X0068651Y0056660D01*
X0068677Y0056694D01*
X0068699Y0056729D01*
X0068719Y0056767D01*
X0068736Y0056807D01*
X0068748Y0056847D01*
X0068758Y0056889D01*
X0068763Y0056931D01*
X0068765Y0056974D01*
X0068765Y0057463D01*
X0068765Y0058781D02*
X0067054Y0058292D01*
X0067054Y0059514D01*
X0067543Y0059147D02*
X0066565Y0059147D01*
X0066565Y0057463D02*
X0066565Y0056974D01*
X0066567Y0056931D01*
X0066572Y0056889D01*
X0066582Y0056847D01*
X0066594Y0056807D01*
X0066611Y0056767D01*
X0066631Y0056730D01*
X0066653Y0056694D01*
X0066679Y0056660D01*
X0066708Y0056628D01*
X0066740Y0056599D01*
X0066774Y0056573D01*
X0066810Y0056551D01*
X0066847Y0056531D01*
X0066887Y0056514D01*
X0066927Y0056502D01*
X0066969Y0056492D01*
X0067011Y0056487D01*
X0067054Y0056485D01*
X0062957Y0067379D02*
X0060757Y0067379D01*
X0061735Y0067379D02*
X0061735Y0067990D01*
X0061735Y0068113D02*
X0060757Y0068601D01*
X0060757Y0069769D02*
X0060759Y0069830D01*
X0060765Y0069892D01*
X0060774Y0069952D01*
X0060788Y0070012D01*
X0060805Y0070071D01*
X0060826Y0070129D01*
X0060850Y0070185D01*
X0060878Y0070240D01*
X0060909Y0070293D01*
X0060944Y0070344D01*
X0060981Y0070392D01*
X0061022Y0070438D01*
X0061066Y0070482D01*
X0061112Y0070523D01*
X0061160Y0070560D01*
X0061211Y0070595D01*
X0061264Y0070626D01*
X0061319Y0070654D01*
X0061375Y0070678D01*
X0061433Y0070699D01*
X0061492Y0070716D01*
X0061552Y0070730D01*
X0061612Y0070739D01*
X0061674Y0070745D01*
X0061735Y0070747D01*
X0062346Y0070747D01*
X0062394Y0070745D01*
X0062442Y0070739D01*
X0062489Y0070730D01*
X0062535Y0070717D01*
X0062580Y0070700D01*
X0062623Y0070680D01*
X0062665Y0070657D01*
X0062705Y0070630D01*
X0062743Y0070601D01*
X0062778Y0070568D01*
X0062811Y0070533D01*
X0062840Y0070495D01*
X0062867Y0070455D01*
X0062890Y0070413D01*
X0062910Y0070370D01*
X0062927Y0070325D01*
X0062940Y0070279D01*
X0062949Y0070232D01*
X0062955Y0070184D01*
X0062957Y0070136D01*
X0062955Y0070088D01*
X0062949Y0070040D01*
X0062940Y0069993D01*
X0062927Y0069947D01*
X0062910Y0069902D01*
X0062890Y0069859D01*
X0062867Y0069817D01*
X0062840Y0069777D01*
X0062811Y0069739D01*
X0062778Y0069704D01*
X0062743Y0069671D01*
X0062705Y0069642D01*
X0062665Y0069615D01*
X0062623Y0069592D01*
X0062580Y0069572D01*
X0062535Y0069555D01*
X0062489Y0069542D01*
X0062442Y0069533D01*
X0062394Y0069527D01*
X0062346Y0069525D01*
X0062224Y0069525D01*
X0062181Y0069527D01*
X0062139Y0069532D01*
X0062097Y0069542D01*
X0062057Y0069554D01*
X0062017Y0069571D01*
X0061980Y0069591D01*
X0061944Y0069613D01*
X0061910Y0069639D01*
X0061878Y0069668D01*
X0061849Y0069700D01*
X0061823Y0069734D01*
X0061801Y0069769D01*
X0061781Y0069807D01*
X0061764Y0069847D01*
X0061752Y0069887D01*
X0061742Y0069929D01*
X0061737Y0069971D01*
X0061735Y0070014D01*
X0061735Y0070747D01*
X0059414Y0070829D02*
X0059414Y0073029D01*
X0058803Y0073029D01*
X0058755Y0073027D01*
X0058707Y0073021D01*
X0058660Y0073012D01*
X0058614Y0072999D01*
X0058569Y0072982D01*
X0058526Y0072962D01*
X0058484Y0072939D01*
X0058444Y0072912D01*
X0058406Y0072883D01*
X0058371Y0072850D01*
X0058338Y0072815D01*
X0058309Y0072777D01*
X0058282Y0072737D01*
X0058259Y0072695D01*
X0058239Y0072652D01*
X0058222Y0072607D01*
X0058209Y0072561D01*
X0058200Y0072514D01*
X0058194Y0072466D01*
X0058192Y0072418D01*
X0058194Y0072370D01*
X0058200Y0072322D01*
X0058209Y0072275D01*
X0058222Y0072229D01*
X0058239Y0072184D01*
X0058259Y0072141D01*
X0058282Y0072099D01*
X0058309Y0072059D01*
X0058338Y0072021D01*
X0058371Y0071986D01*
X0058406Y0071953D01*
X0058444Y0071924D01*
X0058484Y0071897D01*
X0058526Y0071874D01*
X0058569Y0071854D01*
X0058614Y0071837D01*
X0058660Y0071824D01*
X0058707Y0071815D01*
X0058755Y0071809D01*
X0058803Y0071807D01*
X0059414Y0071807D01*
X0058681Y0071807D02*
X0058192Y0070829D01*
X0057268Y0070829D02*
X0056046Y0070829D01*
X0056657Y0070829D02*
X0056657Y0073029D01*
X0057268Y0072540D01*
X0057282Y0073970D02*
X0057282Y0076170D01*
X0057894Y0075681D01*
X0059428Y0076170D02*
X0059380Y0076168D01*
X0059332Y0076162D01*
X0059285Y0076153D01*
X0059239Y0076140D01*
X0059194Y0076123D01*
X0059151Y0076103D01*
X0059109Y0076080D01*
X0059069Y0076053D01*
X0059031Y0076024D01*
X0058996Y0075991D01*
X0058963Y0075956D01*
X0058934Y0075918D01*
X0058907Y0075878D01*
X0058884Y0075836D01*
X0058864Y0075793D01*
X0058847Y0075748D01*
X0058834Y0075702D01*
X0058825Y0075655D01*
X0058819Y0075607D01*
X0058817Y0075559D01*
X0058819Y0075511D01*
X0058825Y0075463D01*
X0058834Y0075416D01*
X0058847Y0075370D01*
X0058864Y0075325D01*
X0058884Y0075282D01*
X0058907Y0075240D01*
X0058934Y0075200D01*
X0058963Y0075162D01*
X0058996Y0075127D01*
X0059031Y0075094D01*
X0059069Y0075065D01*
X0059109Y0075038D01*
X0059151Y0075015D01*
X0059194Y0074995D01*
X0059239Y0074978D01*
X0059285Y0074965D01*
X0059332Y0074956D01*
X0059380Y0074950D01*
X0059428Y0074948D01*
X0060039Y0074948D01*
X0059306Y0074948D02*
X0058817Y0073970D01*
X0057894Y0073970D02*
X0056671Y0073970D01*
X0055489Y0073970D02*
X0055428Y0073972D01*
X0055366Y0073978D01*
X0055306Y0073987D01*
X0055246Y0074001D01*
X0055187Y0074018D01*
X0055129Y0074039D01*
X0055073Y0074063D01*
X0055018Y0074091D01*
X0054965Y0074122D01*
X0054914Y0074157D01*
X0054866Y0074194D01*
X0054820Y0074235D01*
X0054776Y0074279D01*
X0054735Y0074325D01*
X0054698Y0074373D01*
X0054663Y0074424D01*
X0054632Y0074477D01*
X0054604Y0074532D01*
X0054580Y0074588D01*
X0054559Y0074646D01*
X0054542Y0074705D01*
X0054528Y0074765D01*
X0054519Y0074825D01*
X0054513Y0074887D01*
X0054511Y0074948D01*
X0054511Y0075559D01*
X0054511Y0074948D02*
X0055245Y0074948D01*
X0055288Y0074950D01*
X0055330Y0074955D01*
X0055372Y0074965D01*
X0055412Y0074977D01*
X0055452Y0074994D01*
X0055490Y0075014D01*
X0055525Y0075036D01*
X0055559Y0075062D01*
X0055591Y0075091D01*
X0055620Y0075123D01*
X0055646Y0075157D01*
X0055668Y0075193D01*
X0055688Y0075230D01*
X0055705Y0075270D01*
X0055717Y0075310D01*
X0055727Y0075352D01*
X0055732Y0075394D01*
X0055734Y0075437D01*
X0055734Y0075559D01*
X0055733Y0075559D02*
X0055731Y0075607D01*
X0055725Y0075655D01*
X0055716Y0075702D01*
X0055703Y0075748D01*
X0055686Y0075793D01*
X0055666Y0075836D01*
X0055643Y0075878D01*
X0055616Y0075918D01*
X0055587Y0075956D01*
X0055554Y0075991D01*
X0055519Y0076024D01*
X0055481Y0076053D01*
X0055441Y0076080D01*
X0055399Y0076103D01*
X0055356Y0076123D01*
X0055311Y0076140D01*
X0055265Y0076153D01*
X0055218Y0076162D01*
X0055170Y0076168D01*
X0055122Y0076170D01*
X0055074Y0076168D01*
X0055026Y0076162D01*
X0054979Y0076153D01*
X0054933Y0076140D01*
X0054888Y0076123D01*
X0054845Y0076103D01*
X0054803Y0076080D01*
X0054763Y0076053D01*
X0054725Y0076024D01*
X0054690Y0075991D01*
X0054657Y0075956D01*
X0054628Y0075918D01*
X0054601Y0075878D01*
X0054578Y0075836D01*
X0054558Y0075793D01*
X0054541Y0075748D01*
X0054528Y0075702D01*
X0054519Y0075655D01*
X0054513Y0075607D01*
X0054511Y0075559D01*
X0053990Y0077499D02*
X0053531Y0077666D01*
X0053990Y0077498D02*
X0054030Y0077486D01*
X0054072Y0077476D01*
X0054114Y0077471D01*
X0054157Y0077469D01*
X0054200Y0077471D01*
X0054242Y0077476D01*
X0054284Y0077486D01*
X0054324Y0077498D01*
X0054364Y0077515D01*
X0054402Y0077535D01*
X0054437Y0077557D01*
X0054471Y0077583D01*
X0054503Y0077612D01*
X0054532Y0077644D01*
X0054558Y0077678D01*
X0054580Y0077714D01*
X0054600Y0077751D01*
X0054617Y0077791D01*
X0055035Y0078940D01*
X0055047Y0078980D01*
X0055057Y0079022D01*
X0055062Y0079064D01*
X0055064Y0079107D01*
X0055062Y0079150D01*
X0055057Y0079192D01*
X0055047Y0079234D01*
X0055035Y0079274D01*
X0055018Y0079314D01*
X0054998Y0079351D01*
X0054976Y0079387D01*
X0054950Y0079421D01*
X0054921Y0079453D01*
X0054889Y0079482D01*
X0054855Y0079508D01*
X0054820Y0079530D01*
X0054782Y0079550D01*
X0054742Y0079567D01*
X0054743Y0079566D02*
X0054283Y0079733D01*
X0053337Y0079557D02*
X0052930Y0080226D01*
X0052178Y0078159D01*
X0052752Y0077950D02*
X0051604Y0078368D01*
X0050722Y0078688D02*
X0049574Y0079106D01*
X0050722Y0078688D02*
X0050164Y0080192D01*
X0050843Y0080986D02*
X0050891Y0080967D01*
X0050938Y0080943D01*
X0050983Y0080917D01*
X0051026Y0080887D01*
X0051067Y0080854D01*
X0051105Y0080818D01*
X0051140Y0080780D01*
X0051172Y0080738D01*
X0051202Y0080695D01*
X0051227Y0080650D01*
X0051250Y0080603D01*
X0051269Y0080554D01*
X0051284Y0080504D01*
X0051296Y0080453D01*
X0051304Y0080401D01*
X0051307Y0080349D01*
X0051308Y0080297D01*
X0050164Y0080192D02*
X0050144Y0080236D01*
X0050128Y0080281D01*
X0050116Y0080327D01*
X0050108Y0080374D01*
X0050103Y0080422D01*
X0050102Y0080470D01*
X0050105Y0080518D01*
X0050112Y0080565D01*
X0050123Y0080612D01*
X0050138Y0080657D01*
X0050155Y0080699D01*
X0050176Y0080740D01*
X0050200Y0080778D01*
X0050227Y0080815D01*
X0050257Y0080849D01*
X0050290Y0080880D01*
X0050325Y0080909D01*
X0050363Y0080935D01*
X0050402Y0080957D01*
X0050443Y0080977D01*
X0050486Y0080992D01*
X0050530Y0081005D01*
X0050574Y0081013D01*
X0050620Y0081018D01*
X0050665Y0081019D01*
X0050710Y0081016D01*
X0050755Y0081010D01*
X0050800Y0081000D01*
X0050843Y0080986D01*
X0048390Y0077950D02*
X0047779Y0077950D01*
X0047731Y0077948D01*
X0047683Y0077942D01*
X0047636Y0077933D01*
X0047590Y0077920D01*
X0047545Y0077903D01*
X0047502Y0077883D01*
X0047460Y0077860D01*
X0047420Y0077833D01*
X0047382Y0077804D01*
X0047347Y0077771D01*
X0047314Y0077736D01*
X0047285Y0077698D01*
X0047258Y0077658D01*
X0047235Y0077616D01*
X0047215Y0077573D01*
X0047198Y0077528D01*
X0047185Y0077482D01*
X0047176Y0077435D01*
X0047170Y0077387D01*
X0047168Y0077339D01*
X0047170Y0077291D01*
X0047176Y0077243D01*
X0047185Y0077196D01*
X0047198Y0077150D01*
X0047215Y0077105D01*
X0047235Y0077062D01*
X0047258Y0077020D01*
X0047285Y0076980D01*
X0047314Y0076942D01*
X0047347Y0076907D01*
X0047382Y0076874D01*
X0047420Y0076845D01*
X0047460Y0076818D01*
X0047502Y0076795D01*
X0047545Y0076775D01*
X0047590Y0076758D01*
X0047636Y0076745D01*
X0047683Y0076736D01*
X0047731Y0076730D01*
X0047779Y0076728D01*
X0048390Y0076728D01*
X0047657Y0076728D02*
X0047168Y0075750D01*
X0046245Y0076362D02*
X0046245Y0076973D01*
X0045511Y0076973D01*
X0046245Y0076973D02*
X0046243Y0077034D01*
X0046237Y0077096D01*
X0046228Y0077156D01*
X0046214Y0077216D01*
X0046197Y0077275D01*
X0046176Y0077333D01*
X0046152Y0077389D01*
X0046124Y0077444D01*
X0046093Y0077497D01*
X0046058Y0077548D01*
X0046021Y0077596D01*
X0045980Y0077642D01*
X0045936Y0077686D01*
X0045890Y0077727D01*
X0045842Y0077764D01*
X0045791Y0077799D01*
X0045738Y0077830D01*
X0045683Y0077858D01*
X0045627Y0077882D01*
X0045569Y0077903D01*
X0045510Y0077920D01*
X0045450Y0077934D01*
X0045390Y0077943D01*
X0045328Y0077949D01*
X0045267Y0077951D01*
X0045511Y0076973D02*
X0045468Y0076971D01*
X0045426Y0076966D01*
X0045384Y0076956D01*
X0045344Y0076944D01*
X0045304Y0076927D01*
X0045267Y0076907D01*
X0045231Y0076885D01*
X0045197Y0076859D01*
X0045165Y0076830D01*
X0045136Y0076798D01*
X0045110Y0076764D01*
X0045088Y0076729D01*
X0045068Y0076691D01*
X0045051Y0076651D01*
X0045039Y0076611D01*
X0045029Y0076569D01*
X0045024Y0076527D01*
X0045022Y0076484D01*
X0045022Y0076362D01*
X0045024Y0076314D01*
X0045030Y0076266D01*
X0045039Y0076219D01*
X0045052Y0076173D01*
X0045069Y0076128D01*
X0045089Y0076085D01*
X0045112Y0076043D01*
X0045139Y0076003D01*
X0045168Y0075965D01*
X0045201Y0075930D01*
X0045236Y0075897D01*
X0045274Y0075868D01*
X0045314Y0075841D01*
X0045356Y0075818D01*
X0045399Y0075798D01*
X0045444Y0075781D01*
X0045490Y0075768D01*
X0045537Y0075759D01*
X0045585Y0075753D01*
X0045633Y0075751D01*
X0045681Y0075753D01*
X0045729Y0075759D01*
X0045776Y0075768D01*
X0045822Y0075781D01*
X0045867Y0075798D01*
X0045910Y0075818D01*
X0045952Y0075841D01*
X0045992Y0075868D01*
X0046030Y0075897D01*
X0046065Y0075930D01*
X0046098Y0075965D01*
X0046127Y0076003D01*
X0046154Y0076043D01*
X0046177Y0076085D01*
X0046197Y0076128D01*
X0046214Y0076173D01*
X0046227Y0076219D01*
X0046236Y0076266D01*
X0046242Y0076314D01*
X0046244Y0076362D01*
X0045516Y0074268D02*
X0045516Y0073291D01*
X0045514Y0073243D01*
X0045508Y0073195D01*
X0045499Y0073148D01*
X0045486Y0073102D01*
X0045469Y0073057D01*
X0045449Y0073014D01*
X0045426Y0072972D01*
X0045399Y0072932D01*
X0045370Y0072894D01*
X0045337Y0072859D01*
X0045302Y0072826D01*
X0045264Y0072797D01*
X0045224Y0072770D01*
X0045182Y0072747D01*
X0045139Y0072727D01*
X0045094Y0072710D01*
X0045048Y0072697D01*
X0045001Y0072688D01*
X0044953Y0072682D01*
X0044905Y0072680D01*
X0044857Y0072682D01*
X0044809Y0072688D01*
X0044762Y0072697D01*
X0044716Y0072710D01*
X0044671Y0072727D01*
X0044628Y0072747D01*
X0044586Y0072770D01*
X0044546Y0072797D01*
X0044508Y0072826D01*
X0044473Y0072859D01*
X0044440Y0072894D01*
X0044411Y0072932D01*
X0044384Y0072972D01*
X0044361Y0073014D01*
X0044341Y0073057D01*
X0044324Y0073102D01*
X0044311Y0073148D01*
X0044302Y0073195D01*
X0044296Y0073243D01*
X0044294Y0073291D01*
X0044294Y0074268D01*
X0044296Y0074316D01*
X0044302Y0074364D01*
X0044311Y0074411D01*
X0044324Y0074457D01*
X0044341Y0074502D01*
X0044361Y0074545D01*
X0044384Y0074587D01*
X0044411Y0074627D01*
X0044440Y0074665D01*
X0044473Y0074700D01*
X0044508Y0074733D01*
X0044546Y0074762D01*
X0044586Y0074789D01*
X0044628Y0074812D01*
X0044671Y0074832D01*
X0044716Y0074849D01*
X0044762Y0074862D01*
X0044809Y0074871D01*
X0044857Y0074877D01*
X0044905Y0074879D01*
X0044953Y0074877D01*
X0045001Y0074871D01*
X0045048Y0074862D01*
X0045094Y0074849D01*
X0045139Y0074832D01*
X0045182Y0074812D01*
X0045224Y0074789D01*
X0045264Y0074762D01*
X0045302Y0074733D01*
X0045337Y0074700D01*
X0045370Y0074665D01*
X0045399Y0074627D01*
X0045426Y0074587D01*
X0045449Y0074545D01*
X0045469Y0074502D01*
X0045486Y0074457D01*
X0045499Y0074411D01*
X0045508Y0074364D01*
X0045514Y0074316D01*
X0045516Y0074268D01*
X0044539Y0073168D02*
X0044050Y0072680D01*
X0042802Y0072680D02*
X0042191Y0074880D01*
X0043413Y0074880D01*
X0043413Y0074635D01*
X0048390Y0075750D02*
X0048390Y0077950D01*
X0045625Y0081484D02*
X0044683Y0082607D01*
X0044402Y0082372D02*
X0045244Y0083079D01*
X0046187Y0081955D01*
X0046646Y0082979D02*
X0046332Y0083353D01*
X0046332Y0083354D02*
X0046306Y0083389D01*
X0046282Y0083426D01*
X0046262Y0083465D01*
X0046246Y0083505D01*
X0046233Y0083547D01*
X0046224Y0083590D01*
X0046219Y0083634D01*
X0046218Y0083678D01*
X0046221Y0083722D01*
X0046228Y0083765D01*
X0046238Y0083807D01*
X0046253Y0083849D01*
X0046271Y0083889D01*
X0046292Y0083927D01*
X0046317Y0083963D01*
X0046345Y0083997D01*
X0046376Y0084028D01*
X0046410Y0084056D01*
X0046446Y0084081D01*
X0046484Y0084103D01*
X0046524Y0084121D01*
X0046565Y0084136D01*
X0046608Y0084147D01*
X0046651Y0084154D01*
X0046695Y0084157D01*
X0046739Y0084156D01*
X0046782Y0084151D01*
X0046825Y0084142D01*
X0046867Y0084130D01*
X0046908Y0084114D01*
X0046947Y0084094D01*
X0046984Y0084071D01*
X0047019Y0084044D01*
X0047052Y0084015D01*
X0047082Y0083982D01*
X0047081Y0083982D02*
X0047395Y0083607D01*
X0047396Y0083607D02*
X0047422Y0083572D01*
X0047446Y0083535D01*
X0047466Y0083496D01*
X0047482Y0083456D01*
X0047495Y0083414D01*
X0047504Y0083371D01*
X0047509Y0083327D01*
X0047510Y0083283D01*
X0047507Y0083239D01*
X0047500Y0083196D01*
X0047490Y0083154D01*
X0047475Y0083112D01*
X0047457Y0083072D01*
X0047436Y0083034D01*
X0047411Y0082998D01*
X0047383Y0082964D01*
X0047352Y0082933D01*
X0047318Y0082905D01*
X0047282Y0082880D01*
X0047244Y0082858D01*
X0047204Y0082840D01*
X0047163Y0082825D01*
X0047120Y0082814D01*
X0047077Y0082807D01*
X0047033Y0082804D01*
X0046989Y0082805D01*
X0046946Y0082810D01*
X0046903Y0082819D01*
X0046861Y0082831D01*
X0046820Y0082847D01*
X0046781Y0082867D01*
X0046744Y0082890D01*
X0046709Y0082917D01*
X0046676Y0082946D01*
X0046646Y0082979D01*
X0048321Y0083746D02*
X0048695Y0084060D01*
X0048696Y0084060D02*
X0048722Y0084084D01*
X0048746Y0084111D01*
X0048767Y0084140D01*
X0048786Y0084172D01*
X0048801Y0084204D01*
X0048812Y0084238D01*
X0048821Y0084273D01*
X0048826Y0084309D01*
X0048827Y0084345D01*
X0048825Y0084381D01*
X0048819Y0084417D01*
X0048810Y0084451D01*
X0048798Y0084485D01*
X0048782Y0084518D01*
X0048763Y0084548D01*
X0048741Y0084577D01*
X0048741Y0084576D02*
X0048269Y0085138D01*
X0048269Y0085139D02*
X0048245Y0085165D01*
X0048218Y0085189D01*
X0048189Y0085210D01*
X0048157Y0085229D01*
X0048125Y0085244D01*
X0048091Y0085255D01*
X0048056Y0085264D01*
X0048020Y0085269D01*
X0047984Y0085270D01*
X0047948Y0085268D01*
X0047912Y0085262D01*
X0047878Y0085253D01*
X0047844Y0085241D01*
X0047811Y0085225D01*
X0047781Y0085206D01*
X0047752Y0085184D01*
X0047753Y0085183D02*
X0047378Y0084869D01*
X0046118Y0086597D02*
X0044704Y0088282D01*
X0045486Y0088300D01*
X0047534Y0089220D02*
X0047585Y0089156D01*
X0047634Y0089090D01*
X0047679Y0089021D01*
X0047721Y0088951D01*
X0047760Y0088878D01*
X0047796Y0088804D01*
X0047828Y0088729D01*
X0047857Y0088652D01*
X0047882Y0088573D01*
X0047904Y0088494D01*
X0047833Y0088674D02*
X0046298Y0088982D01*
X0046227Y0089161D02*
X0046215Y0089199D01*
X0046205Y0089238D01*
X0046199Y0089278D01*
X0046197Y0089318D01*
X0046198Y0089358D01*
X0046203Y0089398D01*
X0046211Y0089437D01*
X0046223Y0089475D01*
X0046238Y0089512D01*
X0046256Y0089548D01*
X0046278Y0089582D01*
X0046302Y0089614D01*
X0046329Y0089643D01*
X0046358Y0089670D01*
X0046390Y0089695D01*
X0046424Y0089716D01*
X0046460Y0089734D01*
X0046497Y0089750D01*
X0046535Y0089761D01*
X0046574Y0089770D01*
X0046614Y0089775D01*
X0046654Y0089776D01*
X0046694Y0089774D01*
X0046733Y0089768D01*
X0046772Y0089759D01*
X0046810Y0089746D01*
X0046847Y0089730D01*
X0046882Y0089711D01*
X0049188Y0090609D02*
X0049239Y0090545D01*
X0049288Y0090479D01*
X0049333Y0090410D01*
X0049375Y0090340D01*
X0049414Y0090267D01*
X0049450Y0090193D01*
X0049482Y0090118D01*
X0049511Y0090041D01*
X0049536Y0089962D01*
X0049558Y0089883D01*
X0049488Y0090062D02*
X0047953Y0090370D01*
X0047882Y0090549D02*
X0047870Y0090587D01*
X0047860Y0090626D01*
X0047854Y0090666D01*
X0047852Y0090706D01*
X0047853Y0090746D01*
X0047858Y0090786D01*
X0047866Y0090825D01*
X0047878Y0090863D01*
X0047893Y0090900D01*
X0047911Y0090936D01*
X0047933Y0090970D01*
X0047957Y0091002D01*
X0047984Y0091031D01*
X0048013Y0091058D01*
X0048013Y0091059D02*
X0048045Y0091084D01*
X0048079Y0091105D01*
X0048115Y0091123D01*
X0048152Y0091139D01*
X0048190Y0091150D01*
X0048229Y0091159D01*
X0048269Y0091164D01*
X0048309Y0091165D01*
X0048349Y0091163D01*
X0048388Y0091157D01*
X0048427Y0091148D01*
X0048465Y0091135D01*
X0048502Y0091119D01*
X0048537Y0091100D01*
X0047882Y0090550D02*
X0047904Y0090471D01*
X0047929Y0090393D01*
X0047958Y0090316D01*
X0047990Y0090240D01*
X0048026Y0090166D01*
X0048065Y0090093D01*
X0048107Y0090023D01*
X0048152Y0089954D01*
X0048201Y0089888D01*
X0048252Y0089824D01*
X0047248Y0087945D02*
X0047174Y0087980D01*
X0047101Y0088019D01*
X0047030Y0088060D01*
X0046962Y0088105D01*
X0046895Y0088153D01*
X0046830Y0088204D01*
X0046768Y0088258D01*
X0046708Y0088315D01*
X0046651Y0088374D01*
X0046597Y0088436D01*
X0047534Y0089220D02*
X0047480Y0089282D01*
X0047423Y0089341D01*
X0047363Y0089398D01*
X0047301Y0089452D01*
X0047236Y0089503D01*
X0047169Y0089551D01*
X0047101Y0089596D01*
X0047030Y0089637D01*
X0046957Y0089676D01*
X0046883Y0089711D01*
X0048538Y0091100D02*
X0048612Y0091065D01*
X0048685Y0091026D01*
X0048756Y0090985D01*
X0048824Y0090940D01*
X0048891Y0090892D01*
X0048956Y0090841D01*
X0049018Y0090787D01*
X0049078Y0090730D01*
X0049135Y0090671D01*
X0049189Y0090609D01*
X0048252Y0089824D02*
X0048306Y0089762D01*
X0048363Y0089703D01*
X0048423Y0089646D01*
X0048485Y0089592D01*
X0048550Y0089541D01*
X0048617Y0089493D01*
X0048685Y0089448D01*
X0048756Y0089407D01*
X0048829Y0089368D01*
X0048903Y0089333D01*
X0049428Y0089374D02*
X0049457Y0089401D01*
X0049484Y0089430D01*
X0049508Y0089462D01*
X0049530Y0089496D01*
X0049548Y0089532D01*
X0049563Y0089569D01*
X0049575Y0089607D01*
X0049583Y0089646D01*
X0049588Y0089686D01*
X0049589Y0089726D01*
X0049587Y0089766D01*
X0049581Y0089806D01*
X0049572Y0089845D01*
X0049559Y0089883D01*
X0049428Y0089374D02*
X0049396Y0089349D01*
X0049362Y0089328D01*
X0049326Y0089310D01*
X0049289Y0089294D01*
X0049251Y0089283D01*
X0049212Y0089274D01*
X0049172Y0089269D01*
X0049132Y0089268D01*
X0049092Y0089270D01*
X0049053Y0089276D01*
X0049014Y0089285D01*
X0048976Y0089298D01*
X0048939Y0089314D01*
X0048904Y0089333D01*
X0046597Y0088435D02*
X0046546Y0088499D01*
X0046497Y0088565D01*
X0046452Y0088634D01*
X0046410Y0088704D01*
X0046371Y0088777D01*
X0046335Y0088851D01*
X0046303Y0088927D01*
X0046274Y0089004D01*
X0046249Y0089082D01*
X0046227Y0089161D01*
X0047904Y0088495D02*
X0047917Y0088457D01*
X0047926Y0088418D01*
X0047932Y0088378D01*
X0047934Y0088338D01*
X0047933Y0088298D01*
X0047928Y0088258D01*
X0047920Y0088219D01*
X0047908Y0088181D01*
X0047893Y0088144D01*
X0047875Y0088108D01*
X0047853Y0088074D01*
X0047829Y0088042D01*
X0047802Y0088013D01*
X0047773Y0087986D01*
X0047741Y0087961D01*
X0047707Y0087940D01*
X0047671Y0087922D01*
X0047634Y0087906D01*
X0047596Y0087895D01*
X0047557Y0087886D01*
X0047517Y0087881D01*
X0047477Y0087880D01*
X0047437Y0087882D01*
X0047398Y0087888D01*
X0047359Y0087897D01*
X0047321Y0087910D01*
X0047284Y0087926D01*
X0047249Y0087945D01*
X0046586Y0086990D02*
X0045650Y0086204D01*
X0044484Y0086023D02*
X0043462Y0087240D01*
X0042526Y0086455D02*
X0043547Y0085237D01*
X0043580Y0085201D01*
X0043616Y0085167D01*
X0043655Y0085137D01*
X0043695Y0085109D01*
X0043738Y0085085D01*
X0043783Y0085065D01*
X0043829Y0085048D01*
X0043877Y0085035D01*
X0043925Y0085026D01*
X0043974Y0085020D01*
X0044023Y0085019D01*
X0044072Y0085022D01*
X0044121Y0085028D01*
X0044169Y0085039D01*
X0044216Y0085053D01*
X0044262Y0085071D01*
X0044306Y0085093D01*
X0044348Y0085118D01*
X0044389Y0085147D01*
X0044426Y0085178D01*
X0044461Y0085213D01*
X0044493Y0085250D01*
X0044522Y0085290D01*
X0044548Y0085332D01*
X0044570Y0085376D01*
X0044589Y0085421D01*
X0044604Y0085468D01*
X0044615Y0085516D01*
X0044622Y0085564D01*
X0044626Y0085614D01*
X0044625Y0085663D01*
X0044621Y0085712D01*
X0044612Y0085760D01*
X0044600Y0085808D01*
X0044583Y0085854D01*
X0044563Y0085899D01*
X0044540Y0085943D01*
X0044513Y0085984D01*
X0044483Y0086023D01*
X0042236Y0083339D02*
X0041293Y0084463D01*
X0040731Y0083991D01*
X0040888Y0083804D01*
X0040514Y0083171D02*
X0040907Y0082703D01*
X0040671Y0082984D02*
X0039922Y0082355D01*
X0039765Y0082542D01*
X0039765Y0082543D02*
X0039739Y0082577D01*
X0039717Y0082613D01*
X0039697Y0082650D01*
X0039680Y0082690D01*
X0039668Y0082730D01*
X0039658Y0082772D01*
X0039653Y0082814D01*
X0039651Y0082857D01*
X0039653Y0082900D01*
X0039658Y0082942D01*
X0039668Y0082984D01*
X0039680Y0083024D01*
X0039697Y0083064D01*
X0039717Y0083102D01*
X0039739Y0083137D01*
X0039765Y0083171D01*
X0039794Y0083203D01*
X0039826Y0083232D01*
X0039860Y0083258D01*
X0039896Y0083280D01*
X0039933Y0083300D01*
X0039973Y0083317D01*
X0040013Y0083329D01*
X0040055Y0083339D01*
X0040097Y0083344D01*
X0040140Y0083346D01*
X0040183Y0083344D01*
X0040225Y0083339D01*
X0040267Y0083329D01*
X0040307Y0083317D01*
X0040347Y0083300D01*
X0040385Y0083280D01*
X0040420Y0083258D01*
X0040454Y0083232D01*
X0040486Y0083203D01*
X0040515Y0083171D01*
X0040907Y0082703D02*
X0040929Y0082674D01*
X0040948Y0082644D01*
X0040964Y0082611D01*
X0040976Y0082577D01*
X0040985Y0082543D01*
X0040991Y0082507D01*
X0040993Y0082471D01*
X0040992Y0082435D01*
X0040987Y0082399D01*
X0040978Y0082364D01*
X0040967Y0082330D01*
X0040952Y0082298D01*
X0040933Y0082266D01*
X0040912Y0082237D01*
X0040888Y0082210D01*
X0040862Y0082186D01*
X0040394Y0081793D01*
X0039389Y0080951D02*
X0038072Y0081760D01*
X0038821Y0082388D02*
X0039389Y0080951D01*
X0038368Y0080094D02*
X0037432Y0079308D01*
X0038368Y0080094D02*
X0036787Y0080362D01*
X0036439Y0081348D02*
X0036480Y0081380D01*
X0036523Y0081409D01*
X0036569Y0081434D01*
X0036616Y0081457D01*
X0036665Y0081475D01*
X0036715Y0081490D01*
X0036766Y0081502D01*
X0036818Y0081509D01*
X0036870Y0081513D01*
X0036922Y0081512D01*
X0036975Y0081508D01*
X0037026Y0081500D01*
X0037077Y0081489D01*
X0037127Y0081473D01*
X0037176Y0081454D01*
X0037223Y0081431D01*
X0037268Y0081405D01*
X0036787Y0080362D02*
X0036739Y0080367D01*
X0036692Y0080376D01*
X0036646Y0080388D01*
X0036601Y0080405D01*
X0036558Y0080424D01*
X0036516Y0080448D01*
X0036476Y0080474D01*
X0036438Y0080504D01*
X0036403Y0080537D01*
X0036371Y0080572D01*
X0036372Y0080572D02*
X0036344Y0080608D01*
X0036319Y0080647D01*
X0036298Y0080687D01*
X0036280Y0080728D01*
X0036265Y0080771D01*
X0036254Y0080816D01*
X0036247Y0080860D01*
X0036243Y0080906D01*
X0036244Y0080951D01*
X0036248Y0080997D01*
X0036255Y0081041D01*
X0036267Y0081085D01*
X0036282Y0081128D01*
X0036300Y0081170D01*
X0036322Y0081210D01*
X0036347Y0081248D01*
X0036375Y0081283D01*
X0036406Y0081317D01*
X0036439Y0081347D01*
X0041874Y0081527D02*
X0041876Y0081436D01*
X0041882Y0081345D01*
X0041892Y0081254D01*
X0041906Y0081164D01*
X0041924Y0081074D01*
X0041946Y0080986D01*
X0041971Y0080898D01*
X0042000Y0080812D01*
X0042034Y0080727D01*
X0042070Y0080643D01*
X0042111Y0080561D01*
X0042155Y0080481D01*
X0042202Y0080403D01*
X0042253Y0080327D01*
X0042307Y0080254D01*
X0042364Y0080183D01*
X0042364Y0080184D02*
X0042424Y0080115D01*
X0042487Y0080049D01*
X0042553Y0079986D01*
X0042621Y0079926D01*
X0042693Y0079869D01*
X0042766Y0079815D01*
X0042842Y0079764D01*
X0042920Y0079717D01*
X0043000Y0079673D01*
X0043082Y0079632D01*
X0043165Y0079596D01*
X0043250Y0079563D01*
X0043337Y0079533D01*
X0043424Y0079508D01*
X0043513Y0079486D01*
X0043602Y0079468D01*
X0045064Y0081012D02*
X0044357Y0081855D01*
X0044356Y0081855D02*
X0044334Y0081884D01*
X0044315Y0081914D01*
X0044299Y0081947D01*
X0044287Y0081981D01*
X0044278Y0082015D01*
X0044272Y0082051D01*
X0044270Y0082087D01*
X0044271Y0082123D01*
X0044276Y0082159D01*
X0044285Y0082194D01*
X0044296Y0082228D01*
X0044311Y0082260D01*
X0044330Y0082292D01*
X0044351Y0082321D01*
X0044375Y0082348D01*
X0044401Y0082372D01*
X0049526Y0084917D02*
X0049605Y0084823D01*
X0049698Y0084902D01*
X0049620Y0084995D01*
X0049526Y0084917D01*
X0050011Y0085802D02*
X0049697Y0086176D01*
X0049696Y0086177D02*
X0049670Y0086212D01*
X0049646Y0086249D01*
X0049626Y0086288D01*
X0049610Y0086328D01*
X0049597Y0086370D01*
X0049588Y0086413D01*
X0049583Y0086457D01*
X0049582Y0086501D01*
X0049585Y0086545D01*
X0049592Y0086588D01*
X0049602Y0086630D01*
X0049617Y0086672D01*
X0049635Y0086712D01*
X0049656Y0086750D01*
X0049681Y0086786D01*
X0049709Y0086820D01*
X0049740Y0086851D01*
X0049774Y0086879D01*
X0049810Y0086904D01*
X0049848Y0086926D01*
X0049888Y0086944D01*
X0049929Y0086959D01*
X0049972Y0086970D01*
X0050015Y0086977D01*
X0050059Y0086980D01*
X0050103Y0086979D01*
X0050146Y0086974D01*
X0050189Y0086965D01*
X0050231Y0086953D01*
X0050272Y0086937D01*
X0050311Y0086917D01*
X0050348Y0086894D01*
X0050383Y0086867D01*
X0050416Y0086838D01*
X0050446Y0086805D01*
X0050760Y0086430D01*
X0050786Y0086395D01*
X0050810Y0086358D01*
X0050830Y0086319D01*
X0050846Y0086279D01*
X0050859Y0086237D01*
X0050868Y0086194D01*
X0050873Y0086150D01*
X0050874Y0086106D01*
X0050871Y0086062D01*
X0050864Y0086019D01*
X0050854Y0085977D01*
X0050839Y0085935D01*
X0050821Y0085895D01*
X0050800Y0085857D01*
X0050775Y0085821D01*
X0050747Y0085787D01*
X0050716Y0085756D01*
X0050682Y0085728D01*
X0050646Y0085703D01*
X0050608Y0085681D01*
X0050568Y0085663D01*
X0050527Y0085648D01*
X0050484Y0085637D01*
X0050441Y0085630D01*
X0050397Y0085627D01*
X0050353Y0085628D01*
X0050310Y0085633D01*
X0050267Y0085642D01*
X0050225Y0085654D01*
X0050184Y0085670D01*
X0050145Y0085690D01*
X0050108Y0085713D01*
X0050073Y0085740D01*
X0050040Y0085769D01*
X0050010Y0085802D01*
X0050820Y0087438D02*
X0050663Y0087625D01*
X0051225Y0088097D01*
X0052167Y0086973D01*
X0052673Y0087876D02*
X0052202Y0088438D01*
X0052201Y0088438D02*
X0052179Y0088467D01*
X0052160Y0088497D01*
X0052144Y0088530D01*
X0052132Y0088564D01*
X0052123Y0088598D01*
X0052117Y0088634D01*
X0052115Y0088670D01*
X0052116Y0088706D01*
X0052121Y0088742D01*
X0052130Y0088777D01*
X0052141Y0088811D01*
X0052156Y0088843D01*
X0052175Y0088875D01*
X0052196Y0088904D01*
X0052220Y0088931D01*
X0052246Y0088955D01*
X0052247Y0088955D02*
X0052715Y0089347D01*
X0054129Y0087662D01*
X0053658Y0088224D02*
X0053189Y0087831D01*
X0053190Y0087831D02*
X0053161Y0087809D01*
X0053131Y0087790D01*
X0053098Y0087774D01*
X0053064Y0087762D01*
X0053030Y0087753D01*
X0052994Y0087747D01*
X0052958Y0087745D01*
X0052922Y0087746D01*
X0052886Y0087751D01*
X0052851Y0087760D01*
X0052817Y0087771D01*
X0052785Y0087786D01*
X0052753Y0087805D01*
X0052724Y0087826D01*
X0052697Y0087850D01*
X0052673Y0087876D01*
X0053467Y0089660D02*
X0053310Y0089847D01*
X0053872Y0090318D01*
X0054815Y0089195D01*
X0055490Y0089761D02*
X0055243Y0090910D01*
X0055767Y0090951D02*
X0054547Y0090885D01*
X0054824Y0092075D02*
X0056239Y0090390D01*
X0056060Y0091835D02*
X0055902Y0092022D01*
X0056464Y0092494D01*
X0057407Y0091370D01*
X0058082Y0091936D02*
X0057835Y0093086D01*
X0058359Y0093126D02*
X0057139Y0093060D01*
X0057417Y0094250D02*
X0058831Y0092565D01*
X0060592Y0093724D02*
X0060590Y0093816D01*
X0060584Y0093907D01*
X0060574Y0093997D01*
X0060560Y0094087D01*
X0060542Y0094177D01*
X0060520Y0094265D01*
X0060495Y0094353D01*
X0060466Y0094439D01*
X0060432Y0094524D01*
X0060396Y0094608D01*
X0060355Y0094690D01*
X0060311Y0094770D01*
X0060264Y0094848D01*
X0060213Y0094924D01*
X0060159Y0094997D01*
X0060102Y0095068D01*
X0060103Y0095068D02*
X0060043Y0095137D01*
X0059980Y0095203D01*
X0059914Y0095266D01*
X0059846Y0095326D01*
X0059774Y0095383D01*
X0059701Y0095437D01*
X0059625Y0095488D01*
X0059547Y0095535D01*
X0059467Y0095579D01*
X0059385Y0095620D01*
X0059302Y0095656D01*
X0059217Y0095689D01*
X0059130Y0095719D01*
X0059043Y0095744D01*
X0058954Y0095766D01*
X0058865Y0095784D01*
X0058496Y0096983D02*
X0057082Y0098669D01*
X0056804Y0097478D02*
X0058025Y0097545D01*
X0057501Y0097504D02*
X0057747Y0096355D01*
X0057072Y0095789D02*
X0056130Y0096912D01*
X0055568Y0096441D01*
X0055725Y0096254D01*
X0055396Y0095499D02*
X0054272Y0094556D01*
X0053475Y0094047D02*
X0053790Y0093672D01*
X0053816Y0093637D01*
X0053840Y0093600D01*
X0053860Y0093561D01*
X0053876Y0093521D01*
X0053889Y0093479D01*
X0053898Y0093436D01*
X0053903Y0093392D01*
X0053904Y0093348D01*
X0053901Y0093304D01*
X0053894Y0093261D01*
X0053884Y0093219D01*
X0053869Y0093177D01*
X0053851Y0093137D01*
X0053830Y0093099D01*
X0053805Y0093063D01*
X0053777Y0093029D01*
X0053746Y0092998D01*
X0053712Y0092970D01*
X0053676Y0092945D01*
X0053638Y0092923D01*
X0053598Y0092905D01*
X0053557Y0092890D01*
X0053514Y0092879D01*
X0053471Y0092872D01*
X0053427Y0092869D01*
X0053383Y0092870D01*
X0053340Y0092875D01*
X0053297Y0092884D01*
X0053255Y0092896D01*
X0053214Y0092912D01*
X0053175Y0092932D01*
X0053138Y0092955D01*
X0053103Y0092982D01*
X0053070Y0093011D01*
X0053040Y0093044D01*
X0053041Y0093044D02*
X0052726Y0093418D01*
X0052726Y0093419D02*
X0052700Y0093454D01*
X0052676Y0093491D01*
X0052656Y0093530D01*
X0052640Y0093570D01*
X0052627Y0093612D01*
X0052618Y0093655D01*
X0052613Y0093699D01*
X0052612Y0093743D01*
X0052615Y0093787D01*
X0052622Y0093830D01*
X0052632Y0093872D01*
X0052647Y0093914D01*
X0052665Y0093954D01*
X0052686Y0093992D01*
X0052711Y0094028D01*
X0052739Y0094062D01*
X0052770Y0094093D01*
X0052804Y0094121D01*
X0052840Y0094146D01*
X0052878Y0094168D01*
X0052918Y0094186D01*
X0052959Y0094201D01*
X0053002Y0094212D01*
X0053045Y0094219D01*
X0053089Y0094222D01*
X0053133Y0094221D01*
X0053176Y0094216D01*
X0053219Y0094207D01*
X0053261Y0094195D01*
X0053302Y0094179D01*
X0053341Y0094159D01*
X0053378Y0094136D01*
X0053413Y0094109D01*
X0053446Y0094080D01*
X0053476Y0094047D01*
X0051979Y0092632D02*
X0051668Y0092052D01*
X0051669Y0092052D02*
X0051654Y0092020D01*
X0051642Y0091987D01*
X0051635Y0091952D01*
X0051631Y0091917D01*
X0051632Y0091882D01*
X0051636Y0091847D01*
X0051644Y0091813D01*
X0051656Y0091780D01*
X0051671Y0091748D01*
X0051690Y0091718D01*
X0051712Y0091691D01*
X0051736Y0091666D01*
X0051764Y0091644D01*
X0051794Y0091625D01*
X0051825Y0091610D01*
X0051858Y0091598D01*
X0051893Y0091590D01*
X0051927Y0091586D01*
X0051963Y0091585D01*
X0051998Y0091589D01*
X0052032Y0091596D01*
X0052065Y0091608D01*
X0052097Y0091622D01*
X0052127Y0091641D01*
X0052155Y0091662D01*
X0051150Y0092574D02*
X0051182Y0092637D01*
X0051218Y0092699D01*
X0051257Y0092758D01*
X0051298Y0092815D01*
X0051343Y0092871D01*
X0051390Y0092923D01*
X0051440Y0092974D01*
X0051493Y0093021D01*
X0051493Y0093022D02*
X0051521Y0093043D01*
X0051551Y0093062D01*
X0051583Y0093076D01*
X0051616Y0093088D01*
X0051650Y0093095D01*
X0051685Y0093099D01*
X0051720Y0093098D01*
X0051755Y0093094D01*
X0051790Y0093086D01*
X0051823Y0093074D01*
X0051854Y0093059D01*
X0051884Y0093040D01*
X0051912Y0093018D01*
X0051936Y0092993D01*
X0051958Y0092966D01*
X0051977Y0092936D01*
X0051992Y0092904D01*
X0052004Y0092871D01*
X0052012Y0092837D01*
X0052016Y0092802D01*
X0052017Y0092767D01*
X0052013Y0092732D01*
X0052006Y0092697D01*
X0051994Y0092664D01*
X0051979Y0092632D01*
X0052591Y0092189D02*
X0052546Y0092115D01*
X0052498Y0092044D01*
X0052448Y0091975D01*
X0052394Y0091908D01*
X0052338Y0091843D01*
X0052279Y0091780D01*
X0052218Y0091720D01*
X0052154Y0091663D01*
X0051291Y0090937D02*
X0049599Y0091432D01*
X0050348Y0092061D02*
X0050542Y0090309D01*
X0057019Y0087079D02*
X0058168Y0086661D01*
X0057833Y0085742D01*
X0057144Y0085993D01*
X0057144Y0085994D02*
X0057104Y0086006D01*
X0057062Y0086016D01*
X0057020Y0086021D01*
X0056977Y0086023D01*
X0056934Y0086021D01*
X0056892Y0086016D01*
X0056850Y0086006D01*
X0056810Y0085994D01*
X0056770Y0085977D01*
X0056733Y0085957D01*
X0056697Y0085935D01*
X0056663Y0085909D01*
X0056631Y0085880D01*
X0056602Y0085848D01*
X0056576Y0085814D01*
X0056554Y0085779D01*
X0056534Y0085741D01*
X0056517Y0085701D01*
X0056518Y0085701D02*
X0056434Y0085471D01*
X0056433Y0085471D02*
X0056421Y0085431D01*
X0056411Y0085389D01*
X0056406Y0085347D01*
X0056404Y0085304D01*
X0056406Y0085261D01*
X0056411Y0085219D01*
X0056421Y0085177D01*
X0056433Y0085137D01*
X0056450Y0085097D01*
X0056470Y0085059D01*
X0056492Y0085024D01*
X0056518Y0084990D01*
X0056547Y0084958D01*
X0056579Y0084929D01*
X0056613Y0084903D01*
X0056648Y0084881D01*
X0056686Y0084861D01*
X0056726Y0084844D01*
X0056726Y0084845D02*
X0057415Y0084594D01*
X0058194Y0084310D02*
X0058653Y0084143D01*
X0058693Y0084131D01*
X0058735Y0084121D01*
X0058777Y0084116D01*
X0058820Y0084114D01*
X0058863Y0084116D01*
X0058905Y0084121D01*
X0058947Y0084131D01*
X0058987Y0084143D01*
X0059027Y0084160D01*
X0059065Y0084180D01*
X0059100Y0084202D01*
X0059134Y0084228D01*
X0059166Y0084257D01*
X0059195Y0084289D01*
X0059221Y0084323D01*
X0059243Y0084359D01*
X0059263Y0084396D01*
X0059280Y0084436D01*
X0059280Y0084435D02*
X0059698Y0085584D01*
X0059710Y0085624D01*
X0059720Y0085666D01*
X0059725Y0085708D01*
X0059727Y0085751D01*
X0059725Y0085794D01*
X0059720Y0085836D01*
X0059710Y0085878D01*
X0059698Y0085918D01*
X0059681Y0085958D01*
X0059661Y0085995D01*
X0059639Y0086031D01*
X0059613Y0086065D01*
X0059584Y0086097D01*
X0059552Y0086126D01*
X0059518Y0086152D01*
X0059483Y0086174D01*
X0059445Y0086194D01*
X0059405Y0086211D01*
X0059406Y0086211D02*
X0058946Y0086378D01*
X0058990Y0087350D02*
X0057842Y0087768D01*
X0058416Y0087559D02*
X0059168Y0089626D01*
X0059575Y0088958D01*
X0060462Y0088115D02*
X0061020Y0086611D01*
X0059871Y0087029D01*
X0061606Y0088219D02*
X0061605Y0088271D01*
X0061602Y0088323D01*
X0061594Y0088375D01*
X0061582Y0088426D01*
X0061567Y0088476D01*
X0061548Y0088525D01*
X0061525Y0088572D01*
X0061500Y0088617D01*
X0061470Y0088660D01*
X0061438Y0088702D01*
X0061403Y0088740D01*
X0061365Y0088776D01*
X0061324Y0088809D01*
X0061281Y0088839D01*
X0061236Y0088865D01*
X0061189Y0088889D01*
X0061141Y0088908D01*
X0061140Y0088908D02*
X0061097Y0088922D01*
X0061052Y0088932D01*
X0061007Y0088938D01*
X0060962Y0088941D01*
X0060917Y0088940D01*
X0060871Y0088935D01*
X0060827Y0088927D01*
X0060783Y0088914D01*
X0060740Y0088899D01*
X0060699Y0088879D01*
X0060660Y0088857D01*
X0060622Y0088831D01*
X0060587Y0088802D01*
X0060554Y0088771D01*
X0060524Y0088737D01*
X0060497Y0088700D01*
X0060473Y0088662D01*
X0060452Y0088621D01*
X0060435Y0088579D01*
X0060436Y0088579D02*
X0060421Y0088534D01*
X0060410Y0088487D01*
X0060403Y0088440D01*
X0060400Y0088392D01*
X0060401Y0088344D01*
X0060406Y0088296D01*
X0060414Y0088249D01*
X0060426Y0088203D01*
X0060442Y0088158D01*
X0060462Y0088114D01*
X0061888Y0086295D02*
X0062681Y0087047D01*
X0062796Y0087005D02*
X0063371Y0086796D01*
X0062796Y0087005D02*
X0062750Y0087024D01*
X0062707Y0087046D01*
X0062665Y0087072D01*
X0062625Y0087101D01*
X0062588Y0087133D01*
X0062553Y0087168D01*
X0062522Y0087205D01*
X0062493Y0087246D01*
X0062468Y0087288D01*
X0062446Y0087332D01*
X0062428Y0087378D01*
X0062414Y0087425D01*
X0062403Y0087473D01*
X0062397Y0087522D01*
X0062394Y0087571D01*
X0062395Y0087620D01*
X0062401Y0087669D01*
X0062410Y0087717D01*
X0062423Y0087765D01*
X0062440Y0087811D01*
X0062460Y0087856D01*
X0062484Y0087899D01*
X0062512Y0087939D01*
X0062542Y0087978D01*
X0062576Y0088014D01*
X0062612Y0088047D01*
X0062651Y0088077D01*
X0062692Y0088104D01*
X0062736Y0088127D01*
X0062781Y0088147D01*
X0062827Y0088164D01*
X0062875Y0088176D01*
X0062923Y0088185D01*
X0062972Y0088189D01*
X0063021Y0088190D01*
X0063070Y0088186D01*
X0063119Y0088179D01*
X0063167Y0088168D01*
X0063214Y0088153D01*
X0063789Y0087944D01*
X0063036Y0085877D01*
X0060039Y0076170D02*
X0059428Y0076170D01*
X0060039Y0076170D02*
X0060039Y0073970D01*
X0054986Y0072540D02*
X0054984Y0072497D01*
X0054979Y0072455D01*
X0054969Y0072413D01*
X0054957Y0072373D01*
X0054940Y0072333D01*
X0054920Y0072296D01*
X0054898Y0072260D01*
X0054872Y0072226D01*
X0054843Y0072194D01*
X0054811Y0072165D01*
X0054777Y0072139D01*
X0054742Y0072117D01*
X0054704Y0072097D01*
X0054664Y0072080D01*
X0054624Y0072068D01*
X0054582Y0072058D01*
X0054540Y0072053D01*
X0054497Y0072051D01*
X0054454Y0072053D01*
X0054412Y0072058D01*
X0054370Y0072068D01*
X0054330Y0072080D01*
X0054290Y0072097D01*
X0054253Y0072117D01*
X0054217Y0072139D01*
X0054183Y0072165D01*
X0054151Y0072194D01*
X0054122Y0072226D01*
X0054096Y0072260D01*
X0054074Y0072296D01*
X0054054Y0072333D01*
X0054037Y0072373D01*
X0054025Y0072413D01*
X0054015Y0072455D01*
X0054010Y0072497D01*
X0054008Y0072540D01*
X0054010Y0072583D01*
X0054015Y0072625D01*
X0054025Y0072667D01*
X0054037Y0072707D01*
X0054054Y0072747D01*
X0054074Y0072785D01*
X0054096Y0072820D01*
X0054122Y0072854D01*
X0054151Y0072886D01*
X0054183Y0072915D01*
X0054217Y0072941D01*
X0054253Y0072963D01*
X0054290Y0072983D01*
X0054330Y0073000D01*
X0054370Y0073012D01*
X0054412Y0073022D01*
X0054454Y0073027D01*
X0054497Y0073029D01*
X0054540Y0073027D01*
X0054582Y0073022D01*
X0054624Y0073012D01*
X0054664Y0073000D01*
X0054704Y0072983D01*
X0054742Y0072963D01*
X0054777Y0072941D01*
X0054811Y0072915D01*
X0054843Y0072886D01*
X0054872Y0072854D01*
X0054898Y0072820D01*
X0054920Y0072785D01*
X0054940Y0072747D01*
X0054957Y0072707D01*
X0054969Y0072667D01*
X0054979Y0072625D01*
X0054984Y0072583D01*
X0054986Y0072540D01*
X0055108Y0071440D02*
X0055106Y0071392D01*
X0055100Y0071344D01*
X0055091Y0071297D01*
X0055078Y0071251D01*
X0055061Y0071206D01*
X0055041Y0071163D01*
X0055018Y0071121D01*
X0054991Y0071081D01*
X0054962Y0071043D01*
X0054929Y0071008D01*
X0054894Y0070975D01*
X0054856Y0070946D01*
X0054816Y0070919D01*
X0054774Y0070896D01*
X0054731Y0070876D01*
X0054686Y0070859D01*
X0054640Y0070846D01*
X0054593Y0070837D01*
X0054545Y0070831D01*
X0054497Y0070829D01*
X0054449Y0070831D01*
X0054401Y0070837D01*
X0054354Y0070846D01*
X0054308Y0070859D01*
X0054263Y0070876D01*
X0054220Y0070896D01*
X0054178Y0070919D01*
X0054138Y0070946D01*
X0054100Y0070975D01*
X0054065Y0071008D01*
X0054032Y0071043D01*
X0054003Y0071081D01*
X0053976Y0071121D01*
X0053953Y0071163D01*
X0053933Y0071206D01*
X0053916Y0071251D01*
X0053903Y0071297D01*
X0053894Y0071344D01*
X0053888Y0071392D01*
X0053886Y0071440D01*
X0053888Y0071488D01*
X0053894Y0071536D01*
X0053903Y0071583D01*
X0053916Y0071629D01*
X0053933Y0071674D01*
X0053953Y0071717D01*
X0053976Y0071759D01*
X0054003Y0071799D01*
X0054032Y0071837D01*
X0054065Y0071872D01*
X0054100Y0071905D01*
X0054138Y0071934D01*
X0054178Y0071961D01*
X0054220Y0071984D01*
X0054263Y0072004D01*
X0054308Y0072021D01*
X0054354Y0072034D01*
X0054401Y0072043D01*
X0054449Y0072049D01*
X0054497Y0072051D01*
X0054545Y0072049D01*
X0054593Y0072043D01*
X0054640Y0072034D01*
X0054686Y0072021D01*
X0054731Y0072004D01*
X0054774Y0071984D01*
X0054816Y0071961D01*
X0054856Y0071934D01*
X0054894Y0071905D01*
X0054929Y0071872D01*
X0054962Y0071837D01*
X0054991Y0071799D01*
X0055018Y0071759D01*
X0055041Y0071717D01*
X0055061Y0071674D01*
X0055078Y0071629D01*
X0055091Y0071583D01*
X0055100Y0071536D01*
X0055106Y0071488D01*
X0055108Y0071440D01*
X0061735Y0067990D02*
X0061737Y0068038D01*
X0061743Y0068086D01*
X0061752Y0068133D01*
X0061765Y0068179D01*
X0061782Y0068224D01*
X0061802Y0068267D01*
X0061825Y0068309D01*
X0061852Y0068349D01*
X0061881Y0068387D01*
X0061914Y0068422D01*
X0061949Y0068455D01*
X0061987Y0068484D01*
X0062027Y0068511D01*
X0062069Y0068534D01*
X0062112Y0068554D01*
X0062157Y0068571D01*
X0062203Y0068584D01*
X0062250Y0068593D01*
X0062298Y0068599D01*
X0062346Y0068601D01*
X0062394Y0068599D01*
X0062442Y0068593D01*
X0062489Y0068584D01*
X0062535Y0068571D01*
X0062580Y0068554D01*
X0062623Y0068534D01*
X0062665Y0068511D01*
X0062705Y0068484D01*
X0062743Y0068455D01*
X0062778Y0068422D01*
X0062811Y0068387D01*
X0062840Y0068349D01*
X0062867Y0068309D01*
X0062890Y0068267D01*
X0062910Y0068224D01*
X0062927Y0068179D01*
X0062940Y0068133D01*
X0062949Y0068086D01*
X0062955Y0068038D01*
X0062957Y0067990D01*
X0062957Y0067379D01*
X0093985Y0044318D02*
X0093987Y0044380D01*
X0093993Y0044441D01*
X0094003Y0044502D01*
X0094017Y0044563D01*
X0094034Y0044622D01*
X0094055Y0044680D01*
X0094080Y0044736D01*
X0094109Y0044791D01*
X0094141Y0044844D01*
X0094176Y0044895D01*
X0094215Y0044943D01*
X0094257Y0044989D01*
X0094301Y0045032D01*
X0094348Y0045072D01*
X0094397Y0045109D01*
X0094449Y0045142D01*
X0094503Y0045173D01*
X0094559Y0045199D01*
X0094616Y0045223D01*
X0094675Y0045242D01*
X0094734Y0045258D01*
X0094795Y0045270D01*
X0094856Y0045278D01*
X0094918Y0045282D01*
X0094980Y0045282D01*
X0095042Y0045278D01*
X0095103Y0045270D01*
X0095164Y0045258D01*
X0095223Y0045242D01*
X0095282Y0045223D01*
X0095339Y0045199D01*
X0095395Y0045173D01*
X0095449Y0045142D01*
X0095501Y0045109D01*
X0095550Y0045072D01*
X0095597Y0045032D01*
X0095641Y0044989D01*
X0095683Y0044943D01*
X0095722Y0044895D01*
X0095757Y0044844D01*
X0095789Y0044791D01*
X0095818Y0044736D01*
X0095843Y0044680D01*
X0095864Y0044622D01*
X0095881Y0044563D01*
X0095895Y0044502D01*
X0095905Y0044441D01*
X0095911Y0044380D01*
X0095913Y0044318D01*
X0095911Y0044256D01*
X0095905Y0044195D01*
X0095895Y0044134D01*
X0095881Y0044073D01*
X0095864Y0044014D01*
X0095843Y0043956D01*
X0095818Y0043900D01*
X0095789Y0043845D01*
X0095757Y0043792D01*
X0095722Y0043741D01*
X0095683Y0043693D01*
X0095641Y0043647D01*
X0095597Y0043604D01*
X0095550Y0043564D01*
X0095501Y0043527D01*
X0095449Y0043494D01*
X0095395Y0043463D01*
X0095339Y0043437D01*
X0095282Y0043413D01*
X0095223Y0043394D01*
X0095164Y0043378D01*
X0095103Y0043366D01*
X0095042Y0043358D01*
X0094980Y0043354D01*
X0094918Y0043354D01*
X0094856Y0043358D01*
X0094795Y0043366D01*
X0094734Y0043378D01*
X0094675Y0043394D01*
X0094616Y0043413D01*
X0094559Y0043437D01*
X0094503Y0043463D01*
X0094449Y0043494D01*
X0094397Y0043527D01*
X0094348Y0043564D01*
X0094301Y0043604D01*
X0094257Y0043647D01*
X0094215Y0043693D01*
X0094176Y0043741D01*
X0094141Y0043792D01*
X0094109Y0043845D01*
X0094080Y0043900D01*
X0094055Y0043956D01*
X0094034Y0044014D01*
X0094017Y0044073D01*
X0094003Y0044134D01*
X0093993Y0044195D01*
X0093987Y0044256D01*
X0093985Y0044318D01*
X0131386Y0046406D02*
X0132052Y0045739D01*
X0132219Y0046072D02*
X0133552Y0046072D01*
X0133609Y0046070D01*
X0133665Y0046064D01*
X0133721Y0046055D01*
X0133777Y0046041D01*
X0133831Y0046024D01*
X0133884Y0046003D01*
X0133935Y0045979D01*
X0133985Y0045951D01*
X0134032Y0045920D01*
X0134078Y0045885D01*
X0134121Y0045848D01*
X0134161Y0045808D01*
X0134198Y0045765D01*
X0134233Y0045719D01*
X0134264Y0045672D01*
X0134292Y0045622D01*
X0134316Y0045571D01*
X0134337Y0045518D01*
X0134354Y0045464D01*
X0134368Y0045408D01*
X0134377Y0045352D01*
X0134383Y0045296D01*
X0134385Y0045239D01*
X0134383Y0045182D01*
X0134377Y0045126D01*
X0134368Y0045070D01*
X0134354Y0045014D01*
X0134337Y0044960D01*
X0134316Y0044907D01*
X0134292Y0044856D01*
X0134264Y0044806D01*
X0134233Y0044759D01*
X0134198Y0044713D01*
X0134161Y0044670D01*
X0134121Y0044630D01*
X0134078Y0044593D01*
X0134032Y0044558D01*
X0133985Y0044527D01*
X0133935Y0044499D01*
X0133884Y0044475D01*
X0133831Y0044454D01*
X0133777Y0044437D01*
X0133721Y0044423D01*
X0133665Y0044414D01*
X0133609Y0044408D01*
X0133552Y0044406D01*
X0132219Y0044406D01*
X0132162Y0044408D01*
X0132106Y0044414D01*
X0132050Y0044423D01*
X0131994Y0044437D01*
X0131940Y0044454D01*
X0131887Y0044475D01*
X0131836Y0044499D01*
X0131786Y0044527D01*
X0131739Y0044558D01*
X0131693Y0044593D01*
X0131650Y0044630D01*
X0131610Y0044670D01*
X0131573Y0044713D01*
X0131538Y0044759D01*
X0131507Y0044806D01*
X0131479Y0044856D01*
X0131455Y0044907D01*
X0131434Y0044960D01*
X0131417Y0045014D01*
X0131403Y0045070D01*
X0131394Y0045126D01*
X0131388Y0045182D01*
X0131386Y0045239D01*
X0131388Y0045296D01*
X0131394Y0045352D01*
X0131403Y0045408D01*
X0131417Y0045464D01*
X0131434Y0045518D01*
X0131455Y0045571D01*
X0131479Y0045622D01*
X0131507Y0045672D01*
X0131538Y0045719D01*
X0131573Y0045765D01*
X0131610Y0045808D01*
X0131650Y0045848D01*
X0131693Y0045885D01*
X0131739Y0045920D01*
X0131786Y0045951D01*
X0131836Y0045979D01*
X0131887Y0046003D01*
X0131940Y0046024D01*
X0131994Y0046041D01*
X0132050Y0046055D01*
X0132106Y0046064D01*
X0132162Y0046070D01*
X0132219Y0046072D01*
X0131386Y0047232D02*
X0131386Y0048898D01*
X0131386Y0048065D02*
X0134386Y0048065D01*
X0133719Y0047232D01*
D15*
X0105533Y0064383D02*
X0069277Y0077579D01*
X0076952Y0098666D01*
X0113208Y0085470D01*
X0105533Y0064383D01*
X0082014Y0015080D02*
X0080833Y0015080D01*
X0080833Y0006418D02*
X0082014Y0006418D01*
D16*
X0085045Y0015709D02*
X0085047Y0015736D01*
X0085053Y0015763D01*
X0085062Y0015789D01*
X0085075Y0015813D01*
X0085091Y0015836D01*
X0085110Y0015855D01*
X0085132Y0015872D01*
X0085156Y0015886D01*
X0085181Y0015896D01*
X0085208Y0015903D01*
X0085235Y0015906D01*
X0085263Y0015905D01*
X0085290Y0015900D01*
X0085316Y0015892D01*
X0085340Y0015880D01*
X0085363Y0015864D01*
X0085384Y0015846D01*
X0085401Y0015825D01*
X0085416Y0015801D01*
X0085427Y0015776D01*
X0085435Y0015750D01*
X0085439Y0015723D01*
X0085439Y0015695D01*
X0085435Y0015668D01*
X0085427Y0015642D01*
X0085416Y0015617D01*
X0085401Y0015593D01*
X0085384Y0015572D01*
X0085363Y0015554D01*
X0085341Y0015538D01*
X0085316Y0015526D01*
X0085290Y0015518D01*
X0085263Y0015513D01*
X0085235Y0015512D01*
X0085208Y0015515D01*
X0085181Y0015522D01*
X0085156Y0015532D01*
X0085132Y0015546D01*
X0085110Y0015563D01*
X0085091Y0015582D01*
X0085075Y0015605D01*
X0085062Y0015629D01*
X0085053Y0015655D01*
X0085047Y0015682D01*
X0085045Y0015709D01*
M02*
