G75*
%MOIN*%
%OFA0B0*%
%FSLAX25Y25*%
%IPPOS*%
%LPD*%
%AMOC8*
5,1,8,0,0,1.08239X$1,22.5*
%
%ADD10C,0.00004*%
%ADD11C,0.00000*%
%ADD12C,0.08858*%
%ADD13C,0.01000*%
%ADD14C,0.02775*%
%ADD15C,0.03169*%
%ADD16C,0.10630*%
D10*
X0053807Y0001002D02*
X0053811Y0001089D01*
X0053818Y0001176D01*
X0053829Y0001263D01*
X0053845Y0001349D01*
X0053863Y0001434D01*
X0053886Y0001518D01*
X0053912Y0001602D01*
X0053942Y0001684D01*
X0053976Y0001764D01*
X0054013Y0001843D01*
X0054054Y0001921D01*
X0054098Y0001996D01*
X0054145Y0002069D01*
X0054196Y0002141D01*
X0054249Y0002210D01*
X0054306Y0002276D01*
X0054366Y0002340D01*
X0054428Y0002401D01*
X0054493Y0002459D01*
X0054560Y0002515D01*
X0054630Y0002567D01*
X0054702Y0002617D01*
X0054777Y0002663D01*
X0054853Y0002705D01*
X0054931Y0002744D01*
X0055011Y0002780D01*
X0055092Y0002812D01*
X0055174Y0002841D01*
X0055258Y0002866D01*
X0055343Y0002887D01*
X0055428Y0002904D01*
X0055515Y0002918D01*
X0055602Y0002927D01*
X0055689Y0002933D01*
X0055776Y0002935D01*
X0055863Y0002933D01*
X0055950Y0002927D01*
X0056037Y0002918D01*
X0056124Y0002904D01*
X0056209Y0002887D01*
X0056294Y0002866D01*
X0056378Y0002841D01*
X0056460Y0002812D01*
X0056541Y0002780D01*
X0056621Y0002744D01*
X0056699Y0002705D01*
X0056775Y0002663D01*
X0056850Y0002617D01*
X0056922Y0002567D01*
X0056992Y0002515D01*
X0057059Y0002459D01*
X0057124Y0002401D01*
X0057186Y0002340D01*
X0057246Y0002276D01*
X0057303Y0002210D01*
X0057356Y0002141D01*
X0057407Y0002069D01*
X0057454Y0001996D01*
X0057498Y0001921D01*
X0057539Y0001843D01*
X0057576Y0001764D01*
X0057610Y0001684D01*
X0057640Y0001602D01*
X0057666Y0001518D01*
X0057689Y0001434D01*
X0057707Y0001349D01*
X0057723Y0001263D01*
X0057734Y0001176D01*
X0057741Y0001089D01*
X0057745Y0001002D01*
X0102557Y0032836D02*
X0104751Y0032037D01*
X0102557Y0032836D02*
X0102427Y0032885D01*
X0102298Y0032938D01*
X0102171Y0032995D01*
X0102045Y0033056D01*
X0101922Y0033119D01*
X0101800Y0033187D01*
X0101680Y0033258D01*
X0101562Y0033332D01*
X0101446Y0033409D01*
X0101333Y0033490D01*
X0101221Y0033574D01*
X0101113Y0033661D01*
X0101006Y0033751D01*
X0100903Y0033844D01*
X0100802Y0033940D01*
X0100703Y0034038D01*
X0100608Y0034140D01*
X0100515Y0034244D01*
X0100426Y0034351D01*
X0100339Y0034460D01*
X0100256Y0034571D01*
X0100176Y0034685D01*
X0100099Y0034801D01*
X0100025Y0034920D01*
X0099955Y0035040D01*
X0099888Y0035162D01*
X0099825Y0035286D01*
X0099765Y0035412D01*
X0099709Y0035539D01*
X0099657Y0035668D01*
X0099608Y0035799D01*
X0099563Y0035930D01*
X0099521Y0036063D01*
X0099484Y0036198D01*
X0099450Y0036333D01*
X0099420Y0036469D01*
X0099394Y0036605D01*
X0099372Y0036743D01*
X0099353Y0036881D01*
X0099339Y0037020D01*
X0099328Y0037158D01*
X0099322Y0037298D01*
X0099319Y0037437D01*
X0099320Y0037576D01*
X0099326Y0037715D01*
X0099335Y0037854D01*
X0099348Y0037993D01*
X0099365Y0038131D01*
X0099386Y0038269D01*
X0099411Y0038406D01*
X0099439Y0038542D01*
X0099472Y0038678D01*
X0099508Y0038812D01*
X0099549Y0038945D01*
X0099592Y0039077D01*
X0099640Y0039208D01*
X0099691Y0039338D01*
X0099746Y0039466D01*
X0099805Y0039592D01*
X0099867Y0039717D01*
X0099933Y0039840D01*
X0100002Y0039961D01*
X0100074Y0040080D01*
X0100150Y0040196D01*
X0100229Y0040311D01*
X0100311Y0040423D01*
X0100397Y0040533D01*
X0100485Y0040641D01*
X0100577Y0040746D01*
X0100671Y0040848D01*
X0100769Y0040948D01*
X0100869Y0041045D01*
X0100971Y0041139D01*
X0101077Y0041230D01*
X0101185Y0041318D01*
X0101295Y0041403D01*
X0101408Y0041484D01*
X0101523Y0041563D01*
X0101640Y0041638D01*
X0101759Y0041710D01*
X0101881Y0041779D01*
X0102004Y0041844D01*
X0102129Y0041905D01*
X0102255Y0041963D01*
X0102384Y0042017D01*
X0102513Y0042068D01*
X0102644Y0042115D01*
X0102777Y0042158D01*
X0102910Y0042198D01*
X0103045Y0042234D01*
X0103181Y0042266D01*
X0103317Y0042294D01*
X0103454Y0042318D01*
X0103592Y0042338D01*
X0103730Y0042355D01*
X0103869Y0042367D01*
X0104008Y0042376D01*
X0104147Y0042380D01*
X0104286Y0042381D01*
X0104426Y0042377D01*
X0104565Y0042370D01*
X0104704Y0042359D01*
X0104842Y0042344D01*
X0104980Y0042325D01*
X0105117Y0042302D01*
X0105254Y0042275D01*
X0105390Y0042245D01*
X0105525Y0042210D01*
X0105659Y0042172D01*
X0105792Y0042130D01*
X0105923Y0042084D01*
X0105923Y0042085D02*
X0108117Y0041286D01*
X0053808Y0001002D02*
X0052498Y0001065D01*
X0051190Y0001161D01*
X0049885Y0001287D01*
X0048583Y0001446D01*
X0047286Y0001636D01*
X0045994Y0001857D01*
X0044707Y0002110D01*
X0043427Y0002393D01*
X0042154Y0002708D01*
X0040889Y0003053D01*
X0039633Y0003429D01*
X0038386Y0003835D01*
X0037149Y0004271D01*
X0035924Y0004737D01*
X0034710Y0005233D01*
X0033508Y0005758D01*
X0032320Y0006312D01*
X0031145Y0006894D01*
X0029985Y0007505D01*
X0028840Y0008143D01*
X0027710Y0008810D01*
X0026597Y0009503D01*
X0025501Y0010223D01*
X0024423Y0010969D01*
X0023364Y0011742D01*
X0022323Y0012540D01*
X0021302Y0013362D01*
X0020301Y0014209D01*
X0019321Y0015081D01*
X0018363Y0015975D01*
X0017426Y0016893D01*
X0016512Y0017833D01*
X0015621Y0018795D01*
X0014753Y0019778D01*
X0013910Y0020782D01*
X0013091Y0021806D01*
X0012297Y0022850D01*
X0011529Y0023912D01*
X0010786Y0024993D01*
X0010070Y0026091D01*
X0009381Y0027207D01*
X0008719Y0028339D01*
X0008085Y0029486D01*
X0007479Y0030649D01*
X0006901Y0031826D01*
X0006351Y0033016D01*
X0005831Y0034220D01*
X0005340Y0035436D01*
X0004878Y0036663D01*
X0004447Y0037901D01*
X0004045Y0039150D01*
X0003674Y0040407D01*
X0003334Y0041673D01*
X0003024Y0042947D01*
X0002745Y0044229D01*
X0002497Y0045516D01*
X0002281Y0046809D01*
X0002096Y0048108D01*
X0001942Y0049410D01*
X0001820Y0050715D01*
X0001729Y0052023D01*
X0001671Y0053333D01*
X0001644Y0054644D01*
X0001649Y0055955D01*
X0001685Y0057266D01*
X0001754Y0058576D01*
X0001854Y0059883D01*
X0001985Y0061188D01*
X0002149Y0062489D01*
X0002343Y0063785D01*
X0002569Y0065077D01*
X0002827Y0066363D01*
X0003115Y0067642D01*
X0003434Y0068914D01*
X0005628Y0068115D01*
X0005628Y0068116D02*
X0005759Y0068070D01*
X0005892Y0068028D01*
X0006026Y0067990D01*
X0006161Y0067955D01*
X0006297Y0067925D01*
X0006434Y0067898D01*
X0006571Y0067875D01*
X0006709Y0067856D01*
X0006847Y0067841D01*
X0006986Y0067830D01*
X0007125Y0067823D01*
X0007265Y0067819D01*
X0007404Y0067820D01*
X0007543Y0067824D01*
X0007682Y0067833D01*
X0007821Y0067845D01*
X0007959Y0067862D01*
X0008097Y0067882D01*
X0008234Y0067906D01*
X0008370Y0067934D01*
X0008506Y0067966D01*
X0008641Y0068002D01*
X0008774Y0068042D01*
X0008907Y0068085D01*
X0009038Y0068132D01*
X0009167Y0068183D01*
X0009296Y0068237D01*
X0009422Y0068295D01*
X0009547Y0068356D01*
X0009670Y0068421D01*
X0009792Y0068490D01*
X0009911Y0068562D01*
X0010028Y0068637D01*
X0010143Y0068716D01*
X0010256Y0068797D01*
X0010366Y0068882D01*
X0010474Y0068970D01*
X0010580Y0069061D01*
X0010682Y0069155D01*
X0010782Y0069252D01*
X0010880Y0069352D01*
X0010974Y0069454D01*
X0011066Y0069559D01*
X0011154Y0069667D01*
X0011240Y0069777D01*
X0011322Y0069889D01*
X0011401Y0070004D01*
X0011477Y0070120D01*
X0011549Y0070239D01*
X0011618Y0070360D01*
X0011684Y0070483D01*
X0011746Y0070608D01*
X0011805Y0070734D01*
X0011860Y0070862D01*
X0011911Y0070992D01*
X0011959Y0071123D01*
X0012002Y0071255D01*
X0012043Y0071388D01*
X0012079Y0071522D01*
X0012112Y0071658D01*
X0012140Y0071794D01*
X0012165Y0071931D01*
X0012186Y0072069D01*
X0012203Y0072207D01*
X0012216Y0072346D01*
X0012225Y0072485D01*
X0012231Y0072624D01*
X0012232Y0072763D01*
X0012229Y0072902D01*
X0012223Y0073042D01*
X0012212Y0073180D01*
X0012198Y0073319D01*
X0012179Y0073457D01*
X0012157Y0073595D01*
X0012131Y0073731D01*
X0012101Y0073867D01*
X0012067Y0074002D01*
X0012030Y0074137D01*
X0011988Y0074270D01*
X0011943Y0074401D01*
X0011894Y0074532D01*
X0011842Y0074661D01*
X0011786Y0074788D01*
X0011726Y0074914D01*
X0011663Y0075038D01*
X0011596Y0075160D01*
X0011526Y0075280D01*
X0011452Y0075399D01*
X0011375Y0075515D01*
X0011295Y0075629D01*
X0011212Y0075740D01*
X0011125Y0075849D01*
X0011036Y0075956D01*
X0010943Y0076060D01*
X0010848Y0076162D01*
X0010749Y0076260D01*
X0010648Y0076356D01*
X0010545Y0076449D01*
X0010438Y0076539D01*
X0010330Y0076626D01*
X0010218Y0076710D01*
X0010105Y0076791D01*
X0009989Y0076868D01*
X0009871Y0076942D01*
X0009751Y0077013D01*
X0009629Y0077081D01*
X0009506Y0077144D01*
X0009380Y0077205D01*
X0009253Y0077262D01*
X0009124Y0077315D01*
X0008994Y0077364D01*
X0006800Y0078163D01*
X0007379Y0079354D01*
X0007986Y0080530D01*
X0008623Y0081691D01*
X0009287Y0082837D01*
X0009979Y0083965D01*
X0010699Y0085077D01*
X0011445Y0086170D01*
X0012219Y0087245D01*
X0013018Y0088301D01*
X0013843Y0089337D01*
X0014692Y0090352D01*
X0015567Y0091346D01*
X0016465Y0092319D01*
X0017387Y0093269D01*
X0018332Y0094196D01*
X0019299Y0095100D01*
X0020289Y0095981D01*
X0021299Y0096836D01*
X0022330Y0097667D01*
X0023381Y0098472D01*
X0024451Y0099251D01*
X0025541Y0100004D01*
X0026648Y0100730D01*
X0027773Y0101429D01*
X0028914Y0102100D01*
X0030071Y0102743D01*
X0031244Y0103357D01*
X0032432Y0103943D01*
X0033633Y0104499D01*
X0034848Y0105026D01*
X0036075Y0105523D01*
X0037314Y0105990D01*
X0038564Y0106426D01*
X0039825Y0106832D01*
X0041095Y0107206D01*
X0042373Y0107550D01*
X0043660Y0107862D01*
X0044954Y0108142D01*
X0046255Y0108391D01*
X0047561Y0108608D01*
X0048872Y0108793D01*
X0050187Y0108946D01*
X0051506Y0109066D01*
X0052827Y0109155D01*
X0054149Y0109211D01*
X0055473Y0109234D01*
X0056797Y0109225D01*
X0058121Y0109184D01*
X0059443Y0109111D01*
X0060763Y0109005D01*
X0062079Y0108867D01*
X0063392Y0108697D01*
X0064701Y0108494D01*
X0066004Y0108260D01*
X0067301Y0107994D01*
X0068591Y0107696D01*
X0069874Y0107367D01*
X0071148Y0107007D01*
X0072413Y0106615D01*
X0073667Y0106193D01*
X0074912Y0105740D01*
X0076144Y0105257D01*
X0077365Y0104744D01*
X0078573Y0104201D01*
X0079767Y0103629D01*
X0080946Y0103028D01*
X0082111Y0102398D01*
X0083260Y0101739D01*
X0084392Y0101053D01*
X0085507Y0100340D01*
X0086605Y0099599D01*
X0087684Y0098832D01*
X0088744Y0098038D01*
X0089784Y0097219D01*
X0090804Y0096375D01*
X0091803Y0095506D01*
X0092780Y0094613D01*
X0093736Y0093696D01*
X0094668Y0092756D01*
X0095577Y0091793D01*
X0096463Y0090809D01*
X0097324Y0089803D01*
X0098160Y0088777D01*
X0098971Y0087730D01*
X0099756Y0086664D01*
X0100515Y0085579D01*
X0101247Y0084476D01*
X0101952Y0083355D01*
X0102629Y0082217D01*
X0103278Y0081063D01*
X0103899Y0079894D01*
X0104491Y0078709D01*
X0105054Y0077511D01*
X0105587Y0076299D01*
X0106091Y0075074D01*
X0106564Y0073838D01*
X0107007Y0072590D01*
X0107419Y0071332D01*
X0107801Y0070064D01*
X0108151Y0068787D01*
X0108470Y0067502D01*
X0108758Y0066210D01*
X0109014Y0064911D01*
X0109238Y0063606D01*
X0109430Y0062296D01*
X0109590Y0060981D01*
X0109717Y0059663D01*
X0109813Y0058343D01*
X0109876Y0057020D01*
X0109907Y0055697D01*
X0109905Y0054373D01*
X0109871Y0053049D01*
X0109805Y0051727D01*
X0109706Y0050406D01*
X0109575Y0049089D01*
X0109412Y0047775D01*
X0109217Y0046465D01*
X0108990Y0045161D01*
X0108731Y0043862D01*
X0108440Y0042571D01*
X0108118Y0041286D01*
D11*
X0079527Y0083310D02*
X0079529Y0083379D01*
X0079535Y0083447D01*
X0079545Y0083515D01*
X0079559Y0083582D01*
X0079577Y0083649D01*
X0079598Y0083714D01*
X0079624Y0083778D01*
X0079653Y0083840D01*
X0079685Y0083900D01*
X0079721Y0083959D01*
X0079761Y0084015D01*
X0079803Y0084069D01*
X0079849Y0084120D01*
X0079898Y0084169D01*
X0079949Y0084215D01*
X0080003Y0084257D01*
X0080059Y0084297D01*
X0080117Y0084333D01*
X0080178Y0084365D01*
X0080240Y0084394D01*
X0080304Y0084420D01*
X0080369Y0084441D01*
X0080436Y0084459D01*
X0080503Y0084473D01*
X0080571Y0084483D01*
X0080639Y0084489D01*
X0080708Y0084491D01*
X0080777Y0084489D01*
X0080845Y0084483D01*
X0080913Y0084473D01*
X0080980Y0084459D01*
X0081047Y0084441D01*
X0081112Y0084420D01*
X0081176Y0084394D01*
X0081238Y0084365D01*
X0081298Y0084333D01*
X0081357Y0084297D01*
X0081413Y0084257D01*
X0081467Y0084215D01*
X0081518Y0084169D01*
X0081567Y0084120D01*
X0081613Y0084069D01*
X0081655Y0084015D01*
X0081695Y0083959D01*
X0081731Y0083900D01*
X0081763Y0083840D01*
X0081792Y0083778D01*
X0081818Y0083714D01*
X0081839Y0083649D01*
X0081857Y0083582D01*
X0081871Y0083515D01*
X0081881Y0083447D01*
X0081887Y0083379D01*
X0081889Y0083310D01*
X0081887Y0083241D01*
X0081881Y0083173D01*
X0081871Y0083105D01*
X0081857Y0083038D01*
X0081839Y0082971D01*
X0081818Y0082906D01*
X0081792Y0082842D01*
X0081763Y0082780D01*
X0081731Y0082719D01*
X0081695Y0082661D01*
X0081655Y0082605D01*
X0081613Y0082551D01*
X0081567Y0082500D01*
X0081518Y0082451D01*
X0081467Y0082405D01*
X0081413Y0082363D01*
X0081357Y0082323D01*
X0081299Y0082287D01*
X0081238Y0082255D01*
X0081176Y0082226D01*
X0081112Y0082200D01*
X0081047Y0082179D01*
X0080980Y0082161D01*
X0080913Y0082147D01*
X0080845Y0082137D01*
X0080777Y0082131D01*
X0080708Y0082129D01*
X0080639Y0082131D01*
X0080571Y0082137D01*
X0080503Y0082147D01*
X0080436Y0082161D01*
X0080369Y0082179D01*
X0080304Y0082200D01*
X0080240Y0082226D01*
X0080178Y0082255D01*
X0080117Y0082287D01*
X0080059Y0082323D01*
X0080003Y0082363D01*
X0079949Y0082405D01*
X0079898Y0082451D01*
X0079849Y0082500D01*
X0079803Y0082551D01*
X0079761Y0082605D01*
X0079721Y0082661D01*
X0079685Y0082719D01*
X0079653Y0082780D01*
X0079624Y0082842D01*
X0079598Y0082906D01*
X0079577Y0082971D01*
X0079559Y0083038D01*
X0079545Y0083105D01*
X0079535Y0083173D01*
X0079529Y0083241D01*
X0079527Y0083310D01*
X0053630Y0092736D02*
X0053632Y0092805D01*
X0053638Y0092873D01*
X0053648Y0092941D01*
X0053662Y0093008D01*
X0053680Y0093075D01*
X0053701Y0093140D01*
X0053727Y0093204D01*
X0053756Y0093266D01*
X0053788Y0093326D01*
X0053824Y0093385D01*
X0053864Y0093441D01*
X0053906Y0093495D01*
X0053952Y0093546D01*
X0054001Y0093595D01*
X0054052Y0093641D01*
X0054106Y0093683D01*
X0054162Y0093723D01*
X0054220Y0093759D01*
X0054281Y0093791D01*
X0054343Y0093820D01*
X0054407Y0093846D01*
X0054472Y0093867D01*
X0054539Y0093885D01*
X0054606Y0093899D01*
X0054674Y0093909D01*
X0054742Y0093915D01*
X0054811Y0093917D01*
X0054880Y0093915D01*
X0054948Y0093909D01*
X0055016Y0093899D01*
X0055083Y0093885D01*
X0055150Y0093867D01*
X0055215Y0093846D01*
X0055279Y0093820D01*
X0055341Y0093791D01*
X0055401Y0093759D01*
X0055460Y0093723D01*
X0055516Y0093683D01*
X0055570Y0093641D01*
X0055621Y0093595D01*
X0055670Y0093546D01*
X0055716Y0093495D01*
X0055758Y0093441D01*
X0055798Y0093385D01*
X0055834Y0093326D01*
X0055866Y0093266D01*
X0055895Y0093204D01*
X0055921Y0093140D01*
X0055942Y0093075D01*
X0055960Y0093008D01*
X0055974Y0092941D01*
X0055984Y0092873D01*
X0055990Y0092805D01*
X0055992Y0092736D01*
X0055990Y0092667D01*
X0055984Y0092599D01*
X0055974Y0092531D01*
X0055960Y0092464D01*
X0055942Y0092397D01*
X0055921Y0092332D01*
X0055895Y0092268D01*
X0055866Y0092206D01*
X0055834Y0092145D01*
X0055798Y0092087D01*
X0055758Y0092031D01*
X0055716Y0091977D01*
X0055670Y0091926D01*
X0055621Y0091877D01*
X0055570Y0091831D01*
X0055516Y0091789D01*
X0055460Y0091749D01*
X0055402Y0091713D01*
X0055341Y0091681D01*
X0055279Y0091652D01*
X0055215Y0091626D01*
X0055150Y0091605D01*
X0055083Y0091587D01*
X0055016Y0091573D01*
X0054948Y0091563D01*
X0054880Y0091557D01*
X0054811Y0091555D01*
X0054742Y0091557D01*
X0054674Y0091563D01*
X0054606Y0091573D01*
X0054539Y0091587D01*
X0054472Y0091605D01*
X0054407Y0091626D01*
X0054343Y0091652D01*
X0054281Y0091681D01*
X0054220Y0091713D01*
X0054162Y0091749D01*
X0054106Y0091789D01*
X0054052Y0091831D01*
X0054001Y0091877D01*
X0053952Y0091926D01*
X0053906Y0091977D01*
X0053864Y0092031D01*
X0053824Y0092087D01*
X0053788Y0092145D01*
X0053756Y0092206D01*
X0053727Y0092268D01*
X0053701Y0092332D01*
X0053680Y0092397D01*
X0053662Y0092464D01*
X0053648Y0092531D01*
X0053638Y0092599D01*
X0053632Y0092667D01*
X0053630Y0092736D01*
X0104750Y0032037D02*
X0104175Y0030853D01*
X0103571Y0029683D01*
X0102939Y0028529D01*
X0102279Y0027390D01*
X0101591Y0026267D01*
X0100877Y0025161D01*
X0100136Y0024074D01*
X0099368Y0023004D01*
X0098575Y0021954D01*
X0097756Y0020923D01*
X0096913Y0019912D01*
X0096045Y0018922D01*
X0095153Y0017954D01*
X0094238Y0017007D01*
X0093301Y0016083D01*
X0092341Y0015182D01*
X0091359Y0014305D01*
X0090357Y0013452D01*
X0089334Y0012623D01*
X0088291Y0011820D01*
X0087229Y0011042D01*
X0086148Y0010290D01*
X0085050Y0009565D01*
X0083934Y0008866D01*
X0082801Y0008195D01*
X0081653Y0007552D01*
X0080489Y0006937D01*
X0079311Y0006350D01*
X0078118Y0005792D01*
X0076913Y0005263D01*
X0075695Y0004764D01*
X0074465Y0004295D01*
X0073224Y0003855D01*
X0071973Y0003446D01*
X0070712Y0003068D01*
X0069442Y0002720D01*
X0068165Y0002403D01*
X0066880Y0002117D01*
X0065588Y0001863D01*
X0064291Y0001640D01*
X0062988Y0001449D01*
X0061681Y0001289D01*
X0060371Y0001161D01*
X0059058Y0001066D01*
X0057743Y0001002D01*
D12*
X0014856Y0038150D03*
X0096695Y0072050D03*
D13*
X0019846Y0018020D02*
X0014306Y0024340D01*
X0009866Y0031475D01*
X0006641Y0039236D01*
X0004718Y0047418D01*
X0004148Y0055802D01*
X0004946Y0064169D01*
X0005259Y0065587D01*
X0006160Y0065259D01*
X0009110Y0065388D01*
X0011787Y0066636D01*
X0013782Y0068813D01*
X0013782Y0068813D01*
X0014792Y0071588D01*
X0014792Y0071588D01*
X0014663Y0074539D01*
X0013644Y0076724D01*
X0013869Y0076498D01*
X0015004Y0076028D01*
X0016232Y0076028D01*
X0017367Y0076498D01*
X0018235Y0077367D01*
X0018705Y0078502D01*
X0018705Y0079730D01*
X0018235Y0080865D01*
X0017367Y0081733D01*
X0016232Y0082203D01*
X0015004Y0082203D01*
X0013869Y0081733D01*
X0013001Y0080865D01*
X0012531Y0079730D01*
X0012531Y0078502D01*
X0012849Y0077734D01*
X0011238Y0079210D01*
X0011238Y0079210D01*
X0010338Y0079538D01*
X0011028Y0080858D01*
X0015847Y0087835D01*
X0021744Y0093929D01*
X0028558Y0098976D01*
X0036107Y0102839D01*
X0044048Y0105371D01*
X0044027Y0105320D01*
X0044027Y0104092D01*
X0044497Y0102957D01*
X0045365Y0102089D01*
X0046500Y0101619D01*
X0047728Y0101619D01*
X0048761Y0102047D01*
X0048761Y0099965D01*
X0049829Y0097386D01*
X0051802Y0095413D01*
X0052141Y0095272D01*
X0051690Y0094821D01*
X0051130Y0093468D01*
X0051130Y0092004D01*
X0051690Y0090651D01*
X0052726Y0089615D01*
X0054078Y0089055D01*
X0055543Y0089055D01*
X0056896Y0089615D01*
X0057931Y0090651D01*
X0058492Y0092004D01*
X0058492Y0093468D01*
X0057988Y0094683D01*
X0059749Y0095413D01*
X0061723Y0097386D01*
X0061783Y0097533D01*
X0061820Y0097446D01*
X0062688Y0096577D01*
X0063823Y0096107D01*
X0065051Y0096107D01*
X0066186Y0096577D01*
X0067054Y0097446D01*
X0067524Y0098580D01*
X0067524Y0099809D01*
X0067054Y0100943D01*
X0066186Y0101812D01*
X0065051Y0102282D01*
X0063823Y0102282D01*
X0062791Y0101854D01*
X0062791Y0102755D01*
X0061723Y0105334D01*
X0060585Y0106472D01*
X0061056Y0106462D01*
X0069391Y0104905D01*
X0077360Y0102005D01*
X0084746Y0097840D01*
X0091350Y0092521D01*
X0096996Y0086194D01*
X0101529Y0079028D01*
X0104828Y0071216D01*
X0106805Y0062970D01*
X0107404Y0054511D01*
X0106612Y0046069D01*
X0106291Y0044614D01*
X0105391Y0044941D01*
X0102441Y0044812D01*
X0099765Y0043564D01*
X0099765Y0043564D01*
X0097770Y0041387D01*
X0096759Y0038612D01*
X0096759Y0038612D01*
X0096888Y0035661D01*
X0098136Y0032985D01*
X0100314Y0030990D01*
X0101220Y0030660D01*
X0100629Y0029522D01*
X0096099Y0022850D01*
X0090586Y0016965D01*
X0084224Y0012010D01*
X0077169Y0008107D01*
X0069591Y0005349D01*
X0061676Y0003804D01*
X0060577Y0003721D01*
X0061723Y0004867D01*
X0062791Y0007445D01*
X0062791Y0010236D01*
X0061723Y0012814D01*
X0059749Y0014787D01*
X0057171Y0015855D01*
X0054380Y0015855D01*
X0051802Y0014787D01*
X0049829Y0012814D01*
X0049010Y0010836D01*
X0048887Y0010887D01*
X0048564Y0010887D01*
X0048157Y0011870D01*
X0047347Y0012680D01*
X0047812Y0013145D01*
X0048282Y0014280D01*
X0048282Y0015508D01*
X0047812Y0016643D01*
X0046943Y0017511D01*
X0045809Y0017981D01*
X0045617Y0017981D01*
X0045171Y0019057D01*
X0044302Y0019925D01*
X0043168Y0020396D01*
X0041939Y0020396D01*
X0040805Y0019925D01*
X0039936Y0019057D01*
X0039466Y0017922D01*
X0039466Y0016694D01*
X0039936Y0015559D01*
X0040805Y0014691D01*
X0041939Y0014221D01*
X0042132Y0014221D01*
X0042577Y0013145D01*
X0043387Y0012335D01*
X0042922Y0011870D01*
X0042452Y0010735D01*
X0042452Y0009507D01*
X0042922Y0008372D01*
X0043790Y0007504D01*
X0044925Y0007034D01*
X0045249Y0007034D01*
X0045656Y0006051D01*
X0046524Y0005182D01*
X0047659Y0004712D01*
X0048887Y0004712D01*
X0049745Y0005068D01*
X0049829Y0004867D01*
X0050966Y0003729D01*
X0049705Y0003826D01*
X0041468Y0005490D01*
X0033609Y0008469D01*
X0026337Y0012683D01*
X0019846Y0018020D01*
X0019728Y0018155D02*
X0025700Y0018155D01*
X0025491Y0018659D02*
X0025491Y0019887D01*
X0025961Y0021022D01*
X0026830Y0021891D01*
X0027965Y0022361D01*
X0029193Y0022361D01*
X0030328Y0021891D01*
X0030907Y0021311D01*
X0031539Y0021573D01*
X0032768Y0021573D01*
X0033902Y0021103D01*
X0034771Y0020235D01*
X0035241Y0019100D01*
X0035241Y0017872D01*
X0034771Y0016737D01*
X0033902Y0015868D01*
X0032768Y0015398D01*
X0031539Y0015398D01*
X0030405Y0015868D01*
X0029825Y0016448D01*
X0029193Y0016186D01*
X0027965Y0016186D01*
X0026830Y0016656D01*
X0025961Y0017524D01*
X0025491Y0018659D01*
X0025491Y0019154D02*
X0018853Y0019154D01*
X0017977Y0020152D02*
X0025601Y0020152D01*
X0026090Y0021151D02*
X0017102Y0021151D01*
X0016227Y0022149D02*
X0027454Y0022149D01*
X0029703Y0022149D02*
X0035905Y0022149D01*
X0035728Y0022577D02*
X0036198Y0021442D01*
X0037066Y0020574D01*
X0038201Y0020104D01*
X0039429Y0020104D01*
X0040564Y0020574D01*
X0041432Y0021442D01*
X0041902Y0022577D01*
X0041902Y0023805D01*
X0041432Y0024940D01*
X0040564Y0025809D01*
X0039429Y0026279D01*
X0038201Y0026279D01*
X0037066Y0025809D01*
X0036198Y0024940D01*
X0035728Y0023805D01*
X0035728Y0022577D01*
X0035728Y0023148D02*
X0015352Y0023148D01*
X0014477Y0024146D02*
X0035869Y0024146D01*
X0036402Y0025145D02*
X0013806Y0025145D01*
X0013184Y0026143D02*
X0037874Y0026143D01*
X0039756Y0026143D02*
X0098335Y0026143D01*
X0097657Y0025145D02*
X0041228Y0025145D01*
X0041761Y0024146D02*
X0096979Y0024146D01*
X0096301Y0023148D02*
X0088157Y0023148D01*
X0087975Y0023330D02*
X0086840Y0023800D01*
X0085612Y0023800D01*
X0084477Y0023330D01*
X0083608Y0022462D01*
X0083138Y0021327D01*
X0083138Y0020099D01*
X0083608Y0018964D01*
X0084477Y0018096D01*
X0085612Y0017626D01*
X0086840Y0017626D01*
X0087975Y0018096D01*
X0088843Y0018964D01*
X0089313Y0020099D01*
X0089313Y0021327D01*
X0088843Y0022462D01*
X0087975Y0023330D01*
X0088973Y0022149D02*
X0095443Y0022149D01*
X0094507Y0021151D02*
X0089313Y0021151D01*
X0089313Y0020152D02*
X0093572Y0020152D01*
X0092636Y0019154D02*
X0088922Y0019154D01*
X0088034Y0018155D02*
X0091701Y0018155D01*
X0090766Y0017157D02*
X0081741Y0017157D01*
X0081790Y0017039D02*
X0081320Y0018174D01*
X0080452Y0019042D01*
X0079317Y0019512D01*
X0078089Y0019512D01*
X0076954Y0019042D01*
X0076085Y0018174D01*
X0075615Y0017039D01*
X0075615Y0015811D01*
X0076085Y0014676D01*
X0076954Y0013807D01*
X0078089Y0013337D01*
X0079317Y0013337D01*
X0080452Y0013807D01*
X0081320Y0014676D01*
X0081790Y0015811D01*
X0081790Y0017039D01*
X0081790Y0016158D02*
X0089550Y0016158D01*
X0090586Y0016965D02*
X0090586Y0016965D01*
X0088268Y0015160D02*
X0081520Y0015160D01*
X0080805Y0014161D02*
X0086986Y0014161D01*
X0085704Y0013163D02*
X0061374Y0013163D01*
X0061992Y0012164D02*
X0084422Y0012164D01*
X0082697Y0011166D02*
X0062405Y0011166D01*
X0062791Y0010167D02*
X0080893Y0010167D01*
X0079088Y0009169D02*
X0062791Y0009169D01*
X0062791Y0008170D02*
X0077283Y0008170D01*
X0074599Y0007171D02*
X0062677Y0007171D01*
X0062264Y0006173D02*
X0071856Y0006173D01*
X0068698Y0005174D02*
X0061850Y0005174D01*
X0061032Y0004176D02*
X0063580Y0004176D01*
X0060375Y0014161D02*
X0076600Y0014161D01*
X0075885Y0015160D02*
X0058850Y0015160D01*
X0052701Y0015160D02*
X0048282Y0015160D01*
X0048233Y0014161D02*
X0051176Y0014161D01*
X0050177Y0013163D02*
X0047819Y0013163D01*
X0047863Y0012164D02*
X0049559Y0012164D01*
X0049146Y0011166D02*
X0048449Y0011166D01*
X0044593Y0007171D02*
X0037032Y0007171D01*
X0039666Y0006173D02*
X0045605Y0006173D01*
X0046543Y0005174D02*
X0043031Y0005174D01*
X0043124Y0008170D02*
X0034397Y0008170D01*
X0032401Y0009169D02*
X0042592Y0009169D01*
X0042452Y0010167D02*
X0030678Y0010167D01*
X0028955Y0011166D02*
X0042630Y0011166D01*
X0043216Y0012164D02*
X0027232Y0012164D01*
X0025754Y0013163D02*
X0042570Y0013163D01*
X0042156Y0014161D02*
X0024539Y0014161D01*
X0023325Y0015160D02*
X0040336Y0015160D01*
X0039688Y0016158D02*
X0034192Y0016158D01*
X0034945Y0017157D02*
X0039466Y0017157D01*
X0039563Y0018155D02*
X0035241Y0018155D01*
X0035219Y0019154D02*
X0040033Y0019154D01*
X0039545Y0020152D02*
X0041352Y0020152D01*
X0041140Y0021151D02*
X0083138Y0021151D01*
X0083138Y0020152D02*
X0043755Y0020152D01*
X0045074Y0019154D02*
X0077223Y0019154D01*
X0076078Y0018155D02*
X0045544Y0018155D01*
X0047298Y0017157D02*
X0075664Y0017157D01*
X0075615Y0016158D02*
X0048013Y0016158D01*
X0041725Y0022149D02*
X0083479Y0022149D01*
X0084294Y0023148D02*
X0041902Y0023148D01*
X0038085Y0020152D02*
X0034805Y0020152D01*
X0033788Y0021151D02*
X0036489Y0021151D01*
X0030115Y0016158D02*
X0022111Y0016158D01*
X0020896Y0017157D02*
X0026329Y0017157D01*
X0012563Y0027142D02*
X0074643Y0027142D01*
X0074988Y0026797D02*
X0076123Y0026327D01*
X0077351Y0026327D01*
X0078486Y0026797D01*
X0079354Y0027665D01*
X0079824Y0028800D01*
X0079824Y0029441D01*
X0080129Y0029136D01*
X0081264Y0028666D01*
X0082492Y0028666D01*
X0083627Y0029136D01*
X0084495Y0030005D01*
X0084965Y0031139D01*
X0084965Y0032368D01*
X0084495Y0033502D01*
X0083627Y0034371D01*
X0082492Y0034841D01*
X0081264Y0034841D01*
X0080285Y0034436D01*
X0079897Y0035374D01*
X0079028Y0036242D01*
X0077894Y0036712D01*
X0076665Y0036712D01*
X0075531Y0036242D01*
X0074954Y0035666D01*
X0074454Y0036166D01*
X0073319Y0036636D01*
X0072091Y0036636D01*
X0070956Y0036166D01*
X0070087Y0035298D01*
X0070086Y0035295D01*
X0069744Y0035436D01*
X0068516Y0035436D01*
X0067381Y0034966D01*
X0066513Y0034098D01*
X0066043Y0032963D01*
X0066043Y0031735D01*
X0066513Y0030600D01*
X0067381Y0029731D01*
X0068516Y0029261D01*
X0069744Y0029261D01*
X0070879Y0029731D01*
X0071747Y0030600D01*
X0071749Y0030603D01*
X0072091Y0030461D01*
X0073319Y0030461D01*
X0073935Y0030717D01*
X0073650Y0030028D01*
X0073650Y0028800D01*
X0074120Y0027665D01*
X0074988Y0026797D01*
X0073923Y0028140D02*
X0011941Y0028140D01*
X0011320Y0029139D02*
X0073650Y0029139D01*
X0073695Y0030137D02*
X0071285Y0030137D01*
X0066975Y0030137D02*
X0010699Y0030137D01*
X0010077Y0031136D02*
X0066291Y0031136D01*
X0066043Y0032134D02*
X0016348Y0032134D01*
X0016075Y0032021D02*
X0018328Y0032954D01*
X0020052Y0034679D01*
X0020985Y0036931D01*
X0020985Y0039370D01*
X0020052Y0041622D01*
X0018328Y0043346D01*
X0016075Y0044280D01*
X0013637Y0044280D01*
X0011384Y0043346D01*
X0009660Y0041622D01*
X0008727Y0039370D01*
X0008727Y0036931D01*
X0009660Y0034679D01*
X0011384Y0032954D01*
X0013637Y0032021D01*
X0016075Y0032021D01*
X0018506Y0033133D02*
X0066113Y0033133D01*
X0066546Y0034131D02*
X0019504Y0034131D01*
X0020239Y0035130D02*
X0067776Y0035130D01*
X0070918Y0036128D02*
X0020652Y0036128D01*
X0020985Y0037127D02*
X0096824Y0037127D01*
X0096781Y0038125D02*
X0029277Y0038125D01*
X0029621Y0038470D02*
X0030091Y0039605D01*
X0030091Y0040833D01*
X0029621Y0041968D01*
X0028753Y0042836D01*
X0027618Y0043306D01*
X0026390Y0043306D01*
X0025255Y0042836D01*
X0024387Y0041968D01*
X0023917Y0040833D01*
X0023917Y0039605D01*
X0024387Y0038470D01*
X0025255Y0037602D01*
X0026390Y0037132D01*
X0027618Y0037132D01*
X0028753Y0037602D01*
X0029621Y0038470D01*
X0029892Y0039124D02*
X0096946Y0039124D01*
X0097309Y0040122D02*
X0030091Y0040122D01*
X0029972Y0041121D02*
X0097673Y0041121D01*
X0097770Y0041387D02*
X0097770Y0041387D01*
X0098441Y0042119D02*
X0029470Y0042119D01*
X0028073Y0043118D02*
X0099356Y0043118D01*
X0100949Y0044116D02*
X0016469Y0044116D01*
X0018556Y0043118D02*
X0025935Y0043118D01*
X0024538Y0042119D02*
X0019555Y0042119D01*
X0020259Y0041121D02*
X0024036Y0041121D01*
X0023917Y0040122D02*
X0020673Y0040122D01*
X0020985Y0039124D02*
X0024116Y0039124D01*
X0024731Y0038125D02*
X0020985Y0038125D01*
X0013364Y0032134D02*
X0009592Y0032134D01*
X0009177Y0033133D02*
X0011206Y0033133D01*
X0010207Y0034131D02*
X0008762Y0034131D01*
X0008347Y0035130D02*
X0009473Y0035130D01*
X0009059Y0036128D02*
X0007933Y0036128D01*
X0007518Y0037127D02*
X0008727Y0037127D01*
X0008727Y0038125D02*
X0007103Y0038125D01*
X0006688Y0039124D02*
X0008727Y0039124D01*
X0009038Y0040122D02*
X0006433Y0040122D01*
X0006198Y0041121D02*
X0009452Y0041121D01*
X0010157Y0042119D02*
X0005964Y0042119D01*
X0005729Y0043118D02*
X0011155Y0043118D01*
X0013243Y0044116D02*
X0005494Y0044116D01*
X0005260Y0045115D02*
X0042103Y0045115D01*
X0042216Y0045002D02*
X0041347Y0045871D01*
X0040877Y0047006D01*
X0040877Y0048234D01*
X0041347Y0049369D01*
X0042216Y0050237D01*
X0043350Y0050707D01*
X0044579Y0050707D01*
X0045713Y0050237D01*
X0046582Y0049369D01*
X0047052Y0048234D01*
X0047052Y0047006D01*
X0046582Y0045871D01*
X0045713Y0045002D01*
X0044579Y0044532D01*
X0043350Y0044532D01*
X0042216Y0045002D01*
X0041247Y0046113D02*
X0005025Y0046113D01*
X0004790Y0047112D02*
X0040877Y0047112D01*
X0040877Y0048110D02*
X0004671Y0048110D01*
X0004604Y0049109D02*
X0041240Y0049109D01*
X0042086Y0050107D02*
X0004536Y0050107D01*
X0004468Y0051106D02*
X0096254Y0051106D01*
X0096465Y0050595D02*
X0097334Y0049727D01*
X0098469Y0049257D01*
X0099697Y0049257D01*
X0100832Y0049727D01*
X0101700Y0050595D01*
X0102170Y0051730D01*
X0102170Y0052958D01*
X0101700Y0054093D01*
X0100832Y0054961D01*
X0099697Y0055432D01*
X0098469Y0055432D01*
X0097334Y0054961D01*
X0096465Y0054093D01*
X0095995Y0052958D01*
X0095995Y0051730D01*
X0096465Y0050595D01*
X0096953Y0050107D02*
X0045843Y0050107D01*
X0046689Y0049109D02*
X0106897Y0049109D01*
X0106991Y0050107D02*
X0101212Y0050107D01*
X0101912Y0051106D02*
X0107085Y0051106D01*
X0107178Y0052105D02*
X0102170Y0052105D01*
X0102110Y0053103D02*
X0107272Y0053103D01*
X0107366Y0054102D02*
X0101692Y0054102D01*
X0100497Y0055100D02*
X0107363Y0055100D01*
X0107292Y0056099D02*
X0079644Y0056099D01*
X0079653Y0056107D02*
X0080123Y0057242D01*
X0080123Y0058470D01*
X0079653Y0059605D01*
X0078784Y0060473D01*
X0077650Y0060943D01*
X0076421Y0060943D01*
X0075287Y0060473D01*
X0074418Y0059605D01*
X0073948Y0058470D01*
X0073948Y0057242D01*
X0074418Y0056107D01*
X0075287Y0055239D01*
X0076421Y0054769D01*
X0077650Y0054769D01*
X0078784Y0055239D01*
X0079653Y0056107D01*
X0080063Y0057097D02*
X0107221Y0057097D01*
X0107150Y0058096D02*
X0080123Y0058096D01*
X0079864Y0059094D02*
X0107079Y0059094D01*
X0107009Y0060093D02*
X0079165Y0060093D01*
X0074906Y0060093D02*
X0069774Y0060093D01*
X0069421Y0059947D02*
X0070628Y0060447D01*
X0071552Y0061370D01*
X0072052Y0062577D01*
X0072052Y0063884D01*
X0071552Y0065091D01*
X0070628Y0066015D01*
X0069421Y0066515D01*
X0068114Y0066515D01*
X0066907Y0066015D01*
X0065983Y0065091D01*
X0065483Y0063884D01*
X0065483Y0062577D01*
X0065983Y0061370D01*
X0066907Y0060447D01*
X0068114Y0059947D01*
X0069421Y0059947D01*
X0067762Y0060093D02*
X0021321Y0060093D01*
X0021723Y0060494D02*
X0022193Y0061629D01*
X0022193Y0062857D01*
X0021723Y0063992D01*
X0020854Y0064860D01*
X0019719Y0065330D01*
X0018491Y0065330D01*
X0017356Y0064860D01*
X0016488Y0063992D01*
X0016018Y0062857D01*
X0016018Y0061629D01*
X0016488Y0060494D01*
X0017354Y0059628D01*
X0016544Y0058817D01*
X0016074Y0057683D01*
X0016074Y0056454D01*
X0016544Y0055320D01*
X0017413Y0054451D01*
X0018547Y0053981D01*
X0019776Y0053981D01*
X0020910Y0054451D01*
X0021779Y0055320D01*
X0022249Y0056454D01*
X0022249Y0057683D01*
X0021779Y0058817D01*
X0020913Y0059684D01*
X0021723Y0060494D01*
X0021970Y0061091D02*
X0061071Y0061091D01*
X0060633Y0061273D02*
X0061768Y0060803D01*
X0062996Y0060803D01*
X0064131Y0061273D01*
X0064999Y0062141D01*
X0065469Y0063276D01*
X0065469Y0064504D01*
X0064999Y0065639D01*
X0064131Y0066507D01*
X0062996Y0066977D01*
X0061768Y0066977D01*
X0060633Y0066507D01*
X0059764Y0065639D01*
X0059294Y0064504D01*
X0059294Y0063276D01*
X0059764Y0062141D01*
X0060633Y0061273D01*
X0059816Y0062090D02*
X0022193Y0062090D01*
X0022097Y0063088D02*
X0041881Y0063088D01*
X0041822Y0063113D02*
X0042957Y0062643D01*
X0044185Y0062643D01*
X0045320Y0063113D01*
X0046188Y0063981D01*
X0046658Y0065116D01*
X0046658Y0066344D01*
X0046188Y0067479D01*
X0045320Y0068347D01*
X0044185Y0068817D01*
X0042957Y0068817D01*
X0041822Y0068347D01*
X0040953Y0067479D01*
X0040483Y0066344D01*
X0040483Y0065116D01*
X0040953Y0063981D01*
X0041822Y0063113D01*
X0040910Y0064087D02*
X0021628Y0064087D01*
X0020311Y0065085D02*
X0040496Y0065085D01*
X0040483Y0066084D02*
X0010602Y0066084D01*
X0011787Y0066636D02*
X0011787Y0066636D01*
X0012195Y0067082D02*
X0040789Y0067082D01*
X0041555Y0068081D02*
X0013110Y0068081D01*
X0013878Y0069079D02*
X0091555Y0069079D01*
X0091624Y0068942D02*
X0092173Y0068187D01*
X0092833Y0067527D01*
X0093588Y0066979D01*
X0094419Y0066555D01*
X0095307Y0066266D01*
X0096195Y0066126D01*
X0096195Y0071550D01*
X0090772Y0071550D01*
X0090912Y0070661D01*
X0091201Y0069774D01*
X0091624Y0068942D01*
X0092279Y0068081D02*
X0090468Y0068081D01*
X0090202Y0068347D02*
X0089067Y0068817D01*
X0087839Y0068817D01*
X0086704Y0068347D01*
X0085835Y0067479D01*
X0085365Y0066344D01*
X0085365Y0065116D01*
X0085835Y0063981D01*
X0086704Y0063113D01*
X0087839Y0062643D01*
X0089067Y0062643D01*
X0090202Y0063113D01*
X0091070Y0063981D01*
X0091540Y0065116D01*
X0091540Y0066344D01*
X0091070Y0067479D01*
X0090202Y0068347D01*
X0091234Y0067082D02*
X0093445Y0067082D01*
X0091540Y0066084D02*
X0106058Y0066084D01*
X0105819Y0067082D02*
X0099946Y0067082D01*
X0099803Y0066979D02*
X0100558Y0067527D01*
X0101218Y0068187D01*
X0101766Y0068942D01*
X0102190Y0069774D01*
X0102479Y0070661D01*
X0102619Y0071550D01*
X0097195Y0071550D01*
X0097195Y0066126D01*
X0098084Y0066266D01*
X0098971Y0066555D01*
X0099803Y0066979D01*
X0101112Y0068081D02*
X0105580Y0068081D01*
X0105340Y0069079D02*
X0101836Y0069079D01*
X0102289Y0070078D02*
X0105101Y0070078D01*
X0104862Y0071076D02*
X0102544Y0071076D01*
X0102619Y0072550D02*
X0102479Y0073438D01*
X0102190Y0074326D01*
X0101766Y0075157D01*
X0101218Y0075912D01*
X0100558Y0076572D01*
X0099803Y0077121D01*
X0098971Y0077544D01*
X0098084Y0077833D01*
X0097195Y0077973D01*
X0097195Y0072550D01*
X0096195Y0072550D01*
X0096195Y0077973D01*
X0095307Y0077833D01*
X0094419Y0077544D01*
X0093588Y0077121D01*
X0092833Y0076572D01*
X0092173Y0075912D01*
X0091624Y0075157D01*
X0091201Y0074326D01*
X0090912Y0073438D01*
X0090772Y0072550D01*
X0096195Y0072550D01*
X0096195Y0071550D01*
X0097195Y0071550D01*
X0097195Y0072550D01*
X0102619Y0072550D01*
X0102536Y0073073D02*
X0104044Y0073073D01*
X0104466Y0072075D02*
X0097195Y0072075D01*
X0097195Y0073073D02*
X0096195Y0073073D01*
X0096195Y0072075D02*
X0014770Y0072075D01*
X0014727Y0073073D02*
X0090855Y0073073D01*
X0091118Y0074072D02*
X0014683Y0074072D01*
X0014663Y0074539D02*
X0014663Y0074539D01*
X0014415Y0075070D02*
X0091580Y0075070D01*
X0092330Y0076069D02*
X0016330Y0076069D01*
X0014906Y0076069D02*
X0013949Y0076069D01*
X0012711Y0078066D02*
X0012486Y0078066D01*
X0012531Y0079064D02*
X0011397Y0079064D01*
X0010612Y0080063D02*
X0012669Y0080063D01*
X0013197Y0081061D02*
X0011168Y0081061D01*
X0011858Y0082060D02*
X0014658Y0082060D01*
X0016578Y0082060D02*
X0021676Y0082060D01*
X0021743Y0082127D02*
X0020875Y0081258D01*
X0020405Y0080124D01*
X0020405Y0078895D01*
X0020875Y0077761D01*
X0021743Y0076892D01*
X0022878Y0076422D01*
X0024106Y0076422D01*
X0025241Y0076892D01*
X0026109Y0077761D01*
X0026580Y0078895D01*
X0026580Y0080124D01*
X0026109Y0081258D01*
X0025241Y0082127D01*
X0024106Y0082597D01*
X0022878Y0082597D01*
X0021743Y0082127D01*
X0020793Y0081061D02*
X0018039Y0081061D01*
X0018568Y0080063D02*
X0020405Y0080063D01*
X0020405Y0079064D02*
X0018705Y0079064D01*
X0018525Y0078066D02*
X0020748Y0078066D01*
X0021568Y0077067D02*
X0017936Y0077067D01*
X0014605Y0071076D02*
X0090847Y0071076D01*
X0091102Y0070078D02*
X0014242Y0070078D01*
X0017900Y0065085D02*
X0005149Y0065085D01*
X0004939Y0064087D02*
X0016583Y0064087D01*
X0016114Y0063088D02*
X0004843Y0063088D01*
X0004748Y0062090D02*
X0016018Y0062090D01*
X0016241Y0061091D02*
X0004653Y0061091D01*
X0004558Y0060093D02*
X0016889Y0060093D01*
X0016821Y0059094D02*
X0004462Y0059094D01*
X0004367Y0058096D02*
X0016245Y0058096D01*
X0016074Y0057097D02*
X0004272Y0057097D01*
X0004177Y0056099D02*
X0016221Y0056099D01*
X0016764Y0055100D02*
X0004196Y0055100D01*
X0004264Y0054102D02*
X0018257Y0054102D01*
X0020066Y0054102D02*
X0096474Y0054102D01*
X0096055Y0053103D02*
X0004332Y0053103D01*
X0004400Y0052105D02*
X0095995Y0052105D01*
X0097668Y0055100D02*
X0078450Y0055100D01*
X0075621Y0055100D02*
X0021559Y0055100D01*
X0022101Y0056099D02*
X0074427Y0056099D01*
X0074008Y0057097D02*
X0022249Y0057097D01*
X0022078Y0058096D02*
X0073948Y0058096D01*
X0074207Y0059094D02*
X0021502Y0059094D01*
X0009110Y0065388D02*
X0009110Y0065388D01*
X0006160Y0065259D02*
X0006160Y0065259D01*
X0012547Y0083058D02*
X0030949Y0083058D01*
X0030949Y0082524D02*
X0030949Y0083752D01*
X0031419Y0084887D01*
X0032288Y0085755D01*
X0033423Y0086225D01*
X0034651Y0086225D01*
X0035786Y0085755D01*
X0036654Y0084887D01*
X0037124Y0083752D01*
X0037124Y0082597D01*
X0037492Y0082597D01*
X0038627Y0082127D01*
X0038995Y0081758D01*
X0039379Y0082684D01*
X0040247Y0083552D01*
X0041382Y0084022D01*
X0042610Y0084022D01*
X0043745Y0083552D01*
X0044613Y0082684D01*
X0045083Y0081549D01*
X0045083Y0080321D01*
X0044613Y0079186D01*
X0043745Y0078317D01*
X0042610Y0077847D01*
X0041382Y0077847D01*
X0040247Y0078317D01*
X0039879Y0078686D01*
X0039495Y0077761D01*
X0038627Y0076892D01*
X0037492Y0076422D01*
X0036264Y0076422D01*
X0035129Y0076892D01*
X0034261Y0077761D01*
X0033791Y0078895D01*
X0033791Y0080051D01*
X0033423Y0080051D01*
X0032288Y0080521D01*
X0031419Y0081389D01*
X0030949Y0082524D01*
X0031142Y0082060D02*
X0025308Y0082060D01*
X0026191Y0081061D02*
X0031747Y0081061D01*
X0033393Y0080063D02*
X0026580Y0080063D01*
X0026580Y0079064D02*
X0033791Y0079064D01*
X0034134Y0078066D02*
X0026236Y0078066D01*
X0025416Y0077067D02*
X0034954Y0077067D01*
X0038802Y0077067D02*
X0093514Y0077067D01*
X0096195Y0077067D02*
X0097195Y0077067D01*
X0097195Y0076069D02*
X0096195Y0076069D01*
X0096195Y0075070D02*
X0097195Y0075070D01*
X0097195Y0074072D02*
X0096195Y0074072D01*
X0096195Y0071076D02*
X0097195Y0071076D01*
X0097195Y0070078D02*
X0096195Y0070078D01*
X0096195Y0069079D02*
X0097195Y0069079D01*
X0097195Y0068081D02*
X0096195Y0068081D01*
X0096195Y0067082D02*
X0097195Y0067082D01*
X0091527Y0065085D02*
X0106298Y0065085D01*
X0106537Y0064087D02*
X0091114Y0064087D01*
X0090143Y0063088D02*
X0106776Y0063088D01*
X0106867Y0062090D02*
X0071850Y0062090D01*
X0072052Y0063088D02*
X0086763Y0063088D01*
X0085792Y0064087D02*
X0071968Y0064087D01*
X0071554Y0065085D02*
X0085378Y0065085D01*
X0085365Y0066084D02*
X0070462Y0066084D01*
X0067073Y0066084D02*
X0064554Y0066084D01*
X0065229Y0065085D02*
X0065981Y0065085D01*
X0065567Y0064087D02*
X0065469Y0064087D01*
X0065483Y0063088D02*
X0065391Y0063088D01*
X0065686Y0062090D02*
X0064948Y0062090D01*
X0063692Y0061091D02*
X0066263Y0061091D01*
X0071273Y0061091D02*
X0106938Y0061091D01*
X0106803Y0048110D02*
X0047052Y0048110D01*
X0047052Y0047112D02*
X0106710Y0047112D01*
X0106616Y0046113D02*
X0046682Y0046113D01*
X0045826Y0045115D02*
X0106401Y0045115D01*
X0105391Y0044941D02*
X0105391Y0044941D01*
X0102441Y0044812D02*
X0102441Y0044812D01*
X0096868Y0036128D02*
X0079142Y0036128D01*
X0079998Y0035130D02*
X0097136Y0035130D01*
X0096888Y0035661D02*
X0096888Y0035661D01*
X0097602Y0034131D02*
X0083866Y0034131D01*
X0084648Y0033133D02*
X0098067Y0033133D01*
X0098136Y0032985D02*
X0098136Y0032985D01*
X0099065Y0032134D02*
X0084965Y0032134D01*
X0084964Y0031136D02*
X0100154Y0031136D01*
X0100314Y0030990D02*
X0100314Y0030990D01*
X0100949Y0030137D02*
X0084550Y0030137D01*
X0083629Y0029139D02*
X0100369Y0029139D01*
X0099691Y0028140D02*
X0079551Y0028140D01*
X0079824Y0029139D02*
X0080127Y0029139D01*
X0078831Y0027142D02*
X0099013Y0027142D01*
X0084417Y0018155D02*
X0081328Y0018155D01*
X0080183Y0019154D02*
X0083530Y0019154D01*
X0075417Y0036128D02*
X0074491Y0036128D01*
X0059372Y0063088D02*
X0045261Y0063088D01*
X0046232Y0064087D02*
X0059294Y0064087D01*
X0059535Y0065085D02*
X0046646Y0065085D01*
X0046658Y0066084D02*
X0060209Y0066084D01*
X0046353Y0067082D02*
X0085671Y0067082D01*
X0086437Y0068081D02*
X0045586Y0068081D01*
X0043138Y0078066D02*
X0101935Y0078066D01*
X0102357Y0077067D02*
X0099876Y0077067D01*
X0101061Y0076069D02*
X0102779Y0076069D01*
X0103200Y0075070D02*
X0101811Y0075070D01*
X0102273Y0074072D02*
X0103622Y0074072D01*
X0101506Y0079064D02*
X0044492Y0079064D01*
X0044977Y0080063D02*
X0078928Y0080063D01*
X0078623Y0080189D02*
X0079975Y0079629D01*
X0081440Y0079629D01*
X0082793Y0080189D01*
X0083828Y0081225D01*
X0084389Y0082578D01*
X0084389Y0084042D01*
X0083828Y0085395D01*
X0082793Y0086431D01*
X0081440Y0086991D01*
X0079975Y0086991D01*
X0078623Y0086431D01*
X0077587Y0085395D01*
X0077027Y0084042D01*
X0077027Y0082578D01*
X0077587Y0081225D01*
X0078623Y0080189D01*
X0077751Y0081061D02*
X0045083Y0081061D01*
X0044872Y0082060D02*
X0077241Y0082060D01*
X0077027Y0083058D02*
X0044239Y0083058D01*
X0039753Y0083058D02*
X0037124Y0083058D01*
X0036998Y0084057D02*
X0077033Y0084057D01*
X0077446Y0085055D02*
X0036486Y0085055D01*
X0035065Y0086054D02*
X0078246Y0086054D01*
X0083170Y0086054D02*
X0097084Y0086054D01*
X0097716Y0085055D02*
X0083969Y0085055D01*
X0084383Y0084057D02*
X0098348Y0084057D01*
X0098979Y0083058D02*
X0084389Y0083058D01*
X0084174Y0082060D02*
X0099611Y0082060D01*
X0100243Y0081061D02*
X0083665Y0081061D01*
X0082487Y0080063D02*
X0100874Y0080063D01*
X0096230Y0087052D02*
X0015306Y0087052D01*
X0014617Y0086054D02*
X0033008Y0086054D01*
X0031588Y0085055D02*
X0013927Y0085055D01*
X0013237Y0084057D02*
X0031076Y0084057D01*
X0038694Y0082060D02*
X0039120Y0082060D01*
X0039622Y0078066D02*
X0040854Y0078066D01*
X0052293Y0090048D02*
X0017988Y0090048D01*
X0017022Y0089049D02*
X0094448Y0089049D01*
X0095339Y0088051D02*
X0016056Y0088051D01*
X0018954Y0091046D02*
X0051526Y0091046D01*
X0051130Y0092045D02*
X0019920Y0092045D01*
X0020887Y0093043D02*
X0051130Y0093043D01*
X0051367Y0094042D02*
X0021896Y0094042D01*
X0023244Y0095040D02*
X0051910Y0095040D01*
X0051176Y0096039D02*
X0024592Y0096039D01*
X0025941Y0097038D02*
X0050177Y0097038D01*
X0049559Y0098036D02*
X0027289Y0098036D01*
X0028672Y0099035D02*
X0049146Y0099035D01*
X0048761Y0100033D02*
X0030623Y0100033D01*
X0032574Y0101032D02*
X0048761Y0101032D01*
X0048721Y0102030D02*
X0048761Y0102030D01*
X0045507Y0102030D02*
X0034525Y0102030D01*
X0036700Y0103029D02*
X0044467Y0103029D01*
X0044054Y0104027D02*
X0039832Y0104027D01*
X0042964Y0105026D02*
X0044027Y0105026D01*
X0058254Y0094042D02*
X0089462Y0094042D01*
X0090702Y0093043D02*
X0058492Y0093043D01*
X0058492Y0092045D02*
X0091775Y0092045D01*
X0092666Y0091046D02*
X0058095Y0091046D01*
X0057329Y0090048D02*
X0093557Y0090048D01*
X0088222Y0095040D02*
X0058850Y0095040D01*
X0060375Y0096039D02*
X0086982Y0096039D01*
X0085742Y0097038D02*
X0066646Y0097038D01*
X0067299Y0098036D02*
X0084397Y0098036D01*
X0082627Y0099035D02*
X0067524Y0099035D01*
X0067431Y0100033D02*
X0080856Y0100033D01*
X0079086Y0101032D02*
X0066966Y0101032D01*
X0065659Y0102030D02*
X0077290Y0102030D01*
X0074547Y0103029D02*
X0062677Y0103029D01*
X0062791Y0102030D02*
X0063215Y0102030D01*
X0062264Y0104027D02*
X0071804Y0104027D01*
X0068746Y0105026D02*
X0061850Y0105026D01*
X0061032Y0106024D02*
X0063400Y0106024D01*
X0062228Y0097038D02*
X0061374Y0097038D01*
X0050519Y0004176D02*
X0047974Y0004176D01*
D14*
X0048273Y0007800D03*
X0045539Y0010121D03*
X0045195Y0014894D03*
X0042554Y0017308D03*
X0038815Y0023191D03*
X0041602Y0025966D03*
X0032154Y0018486D03*
X0028579Y0019273D03*
X0027004Y0040219D03*
X0036220Y0051686D03*
X0035697Y0056675D03*
X0043571Y0065730D03*
X0039634Y0066517D03*
X0040421Y0076360D03*
X0036878Y0079509D03*
X0034037Y0083138D03*
X0041996Y0080935D03*
X0029004Y0096045D03*
X0019555Y0079903D03*
X0015618Y0079116D03*
X0023492Y0079509D03*
X0019105Y0062243D03*
X0019161Y0057069D03*
X0005650Y0047660D03*
X0043965Y0047620D03*
X0052003Y0041634D03*
X0062695Y0048776D03*
X0065106Y0061559D03*
X0062382Y0063890D03*
X0077035Y0057856D03*
X0088453Y0065730D03*
X0092390Y0063368D03*
X0104201Y0063368D03*
X0099083Y0052344D03*
X0091602Y0032659D03*
X0081878Y0031754D03*
X0079807Y0036153D03*
X0077280Y0033625D03*
X0076737Y0029414D03*
X0072705Y0033549D03*
X0069130Y0032349D03*
X0078703Y0016425D03*
X0086226Y0020713D03*
X0065618Y0007856D03*
X0079398Y0094076D03*
X0064437Y0099195D03*
X0047114Y0104706D03*
D15*
X0068768Y0063231D03*
D16*
X0055776Y0101360D03*
X0055776Y0008840D03*
M02*
