G75*
%MOIN*%
%OFA0B0*%
%FSLAX25Y25*%
%IPPOS*%
%LPD*%
%AMOC8*
5,1,8,0,0,1.08239X$1,22.5*
%
%ADD10C,0.00004*%
%ADD11C,0.00000*%
%ADD12R,0.02756X0.03543*%
%ADD13R,0.05906X0.05118*%
%ADD14R,0.03543X0.02756*%
%ADD15R,0.02362X0.01181*%
%ADD16R,0.01181X0.02362*%
%ADD17R,0.13583X0.13583*%
%ADD18R,0.00800X0.02520*%
%ADD19R,0.00800X0.02600*%
%ADD20R,0.02520X0.00800*%
%ADD21R,0.02600X0.00800*%
%ADD22R,0.04600X0.01400*%
%ADD23C,0.01378*%
%ADD24C,0.14961*%
%ADD25R,0.00984X0.05906*%
%ADD26R,0.08268X0.05512*%
%ADD27R,0.02000X0.05200*%
%ADD28R,0.03937X0.05512*%
%ADD29C,0.01600*%
%ADD30C,0.02775*%
%ADD31C,0.01200*%
%ADD32C,0.00600*%
%ADD33C,0.01000*%
%ADD34C,0.03169*%
%ADD35C,0.10630*%
%ADD36C,0.02400*%
D10*
X0053807Y0001002D02*
X0053811Y0001089D01*
X0053818Y0001176D01*
X0053829Y0001263D01*
X0053845Y0001349D01*
X0053863Y0001434D01*
X0053886Y0001518D01*
X0053912Y0001602D01*
X0053942Y0001684D01*
X0053976Y0001764D01*
X0054013Y0001843D01*
X0054054Y0001921D01*
X0054098Y0001996D01*
X0054145Y0002069D01*
X0054196Y0002141D01*
X0054249Y0002210D01*
X0054306Y0002276D01*
X0054366Y0002340D01*
X0054428Y0002401D01*
X0054493Y0002459D01*
X0054560Y0002515D01*
X0054630Y0002567D01*
X0054702Y0002617D01*
X0054777Y0002663D01*
X0054853Y0002705D01*
X0054931Y0002744D01*
X0055011Y0002780D01*
X0055092Y0002812D01*
X0055174Y0002841D01*
X0055258Y0002866D01*
X0055343Y0002887D01*
X0055428Y0002904D01*
X0055515Y0002918D01*
X0055602Y0002927D01*
X0055689Y0002933D01*
X0055776Y0002935D01*
X0055863Y0002933D01*
X0055950Y0002927D01*
X0056037Y0002918D01*
X0056124Y0002904D01*
X0056209Y0002887D01*
X0056294Y0002866D01*
X0056378Y0002841D01*
X0056460Y0002812D01*
X0056541Y0002780D01*
X0056621Y0002744D01*
X0056699Y0002705D01*
X0056775Y0002663D01*
X0056850Y0002617D01*
X0056922Y0002567D01*
X0056992Y0002515D01*
X0057059Y0002459D01*
X0057124Y0002401D01*
X0057186Y0002340D01*
X0057246Y0002276D01*
X0057303Y0002210D01*
X0057356Y0002141D01*
X0057407Y0002069D01*
X0057454Y0001996D01*
X0057498Y0001921D01*
X0057539Y0001843D01*
X0057576Y0001764D01*
X0057610Y0001684D01*
X0057640Y0001602D01*
X0057666Y0001518D01*
X0057689Y0001434D01*
X0057707Y0001349D01*
X0057723Y0001263D01*
X0057734Y0001176D01*
X0057741Y0001089D01*
X0057745Y0001002D01*
X0102557Y0032836D02*
X0104751Y0032037D01*
X0102557Y0032836D02*
X0102427Y0032885D01*
X0102298Y0032938D01*
X0102171Y0032995D01*
X0102045Y0033056D01*
X0101922Y0033119D01*
X0101800Y0033187D01*
X0101680Y0033258D01*
X0101562Y0033332D01*
X0101446Y0033409D01*
X0101333Y0033490D01*
X0101221Y0033574D01*
X0101113Y0033661D01*
X0101006Y0033751D01*
X0100903Y0033844D01*
X0100802Y0033940D01*
X0100703Y0034038D01*
X0100608Y0034140D01*
X0100515Y0034244D01*
X0100426Y0034351D01*
X0100339Y0034460D01*
X0100256Y0034571D01*
X0100176Y0034685D01*
X0100099Y0034801D01*
X0100025Y0034920D01*
X0099955Y0035040D01*
X0099888Y0035162D01*
X0099825Y0035286D01*
X0099765Y0035412D01*
X0099709Y0035539D01*
X0099657Y0035668D01*
X0099608Y0035799D01*
X0099563Y0035930D01*
X0099521Y0036063D01*
X0099484Y0036198D01*
X0099450Y0036333D01*
X0099420Y0036469D01*
X0099394Y0036605D01*
X0099372Y0036743D01*
X0099353Y0036881D01*
X0099339Y0037020D01*
X0099328Y0037158D01*
X0099322Y0037298D01*
X0099319Y0037437D01*
X0099320Y0037576D01*
X0099326Y0037715D01*
X0099335Y0037854D01*
X0099348Y0037993D01*
X0099365Y0038131D01*
X0099386Y0038269D01*
X0099411Y0038406D01*
X0099439Y0038542D01*
X0099472Y0038678D01*
X0099508Y0038812D01*
X0099549Y0038945D01*
X0099592Y0039077D01*
X0099640Y0039208D01*
X0099691Y0039338D01*
X0099746Y0039466D01*
X0099805Y0039592D01*
X0099867Y0039717D01*
X0099933Y0039840D01*
X0100002Y0039961D01*
X0100074Y0040080D01*
X0100150Y0040196D01*
X0100229Y0040311D01*
X0100311Y0040423D01*
X0100397Y0040533D01*
X0100485Y0040641D01*
X0100577Y0040746D01*
X0100671Y0040848D01*
X0100769Y0040948D01*
X0100869Y0041045D01*
X0100971Y0041139D01*
X0101077Y0041230D01*
X0101185Y0041318D01*
X0101295Y0041403D01*
X0101408Y0041484D01*
X0101523Y0041563D01*
X0101640Y0041638D01*
X0101759Y0041710D01*
X0101881Y0041779D01*
X0102004Y0041844D01*
X0102129Y0041905D01*
X0102255Y0041963D01*
X0102384Y0042017D01*
X0102513Y0042068D01*
X0102644Y0042115D01*
X0102777Y0042158D01*
X0102910Y0042198D01*
X0103045Y0042234D01*
X0103181Y0042266D01*
X0103317Y0042294D01*
X0103454Y0042318D01*
X0103592Y0042338D01*
X0103730Y0042355D01*
X0103869Y0042367D01*
X0104008Y0042376D01*
X0104147Y0042380D01*
X0104286Y0042381D01*
X0104426Y0042377D01*
X0104565Y0042370D01*
X0104704Y0042359D01*
X0104842Y0042344D01*
X0104980Y0042325D01*
X0105117Y0042302D01*
X0105254Y0042275D01*
X0105390Y0042245D01*
X0105525Y0042210D01*
X0105659Y0042172D01*
X0105792Y0042130D01*
X0105923Y0042084D01*
X0105923Y0042085D02*
X0108117Y0041286D01*
X0053808Y0001002D02*
X0052498Y0001065D01*
X0051190Y0001161D01*
X0049885Y0001287D01*
X0048583Y0001446D01*
X0047286Y0001636D01*
X0045994Y0001857D01*
X0044707Y0002110D01*
X0043427Y0002393D01*
X0042154Y0002708D01*
X0040889Y0003053D01*
X0039633Y0003429D01*
X0038386Y0003835D01*
X0037149Y0004271D01*
X0035924Y0004737D01*
X0034710Y0005233D01*
X0033508Y0005758D01*
X0032320Y0006312D01*
X0031145Y0006894D01*
X0029985Y0007505D01*
X0028840Y0008143D01*
X0027710Y0008810D01*
X0026597Y0009503D01*
X0025501Y0010223D01*
X0024423Y0010969D01*
X0023364Y0011742D01*
X0022323Y0012540D01*
X0021302Y0013362D01*
X0020301Y0014209D01*
X0019321Y0015081D01*
X0018363Y0015975D01*
X0017426Y0016893D01*
X0016512Y0017833D01*
X0015621Y0018795D01*
X0014753Y0019778D01*
X0013910Y0020782D01*
X0013091Y0021806D01*
X0012297Y0022850D01*
X0011529Y0023912D01*
X0010786Y0024993D01*
X0010070Y0026091D01*
X0009381Y0027207D01*
X0008719Y0028339D01*
X0008085Y0029486D01*
X0007479Y0030649D01*
X0006901Y0031826D01*
X0006351Y0033016D01*
X0005831Y0034220D01*
X0005340Y0035436D01*
X0004878Y0036663D01*
X0004447Y0037901D01*
X0004045Y0039150D01*
X0003674Y0040407D01*
X0003334Y0041673D01*
X0003024Y0042947D01*
X0002745Y0044229D01*
X0002497Y0045516D01*
X0002281Y0046809D01*
X0002096Y0048108D01*
X0001942Y0049410D01*
X0001820Y0050715D01*
X0001729Y0052023D01*
X0001671Y0053333D01*
X0001644Y0054644D01*
X0001649Y0055955D01*
X0001685Y0057266D01*
X0001754Y0058576D01*
X0001854Y0059883D01*
X0001985Y0061188D01*
X0002149Y0062489D01*
X0002343Y0063785D01*
X0002569Y0065077D01*
X0002827Y0066363D01*
X0003115Y0067642D01*
X0003434Y0068914D01*
X0005628Y0068115D01*
X0005628Y0068116D02*
X0005759Y0068070D01*
X0005892Y0068028D01*
X0006026Y0067990D01*
X0006161Y0067955D01*
X0006297Y0067925D01*
X0006434Y0067898D01*
X0006571Y0067875D01*
X0006709Y0067856D01*
X0006847Y0067841D01*
X0006986Y0067830D01*
X0007125Y0067823D01*
X0007265Y0067819D01*
X0007404Y0067820D01*
X0007543Y0067824D01*
X0007682Y0067833D01*
X0007821Y0067845D01*
X0007959Y0067862D01*
X0008097Y0067882D01*
X0008234Y0067906D01*
X0008370Y0067934D01*
X0008506Y0067966D01*
X0008641Y0068002D01*
X0008774Y0068042D01*
X0008907Y0068085D01*
X0009038Y0068132D01*
X0009167Y0068183D01*
X0009296Y0068237D01*
X0009422Y0068295D01*
X0009547Y0068356D01*
X0009670Y0068421D01*
X0009792Y0068490D01*
X0009911Y0068562D01*
X0010028Y0068637D01*
X0010143Y0068716D01*
X0010256Y0068797D01*
X0010366Y0068882D01*
X0010474Y0068970D01*
X0010580Y0069061D01*
X0010682Y0069155D01*
X0010782Y0069252D01*
X0010880Y0069352D01*
X0010974Y0069454D01*
X0011066Y0069559D01*
X0011154Y0069667D01*
X0011240Y0069777D01*
X0011322Y0069889D01*
X0011401Y0070004D01*
X0011477Y0070120D01*
X0011549Y0070239D01*
X0011618Y0070360D01*
X0011684Y0070483D01*
X0011746Y0070608D01*
X0011805Y0070734D01*
X0011860Y0070862D01*
X0011911Y0070992D01*
X0011959Y0071123D01*
X0012002Y0071255D01*
X0012043Y0071388D01*
X0012079Y0071522D01*
X0012112Y0071658D01*
X0012140Y0071794D01*
X0012165Y0071931D01*
X0012186Y0072069D01*
X0012203Y0072207D01*
X0012216Y0072346D01*
X0012225Y0072485D01*
X0012231Y0072624D01*
X0012232Y0072763D01*
X0012229Y0072902D01*
X0012223Y0073042D01*
X0012212Y0073180D01*
X0012198Y0073319D01*
X0012179Y0073457D01*
X0012157Y0073595D01*
X0012131Y0073731D01*
X0012101Y0073867D01*
X0012067Y0074002D01*
X0012030Y0074137D01*
X0011988Y0074270D01*
X0011943Y0074401D01*
X0011894Y0074532D01*
X0011842Y0074661D01*
X0011786Y0074788D01*
X0011726Y0074914D01*
X0011663Y0075038D01*
X0011596Y0075160D01*
X0011526Y0075280D01*
X0011452Y0075399D01*
X0011375Y0075515D01*
X0011295Y0075629D01*
X0011212Y0075740D01*
X0011125Y0075849D01*
X0011036Y0075956D01*
X0010943Y0076060D01*
X0010848Y0076162D01*
X0010749Y0076260D01*
X0010648Y0076356D01*
X0010545Y0076449D01*
X0010438Y0076539D01*
X0010330Y0076626D01*
X0010218Y0076710D01*
X0010105Y0076791D01*
X0009989Y0076868D01*
X0009871Y0076942D01*
X0009751Y0077013D01*
X0009629Y0077081D01*
X0009506Y0077144D01*
X0009380Y0077205D01*
X0009253Y0077262D01*
X0009124Y0077315D01*
X0008994Y0077364D01*
X0006800Y0078163D01*
X0007379Y0079354D01*
X0007986Y0080530D01*
X0008623Y0081691D01*
X0009287Y0082837D01*
X0009979Y0083965D01*
X0010699Y0085077D01*
X0011445Y0086170D01*
X0012219Y0087245D01*
X0013018Y0088301D01*
X0013843Y0089337D01*
X0014692Y0090352D01*
X0015567Y0091346D01*
X0016465Y0092319D01*
X0017387Y0093269D01*
X0018332Y0094196D01*
X0019299Y0095100D01*
X0020289Y0095981D01*
X0021299Y0096836D01*
X0022330Y0097667D01*
X0023381Y0098472D01*
X0024451Y0099251D01*
X0025541Y0100004D01*
X0026648Y0100730D01*
X0027773Y0101429D01*
X0028914Y0102100D01*
X0030071Y0102743D01*
X0031244Y0103357D01*
X0032432Y0103943D01*
X0033633Y0104499D01*
X0034848Y0105026D01*
X0036075Y0105523D01*
X0037314Y0105990D01*
X0038564Y0106426D01*
X0039825Y0106832D01*
X0041095Y0107206D01*
X0042373Y0107550D01*
X0043660Y0107862D01*
X0044954Y0108142D01*
X0046255Y0108391D01*
X0047561Y0108608D01*
X0048872Y0108793D01*
X0050187Y0108946D01*
X0051506Y0109066D01*
X0052827Y0109155D01*
X0054149Y0109211D01*
X0055473Y0109234D01*
X0056797Y0109225D01*
X0058121Y0109184D01*
X0059443Y0109111D01*
X0060763Y0109005D01*
X0062079Y0108867D01*
X0063392Y0108697D01*
X0064701Y0108494D01*
X0066004Y0108260D01*
X0067301Y0107994D01*
X0068591Y0107696D01*
X0069874Y0107367D01*
X0071148Y0107007D01*
X0072413Y0106615D01*
X0073667Y0106193D01*
X0074912Y0105740D01*
X0076144Y0105257D01*
X0077365Y0104744D01*
X0078573Y0104201D01*
X0079767Y0103629D01*
X0080946Y0103028D01*
X0082111Y0102398D01*
X0083260Y0101739D01*
X0084392Y0101053D01*
X0085507Y0100340D01*
X0086605Y0099599D01*
X0087684Y0098832D01*
X0088744Y0098038D01*
X0089784Y0097219D01*
X0090804Y0096375D01*
X0091803Y0095506D01*
X0092780Y0094613D01*
X0093736Y0093696D01*
X0094668Y0092756D01*
X0095577Y0091793D01*
X0096463Y0090809D01*
X0097324Y0089803D01*
X0098160Y0088777D01*
X0098971Y0087730D01*
X0099756Y0086664D01*
X0100515Y0085579D01*
X0101247Y0084476D01*
X0101952Y0083355D01*
X0102629Y0082217D01*
X0103278Y0081063D01*
X0103899Y0079894D01*
X0104491Y0078709D01*
X0105054Y0077511D01*
X0105587Y0076299D01*
X0106091Y0075074D01*
X0106564Y0073838D01*
X0107007Y0072590D01*
X0107419Y0071332D01*
X0107801Y0070064D01*
X0108151Y0068787D01*
X0108470Y0067502D01*
X0108758Y0066210D01*
X0109014Y0064911D01*
X0109238Y0063606D01*
X0109430Y0062296D01*
X0109590Y0060981D01*
X0109717Y0059663D01*
X0109813Y0058343D01*
X0109876Y0057020D01*
X0109907Y0055697D01*
X0109905Y0054373D01*
X0109871Y0053049D01*
X0109805Y0051727D01*
X0109706Y0050406D01*
X0109575Y0049089D01*
X0109412Y0047775D01*
X0109217Y0046465D01*
X0108990Y0045161D01*
X0108731Y0043862D01*
X0108440Y0042571D01*
X0108118Y0041286D01*
D11*
X0079527Y0083310D02*
X0079529Y0083379D01*
X0079535Y0083447D01*
X0079545Y0083515D01*
X0079559Y0083582D01*
X0079577Y0083649D01*
X0079598Y0083714D01*
X0079624Y0083778D01*
X0079653Y0083840D01*
X0079685Y0083900D01*
X0079721Y0083959D01*
X0079761Y0084015D01*
X0079803Y0084069D01*
X0079849Y0084120D01*
X0079898Y0084169D01*
X0079949Y0084215D01*
X0080003Y0084257D01*
X0080059Y0084297D01*
X0080117Y0084333D01*
X0080178Y0084365D01*
X0080240Y0084394D01*
X0080304Y0084420D01*
X0080369Y0084441D01*
X0080436Y0084459D01*
X0080503Y0084473D01*
X0080571Y0084483D01*
X0080639Y0084489D01*
X0080708Y0084491D01*
X0080777Y0084489D01*
X0080845Y0084483D01*
X0080913Y0084473D01*
X0080980Y0084459D01*
X0081047Y0084441D01*
X0081112Y0084420D01*
X0081176Y0084394D01*
X0081238Y0084365D01*
X0081298Y0084333D01*
X0081357Y0084297D01*
X0081413Y0084257D01*
X0081467Y0084215D01*
X0081518Y0084169D01*
X0081567Y0084120D01*
X0081613Y0084069D01*
X0081655Y0084015D01*
X0081695Y0083959D01*
X0081731Y0083900D01*
X0081763Y0083840D01*
X0081792Y0083778D01*
X0081818Y0083714D01*
X0081839Y0083649D01*
X0081857Y0083582D01*
X0081871Y0083515D01*
X0081881Y0083447D01*
X0081887Y0083379D01*
X0081889Y0083310D01*
X0081887Y0083241D01*
X0081881Y0083173D01*
X0081871Y0083105D01*
X0081857Y0083038D01*
X0081839Y0082971D01*
X0081818Y0082906D01*
X0081792Y0082842D01*
X0081763Y0082780D01*
X0081731Y0082719D01*
X0081695Y0082661D01*
X0081655Y0082605D01*
X0081613Y0082551D01*
X0081567Y0082500D01*
X0081518Y0082451D01*
X0081467Y0082405D01*
X0081413Y0082363D01*
X0081357Y0082323D01*
X0081299Y0082287D01*
X0081238Y0082255D01*
X0081176Y0082226D01*
X0081112Y0082200D01*
X0081047Y0082179D01*
X0080980Y0082161D01*
X0080913Y0082147D01*
X0080845Y0082137D01*
X0080777Y0082131D01*
X0080708Y0082129D01*
X0080639Y0082131D01*
X0080571Y0082137D01*
X0080503Y0082147D01*
X0080436Y0082161D01*
X0080369Y0082179D01*
X0080304Y0082200D01*
X0080240Y0082226D01*
X0080178Y0082255D01*
X0080117Y0082287D01*
X0080059Y0082323D01*
X0080003Y0082363D01*
X0079949Y0082405D01*
X0079898Y0082451D01*
X0079849Y0082500D01*
X0079803Y0082551D01*
X0079761Y0082605D01*
X0079721Y0082661D01*
X0079685Y0082719D01*
X0079653Y0082780D01*
X0079624Y0082842D01*
X0079598Y0082906D01*
X0079577Y0082971D01*
X0079559Y0083038D01*
X0079545Y0083105D01*
X0079535Y0083173D01*
X0079529Y0083241D01*
X0079527Y0083310D01*
X0053630Y0092736D02*
X0053632Y0092805D01*
X0053638Y0092873D01*
X0053648Y0092941D01*
X0053662Y0093008D01*
X0053680Y0093075D01*
X0053701Y0093140D01*
X0053727Y0093204D01*
X0053756Y0093266D01*
X0053788Y0093326D01*
X0053824Y0093385D01*
X0053864Y0093441D01*
X0053906Y0093495D01*
X0053952Y0093546D01*
X0054001Y0093595D01*
X0054052Y0093641D01*
X0054106Y0093683D01*
X0054162Y0093723D01*
X0054220Y0093759D01*
X0054281Y0093791D01*
X0054343Y0093820D01*
X0054407Y0093846D01*
X0054472Y0093867D01*
X0054539Y0093885D01*
X0054606Y0093899D01*
X0054674Y0093909D01*
X0054742Y0093915D01*
X0054811Y0093917D01*
X0054880Y0093915D01*
X0054948Y0093909D01*
X0055016Y0093899D01*
X0055083Y0093885D01*
X0055150Y0093867D01*
X0055215Y0093846D01*
X0055279Y0093820D01*
X0055341Y0093791D01*
X0055401Y0093759D01*
X0055460Y0093723D01*
X0055516Y0093683D01*
X0055570Y0093641D01*
X0055621Y0093595D01*
X0055670Y0093546D01*
X0055716Y0093495D01*
X0055758Y0093441D01*
X0055798Y0093385D01*
X0055834Y0093326D01*
X0055866Y0093266D01*
X0055895Y0093204D01*
X0055921Y0093140D01*
X0055942Y0093075D01*
X0055960Y0093008D01*
X0055974Y0092941D01*
X0055984Y0092873D01*
X0055990Y0092805D01*
X0055992Y0092736D01*
X0055990Y0092667D01*
X0055984Y0092599D01*
X0055974Y0092531D01*
X0055960Y0092464D01*
X0055942Y0092397D01*
X0055921Y0092332D01*
X0055895Y0092268D01*
X0055866Y0092206D01*
X0055834Y0092145D01*
X0055798Y0092087D01*
X0055758Y0092031D01*
X0055716Y0091977D01*
X0055670Y0091926D01*
X0055621Y0091877D01*
X0055570Y0091831D01*
X0055516Y0091789D01*
X0055460Y0091749D01*
X0055402Y0091713D01*
X0055341Y0091681D01*
X0055279Y0091652D01*
X0055215Y0091626D01*
X0055150Y0091605D01*
X0055083Y0091587D01*
X0055016Y0091573D01*
X0054948Y0091563D01*
X0054880Y0091557D01*
X0054811Y0091555D01*
X0054742Y0091557D01*
X0054674Y0091563D01*
X0054606Y0091573D01*
X0054539Y0091587D01*
X0054472Y0091605D01*
X0054407Y0091626D01*
X0054343Y0091652D01*
X0054281Y0091681D01*
X0054220Y0091713D01*
X0054162Y0091749D01*
X0054106Y0091789D01*
X0054052Y0091831D01*
X0054001Y0091877D01*
X0053952Y0091926D01*
X0053906Y0091977D01*
X0053864Y0092031D01*
X0053824Y0092087D01*
X0053788Y0092145D01*
X0053756Y0092206D01*
X0053727Y0092268D01*
X0053701Y0092332D01*
X0053680Y0092397D01*
X0053662Y0092464D01*
X0053648Y0092531D01*
X0053638Y0092599D01*
X0053632Y0092667D01*
X0053630Y0092736D01*
X0104750Y0032037D02*
X0104175Y0030853D01*
X0103571Y0029683D01*
X0102939Y0028529D01*
X0102279Y0027390D01*
X0101591Y0026267D01*
X0100877Y0025161D01*
X0100136Y0024074D01*
X0099368Y0023004D01*
X0098575Y0021954D01*
X0097756Y0020923D01*
X0096913Y0019912D01*
X0096045Y0018922D01*
X0095153Y0017954D01*
X0094238Y0017007D01*
X0093301Y0016083D01*
X0092341Y0015182D01*
X0091359Y0014305D01*
X0090357Y0013452D01*
X0089334Y0012623D01*
X0088291Y0011820D01*
X0087229Y0011042D01*
X0086148Y0010290D01*
X0085050Y0009565D01*
X0083934Y0008866D01*
X0082801Y0008195D01*
X0081653Y0007552D01*
X0080489Y0006937D01*
X0079311Y0006350D01*
X0078118Y0005792D01*
X0076913Y0005263D01*
X0075695Y0004764D01*
X0074465Y0004295D01*
X0073224Y0003855D01*
X0071973Y0003446D01*
X0070712Y0003068D01*
X0069442Y0002720D01*
X0068165Y0002403D01*
X0066880Y0002117D01*
X0065588Y0001863D01*
X0064291Y0001640D01*
X0062988Y0001449D01*
X0061681Y0001289D01*
X0060371Y0001161D01*
X0059058Y0001066D01*
X0057743Y0001002D01*
D12*
X0013453Y0048801D03*
X0008335Y0048801D03*
X0016209Y0069667D03*
X0021327Y0069667D03*
X0038650Y0062974D03*
X0043768Y0062974D03*
X0043768Y0057069D03*
X0038650Y0057069D03*
X0038650Y0050376D03*
X0043768Y0050376D03*
X0072508Y0062187D03*
X0077626Y0062187D03*
X0099280Y0056281D03*
X0104398Y0056281D03*
X0045736Y0101557D03*
X0040618Y0101557D03*
X0027626Y0090533D03*
X0022508Y0090533D03*
X0036287Y0087384D03*
X0041406Y0087384D03*
D13*
X0031366Y0034431D03*
X0031366Y0026950D03*
D14*
X0037665Y0026557D03*
X0037665Y0031675D03*
X0025067Y0029313D03*
X0025067Y0024195D03*
X0029398Y0079706D03*
X0029398Y0084824D03*
D15*
X0044555Y0034037D03*
X0044555Y0032069D03*
X0044555Y0030100D03*
X0044555Y0028132D03*
X0044555Y0026163D03*
X0044555Y0024195D03*
X0044555Y0022226D03*
X0044555Y0020258D03*
X0063059Y0020258D03*
X0063059Y0022226D03*
X0063059Y0024195D03*
X0063059Y0026163D03*
X0063059Y0028132D03*
X0063059Y0030100D03*
X0063059Y0032069D03*
X0063059Y0034037D03*
D16*
X0060697Y0036399D03*
X0058728Y0036399D03*
X0056760Y0036399D03*
X0054791Y0036399D03*
X0052823Y0036399D03*
X0050854Y0036399D03*
X0048886Y0036399D03*
X0046917Y0036399D03*
X0046917Y0017895D03*
X0048886Y0017895D03*
X0050854Y0017895D03*
X0052823Y0017895D03*
X0054791Y0017895D03*
X0056760Y0017895D03*
X0058728Y0017895D03*
X0060697Y0017895D03*
D17*
X0053807Y0027147D03*
D18*
X0051839Y0049061D03*
X0059713Y0049061D03*
X0059713Y0061139D03*
X0051839Y0061139D03*
D19*
X0053413Y0061100D03*
X0054988Y0061100D03*
X0056563Y0061100D03*
X0058138Y0061100D03*
X0058138Y0049100D03*
X0056563Y0049100D03*
X0054988Y0049100D03*
X0053413Y0049100D03*
D20*
X0049736Y0051163D03*
X0049736Y0059037D03*
X0061815Y0059037D03*
X0061815Y0051163D03*
D21*
X0061776Y0052738D03*
X0061776Y0054313D03*
X0061776Y0055887D03*
X0061776Y0057462D03*
X0049776Y0057462D03*
X0049776Y0055887D03*
X0049776Y0054313D03*
X0049776Y0052738D03*
D22*
X0042946Y0091911D03*
X0042946Y0097029D03*
X0034746Y0097029D03*
X0034746Y0094470D03*
X0034746Y0091911D03*
D23*
X0068276Y0058939D02*
X0072410Y0058939D01*
X0072410Y0056380D02*
X0068276Y0056380D01*
X0068276Y0053821D02*
X0072410Y0053821D01*
X0072410Y0051261D02*
X0068276Y0051261D01*
X0068276Y0048702D02*
X0072410Y0048702D01*
X0072410Y0046143D02*
X0068276Y0046143D01*
X0068276Y0043584D02*
X0072410Y0043584D01*
X0072410Y0041025D02*
X0068276Y0041025D01*
X0090323Y0041025D02*
X0094457Y0041025D01*
X0094457Y0043584D02*
X0090323Y0043584D01*
X0090323Y0046143D02*
X0094457Y0046143D01*
X0094457Y0048702D02*
X0090323Y0048702D01*
X0090323Y0051261D02*
X0094457Y0051261D01*
X0094457Y0053821D02*
X0090323Y0053821D01*
X0090323Y0056380D02*
X0094457Y0056380D01*
X0094457Y0058939D02*
X0090323Y0058939D01*
D24*
X0096695Y0072050D03*
X0014856Y0038150D03*
D25*
G36*
X0052425Y0070352D02*
X0051500Y0070689D01*
X0053519Y0076238D01*
X0054444Y0075901D01*
X0052425Y0070352D01*
G37*
G36*
X0054275Y0069678D02*
X0053350Y0070015D01*
X0055369Y0075564D01*
X0056294Y0075227D01*
X0054275Y0069678D01*
G37*
G36*
X0056124Y0069005D02*
X0055199Y0069342D01*
X0057218Y0074891D01*
X0058143Y0074554D01*
X0056124Y0069005D01*
G37*
G36*
X0057974Y0068332D02*
X0057049Y0068669D01*
X0059068Y0074218D01*
X0059993Y0073881D01*
X0057974Y0068332D01*
G37*
G36*
X0059824Y0067659D02*
X0058899Y0067996D01*
X0060918Y0073545D01*
X0061843Y0073208D01*
X0059824Y0067659D01*
G37*
G36*
X0061674Y0066985D02*
X0060749Y0067322D01*
X0062768Y0072871D01*
X0063693Y0072534D01*
X0061674Y0066985D01*
G37*
G36*
X0063524Y0066312D02*
X0062599Y0066649D01*
X0064618Y0072198D01*
X0065543Y0071861D01*
X0063524Y0066312D01*
G37*
G36*
X0065373Y0065639D02*
X0064448Y0065976D01*
X0066467Y0071525D01*
X0067392Y0071188D01*
X0065373Y0065639D01*
G37*
G36*
X0067223Y0064966D02*
X0066298Y0065303D01*
X0068317Y0070852D01*
X0069242Y0070515D01*
X0067223Y0064966D01*
G37*
G36*
X0069073Y0064292D02*
X0068148Y0064629D01*
X0070167Y0070178D01*
X0071092Y0069841D01*
X0069073Y0064292D01*
G37*
G36*
X0076883Y0085750D02*
X0075958Y0086087D01*
X0077977Y0091636D01*
X0078902Y0091299D01*
X0076883Y0085750D01*
G37*
G36*
X0075033Y0086423D02*
X0074108Y0086760D01*
X0076127Y0092309D01*
X0077052Y0091972D01*
X0075033Y0086423D01*
G37*
G36*
X0073183Y0087096D02*
X0072258Y0087433D01*
X0074277Y0092982D01*
X0075202Y0092645D01*
X0073183Y0087096D01*
G37*
G36*
X0071333Y0087770D02*
X0070408Y0088107D01*
X0072427Y0093656D01*
X0073352Y0093319D01*
X0071333Y0087770D01*
G37*
G36*
X0069484Y0088443D02*
X0068559Y0088780D01*
X0070578Y0094329D01*
X0071503Y0093992D01*
X0069484Y0088443D01*
G37*
G36*
X0067634Y0089116D02*
X0066709Y0089453D01*
X0068728Y0095002D01*
X0069653Y0094665D01*
X0067634Y0089116D01*
G37*
G36*
X0065784Y0089789D02*
X0064859Y0090126D01*
X0066878Y0095675D01*
X0067803Y0095338D01*
X0065784Y0089789D01*
G37*
G36*
X0063934Y0090463D02*
X0063009Y0090800D01*
X0065028Y0096349D01*
X0065953Y0096012D01*
X0063934Y0090463D01*
G37*
G36*
X0062084Y0091136D02*
X0061159Y0091473D01*
X0063178Y0097022D01*
X0064103Y0096685D01*
X0062084Y0091136D01*
G37*
G36*
X0060235Y0091809D02*
X0059310Y0092146D01*
X0061329Y0097695D01*
X0062254Y0097358D01*
X0060235Y0091809D01*
G37*
D26*
G36*
X0044550Y0084111D02*
X0047378Y0091880D01*
X0052556Y0089995D01*
X0049728Y0082226D01*
X0044550Y0084111D01*
G37*
G36*
X0077846Y0071992D02*
X0080674Y0079761D01*
X0085852Y0077876D01*
X0083024Y0070107D01*
X0077846Y0071992D01*
G37*
D27*
X0023689Y0074803D03*
X0019949Y0074803D03*
X0016209Y0074803D03*
X0016209Y0085003D03*
X0023689Y0085003D03*
D28*
X0010500Y0062974D03*
X0006760Y0054313D03*
X0014240Y0054313D03*
D29*
X0019105Y0062243D02*
X0019105Y0066461D01*
X0021327Y0068683D01*
X0021327Y0069667D01*
X0023689Y0072029D01*
X0023689Y0074803D01*
X0023689Y0084037D02*
X0023689Y0085003D01*
X0022508Y0090533D02*
X0019555Y0090533D01*
X0016209Y0087187D01*
X0016209Y0085003D01*
X0027626Y0090533D02*
X0027626Y0094667D01*
X0029004Y0096045D01*
X0029004Y0097226D01*
X0031366Y0099588D01*
X0033335Y0099588D01*
X0035303Y0101557D01*
X0040618Y0101557D01*
X0042946Y0097029D02*
X0044949Y0097029D01*
X0045736Y0097817D01*
X0045736Y0101557D01*
X0045736Y0103328D01*
X0047114Y0104706D01*
X0042946Y0091911D02*
X0041406Y0091911D01*
X0040815Y0091321D01*
X0040815Y0087974D01*
X0041406Y0087384D01*
X0041406Y0086450D01*
X0038453Y0083497D01*
X0034396Y0083497D01*
X0034037Y0083138D01*
X0031760Y0085021D02*
X0032941Y0086202D01*
X0032941Y0086990D01*
X0033335Y0087384D01*
X0036287Y0087384D01*
X0031760Y0085021D02*
X0029398Y0085021D01*
X0029398Y0084824D01*
X0029398Y0085021D02*
X0029398Y0088761D01*
X0027626Y0090533D01*
X0030579Y0094470D02*
X0029004Y0096045D01*
X0030579Y0094470D02*
X0034746Y0094470D01*
X0027004Y0040219D02*
X0027004Y0038399D01*
X0030972Y0034431D01*
X0031366Y0034431D01*
X0033138Y0032659D01*
X0036681Y0032659D01*
X0037665Y0031675D01*
X0037272Y0026950D02*
X0037665Y0026557D01*
X0038243Y0025979D01*
X0039970Y0025979D01*
X0039982Y0025966D01*
X0041602Y0025966D01*
X0037272Y0026950D02*
X0031366Y0026950D01*
D30*
X0038815Y0023191D03*
X0041602Y0025966D03*
X0042554Y0017308D03*
X0045195Y0014894D03*
X0045539Y0010121D03*
X0048273Y0007800D03*
X0032154Y0018486D03*
X0028579Y0019273D03*
X0027004Y0040219D03*
X0036220Y0051686D03*
X0035697Y0056675D03*
X0043571Y0065730D03*
X0039634Y0066517D03*
X0040421Y0076360D03*
X0036878Y0079509D03*
X0034037Y0083138D03*
X0041996Y0080935D03*
X0029004Y0096045D03*
X0019555Y0079903D03*
X0015618Y0079116D03*
X0023492Y0079509D03*
X0019105Y0062243D03*
X0019161Y0057069D03*
X0005650Y0047660D03*
X0043965Y0047620D03*
X0052003Y0041634D03*
X0062695Y0048776D03*
X0065106Y0061559D03*
X0062382Y0063890D03*
X0077035Y0057856D03*
X0088453Y0065730D03*
X0092390Y0063368D03*
X0104201Y0063368D03*
X0099083Y0052344D03*
X0091602Y0032659D03*
X0081878Y0031754D03*
X0079807Y0036153D03*
X0077280Y0033625D03*
X0076737Y0029414D03*
X0072705Y0033549D03*
X0069130Y0032349D03*
X0078703Y0016425D03*
X0086226Y0020713D03*
X0065618Y0007856D03*
X0079398Y0094076D03*
X0064437Y0099195D03*
X0047114Y0104706D03*
D31*
X0027232Y0081872D02*
X0025854Y0081872D01*
X0023689Y0084037D01*
X0027232Y0081872D02*
X0029398Y0079706D01*
X0029004Y0079313D01*
X0028610Y0079313D01*
X0028020Y0078722D01*
X0024280Y0078722D01*
X0023492Y0079509D01*
X0019949Y0079509D02*
X0019949Y0074803D01*
X0018409Y0073263D01*
X0018409Y0071706D01*
X0017706Y0071003D01*
X0017545Y0071003D01*
X0016209Y0069667D01*
X0019949Y0079509D02*
X0019555Y0079903D01*
X0014240Y0051950D02*
X0014240Y0049588D01*
X0013453Y0048801D01*
X0008335Y0048801D02*
X0007194Y0047660D01*
X0005650Y0047660D01*
X0025067Y0029313D02*
X0028020Y0032265D01*
X0029201Y0032265D01*
X0031366Y0034431D01*
X0041602Y0025966D02*
X0041799Y0026163D01*
X0044555Y0026163D01*
X0052823Y0026163D01*
X0053807Y0027147D01*
X0068779Y0063282D02*
X0069620Y0067235D01*
X0092390Y0056380D02*
X0099181Y0056380D01*
X0099280Y0056281D01*
X0099280Y0052541D01*
X0099083Y0052344D01*
X0104201Y0056478D02*
X0104201Y0063368D01*
X0104201Y0056478D02*
X0104398Y0056281D01*
D32*
X0029569Y0012409D02*
X0020736Y0021242D01*
X0020736Y0032179D01*
X0023236Y0034679D01*
X0023236Y0045908D01*
X0022838Y0046306D01*
X0022838Y0060935D01*
X0027972Y0066070D01*
X0027972Y0070757D01*
X0034516Y0077301D01*
X0034516Y0080297D01*
X0034591Y0080372D01*
X0034591Y0080457D01*
X0035930Y0081797D01*
X0039623Y0081797D01*
X0041049Y0083222D01*
X0042944Y0083222D01*
X0043113Y0083053D01*
X0043177Y0083053D01*
X0045146Y0081084D01*
X0050657Y0081084D01*
X0058531Y0088958D01*
X0060782Y0094752D01*
X0062631Y0094079D02*
X0064437Y0099195D01*
X0068374Y0098013D02*
X0069180Y0098820D01*
X0081283Y0098820D01*
X0088078Y0092025D01*
X0088078Y0083229D01*
X0088236Y0077475D01*
X0088078Y0077054D01*
X0088078Y0077044D01*
X0088072Y0077038D01*
X0086537Y0072936D01*
X0086120Y0071743D01*
X0086120Y0055220D01*
X0081198Y0050299D01*
X0081198Y0039126D01*
X0082095Y0038230D01*
X0082095Y0035205D01*
X0079024Y0032135D01*
X0079024Y0028467D01*
X0076721Y0026163D01*
X0063059Y0026163D01*
X0063059Y0024195D02*
X0076449Y0024195D01*
X0080224Y0027970D01*
X0080224Y0030691D01*
X0081287Y0031754D01*
X0081878Y0031754D01*
X0084165Y0030214D02*
X0084165Y0034191D01*
X0083295Y0035061D01*
X0083295Y0038727D01*
X0082398Y0039623D01*
X0082398Y0049802D01*
X0087320Y0054723D01*
X0087320Y0064597D01*
X0088453Y0065730D01*
X0084704Y0065336D02*
X0084779Y0071543D01*
X0086878Y0077541D01*
X0086878Y0091528D01*
X0080786Y0097620D01*
X0070736Y0097620D01*
X0069949Y0096832D01*
X0068181Y0092059D01*
X0070031Y0091386D02*
X0071917Y0096045D01*
X0072236Y0096364D01*
X0080345Y0096364D01*
X0081760Y0094949D01*
X0081760Y0092895D01*
X0080185Y0088958D01*
X0077659Y0085185D01*
X0075854Y0081872D01*
X0075854Y0072208D01*
X0079604Y0068458D01*
X0080868Y0068458D01*
X0083504Y0065822D01*
X0083504Y0055998D01*
X0078798Y0051293D01*
X0078798Y0040076D01*
X0074559Y0035836D01*
X0066126Y0035836D01*
X0062743Y0039220D01*
X0059319Y0039220D01*
X0058728Y0038629D01*
X0058728Y0036399D01*
X0056760Y0036399D02*
X0056760Y0039622D01*
X0057557Y0040420D01*
X0063240Y0040420D01*
X0066623Y0037036D01*
X0074062Y0037036D01*
X0077598Y0040573D01*
X0077598Y0051790D01*
X0082304Y0056495D01*
X0082304Y0065325D01*
X0080371Y0067258D01*
X0079107Y0067258D01*
X0071955Y0074410D01*
X0071955Y0079903D01*
X0075580Y0089366D01*
X0073730Y0090039D02*
X0070755Y0082659D01*
X0070755Y0073913D01*
X0078610Y0066058D01*
X0079874Y0066058D01*
X0081104Y0064828D01*
X0081104Y0056992D01*
X0076398Y0052287D01*
X0076398Y0041070D01*
X0073565Y0038236D01*
X0067120Y0038236D01*
X0063737Y0041620D01*
X0057060Y0041620D01*
X0054791Y0039351D01*
X0054791Y0036399D01*
X0052823Y0036399D02*
X0052823Y0039080D01*
X0056563Y0042820D01*
X0064234Y0042820D01*
X0067617Y0039436D01*
X0073068Y0039436D01*
X0075198Y0041567D01*
X0075198Y0052784D01*
X0079904Y0057490D01*
X0079904Y0064331D01*
X0079377Y0064858D01*
X0078067Y0064858D01*
X0069555Y0073370D01*
X0069555Y0084234D01*
X0071880Y0090713D01*
X0066331Y0092732D02*
X0068374Y0098013D01*
X0064481Y0093406D02*
X0062469Y0088171D01*
X0054182Y0079884D01*
X0043046Y0079884D01*
X0041996Y0080935D01*
X0041369Y0078647D02*
X0039474Y0078647D01*
X0038134Y0077307D01*
X0038134Y0075572D01*
X0037366Y0074805D01*
X0035414Y0074805D01*
X0030372Y0069763D01*
X0030372Y0065075D01*
X0025238Y0059941D01*
X0025238Y0047300D01*
X0033234Y0039304D01*
X0035214Y0039304D01*
X0039081Y0035437D01*
X0040712Y0035437D01*
X0041274Y0034875D01*
X0041274Y0031806D01*
X0042980Y0030100D01*
X0044555Y0030100D01*
X0044555Y0032069D02*
X0043479Y0032069D01*
X0042474Y0033074D01*
X0042474Y0035372D01*
X0041209Y0036637D01*
X0039578Y0036637D01*
X0035711Y0040504D01*
X0033731Y0040504D01*
X0026438Y0047797D01*
X0026438Y0059444D01*
X0031572Y0064578D01*
X0031572Y0069266D01*
X0035911Y0073605D01*
X0044752Y0073605D01*
X0045719Y0073605D01*
X0051224Y0068100D01*
X0053123Y0068100D01*
X0054822Y0072621D01*
X0056671Y0071948D02*
X0054985Y0066900D01*
X0050727Y0066900D01*
X0045222Y0072405D01*
X0036408Y0072405D01*
X0032772Y0068769D01*
X0032772Y0064081D01*
X0027638Y0058947D01*
X0027638Y0048294D01*
X0034228Y0041704D01*
X0036208Y0041704D01*
X0040075Y0037837D01*
X0043177Y0037837D01*
X0044555Y0036459D01*
X0044555Y0034037D01*
X0046917Y0036399D02*
X0046917Y0038446D01*
X0046327Y0039037D01*
X0040572Y0039037D01*
X0036706Y0042904D01*
X0034725Y0042904D01*
X0028838Y0048791D01*
X0028838Y0058450D01*
X0033972Y0063584D01*
X0033972Y0068272D01*
X0036905Y0071205D01*
X0044725Y0071205D01*
X0050230Y0065700D01*
X0056572Y0065700D01*
X0058521Y0071275D01*
X0060371Y0070602D02*
X0058028Y0064500D01*
X0049733Y0064500D01*
X0044228Y0070005D01*
X0037402Y0070005D01*
X0035172Y0067775D01*
X0035172Y0063087D01*
X0030038Y0057953D01*
X0030038Y0049289D01*
X0035222Y0044104D01*
X0037203Y0044104D01*
X0041070Y0040237D01*
X0047682Y0040237D01*
X0048886Y0039033D01*
X0048886Y0036399D01*
X0050854Y0036399D02*
X0050854Y0038761D01*
X0048179Y0041437D01*
X0041567Y0041437D01*
X0037700Y0045304D01*
X0035719Y0045304D01*
X0031238Y0049786D01*
X0031238Y0057456D01*
X0036372Y0062590D01*
X0036372Y0067277D01*
X0037899Y0068805D01*
X0043731Y0068805D01*
X0049236Y0063300D01*
X0053807Y0063300D01*
X0055776Y0063300D01*
X0058911Y0063300D01*
X0058911Y0063299D01*
X0059713Y0063299D01*
X0062221Y0069928D01*
X0064071Y0069255D02*
X0062862Y0066124D01*
X0062382Y0063890D01*
X0065106Y0063643D02*
X0065106Y0061559D01*
X0066927Y0061559D01*
X0067958Y0060528D01*
X0070849Y0060528D01*
X0072508Y0062187D01*
X0075967Y0060612D02*
X0073998Y0058643D01*
X0073998Y0056984D01*
X0073394Y0056380D01*
X0073998Y0055775D01*
X0073998Y0042614D01*
X0072409Y0041025D01*
X0070343Y0041025D01*
X0070343Y0043584D02*
X0066447Y0043584D01*
X0066012Y0044020D01*
X0047248Y0044020D01*
X0045865Y0042637D01*
X0042064Y0042637D01*
X0038197Y0046504D01*
X0036216Y0046504D01*
X0032438Y0050283D01*
X0032438Y0056959D01*
X0035697Y0060218D01*
X0045539Y0060218D01*
X0046376Y0059381D01*
X0046376Y0057767D01*
X0048256Y0055887D01*
X0049776Y0055887D01*
X0049776Y0054313D02*
X0048134Y0054313D01*
X0046559Y0055887D01*
X0044949Y0055887D01*
X0043768Y0057069D01*
X0046353Y0054397D02*
X0041171Y0054397D01*
X0040748Y0053974D01*
X0035018Y0053974D01*
X0033638Y0052593D01*
X0033638Y0050780D01*
X0036713Y0047704D01*
X0038694Y0047704D01*
X0042561Y0043837D01*
X0045368Y0043837D01*
X0046751Y0045220D01*
X0064468Y0045220D01*
X0065391Y0046143D01*
X0070343Y0046143D01*
X0070343Y0048702D02*
X0066253Y0048702D01*
X0063970Y0046420D01*
X0046254Y0046420D01*
X0044871Y0045037D01*
X0043058Y0045037D01*
X0041209Y0046886D01*
X0041209Y0052738D01*
X0041668Y0053197D01*
X0045855Y0053197D01*
X0047889Y0051163D01*
X0049736Y0051163D01*
X0049776Y0052738D02*
X0048012Y0052738D01*
X0046353Y0054397D01*
X0048378Y0057462D02*
X0047576Y0058264D01*
X0047576Y0059878D01*
X0046036Y0061418D01*
X0045146Y0061418D01*
X0043768Y0062796D01*
X0043768Y0062974D01*
X0043768Y0065533D01*
X0043571Y0065730D01*
X0039634Y0065730D02*
X0039634Y0066517D01*
X0039634Y0065730D02*
X0039437Y0065533D01*
X0039437Y0063761D01*
X0038650Y0062974D01*
X0038650Y0057069D02*
X0036091Y0057069D01*
X0035697Y0056675D01*
X0036220Y0051686D02*
X0037531Y0050376D01*
X0038650Y0050376D01*
X0043768Y0050376D02*
X0043768Y0047817D01*
X0043965Y0047620D01*
X0043768Y0050376D02*
X0046327Y0050376D01*
X0047508Y0049195D01*
X0047508Y0048407D01*
X0048295Y0047620D01*
X0051445Y0047620D01*
X0051839Y0048013D01*
X0051839Y0049061D01*
X0059713Y0049061D02*
X0059713Y0048013D01*
X0060106Y0047620D01*
X0060894Y0047620D01*
X0062050Y0048776D01*
X0062695Y0048776D01*
X0063975Y0050055D01*
X0063975Y0051936D01*
X0063173Y0052738D01*
X0061776Y0052738D01*
X0061776Y0055887D02*
X0063650Y0055887D01*
X0064437Y0055100D01*
X0064437Y0053171D01*
X0066346Y0051261D01*
X0070343Y0051261D01*
X0070343Y0053821D02*
X0066504Y0053821D01*
X0065637Y0054687D01*
X0065637Y0055597D01*
X0063772Y0057462D01*
X0061776Y0057462D01*
X0061815Y0059037D02*
X0064831Y0059037D01*
X0064929Y0058939D01*
X0070343Y0058939D01*
X0070343Y0056380D02*
X0073394Y0056380D01*
X0077035Y0057856D02*
X0077626Y0058446D01*
X0077626Y0062187D01*
X0077626Y0061990D01*
X0076248Y0060612D01*
X0075967Y0060612D01*
X0068768Y0063231D02*
X0068779Y0063282D01*
X0066406Y0064549D02*
X0065618Y0064155D01*
X0065106Y0063643D01*
X0066406Y0064549D02*
X0067770Y0067909D01*
X0065920Y0068582D02*
X0067193Y0072029D01*
X0066799Y0072817D01*
X0054201Y0077541D01*
X0042475Y0077541D01*
X0041369Y0078647D01*
X0040421Y0076360D02*
X0041976Y0074805D01*
X0046216Y0074805D01*
X0050960Y0070061D01*
X0051839Y0070061D01*
X0052972Y0073295D01*
X0049776Y0057462D02*
X0048378Y0057462D01*
X0036091Y0076005D02*
X0034917Y0076005D01*
X0029172Y0070260D01*
X0029172Y0065572D01*
X0024038Y0060438D01*
X0024038Y0046803D01*
X0024436Y0046405D01*
X0024436Y0034182D01*
X0021936Y0031682D01*
X0021936Y0027325D01*
X0025067Y0024195D01*
X0026839Y0022423D01*
X0038046Y0022423D01*
X0038815Y0023191D01*
X0039302Y0023679D01*
X0042550Y0023679D01*
X0043066Y0024195D01*
X0044555Y0024195D01*
X0044555Y0022226D02*
X0041406Y0022226D01*
X0037665Y0018486D01*
X0032154Y0018486D01*
X0030898Y0016198D02*
X0037075Y0016198D01*
X0041134Y0020258D01*
X0044555Y0020258D01*
X0045109Y0017895D02*
X0044522Y0017308D01*
X0042554Y0017308D01*
X0045109Y0017895D02*
X0046917Y0017895D01*
X0048886Y0017895D02*
X0048886Y0015831D01*
X0047949Y0014894D01*
X0045195Y0014894D01*
X0047161Y0012409D02*
X0029569Y0012409D01*
X0030898Y0016198D02*
X0028579Y0018517D01*
X0028579Y0019273D01*
X0045539Y0010121D02*
X0046570Y0010121D01*
X0052823Y0016374D01*
X0052823Y0017895D01*
X0053876Y0015730D02*
X0049561Y0011415D01*
X0048273Y0010127D01*
X0048273Y0007800D01*
X0047161Y0012409D02*
X0050854Y0016102D01*
X0050854Y0017895D01*
X0053876Y0015730D02*
X0054201Y0015730D01*
X0054791Y0016321D01*
X0054791Y0017895D01*
X0056760Y0017895D02*
X0056844Y0017811D01*
X0056844Y0016735D01*
X0058965Y0014614D01*
X0075354Y0014614D01*
X0075831Y0014137D01*
X0079650Y0014137D01*
X0083605Y0018092D01*
X0086840Y0018092D01*
X0088513Y0019765D01*
X0088513Y0021303D01*
X0095090Y0027880D01*
X0095090Y0034327D01*
X0096365Y0035602D01*
X0096365Y0038989D01*
X0097246Y0039870D01*
X0097246Y0046570D01*
X0101839Y0051163D01*
X0101839Y0058643D01*
X0101445Y0059037D01*
X0092488Y0059037D01*
X0092390Y0058939D01*
X0092390Y0053821D02*
X0094850Y0053821D01*
X0096046Y0052625D01*
X0096046Y0040367D01*
X0095165Y0039486D01*
X0095165Y0036099D01*
X0093890Y0034824D01*
X0093890Y0028377D01*
X0086226Y0020713D01*
X0088965Y0026687D02*
X0088965Y0036179D01*
X0088095Y0037050D01*
X0088095Y0040715D01*
X0087208Y0041601D01*
X0087208Y0042895D01*
X0087897Y0043584D01*
X0092390Y0043584D01*
X0092390Y0041025D02*
X0093177Y0041025D01*
X0093965Y0040238D01*
X0093965Y0036596D01*
X0091602Y0034234D01*
X0091602Y0032659D01*
X0087765Y0035682D02*
X0087765Y0028722D01*
X0074857Y0015814D01*
X0059734Y0015814D01*
X0058813Y0016735D01*
X0058813Y0017811D01*
X0058728Y0017895D01*
X0060697Y0017895D02*
X0075241Y0017895D01*
X0086565Y0029219D01*
X0086565Y0031478D01*
X0086565Y0031872D01*
X0086565Y0035185D01*
X0085695Y0036055D01*
X0085695Y0039721D01*
X0084808Y0040607D01*
X0084808Y0047226D01*
X0086285Y0048702D01*
X0092390Y0048702D01*
X0092390Y0046143D02*
X0087288Y0046143D01*
X0086008Y0044864D01*
X0086008Y0041104D01*
X0086895Y0040218D01*
X0086895Y0036552D01*
X0087765Y0035682D01*
X0085365Y0034688D02*
X0085365Y0029716D01*
X0076766Y0021117D01*
X0076384Y0020735D01*
X0075906Y0020258D01*
X0063059Y0020258D01*
X0063059Y0022226D02*
X0076178Y0022226D01*
X0084165Y0030214D01*
X0085365Y0034688D02*
X0084495Y0035558D01*
X0084495Y0039224D01*
X0083608Y0040110D01*
X0083608Y0049314D01*
X0085555Y0051261D01*
X0092390Y0051261D01*
X0084704Y0055501D02*
X0079998Y0050796D01*
X0079998Y0039579D01*
X0074992Y0034572D01*
X0074992Y0032601D01*
X0072452Y0030061D01*
X0068182Y0030061D01*
X0066175Y0032069D01*
X0063059Y0032069D01*
X0063059Y0034037D02*
X0064531Y0034037D01*
X0065132Y0033436D01*
X0068043Y0033436D01*
X0069130Y0032349D01*
X0071617Y0034636D02*
X0065629Y0034636D01*
X0063866Y0036399D01*
X0060697Y0036399D01*
X0063059Y0030100D02*
X0066447Y0030100D01*
X0067685Y0028861D01*
X0072949Y0028861D01*
X0076192Y0032104D01*
X0076192Y0032538D01*
X0077280Y0033625D01*
X0076737Y0029414D02*
X0074984Y0027661D01*
X0067188Y0027661D01*
X0066718Y0028132D01*
X0063059Y0028132D01*
X0071617Y0034636D02*
X0072705Y0033549D01*
X0088965Y0026687D02*
X0078703Y0016425D01*
X0084704Y0055501D02*
X0084704Y0065336D01*
X0036878Y0076792D02*
X0036878Y0079509D01*
X0036878Y0076792D02*
X0036091Y0076005D01*
X0017868Y0058362D02*
X0009628Y0058362D01*
X0006760Y0055494D01*
X0006760Y0054313D01*
X0017868Y0058362D02*
X0019161Y0057069D01*
X0016209Y0074803D02*
X0016209Y0078525D01*
X0015618Y0079116D01*
D33*
X0037665Y0031675D02*
X0038650Y0030691D01*
X0040410Y0030691D01*
X0042969Y0028132D01*
X0044555Y0028132D01*
X0077430Y0088693D02*
X0079398Y0094076D01*
D34*
X0068768Y0063231D03*
D35*
X0055776Y0101360D03*
X0055776Y0008840D03*
D36*
X0014856Y0038150D02*
X0014240Y0038766D01*
X0014240Y0051950D01*
X0014240Y0054313D01*
X0011231Y0062243D02*
X0019105Y0062243D01*
X0011231Y0062243D02*
X0010500Y0062974D01*
M02*
