%
M48
M72
T01C0.01575
T02C0.01969
T03C0.02362
T04C0.05906
T05C0.07087
%
T01
X28579Y19273
X32154Y18486
X38815Y23191
X41602Y25966
X42554Y17308
X45195Y14894
X45539Y10121
X48273Y7800
X65618Y7856
X78703Y16425
X86226Y20713
X76737Y29414
X77280Y33625
X79807Y36153
X81878Y31754
X72705Y33549
X69130Y32349
X62695Y48776
X52003Y41634
X43965Y47620
X36220Y51686
X35697Y56675
X43571Y65730
X39634Y66517
X40421Y76360
X36878Y79509
X34037Y83138
X41996Y80935
X29004Y96045
X19555Y79903
X15618Y79116
X23492Y79509
X19105Y62243
X19161Y57069
X5650Y47660
X27004Y40219
X62382Y63890
X65106Y61559
X77035Y57856
X88453Y65730
X92390Y63368
X104201Y63368
X99083Y52344
X91602Y32659
X79398Y94076
X64437Y99195
X47114Y104706
T02
X68768Y63231
T03
X80708Y83310
X54811Y92736
T04
X96695Y72050
X14856Y38150
T05
X55776Y8840
X55776Y101360
M30
