G75*
%MOIN*%
%OFA0B0*%
%FSLAX25Y25*%
%IPPOS*%
%LPD*%
%AMOC8*
5,1,8,0,0,1.08239X$1,22.5*
%
%ADD10C,0.00004*%
%ADD11C,0.00000*%
%ADD12C,0.00300*%
%ADD13C,0.00600*%
%ADD14C,0.00500*%
%ADD15C,0.00100*%
%ADD16C,0.00800*%
D10*
X0053807Y0001002D02*
X0053811Y0001089D01*
X0053818Y0001176D01*
X0053829Y0001263D01*
X0053845Y0001349D01*
X0053863Y0001434D01*
X0053886Y0001518D01*
X0053912Y0001602D01*
X0053942Y0001684D01*
X0053976Y0001764D01*
X0054013Y0001843D01*
X0054054Y0001921D01*
X0054098Y0001996D01*
X0054145Y0002069D01*
X0054196Y0002141D01*
X0054249Y0002210D01*
X0054306Y0002276D01*
X0054366Y0002340D01*
X0054428Y0002401D01*
X0054493Y0002459D01*
X0054560Y0002515D01*
X0054630Y0002567D01*
X0054702Y0002617D01*
X0054777Y0002663D01*
X0054853Y0002705D01*
X0054931Y0002744D01*
X0055011Y0002780D01*
X0055092Y0002812D01*
X0055174Y0002841D01*
X0055258Y0002866D01*
X0055343Y0002887D01*
X0055428Y0002904D01*
X0055515Y0002918D01*
X0055602Y0002927D01*
X0055689Y0002933D01*
X0055776Y0002935D01*
X0055863Y0002933D01*
X0055950Y0002927D01*
X0056037Y0002918D01*
X0056124Y0002904D01*
X0056209Y0002887D01*
X0056294Y0002866D01*
X0056378Y0002841D01*
X0056460Y0002812D01*
X0056541Y0002780D01*
X0056621Y0002744D01*
X0056699Y0002705D01*
X0056775Y0002663D01*
X0056850Y0002617D01*
X0056922Y0002567D01*
X0056992Y0002515D01*
X0057059Y0002459D01*
X0057124Y0002401D01*
X0057186Y0002340D01*
X0057246Y0002276D01*
X0057303Y0002210D01*
X0057356Y0002141D01*
X0057407Y0002069D01*
X0057454Y0001996D01*
X0057498Y0001921D01*
X0057539Y0001843D01*
X0057576Y0001764D01*
X0057610Y0001684D01*
X0057640Y0001602D01*
X0057666Y0001518D01*
X0057689Y0001434D01*
X0057707Y0001349D01*
X0057723Y0001263D01*
X0057734Y0001176D01*
X0057741Y0001089D01*
X0057745Y0001002D01*
X0102557Y0032836D02*
X0104751Y0032037D01*
X0102557Y0032836D02*
X0102427Y0032885D01*
X0102298Y0032938D01*
X0102171Y0032995D01*
X0102045Y0033056D01*
X0101922Y0033119D01*
X0101800Y0033187D01*
X0101680Y0033258D01*
X0101562Y0033332D01*
X0101446Y0033409D01*
X0101333Y0033490D01*
X0101221Y0033574D01*
X0101113Y0033661D01*
X0101006Y0033751D01*
X0100903Y0033844D01*
X0100802Y0033940D01*
X0100703Y0034038D01*
X0100608Y0034140D01*
X0100515Y0034244D01*
X0100426Y0034351D01*
X0100339Y0034460D01*
X0100256Y0034571D01*
X0100176Y0034685D01*
X0100099Y0034801D01*
X0100025Y0034920D01*
X0099955Y0035040D01*
X0099888Y0035162D01*
X0099825Y0035286D01*
X0099765Y0035412D01*
X0099709Y0035539D01*
X0099657Y0035668D01*
X0099608Y0035799D01*
X0099563Y0035930D01*
X0099521Y0036063D01*
X0099484Y0036198D01*
X0099450Y0036333D01*
X0099420Y0036469D01*
X0099394Y0036605D01*
X0099372Y0036743D01*
X0099353Y0036881D01*
X0099339Y0037020D01*
X0099328Y0037158D01*
X0099322Y0037298D01*
X0099319Y0037437D01*
X0099320Y0037576D01*
X0099326Y0037715D01*
X0099335Y0037854D01*
X0099348Y0037993D01*
X0099365Y0038131D01*
X0099386Y0038269D01*
X0099411Y0038406D01*
X0099439Y0038542D01*
X0099472Y0038678D01*
X0099508Y0038812D01*
X0099549Y0038945D01*
X0099592Y0039077D01*
X0099640Y0039208D01*
X0099691Y0039338D01*
X0099746Y0039466D01*
X0099805Y0039592D01*
X0099867Y0039717D01*
X0099933Y0039840D01*
X0100002Y0039961D01*
X0100074Y0040080D01*
X0100150Y0040196D01*
X0100229Y0040311D01*
X0100311Y0040423D01*
X0100397Y0040533D01*
X0100485Y0040641D01*
X0100577Y0040746D01*
X0100671Y0040848D01*
X0100769Y0040948D01*
X0100869Y0041045D01*
X0100971Y0041139D01*
X0101077Y0041230D01*
X0101185Y0041318D01*
X0101295Y0041403D01*
X0101408Y0041484D01*
X0101523Y0041563D01*
X0101640Y0041638D01*
X0101759Y0041710D01*
X0101881Y0041779D01*
X0102004Y0041844D01*
X0102129Y0041905D01*
X0102255Y0041963D01*
X0102384Y0042017D01*
X0102513Y0042068D01*
X0102644Y0042115D01*
X0102777Y0042158D01*
X0102910Y0042198D01*
X0103045Y0042234D01*
X0103181Y0042266D01*
X0103317Y0042294D01*
X0103454Y0042318D01*
X0103592Y0042338D01*
X0103730Y0042355D01*
X0103869Y0042367D01*
X0104008Y0042376D01*
X0104147Y0042380D01*
X0104286Y0042381D01*
X0104426Y0042377D01*
X0104565Y0042370D01*
X0104704Y0042359D01*
X0104842Y0042344D01*
X0104980Y0042325D01*
X0105117Y0042302D01*
X0105254Y0042275D01*
X0105390Y0042245D01*
X0105525Y0042210D01*
X0105659Y0042172D01*
X0105792Y0042130D01*
X0105923Y0042084D01*
X0105923Y0042085D02*
X0108117Y0041286D01*
X0053808Y0001002D02*
X0052498Y0001065D01*
X0051190Y0001161D01*
X0049885Y0001287D01*
X0048583Y0001446D01*
X0047286Y0001636D01*
X0045994Y0001857D01*
X0044707Y0002110D01*
X0043427Y0002393D01*
X0042154Y0002708D01*
X0040889Y0003053D01*
X0039633Y0003429D01*
X0038386Y0003835D01*
X0037149Y0004271D01*
X0035924Y0004737D01*
X0034710Y0005233D01*
X0033508Y0005758D01*
X0032320Y0006312D01*
X0031145Y0006894D01*
X0029985Y0007505D01*
X0028840Y0008143D01*
X0027710Y0008810D01*
X0026597Y0009503D01*
X0025501Y0010223D01*
X0024423Y0010969D01*
X0023364Y0011742D01*
X0022323Y0012540D01*
X0021302Y0013362D01*
X0020301Y0014209D01*
X0019321Y0015081D01*
X0018363Y0015975D01*
X0017426Y0016893D01*
X0016512Y0017833D01*
X0015621Y0018795D01*
X0014753Y0019778D01*
X0013910Y0020782D01*
X0013091Y0021806D01*
X0012297Y0022850D01*
X0011529Y0023912D01*
X0010786Y0024993D01*
X0010070Y0026091D01*
X0009381Y0027207D01*
X0008719Y0028339D01*
X0008085Y0029486D01*
X0007479Y0030649D01*
X0006901Y0031826D01*
X0006351Y0033016D01*
X0005831Y0034220D01*
X0005340Y0035436D01*
X0004878Y0036663D01*
X0004447Y0037901D01*
X0004045Y0039150D01*
X0003674Y0040407D01*
X0003334Y0041673D01*
X0003024Y0042947D01*
X0002745Y0044229D01*
X0002497Y0045516D01*
X0002281Y0046809D01*
X0002096Y0048108D01*
X0001942Y0049410D01*
X0001820Y0050715D01*
X0001729Y0052023D01*
X0001671Y0053333D01*
X0001644Y0054644D01*
X0001649Y0055955D01*
X0001685Y0057266D01*
X0001754Y0058576D01*
X0001854Y0059883D01*
X0001985Y0061188D01*
X0002149Y0062489D01*
X0002343Y0063785D01*
X0002569Y0065077D01*
X0002827Y0066363D01*
X0003115Y0067642D01*
X0003434Y0068914D01*
X0005628Y0068115D01*
X0005628Y0068116D02*
X0005759Y0068070D01*
X0005892Y0068028D01*
X0006026Y0067990D01*
X0006161Y0067955D01*
X0006297Y0067925D01*
X0006434Y0067898D01*
X0006571Y0067875D01*
X0006709Y0067856D01*
X0006847Y0067841D01*
X0006986Y0067830D01*
X0007125Y0067823D01*
X0007265Y0067819D01*
X0007404Y0067820D01*
X0007543Y0067824D01*
X0007682Y0067833D01*
X0007821Y0067845D01*
X0007959Y0067862D01*
X0008097Y0067882D01*
X0008234Y0067906D01*
X0008370Y0067934D01*
X0008506Y0067966D01*
X0008641Y0068002D01*
X0008774Y0068042D01*
X0008907Y0068085D01*
X0009038Y0068132D01*
X0009167Y0068183D01*
X0009296Y0068237D01*
X0009422Y0068295D01*
X0009547Y0068356D01*
X0009670Y0068421D01*
X0009792Y0068490D01*
X0009911Y0068562D01*
X0010028Y0068637D01*
X0010143Y0068716D01*
X0010256Y0068797D01*
X0010366Y0068882D01*
X0010474Y0068970D01*
X0010580Y0069061D01*
X0010682Y0069155D01*
X0010782Y0069252D01*
X0010880Y0069352D01*
X0010974Y0069454D01*
X0011066Y0069559D01*
X0011154Y0069667D01*
X0011240Y0069777D01*
X0011322Y0069889D01*
X0011401Y0070004D01*
X0011477Y0070120D01*
X0011549Y0070239D01*
X0011618Y0070360D01*
X0011684Y0070483D01*
X0011746Y0070608D01*
X0011805Y0070734D01*
X0011860Y0070862D01*
X0011911Y0070992D01*
X0011959Y0071123D01*
X0012002Y0071255D01*
X0012043Y0071388D01*
X0012079Y0071522D01*
X0012112Y0071658D01*
X0012140Y0071794D01*
X0012165Y0071931D01*
X0012186Y0072069D01*
X0012203Y0072207D01*
X0012216Y0072346D01*
X0012225Y0072485D01*
X0012231Y0072624D01*
X0012232Y0072763D01*
X0012229Y0072902D01*
X0012223Y0073042D01*
X0012212Y0073180D01*
X0012198Y0073319D01*
X0012179Y0073457D01*
X0012157Y0073595D01*
X0012131Y0073731D01*
X0012101Y0073867D01*
X0012067Y0074002D01*
X0012030Y0074137D01*
X0011988Y0074270D01*
X0011943Y0074401D01*
X0011894Y0074532D01*
X0011842Y0074661D01*
X0011786Y0074788D01*
X0011726Y0074914D01*
X0011663Y0075038D01*
X0011596Y0075160D01*
X0011526Y0075280D01*
X0011452Y0075399D01*
X0011375Y0075515D01*
X0011295Y0075629D01*
X0011212Y0075740D01*
X0011125Y0075849D01*
X0011036Y0075956D01*
X0010943Y0076060D01*
X0010848Y0076162D01*
X0010749Y0076260D01*
X0010648Y0076356D01*
X0010545Y0076449D01*
X0010438Y0076539D01*
X0010330Y0076626D01*
X0010218Y0076710D01*
X0010105Y0076791D01*
X0009989Y0076868D01*
X0009871Y0076942D01*
X0009751Y0077013D01*
X0009629Y0077081D01*
X0009506Y0077144D01*
X0009380Y0077205D01*
X0009253Y0077262D01*
X0009124Y0077315D01*
X0008994Y0077364D01*
X0006800Y0078163D01*
X0007379Y0079354D01*
X0007986Y0080530D01*
X0008623Y0081691D01*
X0009287Y0082837D01*
X0009979Y0083965D01*
X0010699Y0085077D01*
X0011445Y0086170D01*
X0012219Y0087245D01*
X0013018Y0088301D01*
X0013843Y0089337D01*
X0014692Y0090352D01*
X0015567Y0091346D01*
X0016465Y0092319D01*
X0017387Y0093269D01*
X0018332Y0094196D01*
X0019299Y0095100D01*
X0020289Y0095981D01*
X0021299Y0096836D01*
X0022330Y0097667D01*
X0023381Y0098472D01*
X0024451Y0099251D01*
X0025541Y0100004D01*
X0026648Y0100730D01*
X0027773Y0101429D01*
X0028914Y0102100D01*
X0030071Y0102743D01*
X0031244Y0103357D01*
X0032432Y0103943D01*
X0033633Y0104499D01*
X0034848Y0105026D01*
X0036075Y0105523D01*
X0037314Y0105990D01*
X0038564Y0106426D01*
X0039825Y0106832D01*
X0041095Y0107206D01*
X0042373Y0107550D01*
X0043660Y0107862D01*
X0044954Y0108142D01*
X0046255Y0108391D01*
X0047561Y0108608D01*
X0048872Y0108793D01*
X0050187Y0108946D01*
X0051506Y0109066D01*
X0052827Y0109155D01*
X0054149Y0109211D01*
X0055473Y0109234D01*
X0056797Y0109225D01*
X0058121Y0109184D01*
X0059443Y0109111D01*
X0060763Y0109005D01*
X0062079Y0108867D01*
X0063392Y0108697D01*
X0064701Y0108494D01*
X0066004Y0108260D01*
X0067301Y0107994D01*
X0068591Y0107696D01*
X0069874Y0107367D01*
X0071148Y0107007D01*
X0072413Y0106615D01*
X0073667Y0106193D01*
X0074912Y0105740D01*
X0076144Y0105257D01*
X0077365Y0104744D01*
X0078573Y0104201D01*
X0079767Y0103629D01*
X0080946Y0103028D01*
X0082111Y0102398D01*
X0083260Y0101739D01*
X0084392Y0101053D01*
X0085507Y0100340D01*
X0086605Y0099599D01*
X0087684Y0098832D01*
X0088744Y0098038D01*
X0089784Y0097219D01*
X0090804Y0096375D01*
X0091803Y0095506D01*
X0092780Y0094613D01*
X0093736Y0093696D01*
X0094668Y0092756D01*
X0095577Y0091793D01*
X0096463Y0090809D01*
X0097324Y0089803D01*
X0098160Y0088777D01*
X0098971Y0087730D01*
X0099756Y0086664D01*
X0100515Y0085579D01*
X0101247Y0084476D01*
X0101952Y0083355D01*
X0102629Y0082217D01*
X0103278Y0081063D01*
X0103899Y0079894D01*
X0104491Y0078709D01*
X0105054Y0077511D01*
X0105587Y0076299D01*
X0106091Y0075074D01*
X0106564Y0073838D01*
X0107007Y0072590D01*
X0107419Y0071332D01*
X0107801Y0070064D01*
X0108151Y0068787D01*
X0108470Y0067502D01*
X0108758Y0066210D01*
X0109014Y0064911D01*
X0109238Y0063606D01*
X0109430Y0062296D01*
X0109590Y0060981D01*
X0109717Y0059663D01*
X0109813Y0058343D01*
X0109876Y0057020D01*
X0109907Y0055697D01*
X0109905Y0054373D01*
X0109871Y0053049D01*
X0109805Y0051727D01*
X0109706Y0050406D01*
X0109575Y0049089D01*
X0109412Y0047775D01*
X0109217Y0046465D01*
X0108990Y0045161D01*
X0108731Y0043862D01*
X0108440Y0042571D01*
X0108118Y0041286D01*
D11*
X0079527Y0083310D02*
X0079529Y0083379D01*
X0079535Y0083447D01*
X0079545Y0083515D01*
X0079559Y0083582D01*
X0079577Y0083649D01*
X0079598Y0083714D01*
X0079624Y0083778D01*
X0079653Y0083840D01*
X0079685Y0083900D01*
X0079721Y0083959D01*
X0079761Y0084015D01*
X0079803Y0084069D01*
X0079849Y0084120D01*
X0079898Y0084169D01*
X0079949Y0084215D01*
X0080003Y0084257D01*
X0080059Y0084297D01*
X0080117Y0084333D01*
X0080178Y0084365D01*
X0080240Y0084394D01*
X0080304Y0084420D01*
X0080369Y0084441D01*
X0080436Y0084459D01*
X0080503Y0084473D01*
X0080571Y0084483D01*
X0080639Y0084489D01*
X0080708Y0084491D01*
X0080777Y0084489D01*
X0080845Y0084483D01*
X0080913Y0084473D01*
X0080980Y0084459D01*
X0081047Y0084441D01*
X0081112Y0084420D01*
X0081176Y0084394D01*
X0081238Y0084365D01*
X0081298Y0084333D01*
X0081357Y0084297D01*
X0081413Y0084257D01*
X0081467Y0084215D01*
X0081518Y0084169D01*
X0081567Y0084120D01*
X0081613Y0084069D01*
X0081655Y0084015D01*
X0081695Y0083959D01*
X0081731Y0083900D01*
X0081763Y0083840D01*
X0081792Y0083778D01*
X0081818Y0083714D01*
X0081839Y0083649D01*
X0081857Y0083582D01*
X0081871Y0083515D01*
X0081881Y0083447D01*
X0081887Y0083379D01*
X0081889Y0083310D01*
X0081887Y0083241D01*
X0081881Y0083173D01*
X0081871Y0083105D01*
X0081857Y0083038D01*
X0081839Y0082971D01*
X0081818Y0082906D01*
X0081792Y0082842D01*
X0081763Y0082780D01*
X0081731Y0082719D01*
X0081695Y0082661D01*
X0081655Y0082605D01*
X0081613Y0082551D01*
X0081567Y0082500D01*
X0081518Y0082451D01*
X0081467Y0082405D01*
X0081413Y0082363D01*
X0081357Y0082323D01*
X0081299Y0082287D01*
X0081238Y0082255D01*
X0081176Y0082226D01*
X0081112Y0082200D01*
X0081047Y0082179D01*
X0080980Y0082161D01*
X0080913Y0082147D01*
X0080845Y0082137D01*
X0080777Y0082131D01*
X0080708Y0082129D01*
X0080639Y0082131D01*
X0080571Y0082137D01*
X0080503Y0082147D01*
X0080436Y0082161D01*
X0080369Y0082179D01*
X0080304Y0082200D01*
X0080240Y0082226D01*
X0080178Y0082255D01*
X0080117Y0082287D01*
X0080059Y0082323D01*
X0080003Y0082363D01*
X0079949Y0082405D01*
X0079898Y0082451D01*
X0079849Y0082500D01*
X0079803Y0082551D01*
X0079761Y0082605D01*
X0079721Y0082661D01*
X0079685Y0082719D01*
X0079653Y0082780D01*
X0079624Y0082842D01*
X0079598Y0082906D01*
X0079577Y0082971D01*
X0079559Y0083038D01*
X0079545Y0083105D01*
X0079535Y0083173D01*
X0079529Y0083241D01*
X0079527Y0083310D01*
X0053630Y0092736D02*
X0053632Y0092805D01*
X0053638Y0092873D01*
X0053648Y0092941D01*
X0053662Y0093008D01*
X0053680Y0093075D01*
X0053701Y0093140D01*
X0053727Y0093204D01*
X0053756Y0093266D01*
X0053788Y0093326D01*
X0053824Y0093385D01*
X0053864Y0093441D01*
X0053906Y0093495D01*
X0053952Y0093546D01*
X0054001Y0093595D01*
X0054052Y0093641D01*
X0054106Y0093683D01*
X0054162Y0093723D01*
X0054220Y0093759D01*
X0054281Y0093791D01*
X0054343Y0093820D01*
X0054407Y0093846D01*
X0054472Y0093867D01*
X0054539Y0093885D01*
X0054606Y0093899D01*
X0054674Y0093909D01*
X0054742Y0093915D01*
X0054811Y0093917D01*
X0054880Y0093915D01*
X0054948Y0093909D01*
X0055016Y0093899D01*
X0055083Y0093885D01*
X0055150Y0093867D01*
X0055215Y0093846D01*
X0055279Y0093820D01*
X0055341Y0093791D01*
X0055401Y0093759D01*
X0055460Y0093723D01*
X0055516Y0093683D01*
X0055570Y0093641D01*
X0055621Y0093595D01*
X0055670Y0093546D01*
X0055716Y0093495D01*
X0055758Y0093441D01*
X0055798Y0093385D01*
X0055834Y0093326D01*
X0055866Y0093266D01*
X0055895Y0093204D01*
X0055921Y0093140D01*
X0055942Y0093075D01*
X0055960Y0093008D01*
X0055974Y0092941D01*
X0055984Y0092873D01*
X0055990Y0092805D01*
X0055992Y0092736D01*
X0055990Y0092667D01*
X0055984Y0092599D01*
X0055974Y0092531D01*
X0055960Y0092464D01*
X0055942Y0092397D01*
X0055921Y0092332D01*
X0055895Y0092268D01*
X0055866Y0092206D01*
X0055834Y0092145D01*
X0055798Y0092087D01*
X0055758Y0092031D01*
X0055716Y0091977D01*
X0055670Y0091926D01*
X0055621Y0091877D01*
X0055570Y0091831D01*
X0055516Y0091789D01*
X0055460Y0091749D01*
X0055402Y0091713D01*
X0055341Y0091681D01*
X0055279Y0091652D01*
X0055215Y0091626D01*
X0055150Y0091605D01*
X0055083Y0091587D01*
X0055016Y0091573D01*
X0054948Y0091563D01*
X0054880Y0091557D01*
X0054811Y0091555D01*
X0054742Y0091557D01*
X0054674Y0091563D01*
X0054606Y0091573D01*
X0054539Y0091587D01*
X0054472Y0091605D01*
X0054407Y0091626D01*
X0054343Y0091652D01*
X0054281Y0091681D01*
X0054220Y0091713D01*
X0054162Y0091749D01*
X0054106Y0091789D01*
X0054052Y0091831D01*
X0054001Y0091877D01*
X0053952Y0091926D01*
X0053906Y0091977D01*
X0053864Y0092031D01*
X0053824Y0092087D01*
X0053788Y0092145D01*
X0053756Y0092206D01*
X0053727Y0092268D01*
X0053701Y0092332D01*
X0053680Y0092397D01*
X0053662Y0092464D01*
X0053648Y0092531D01*
X0053638Y0092599D01*
X0053632Y0092667D01*
X0053630Y0092736D01*
X0104750Y0032037D02*
X0104175Y0030853D01*
X0103571Y0029683D01*
X0102939Y0028529D01*
X0102279Y0027390D01*
X0101591Y0026267D01*
X0100877Y0025161D01*
X0100136Y0024074D01*
X0099368Y0023004D01*
X0098575Y0021954D01*
X0097756Y0020923D01*
X0096913Y0019912D01*
X0096045Y0018922D01*
X0095153Y0017954D01*
X0094238Y0017007D01*
X0093301Y0016083D01*
X0092341Y0015182D01*
X0091359Y0014305D01*
X0090357Y0013452D01*
X0089334Y0012623D01*
X0088291Y0011820D01*
X0087229Y0011042D01*
X0086148Y0010290D01*
X0085050Y0009565D01*
X0083934Y0008866D01*
X0082801Y0008195D01*
X0081653Y0007552D01*
X0080489Y0006937D01*
X0079311Y0006350D01*
X0078118Y0005792D01*
X0076913Y0005263D01*
X0075695Y0004764D01*
X0074465Y0004295D01*
X0073224Y0003855D01*
X0071973Y0003446D01*
X0070712Y0003068D01*
X0069442Y0002720D01*
X0068165Y0002403D01*
X0066880Y0002117D01*
X0065588Y0001863D01*
X0064291Y0001640D01*
X0062988Y0001449D01*
X0061681Y0001289D01*
X0060371Y0001161D01*
X0059058Y0001066D01*
X0057743Y0001002D01*
D12*
X0017942Y0020860D02*
X0017942Y0021666D01*
X0017944Y0021721D01*
X0017950Y0021776D01*
X0017959Y0021830D01*
X0017972Y0021883D01*
X0017989Y0021936D01*
X0018009Y0021987D01*
X0018032Y0022037D01*
X0018059Y0022085D01*
X0018090Y0022131D01*
X0018123Y0022175D01*
X0018159Y0022216D01*
X0018198Y0022255D01*
X0018239Y0022291D01*
X0018283Y0022324D01*
X0018329Y0022355D01*
X0018377Y0022382D01*
X0018427Y0022405D01*
X0018478Y0022425D01*
X0018531Y0022442D01*
X0018584Y0022455D01*
X0018638Y0022464D01*
X0018693Y0022470D01*
X0018748Y0022472D01*
X0018803Y0022470D01*
X0018858Y0022464D01*
X0018912Y0022455D01*
X0018965Y0022442D01*
X0019018Y0022425D01*
X0019069Y0022405D01*
X0019119Y0022382D01*
X0019167Y0022355D01*
X0019213Y0022324D01*
X0019257Y0022291D01*
X0019298Y0022255D01*
X0019337Y0022216D01*
X0019373Y0022175D01*
X0019406Y0022131D01*
X0019437Y0022085D01*
X0019464Y0022037D01*
X0019487Y0021987D01*
X0019507Y0021936D01*
X0019524Y0021883D01*
X0019537Y0021830D01*
X0019546Y0021776D01*
X0019552Y0021721D01*
X0019554Y0021666D01*
X0019553Y0021666D02*
X0019553Y0020860D01*
X0019553Y0021827D02*
X0020842Y0022471D01*
X0020842Y0023720D02*
X0020842Y0024687D01*
X0020840Y0024735D01*
X0020835Y0024783D01*
X0020826Y0024830D01*
X0020813Y0024877D01*
X0020797Y0024922D01*
X0020778Y0024966D01*
X0020756Y0025009D01*
X0020730Y0025050D01*
X0020701Y0025089D01*
X0020670Y0025125D01*
X0020636Y0025159D01*
X0020600Y0025190D01*
X0020561Y0025219D01*
X0020520Y0025245D01*
X0020477Y0025267D01*
X0020433Y0025286D01*
X0020388Y0025302D01*
X0020341Y0025315D01*
X0020294Y0025324D01*
X0020246Y0025329D01*
X0020198Y0025331D01*
X0019875Y0025331D01*
X0019824Y0025329D01*
X0019774Y0025323D01*
X0019725Y0025313D01*
X0019676Y0025299D01*
X0019629Y0025282D01*
X0019583Y0025261D01*
X0019539Y0025236D01*
X0019496Y0025208D01*
X0019457Y0025177D01*
X0019420Y0025142D01*
X0019385Y0025105D01*
X0019354Y0025066D01*
X0019326Y0025023D01*
X0019301Y0024979D01*
X0019280Y0024933D01*
X0019263Y0024886D01*
X0019249Y0024837D01*
X0019239Y0024788D01*
X0019233Y0024738D01*
X0019231Y0024687D01*
X0019231Y0023720D01*
X0017942Y0023720D01*
X0017942Y0025331D01*
X0017942Y0020860D02*
X0020842Y0020860D01*
X0036697Y0037002D02*
X0038308Y0037002D01*
X0038356Y0037004D01*
X0038404Y0037009D01*
X0038451Y0037018D01*
X0038498Y0037031D01*
X0038543Y0037047D01*
X0038587Y0037066D01*
X0038630Y0037088D01*
X0038671Y0037114D01*
X0038710Y0037143D01*
X0038746Y0037174D01*
X0038780Y0037208D01*
X0038811Y0037244D01*
X0038840Y0037283D01*
X0038866Y0037324D01*
X0038888Y0037367D01*
X0038907Y0037411D01*
X0038923Y0037456D01*
X0038936Y0037503D01*
X0038945Y0037550D01*
X0038950Y0037598D01*
X0038952Y0037646D01*
X0038952Y0038291D01*
X0038952Y0039411D02*
X0038952Y0040217D01*
X0038953Y0040217D02*
X0038951Y0040272D01*
X0038945Y0040327D01*
X0038936Y0040381D01*
X0038923Y0040434D01*
X0038906Y0040487D01*
X0038886Y0040538D01*
X0038863Y0040588D01*
X0038836Y0040636D01*
X0038805Y0040682D01*
X0038772Y0040726D01*
X0038736Y0040767D01*
X0038697Y0040806D01*
X0038656Y0040842D01*
X0038612Y0040875D01*
X0038566Y0040906D01*
X0038518Y0040933D01*
X0038468Y0040956D01*
X0038417Y0040976D01*
X0038364Y0040993D01*
X0038311Y0041006D01*
X0038257Y0041015D01*
X0038202Y0041021D01*
X0038147Y0041023D01*
X0038092Y0041021D01*
X0038037Y0041015D01*
X0037983Y0041006D01*
X0037930Y0040993D01*
X0037877Y0040976D01*
X0037826Y0040956D01*
X0037776Y0040933D01*
X0037728Y0040906D01*
X0037682Y0040875D01*
X0037638Y0040842D01*
X0037597Y0040806D01*
X0037558Y0040767D01*
X0037522Y0040726D01*
X0037489Y0040682D01*
X0037458Y0040636D01*
X0037431Y0040588D01*
X0037408Y0040538D01*
X0037388Y0040487D01*
X0037371Y0040434D01*
X0037358Y0040381D01*
X0037349Y0040327D01*
X0037343Y0040272D01*
X0037341Y0040217D01*
X0037341Y0040378D02*
X0037341Y0039733D01*
X0037341Y0040378D02*
X0037339Y0040427D01*
X0037333Y0040476D01*
X0037324Y0040525D01*
X0037311Y0040572D01*
X0037294Y0040619D01*
X0037274Y0040664D01*
X0037251Y0040707D01*
X0037224Y0040749D01*
X0037194Y0040788D01*
X0037161Y0040825D01*
X0037125Y0040859D01*
X0037087Y0040890D01*
X0037047Y0040919D01*
X0037005Y0040944D01*
X0036960Y0040966D01*
X0036915Y0040984D01*
X0036868Y0040999D01*
X0036820Y0041010D01*
X0036771Y0041018D01*
X0036722Y0041022D01*
X0036672Y0041022D01*
X0036623Y0041018D01*
X0036574Y0041010D01*
X0036526Y0040999D01*
X0036479Y0040984D01*
X0036434Y0040966D01*
X0036389Y0040944D01*
X0036347Y0040919D01*
X0036307Y0040890D01*
X0036269Y0040859D01*
X0036233Y0040825D01*
X0036200Y0040788D01*
X0036170Y0040749D01*
X0036143Y0040707D01*
X0036120Y0040664D01*
X0036100Y0040619D01*
X0036083Y0040572D01*
X0036070Y0040525D01*
X0036061Y0040476D01*
X0036055Y0040427D01*
X0036053Y0040378D01*
X0036052Y0040378D02*
X0036052Y0039411D01*
X0036052Y0038291D02*
X0036052Y0037646D01*
X0036053Y0037646D02*
X0036055Y0037595D01*
X0036061Y0037545D01*
X0036071Y0037496D01*
X0036085Y0037447D01*
X0036102Y0037400D01*
X0036123Y0037354D01*
X0036148Y0037309D01*
X0036176Y0037267D01*
X0036207Y0037228D01*
X0036242Y0037191D01*
X0036279Y0037156D01*
X0036318Y0037125D01*
X0036361Y0037097D01*
X0036405Y0037072D01*
X0036451Y0037051D01*
X0036498Y0037034D01*
X0036547Y0037020D01*
X0036596Y0037010D01*
X0036646Y0037004D01*
X0036697Y0037002D01*
X0033696Y0039871D02*
X0033696Y0040515D01*
X0033696Y0039871D02*
X0033694Y0039823D01*
X0033689Y0039775D01*
X0033680Y0039728D01*
X0033667Y0039681D01*
X0033651Y0039636D01*
X0033632Y0039592D01*
X0033610Y0039549D01*
X0033584Y0039508D01*
X0033555Y0039469D01*
X0033524Y0039433D01*
X0033490Y0039399D01*
X0033454Y0039368D01*
X0033415Y0039339D01*
X0033374Y0039313D01*
X0033331Y0039291D01*
X0033287Y0039272D01*
X0033242Y0039256D01*
X0033195Y0039243D01*
X0033148Y0039234D01*
X0033100Y0039229D01*
X0033052Y0039227D01*
X0033052Y0039226D02*
X0031441Y0039226D01*
X0031441Y0039227D02*
X0031390Y0039229D01*
X0031340Y0039235D01*
X0031291Y0039245D01*
X0031242Y0039259D01*
X0031195Y0039276D01*
X0031149Y0039297D01*
X0031105Y0039322D01*
X0031062Y0039350D01*
X0031023Y0039381D01*
X0030986Y0039416D01*
X0030951Y0039453D01*
X0030920Y0039492D01*
X0030892Y0039534D01*
X0030867Y0039579D01*
X0030846Y0039625D01*
X0030829Y0039672D01*
X0030815Y0039721D01*
X0030805Y0039770D01*
X0030799Y0039820D01*
X0030797Y0039871D01*
X0030796Y0039871D02*
X0030796Y0040515D01*
X0030796Y0041635D02*
X0030796Y0042602D01*
X0030797Y0042602D02*
X0030799Y0042651D01*
X0030805Y0042700D01*
X0030814Y0042749D01*
X0030827Y0042796D01*
X0030844Y0042843D01*
X0030864Y0042888D01*
X0030887Y0042931D01*
X0030914Y0042973D01*
X0030944Y0043012D01*
X0030977Y0043049D01*
X0031013Y0043083D01*
X0031051Y0043114D01*
X0031091Y0043143D01*
X0031133Y0043168D01*
X0031178Y0043190D01*
X0031223Y0043208D01*
X0031270Y0043223D01*
X0031318Y0043234D01*
X0031367Y0043242D01*
X0031416Y0043246D01*
X0031466Y0043246D01*
X0031515Y0043242D01*
X0031564Y0043234D01*
X0031612Y0043223D01*
X0031659Y0043208D01*
X0031704Y0043190D01*
X0031749Y0043168D01*
X0031791Y0043143D01*
X0031831Y0043114D01*
X0031869Y0043083D01*
X0031905Y0043049D01*
X0031938Y0043012D01*
X0031968Y0042973D01*
X0031995Y0042931D01*
X0032018Y0042888D01*
X0032038Y0042843D01*
X0032055Y0042796D01*
X0032068Y0042749D01*
X0032077Y0042700D01*
X0032083Y0042651D01*
X0032085Y0042602D01*
X0032085Y0041958D01*
X0032085Y0042441D02*
X0032087Y0042496D01*
X0032093Y0042551D01*
X0032102Y0042605D01*
X0032115Y0042658D01*
X0032132Y0042711D01*
X0032152Y0042762D01*
X0032175Y0042812D01*
X0032202Y0042860D01*
X0032233Y0042906D01*
X0032266Y0042950D01*
X0032302Y0042991D01*
X0032341Y0043030D01*
X0032382Y0043066D01*
X0032426Y0043099D01*
X0032472Y0043130D01*
X0032520Y0043157D01*
X0032570Y0043180D01*
X0032621Y0043200D01*
X0032674Y0043217D01*
X0032727Y0043230D01*
X0032781Y0043239D01*
X0032836Y0043245D01*
X0032891Y0043247D01*
X0032946Y0043245D01*
X0033001Y0043239D01*
X0033055Y0043230D01*
X0033108Y0043217D01*
X0033161Y0043200D01*
X0033212Y0043180D01*
X0033262Y0043157D01*
X0033310Y0043130D01*
X0033356Y0043099D01*
X0033400Y0043066D01*
X0033441Y0043030D01*
X0033480Y0042991D01*
X0033516Y0042950D01*
X0033549Y0042906D01*
X0033580Y0042860D01*
X0033607Y0042812D01*
X0033630Y0042762D01*
X0033650Y0042711D01*
X0033667Y0042658D01*
X0033680Y0042605D01*
X0033689Y0042551D01*
X0033695Y0042496D01*
X0033697Y0042441D01*
X0033696Y0042441D02*
X0033696Y0041635D01*
X0036052Y0042291D02*
X0036052Y0043902D01*
X0038952Y0043097D01*
X0036375Y0042291D02*
X0036052Y0042291D01*
X0032891Y0044516D02*
X0032085Y0044516D01*
X0032085Y0045482D01*
X0032085Y0044515D02*
X0032015Y0044517D01*
X0031946Y0044523D01*
X0031876Y0044532D01*
X0031808Y0044545D01*
X0031740Y0044562D01*
X0031673Y0044582D01*
X0031608Y0044607D01*
X0031544Y0044634D01*
X0031481Y0044665D01*
X0031420Y0044700D01*
X0031362Y0044737D01*
X0031305Y0044778D01*
X0031251Y0044822D01*
X0031199Y0044868D01*
X0031149Y0044918D01*
X0031103Y0044970D01*
X0031059Y0045024D01*
X0031018Y0045081D01*
X0030981Y0045139D01*
X0030946Y0045200D01*
X0030915Y0045263D01*
X0030888Y0045327D01*
X0030863Y0045392D01*
X0030843Y0045459D01*
X0030826Y0045527D01*
X0030813Y0045595D01*
X0030804Y0045665D01*
X0030798Y0045734D01*
X0030796Y0045804D01*
X0032086Y0045482D02*
X0032088Y0045530D01*
X0032093Y0045578D01*
X0032102Y0045625D01*
X0032115Y0045672D01*
X0032131Y0045717D01*
X0032150Y0045761D01*
X0032172Y0045804D01*
X0032198Y0045845D01*
X0032227Y0045884D01*
X0032258Y0045920D01*
X0032292Y0045954D01*
X0032328Y0045986D01*
X0032367Y0046014D01*
X0032408Y0046040D01*
X0032451Y0046062D01*
X0032495Y0046081D01*
X0032540Y0046097D01*
X0032587Y0046110D01*
X0032634Y0046119D01*
X0032682Y0046124D01*
X0032730Y0046126D01*
X0032730Y0046127D02*
X0032891Y0046127D01*
X0032946Y0046125D01*
X0033001Y0046119D01*
X0033055Y0046110D01*
X0033108Y0046097D01*
X0033161Y0046080D01*
X0033212Y0046060D01*
X0033262Y0046037D01*
X0033310Y0046010D01*
X0033356Y0045979D01*
X0033400Y0045946D01*
X0033441Y0045910D01*
X0033480Y0045871D01*
X0033516Y0045830D01*
X0033549Y0045786D01*
X0033580Y0045740D01*
X0033607Y0045692D01*
X0033630Y0045642D01*
X0033650Y0045591D01*
X0033667Y0045538D01*
X0033680Y0045485D01*
X0033689Y0045431D01*
X0033695Y0045376D01*
X0033697Y0045321D01*
X0033695Y0045266D01*
X0033689Y0045211D01*
X0033680Y0045157D01*
X0033667Y0045104D01*
X0033650Y0045051D01*
X0033630Y0045000D01*
X0033607Y0044950D01*
X0033580Y0044902D01*
X0033549Y0044856D01*
X0033516Y0044812D01*
X0033480Y0044771D01*
X0033441Y0044732D01*
X0033400Y0044696D01*
X0033356Y0044663D01*
X0033310Y0044632D01*
X0033262Y0044605D01*
X0033212Y0044582D01*
X0033161Y0044562D01*
X0033108Y0044545D01*
X0033055Y0044532D01*
X0033001Y0044523D01*
X0032946Y0044517D01*
X0032891Y0044515D01*
X0030155Y0048763D02*
X0029349Y0048763D01*
X0028229Y0048763D02*
X0027584Y0048763D01*
X0027536Y0048765D01*
X0027488Y0048770D01*
X0027441Y0048779D01*
X0027394Y0048792D01*
X0027349Y0048808D01*
X0027305Y0048827D01*
X0027262Y0048849D01*
X0027221Y0048875D01*
X0027182Y0048904D01*
X0027146Y0048935D01*
X0027112Y0048969D01*
X0027081Y0049005D01*
X0027052Y0049044D01*
X0027026Y0049085D01*
X0027004Y0049128D01*
X0026985Y0049172D01*
X0026969Y0049217D01*
X0026956Y0049264D01*
X0026947Y0049311D01*
X0026942Y0049359D01*
X0026940Y0049407D01*
X0026940Y0051018D01*
X0026942Y0051069D01*
X0026948Y0051119D01*
X0026958Y0051168D01*
X0026972Y0051217D01*
X0026989Y0051264D01*
X0027010Y0051310D01*
X0027035Y0051354D01*
X0027063Y0051397D01*
X0027094Y0051436D01*
X0027129Y0051473D01*
X0027166Y0051508D01*
X0027205Y0051539D01*
X0027248Y0051567D01*
X0027292Y0051592D01*
X0027338Y0051613D01*
X0027385Y0051630D01*
X0027434Y0051644D01*
X0027483Y0051654D01*
X0027533Y0051660D01*
X0027584Y0051662D01*
X0027584Y0051663D02*
X0028229Y0051663D01*
X0029349Y0051663D02*
X0030316Y0051663D01*
X0030316Y0051662D02*
X0030365Y0051660D01*
X0030414Y0051654D01*
X0030463Y0051645D01*
X0030510Y0051632D01*
X0030557Y0051615D01*
X0030602Y0051595D01*
X0030645Y0051572D01*
X0030687Y0051545D01*
X0030726Y0051515D01*
X0030763Y0051482D01*
X0030797Y0051446D01*
X0030828Y0051408D01*
X0030857Y0051368D01*
X0030882Y0051326D01*
X0030904Y0051281D01*
X0030922Y0051236D01*
X0030937Y0051189D01*
X0030948Y0051141D01*
X0030956Y0051092D01*
X0030960Y0051043D01*
X0030960Y0050993D01*
X0030956Y0050944D01*
X0030948Y0050895D01*
X0030937Y0050847D01*
X0030922Y0050800D01*
X0030904Y0050755D01*
X0030882Y0050710D01*
X0030857Y0050668D01*
X0030828Y0050628D01*
X0030797Y0050590D01*
X0030763Y0050554D01*
X0030726Y0050521D01*
X0030687Y0050491D01*
X0030645Y0050464D01*
X0030602Y0050441D01*
X0030557Y0050421D01*
X0030510Y0050404D01*
X0030463Y0050391D01*
X0030414Y0050382D01*
X0030365Y0050376D01*
X0030316Y0050374D01*
X0029671Y0050374D01*
X0030155Y0050374D02*
X0030210Y0050372D01*
X0030265Y0050366D01*
X0030319Y0050357D01*
X0030372Y0050344D01*
X0030425Y0050327D01*
X0030476Y0050307D01*
X0030526Y0050284D01*
X0030574Y0050257D01*
X0030620Y0050226D01*
X0030664Y0050193D01*
X0030705Y0050157D01*
X0030744Y0050118D01*
X0030780Y0050077D01*
X0030813Y0050033D01*
X0030844Y0049987D01*
X0030871Y0049939D01*
X0030894Y0049889D01*
X0030914Y0049838D01*
X0030931Y0049785D01*
X0030944Y0049732D01*
X0030953Y0049678D01*
X0030959Y0049623D01*
X0030961Y0049568D01*
X0030959Y0049513D01*
X0030953Y0049458D01*
X0030944Y0049404D01*
X0030931Y0049351D01*
X0030914Y0049298D01*
X0030894Y0049247D01*
X0030871Y0049197D01*
X0030844Y0049149D01*
X0030813Y0049103D01*
X0030780Y0049059D01*
X0030744Y0049018D01*
X0030705Y0048979D01*
X0030664Y0048943D01*
X0030620Y0048910D01*
X0030574Y0048879D01*
X0030526Y0048852D01*
X0030476Y0048829D01*
X0030425Y0048809D01*
X0030372Y0048792D01*
X0030319Y0048779D01*
X0030265Y0048770D01*
X0030210Y0048764D01*
X0030155Y0048762D01*
X0030155Y0053881D02*
X0030155Y0056781D01*
X0029349Y0056136D01*
X0028229Y0056781D02*
X0027584Y0056781D01*
X0027584Y0056780D02*
X0027533Y0056778D01*
X0027483Y0056772D01*
X0027434Y0056762D01*
X0027385Y0056748D01*
X0027338Y0056731D01*
X0027292Y0056710D01*
X0027248Y0056685D01*
X0027205Y0056657D01*
X0027166Y0056626D01*
X0027129Y0056591D01*
X0027094Y0056554D01*
X0027063Y0056515D01*
X0027035Y0056472D01*
X0027010Y0056428D01*
X0026989Y0056382D01*
X0026972Y0056335D01*
X0026958Y0056286D01*
X0026948Y0056237D01*
X0026942Y0056187D01*
X0026940Y0056136D01*
X0026940Y0054525D01*
X0026942Y0054477D01*
X0026947Y0054429D01*
X0026956Y0054382D01*
X0026969Y0054335D01*
X0026985Y0054290D01*
X0027004Y0054246D01*
X0027026Y0054203D01*
X0027052Y0054162D01*
X0027081Y0054123D01*
X0027112Y0054087D01*
X0027146Y0054053D01*
X0027182Y0054022D01*
X0027221Y0053993D01*
X0027262Y0053967D01*
X0027305Y0053945D01*
X0027349Y0053926D01*
X0027394Y0053910D01*
X0027441Y0053897D01*
X0027488Y0053888D01*
X0027536Y0053883D01*
X0027584Y0053881D01*
X0028229Y0053881D01*
X0029349Y0053881D02*
X0030960Y0053881D01*
X0030960Y0058605D02*
X0029349Y0058605D01*
X0030719Y0060216D01*
X0030235Y0061505D02*
X0030176Y0061503D01*
X0030118Y0061498D01*
X0030060Y0061488D01*
X0030003Y0061476D01*
X0029947Y0061459D01*
X0029892Y0061440D01*
X0029838Y0061416D01*
X0029786Y0061390D01*
X0029736Y0061360D01*
X0029687Y0061327D01*
X0029641Y0061291D01*
X0029597Y0061252D01*
X0029556Y0061211D01*
X0029517Y0061167D01*
X0029481Y0061121D01*
X0029449Y0061072D01*
X0029419Y0061022D01*
X0029392Y0060970D01*
X0029369Y0060916D01*
X0029349Y0060861D01*
X0030719Y0060216D02*
X0030756Y0060253D01*
X0030790Y0060293D01*
X0030822Y0060335D01*
X0030850Y0060380D01*
X0030876Y0060426D01*
X0030898Y0060473D01*
X0030917Y0060522D01*
X0030933Y0060572D01*
X0030945Y0060623D01*
X0030954Y0060675D01*
X0030959Y0060727D01*
X0030961Y0060780D01*
X0030960Y0060780D02*
X0030958Y0060832D01*
X0030953Y0060883D01*
X0030943Y0060934D01*
X0030931Y0060984D01*
X0030914Y0061033D01*
X0030894Y0061081D01*
X0030871Y0061127D01*
X0030845Y0061172D01*
X0030815Y0061214D01*
X0030783Y0061255D01*
X0030748Y0061293D01*
X0030710Y0061328D01*
X0030669Y0061360D01*
X0030627Y0061390D01*
X0030582Y0061416D01*
X0030536Y0061439D01*
X0030488Y0061459D01*
X0030439Y0061476D01*
X0030389Y0061488D01*
X0030338Y0061498D01*
X0030287Y0061503D01*
X0030235Y0061505D01*
X0028229Y0061505D02*
X0027584Y0061505D01*
X0027533Y0061503D01*
X0027483Y0061497D01*
X0027434Y0061487D01*
X0027385Y0061473D01*
X0027338Y0061456D01*
X0027292Y0061435D01*
X0027248Y0061410D01*
X0027205Y0061382D01*
X0027166Y0061351D01*
X0027129Y0061316D01*
X0027094Y0061279D01*
X0027063Y0061240D01*
X0027035Y0061197D01*
X0027010Y0061153D01*
X0026989Y0061107D01*
X0026972Y0061060D01*
X0026958Y0061011D01*
X0026948Y0060962D01*
X0026942Y0060912D01*
X0026940Y0060861D01*
X0026940Y0059250D01*
X0026942Y0059202D01*
X0026947Y0059154D01*
X0026956Y0059107D01*
X0026969Y0059060D01*
X0026985Y0059015D01*
X0027004Y0058971D01*
X0027026Y0058928D01*
X0027052Y0058887D01*
X0027081Y0058848D01*
X0027112Y0058812D01*
X0027146Y0058778D01*
X0027182Y0058747D01*
X0027221Y0058718D01*
X0027262Y0058692D01*
X0027305Y0058670D01*
X0027349Y0058651D01*
X0027394Y0058635D01*
X0027441Y0058622D01*
X0027488Y0058613D01*
X0027536Y0058608D01*
X0027584Y0058606D01*
X0027584Y0058605D02*
X0028229Y0058605D01*
X0024661Y0064923D02*
X0024661Y0065084D01*
X0024659Y0065132D01*
X0024654Y0065180D01*
X0024645Y0065227D01*
X0024632Y0065274D01*
X0024616Y0065319D01*
X0024597Y0065363D01*
X0024575Y0065406D01*
X0024549Y0065447D01*
X0024520Y0065486D01*
X0024489Y0065522D01*
X0024455Y0065556D01*
X0024419Y0065587D01*
X0024380Y0065616D01*
X0024339Y0065642D01*
X0024296Y0065664D01*
X0024252Y0065683D01*
X0024207Y0065699D01*
X0024160Y0065712D01*
X0024113Y0065721D01*
X0024065Y0065726D01*
X0024017Y0065728D01*
X0023050Y0065728D01*
X0023050Y0064923D01*
X0023049Y0064923D02*
X0023051Y0064868D01*
X0023057Y0064813D01*
X0023066Y0064759D01*
X0023079Y0064706D01*
X0023096Y0064653D01*
X0023116Y0064602D01*
X0023139Y0064552D01*
X0023166Y0064504D01*
X0023197Y0064458D01*
X0023230Y0064414D01*
X0023266Y0064373D01*
X0023305Y0064334D01*
X0023346Y0064298D01*
X0023390Y0064265D01*
X0023436Y0064234D01*
X0023484Y0064207D01*
X0023534Y0064184D01*
X0023585Y0064164D01*
X0023638Y0064147D01*
X0023691Y0064134D01*
X0023745Y0064125D01*
X0023800Y0064119D01*
X0023855Y0064117D01*
X0023910Y0064119D01*
X0023965Y0064125D01*
X0024019Y0064134D01*
X0024072Y0064147D01*
X0024125Y0064164D01*
X0024176Y0064184D01*
X0024226Y0064207D01*
X0024274Y0064234D01*
X0024320Y0064265D01*
X0024364Y0064298D01*
X0024405Y0064334D01*
X0024444Y0064373D01*
X0024480Y0064414D01*
X0024513Y0064458D01*
X0024544Y0064504D01*
X0024571Y0064552D01*
X0024594Y0064602D01*
X0024614Y0064653D01*
X0024631Y0064706D01*
X0024644Y0064759D01*
X0024653Y0064813D01*
X0024659Y0064868D01*
X0024661Y0064923D01*
X0023050Y0065728D02*
X0023052Y0065798D01*
X0023058Y0065867D01*
X0023067Y0065937D01*
X0023080Y0066005D01*
X0023097Y0066073D01*
X0023117Y0066140D01*
X0023142Y0066205D01*
X0023169Y0066269D01*
X0023200Y0066332D01*
X0023235Y0066393D01*
X0023272Y0066451D01*
X0023313Y0066508D01*
X0023357Y0066562D01*
X0023403Y0066614D01*
X0023453Y0066664D01*
X0023505Y0066710D01*
X0023559Y0066754D01*
X0023616Y0066795D01*
X0023674Y0066832D01*
X0023735Y0066867D01*
X0023798Y0066898D01*
X0023862Y0066925D01*
X0023927Y0066950D01*
X0023994Y0066970D01*
X0024062Y0066987D01*
X0024130Y0067000D01*
X0024200Y0067009D01*
X0024269Y0067015D01*
X0024339Y0067017D01*
X0021930Y0067017D02*
X0021285Y0067017D01*
X0021234Y0067015D01*
X0021184Y0067009D01*
X0021135Y0066999D01*
X0021086Y0066985D01*
X0021039Y0066968D01*
X0020993Y0066947D01*
X0020949Y0066922D01*
X0020906Y0066894D01*
X0020867Y0066863D01*
X0020830Y0066828D01*
X0020795Y0066791D01*
X0020764Y0066752D01*
X0020736Y0066709D01*
X0020711Y0066665D01*
X0020690Y0066619D01*
X0020673Y0066572D01*
X0020659Y0066523D01*
X0020649Y0066474D01*
X0020643Y0066424D01*
X0020641Y0066373D01*
X0020641Y0064761D01*
X0020643Y0064713D01*
X0020648Y0064665D01*
X0020657Y0064618D01*
X0020670Y0064571D01*
X0020686Y0064526D01*
X0020705Y0064482D01*
X0020727Y0064439D01*
X0020753Y0064398D01*
X0020782Y0064359D01*
X0020813Y0064323D01*
X0020847Y0064289D01*
X0020883Y0064258D01*
X0020922Y0064229D01*
X0020963Y0064203D01*
X0021006Y0064181D01*
X0021050Y0064162D01*
X0021095Y0064146D01*
X0021142Y0064133D01*
X0021189Y0064124D01*
X0021237Y0064119D01*
X0021285Y0064117D01*
X0021930Y0064117D01*
X0025611Y0072197D02*
X0025611Y0074292D01*
X0027222Y0074292D02*
X0027222Y0072197D01*
X0027220Y0072142D01*
X0027214Y0072087D01*
X0027205Y0072033D01*
X0027192Y0071980D01*
X0027175Y0071927D01*
X0027155Y0071876D01*
X0027132Y0071826D01*
X0027105Y0071778D01*
X0027074Y0071732D01*
X0027041Y0071688D01*
X0027005Y0071647D01*
X0026966Y0071608D01*
X0026925Y0071572D01*
X0026881Y0071539D01*
X0026835Y0071508D01*
X0026787Y0071481D01*
X0026737Y0071458D01*
X0026686Y0071438D01*
X0026633Y0071421D01*
X0026580Y0071408D01*
X0026526Y0071399D01*
X0026471Y0071393D01*
X0026416Y0071391D01*
X0026361Y0071393D01*
X0026306Y0071399D01*
X0026252Y0071408D01*
X0026199Y0071421D01*
X0026146Y0071438D01*
X0026095Y0071458D01*
X0026045Y0071481D01*
X0025997Y0071508D01*
X0025951Y0071539D01*
X0025907Y0071572D01*
X0025866Y0071608D01*
X0025827Y0071647D01*
X0025791Y0071688D01*
X0025758Y0071732D01*
X0025727Y0071778D01*
X0025700Y0071826D01*
X0025677Y0071876D01*
X0025657Y0071927D01*
X0025640Y0071980D01*
X0025627Y0072033D01*
X0025618Y0072087D01*
X0025612Y0072142D01*
X0025610Y0072197D01*
X0028587Y0072036D02*
X0030198Y0072036D01*
X0029714Y0071392D02*
X0029714Y0072681D01*
X0028587Y0072036D02*
X0029231Y0074292D01*
X0032115Y0074654D02*
X0032115Y0075299D01*
X0032116Y0074654D02*
X0032118Y0074603D01*
X0032124Y0074553D01*
X0032134Y0074504D01*
X0032148Y0074455D01*
X0032165Y0074408D01*
X0032186Y0074362D01*
X0032211Y0074317D01*
X0032239Y0074275D01*
X0032270Y0074236D01*
X0032305Y0074199D01*
X0032342Y0074164D01*
X0032381Y0074133D01*
X0032424Y0074105D01*
X0032468Y0074080D01*
X0032514Y0074059D01*
X0032561Y0074042D01*
X0032610Y0074028D01*
X0032659Y0074018D01*
X0032709Y0074012D01*
X0032760Y0074010D01*
X0034371Y0074010D01*
X0034419Y0074012D01*
X0034467Y0074017D01*
X0034514Y0074026D01*
X0034561Y0074039D01*
X0034606Y0074055D01*
X0034650Y0074074D01*
X0034693Y0074096D01*
X0034734Y0074122D01*
X0034773Y0074151D01*
X0034809Y0074182D01*
X0034843Y0074216D01*
X0034874Y0074252D01*
X0034903Y0074291D01*
X0034929Y0074332D01*
X0034951Y0074375D01*
X0034970Y0074419D01*
X0034986Y0074464D01*
X0034999Y0074511D01*
X0035008Y0074558D01*
X0035013Y0074606D01*
X0035015Y0074654D01*
X0035015Y0075299D01*
X0035015Y0077225D02*
X0032115Y0078030D01*
X0032115Y0076419D01*
X0032438Y0076419D01*
X0038357Y0082872D02*
X0038357Y0084483D01*
X0038358Y0084483D02*
X0038360Y0084534D01*
X0038366Y0084584D01*
X0038376Y0084633D01*
X0038390Y0084682D01*
X0038407Y0084729D01*
X0038428Y0084775D01*
X0038453Y0084819D01*
X0038481Y0084862D01*
X0038512Y0084901D01*
X0038547Y0084938D01*
X0038584Y0084973D01*
X0038623Y0085004D01*
X0038666Y0085032D01*
X0038710Y0085057D01*
X0038756Y0085078D01*
X0038803Y0085095D01*
X0038852Y0085109D01*
X0038901Y0085119D01*
X0038951Y0085125D01*
X0039002Y0085127D01*
X0039646Y0085127D01*
X0041411Y0085127D02*
X0040766Y0082872D01*
X0042378Y0082872D01*
X0041894Y0083516D02*
X0041894Y0082227D01*
X0039646Y0082227D02*
X0039002Y0082227D01*
X0039002Y0082228D02*
X0038954Y0082230D01*
X0038906Y0082235D01*
X0038859Y0082244D01*
X0038812Y0082257D01*
X0038767Y0082273D01*
X0038723Y0082292D01*
X0038680Y0082314D01*
X0038639Y0082340D01*
X0038600Y0082369D01*
X0038564Y0082400D01*
X0038530Y0082434D01*
X0038499Y0082470D01*
X0038470Y0082509D01*
X0038444Y0082550D01*
X0038422Y0082593D01*
X0038403Y0082637D01*
X0038387Y0082682D01*
X0038374Y0082729D01*
X0038365Y0082776D01*
X0038360Y0082824D01*
X0038358Y0082872D01*
X0027023Y0093502D02*
X0025412Y0093502D01*
X0026057Y0095757D01*
X0026540Y0094146D02*
X0026540Y0092857D01*
X0024163Y0092857D02*
X0023519Y0094146D01*
X0023358Y0094146D02*
X0022552Y0094146D01*
X0023358Y0094146D02*
X0023413Y0094148D01*
X0023468Y0094154D01*
X0023522Y0094163D01*
X0023575Y0094176D01*
X0023628Y0094193D01*
X0023679Y0094213D01*
X0023729Y0094236D01*
X0023777Y0094263D01*
X0023823Y0094294D01*
X0023867Y0094327D01*
X0023908Y0094363D01*
X0023947Y0094402D01*
X0023983Y0094443D01*
X0024016Y0094487D01*
X0024047Y0094533D01*
X0024074Y0094581D01*
X0024097Y0094631D01*
X0024117Y0094682D01*
X0024134Y0094735D01*
X0024147Y0094788D01*
X0024156Y0094842D01*
X0024162Y0094897D01*
X0024164Y0094952D01*
X0024162Y0095007D01*
X0024156Y0095062D01*
X0024147Y0095116D01*
X0024134Y0095169D01*
X0024117Y0095222D01*
X0024097Y0095273D01*
X0024074Y0095323D01*
X0024047Y0095371D01*
X0024016Y0095417D01*
X0023983Y0095461D01*
X0023947Y0095502D01*
X0023908Y0095541D01*
X0023867Y0095577D01*
X0023823Y0095610D01*
X0023777Y0095641D01*
X0023729Y0095668D01*
X0023679Y0095691D01*
X0023628Y0095711D01*
X0023575Y0095728D01*
X0023522Y0095741D01*
X0023468Y0095750D01*
X0023413Y0095756D01*
X0023358Y0095758D01*
X0023358Y0095757D02*
X0022552Y0095757D01*
X0022552Y0092857D01*
X0029104Y0094620D02*
X0031198Y0094620D01*
X0031253Y0094622D01*
X0031308Y0094628D01*
X0031362Y0094637D01*
X0031415Y0094650D01*
X0031468Y0094667D01*
X0031519Y0094687D01*
X0031569Y0094710D01*
X0031617Y0094737D01*
X0031663Y0094768D01*
X0031707Y0094801D01*
X0031748Y0094837D01*
X0031787Y0094876D01*
X0031823Y0094917D01*
X0031856Y0094961D01*
X0031887Y0095007D01*
X0031914Y0095055D01*
X0031937Y0095105D01*
X0031957Y0095156D01*
X0031974Y0095209D01*
X0031987Y0095262D01*
X0031996Y0095316D01*
X0032002Y0095371D01*
X0032004Y0095426D01*
X0032002Y0095481D01*
X0031996Y0095536D01*
X0031987Y0095590D01*
X0031974Y0095643D01*
X0031957Y0095696D01*
X0031937Y0095747D01*
X0031914Y0095797D01*
X0031887Y0095845D01*
X0031856Y0095891D01*
X0031823Y0095935D01*
X0031787Y0095976D01*
X0031748Y0096015D01*
X0031707Y0096051D01*
X0031663Y0096084D01*
X0031617Y0096115D01*
X0031569Y0096142D01*
X0031519Y0096165D01*
X0031468Y0096185D01*
X0031415Y0096202D01*
X0031362Y0096215D01*
X0031308Y0096224D01*
X0031253Y0096230D01*
X0031198Y0096232D01*
X0031198Y0096231D02*
X0029104Y0096231D01*
X0029104Y0097596D02*
X0029104Y0099207D01*
X0030392Y0098563D02*
X0030392Y0097596D01*
X0029104Y0097596D01*
X0030393Y0098563D02*
X0030395Y0098614D01*
X0030401Y0098664D01*
X0030411Y0098713D01*
X0030425Y0098762D01*
X0030442Y0098809D01*
X0030463Y0098855D01*
X0030488Y0098899D01*
X0030516Y0098942D01*
X0030547Y0098981D01*
X0030582Y0099018D01*
X0030619Y0099053D01*
X0030658Y0099084D01*
X0030701Y0099112D01*
X0030745Y0099137D01*
X0030791Y0099158D01*
X0030838Y0099175D01*
X0030887Y0099189D01*
X0030936Y0099199D01*
X0030986Y0099205D01*
X0031037Y0099207D01*
X0031359Y0099207D01*
X0031407Y0099205D01*
X0031455Y0099200D01*
X0031502Y0099191D01*
X0031549Y0099178D01*
X0031594Y0099162D01*
X0031638Y0099143D01*
X0031681Y0099121D01*
X0031722Y0099095D01*
X0031761Y0099066D01*
X0031797Y0099035D01*
X0031831Y0099001D01*
X0031862Y0098965D01*
X0031891Y0098926D01*
X0031917Y0098885D01*
X0031939Y0098842D01*
X0031958Y0098798D01*
X0031974Y0098753D01*
X0031987Y0098706D01*
X0031996Y0098659D01*
X0032001Y0098611D01*
X0032003Y0098563D01*
X0032004Y0098563D02*
X0032004Y0097596D01*
X0032119Y0098773D02*
X0033033Y0099948D01*
X0031596Y0100470D01*
X0033033Y0099948D02*
X0033033Y0101515D01*
X0033033Y0099948D02*
X0034469Y0100470D01*
X0033033Y0099948D02*
X0033946Y0098773D01*
X0045827Y0098789D02*
X0045827Y0097178D01*
X0047116Y0097178D01*
X0047116Y0098144D01*
X0047117Y0098144D02*
X0047119Y0098195D01*
X0047125Y0098245D01*
X0047135Y0098294D01*
X0047149Y0098343D01*
X0047166Y0098390D01*
X0047187Y0098436D01*
X0047212Y0098480D01*
X0047240Y0098523D01*
X0047271Y0098562D01*
X0047306Y0098599D01*
X0047343Y0098634D01*
X0047382Y0098665D01*
X0047425Y0098693D01*
X0047469Y0098718D01*
X0047515Y0098739D01*
X0047562Y0098756D01*
X0047611Y0098770D01*
X0047660Y0098780D01*
X0047710Y0098786D01*
X0047761Y0098788D01*
X0047761Y0098789D02*
X0048083Y0098789D01*
X0048083Y0098788D02*
X0048131Y0098786D01*
X0048179Y0098781D01*
X0048226Y0098772D01*
X0048273Y0098759D01*
X0048318Y0098743D01*
X0048362Y0098724D01*
X0048405Y0098702D01*
X0048446Y0098676D01*
X0048485Y0098647D01*
X0048521Y0098616D01*
X0048555Y0098582D01*
X0048586Y0098546D01*
X0048615Y0098507D01*
X0048641Y0098466D01*
X0048663Y0098423D01*
X0048682Y0098379D01*
X0048698Y0098334D01*
X0048711Y0098287D01*
X0048720Y0098240D01*
X0048725Y0098192D01*
X0048727Y0098144D01*
X0048727Y0097178D01*
X0048727Y0096057D02*
X0048727Y0095413D01*
X0048725Y0095365D01*
X0048720Y0095317D01*
X0048711Y0095270D01*
X0048698Y0095223D01*
X0048682Y0095178D01*
X0048663Y0095134D01*
X0048641Y0095091D01*
X0048615Y0095050D01*
X0048586Y0095011D01*
X0048555Y0094975D01*
X0048521Y0094941D01*
X0048485Y0094910D01*
X0048446Y0094881D01*
X0048405Y0094855D01*
X0048362Y0094833D01*
X0048318Y0094814D01*
X0048273Y0094798D01*
X0048226Y0094785D01*
X0048179Y0094776D01*
X0048131Y0094771D01*
X0048083Y0094769D01*
X0048083Y0094768D02*
X0046472Y0094768D01*
X0046472Y0094769D02*
X0046421Y0094771D01*
X0046371Y0094777D01*
X0046322Y0094787D01*
X0046273Y0094801D01*
X0046226Y0094818D01*
X0046180Y0094839D01*
X0046136Y0094864D01*
X0046093Y0094892D01*
X0046054Y0094923D01*
X0046017Y0094958D01*
X0045982Y0094995D01*
X0045951Y0095034D01*
X0045923Y0095076D01*
X0045898Y0095121D01*
X0045877Y0095167D01*
X0045860Y0095214D01*
X0045846Y0095263D01*
X0045836Y0095312D01*
X0045830Y0095362D01*
X0045828Y0095413D01*
X0045827Y0095413D02*
X0045827Y0096057D01*
X0050414Y0066811D02*
X0050414Y0064717D01*
X0050413Y0064717D02*
X0050415Y0064662D01*
X0050421Y0064607D01*
X0050430Y0064553D01*
X0050443Y0064500D01*
X0050460Y0064447D01*
X0050480Y0064396D01*
X0050503Y0064346D01*
X0050530Y0064298D01*
X0050561Y0064252D01*
X0050594Y0064208D01*
X0050630Y0064167D01*
X0050669Y0064128D01*
X0050710Y0064092D01*
X0050754Y0064059D01*
X0050800Y0064028D01*
X0050848Y0064001D01*
X0050898Y0063978D01*
X0050949Y0063958D01*
X0051002Y0063941D01*
X0051055Y0063928D01*
X0051109Y0063919D01*
X0051164Y0063913D01*
X0051219Y0063911D01*
X0051274Y0063913D01*
X0051329Y0063919D01*
X0051383Y0063928D01*
X0051436Y0063941D01*
X0051489Y0063958D01*
X0051540Y0063978D01*
X0051590Y0064001D01*
X0051638Y0064028D01*
X0051684Y0064059D01*
X0051728Y0064092D01*
X0051769Y0064128D01*
X0051808Y0064167D01*
X0051844Y0064208D01*
X0051877Y0064252D01*
X0051908Y0064298D01*
X0051935Y0064346D01*
X0051958Y0064396D01*
X0051978Y0064447D01*
X0051995Y0064500D01*
X0052008Y0064553D01*
X0052017Y0064607D01*
X0052023Y0064662D01*
X0052025Y0064717D01*
X0052025Y0066811D01*
X0053390Y0066167D02*
X0054195Y0066811D01*
X0054195Y0063911D01*
X0053390Y0063911D02*
X0055001Y0063911D01*
X0058778Y0064700D02*
X0059953Y0065614D01*
X0060476Y0067050D01*
X0059953Y0065614D02*
X0060476Y0064178D01*
X0059953Y0065614D02*
X0058778Y0066528D01*
X0059953Y0065614D02*
X0061520Y0065614D01*
X0082166Y0063549D02*
X0082166Y0061938D01*
X0082168Y0061890D01*
X0082173Y0061842D01*
X0082182Y0061795D01*
X0082195Y0061748D01*
X0082211Y0061703D01*
X0082230Y0061659D01*
X0082252Y0061616D01*
X0082278Y0061575D01*
X0082307Y0061536D01*
X0082338Y0061500D01*
X0082372Y0061466D01*
X0082408Y0061435D01*
X0082447Y0061406D01*
X0082488Y0061380D01*
X0082531Y0061358D01*
X0082575Y0061339D01*
X0082620Y0061323D01*
X0082667Y0061310D01*
X0082714Y0061301D01*
X0082762Y0061296D01*
X0082810Y0061294D01*
X0082810Y0061293D02*
X0083455Y0061293D01*
X0084575Y0061293D02*
X0086186Y0061293D01*
X0085380Y0061293D02*
X0085380Y0064193D01*
X0084575Y0063549D01*
X0083455Y0064193D02*
X0082810Y0064193D01*
X0082759Y0064191D01*
X0082709Y0064185D01*
X0082660Y0064175D01*
X0082611Y0064161D01*
X0082564Y0064144D01*
X0082518Y0064123D01*
X0082474Y0064098D01*
X0082431Y0064070D01*
X0082392Y0064039D01*
X0082355Y0064004D01*
X0082320Y0063967D01*
X0082289Y0063928D01*
X0082261Y0063885D01*
X0082236Y0063841D01*
X0082215Y0063795D01*
X0082198Y0063748D01*
X0082184Y0063699D01*
X0082174Y0063650D01*
X0082168Y0063600D01*
X0082166Y0063549D01*
X0087455Y0064193D02*
X0088421Y0064193D01*
X0088470Y0064191D01*
X0088519Y0064185D01*
X0088568Y0064176D01*
X0088615Y0064163D01*
X0088662Y0064146D01*
X0088707Y0064126D01*
X0088750Y0064103D01*
X0088792Y0064076D01*
X0088831Y0064046D01*
X0088868Y0064013D01*
X0088902Y0063977D01*
X0088933Y0063939D01*
X0088962Y0063899D01*
X0088987Y0063857D01*
X0089009Y0063812D01*
X0089027Y0063767D01*
X0089042Y0063720D01*
X0089053Y0063672D01*
X0089061Y0063623D01*
X0089065Y0063574D01*
X0089065Y0063524D01*
X0089061Y0063475D01*
X0089053Y0063426D01*
X0089042Y0063378D01*
X0089027Y0063331D01*
X0089009Y0063286D01*
X0088987Y0063241D01*
X0088962Y0063199D01*
X0088933Y0063159D01*
X0088902Y0063121D01*
X0088868Y0063085D01*
X0088831Y0063052D01*
X0088792Y0063022D01*
X0088750Y0062995D01*
X0088707Y0062972D01*
X0088662Y0062952D01*
X0088615Y0062935D01*
X0088568Y0062922D01*
X0088519Y0062913D01*
X0088470Y0062907D01*
X0088421Y0062905D01*
X0088421Y0062904D02*
X0087777Y0062904D01*
X0088260Y0062905D02*
X0088315Y0062903D01*
X0088370Y0062897D01*
X0088424Y0062888D01*
X0088477Y0062875D01*
X0088530Y0062858D01*
X0088581Y0062838D01*
X0088631Y0062815D01*
X0088679Y0062788D01*
X0088725Y0062757D01*
X0088769Y0062724D01*
X0088810Y0062688D01*
X0088849Y0062649D01*
X0088885Y0062608D01*
X0088918Y0062564D01*
X0088949Y0062518D01*
X0088976Y0062470D01*
X0088999Y0062420D01*
X0089019Y0062369D01*
X0089036Y0062316D01*
X0089049Y0062263D01*
X0089058Y0062209D01*
X0089064Y0062154D01*
X0089066Y0062099D01*
X0089064Y0062044D01*
X0089058Y0061989D01*
X0089049Y0061935D01*
X0089036Y0061882D01*
X0089019Y0061829D01*
X0088999Y0061778D01*
X0088976Y0061728D01*
X0088949Y0061680D01*
X0088918Y0061634D01*
X0088885Y0061590D01*
X0088849Y0061549D01*
X0088810Y0061510D01*
X0088769Y0061474D01*
X0088725Y0061441D01*
X0088679Y0061410D01*
X0088631Y0061383D01*
X0088581Y0061360D01*
X0088530Y0061340D01*
X0088477Y0061323D01*
X0088424Y0061310D01*
X0088370Y0061301D01*
X0088315Y0061295D01*
X0088260Y0061293D01*
X0087455Y0061293D01*
X0095552Y0061580D02*
X0095552Y0059969D01*
X0095554Y0059921D01*
X0095559Y0059873D01*
X0095568Y0059826D01*
X0095581Y0059779D01*
X0095597Y0059734D01*
X0095616Y0059690D01*
X0095638Y0059647D01*
X0095664Y0059606D01*
X0095693Y0059567D01*
X0095724Y0059531D01*
X0095758Y0059497D01*
X0095794Y0059466D01*
X0095833Y0059437D01*
X0095874Y0059411D01*
X0095917Y0059389D01*
X0095961Y0059370D01*
X0096006Y0059354D01*
X0096053Y0059341D01*
X0096100Y0059332D01*
X0096148Y0059327D01*
X0096196Y0059325D01*
X0096840Y0059325D01*
X0097961Y0059325D02*
X0099572Y0059325D01*
X0098766Y0059325D02*
X0098766Y0062225D01*
X0097961Y0061580D01*
X0096840Y0062225D02*
X0096196Y0062225D01*
X0096196Y0062224D02*
X0096145Y0062222D01*
X0096095Y0062216D01*
X0096046Y0062206D01*
X0095997Y0062192D01*
X0095950Y0062175D01*
X0095904Y0062154D01*
X0095860Y0062129D01*
X0095817Y0062101D01*
X0095778Y0062070D01*
X0095741Y0062035D01*
X0095706Y0061998D01*
X0095675Y0061959D01*
X0095647Y0061916D01*
X0095622Y0061872D01*
X0095601Y0061826D01*
X0095584Y0061779D01*
X0095570Y0061730D01*
X0095560Y0061681D01*
X0095554Y0061631D01*
X0095552Y0061580D01*
X0100841Y0059969D02*
X0102452Y0059969D01*
X0101968Y0059325D02*
X0101968Y0060614D01*
X0100841Y0059969D02*
X0101485Y0062225D01*
X0097048Y0038329D02*
X0097219Y0036221D01*
X0098358Y0037360D01*
X0095625Y0037817D02*
X0095600Y0037869D01*
X0095578Y0037924D01*
X0095560Y0037980D01*
X0095546Y0038036D01*
X0095535Y0038094D01*
X0095527Y0038152D01*
X0095523Y0038210D01*
X0095523Y0038269D01*
X0095527Y0038327D01*
X0095534Y0038385D01*
X0095545Y0038443D01*
X0095560Y0038499D01*
X0095578Y0038555D01*
X0095599Y0038609D01*
X0095624Y0038662D01*
X0095653Y0038714D01*
X0095684Y0038763D01*
X0095718Y0038811D01*
X0095756Y0038856D01*
X0095796Y0038898D01*
X0095795Y0038899D02*
X0095833Y0038934D01*
X0095874Y0038966D01*
X0095916Y0038996D01*
X0095961Y0039022D01*
X0096007Y0039045D01*
X0096055Y0039065D01*
X0096104Y0039082D01*
X0096154Y0039094D01*
X0096205Y0039104D01*
X0096256Y0039109D01*
X0096308Y0039111D01*
X0096360Y0039109D01*
X0096411Y0039104D01*
X0096462Y0039094D01*
X0096512Y0039082D01*
X0096561Y0039065D01*
X0096609Y0039045D01*
X0096655Y0039022D01*
X0096700Y0038996D01*
X0096742Y0038966D01*
X0096783Y0038934D01*
X0096821Y0038899D01*
X0096857Y0038860D01*
X0096890Y0038820D01*
X0096920Y0038777D01*
X0096948Y0038732D01*
X0096972Y0038685D01*
X0096993Y0038637D01*
X0097011Y0038588D01*
X0097026Y0038537D01*
X0097037Y0038486D01*
X0097044Y0038434D01*
X0097048Y0038382D01*
X0097049Y0038329D01*
X0095044Y0036781D02*
X0095956Y0034958D01*
X0094133Y0035869D01*
X0093803Y0034628D02*
X0094031Y0034400D01*
X0093120Y0033489D01*
X0092892Y0033716D02*
X0093461Y0033147D01*
X0093493Y0033119D01*
X0093526Y0033093D01*
X0093562Y0033071D01*
X0093599Y0033051D01*
X0093638Y0033035D01*
X0093678Y0033022D01*
X0093719Y0033013D01*
X0093761Y0033008D01*
X0093803Y0033006D01*
X0093845Y0033008D01*
X0093887Y0033013D01*
X0093928Y0033022D01*
X0093968Y0033035D01*
X0094007Y0033051D01*
X0094045Y0033071D01*
X0094080Y0033093D01*
X0094113Y0033119D01*
X0094145Y0033147D01*
X0094714Y0033716D01*
X0093802Y0034627D02*
X0093766Y0034661D01*
X0093728Y0034692D01*
X0093687Y0034719D01*
X0093644Y0034744D01*
X0093599Y0034765D01*
X0093553Y0034782D01*
X0093506Y0034796D01*
X0093457Y0034806D01*
X0093409Y0034813D01*
X0093359Y0034816D01*
X0093310Y0034815D01*
X0093261Y0034810D01*
X0093212Y0034802D01*
X0093164Y0034790D01*
X0093118Y0034774D01*
X0093072Y0034754D01*
X0093029Y0034732D01*
X0092987Y0034706D01*
X0092947Y0034677D01*
X0092909Y0034644D01*
X0092875Y0034610D01*
X0092842Y0034572D01*
X0092813Y0034532D01*
X0092787Y0034490D01*
X0092765Y0034447D01*
X0092745Y0034401D01*
X0092729Y0034355D01*
X0092717Y0034307D01*
X0092709Y0034258D01*
X0092704Y0034209D01*
X0092703Y0034160D01*
X0092706Y0034110D01*
X0092713Y0034062D01*
X0092723Y0034013D01*
X0092737Y0033966D01*
X0092754Y0033920D01*
X0092775Y0033875D01*
X0092800Y0033832D01*
X0092827Y0033791D01*
X0092858Y0033753D01*
X0092892Y0033717D01*
X0092003Y0033283D02*
X0091775Y0033511D01*
X0091091Y0032827D01*
X0092458Y0031460D01*
X0090532Y0029534D02*
X0089621Y0028623D01*
X0087570Y0030673D01*
X0086031Y0029134D02*
X0088082Y0027084D01*
X0088651Y0027653D02*
X0087512Y0026514D01*
X0085361Y0024933D02*
X0085277Y0024964D01*
X0085193Y0024999D01*
X0085111Y0025036D01*
X0085030Y0025076D01*
X0084951Y0025120D01*
X0084873Y0025166D01*
X0084798Y0025216D01*
X0084724Y0025268D01*
X0084652Y0025323D01*
X0084582Y0025380D01*
X0084515Y0025440D01*
X0084450Y0025503D01*
X0083325Y0022896D02*
X0083241Y0022927D01*
X0083157Y0022962D01*
X0083075Y0022999D01*
X0082994Y0023039D01*
X0082915Y0023083D01*
X0082837Y0023129D01*
X0082762Y0023179D01*
X0082688Y0023231D01*
X0082616Y0023286D01*
X0082546Y0023343D01*
X0082479Y0023403D01*
X0082414Y0023466D01*
X0083552Y0024605D02*
X0083487Y0024668D01*
X0083420Y0024728D01*
X0083350Y0024786D01*
X0083279Y0024840D01*
X0083205Y0024893D01*
X0083129Y0024942D01*
X0083052Y0024988D01*
X0082972Y0025032D01*
X0082892Y0025072D01*
X0082809Y0025110D01*
X0082726Y0025144D01*
X0082641Y0025175D01*
X0082869Y0025061D02*
X0083097Y0023011D01*
X0084008Y0023011D02*
X0084040Y0023044D01*
X0084068Y0023081D01*
X0084094Y0023119D01*
X0084117Y0023159D01*
X0084136Y0023201D01*
X0084153Y0023244D01*
X0084166Y0023289D01*
X0084175Y0023334D01*
X0084181Y0023380D01*
X0084183Y0023426D01*
X0084182Y0023472D01*
X0084177Y0023518D01*
X0084168Y0023564D01*
X0084156Y0023608D01*
X0084141Y0023652D01*
X0084122Y0023694D01*
X0084008Y0023011D02*
X0083975Y0022979D01*
X0083938Y0022951D01*
X0083900Y0022925D01*
X0083860Y0022902D01*
X0083818Y0022883D01*
X0083775Y0022866D01*
X0083730Y0022853D01*
X0083685Y0022844D01*
X0083639Y0022838D01*
X0083593Y0022836D01*
X0083547Y0022837D01*
X0083501Y0022842D01*
X0083455Y0022851D01*
X0083411Y0022863D01*
X0083367Y0022878D01*
X0083325Y0022897D01*
X0082632Y0021634D02*
X0080353Y0022089D01*
X0081264Y0023001D02*
X0081720Y0020722D01*
X0080650Y0019651D02*
X0080678Y0019680D01*
X0080702Y0019712D01*
X0080723Y0019746D01*
X0080741Y0019782D01*
X0080756Y0019819D01*
X0080766Y0019858D01*
X0080773Y0019897D01*
X0080777Y0019937D01*
X0080776Y0019977D01*
X0080772Y0020017D01*
X0080764Y0020056D01*
X0080752Y0020094D01*
X0080736Y0020131D01*
X0080717Y0020166D01*
X0080695Y0020199D01*
X0080670Y0020230D01*
X0080642Y0020259D01*
X0080611Y0020284D01*
X0080578Y0020307D01*
X0080543Y0020326D01*
X0080507Y0020342D01*
X0080468Y0020354D01*
X0080429Y0020363D01*
X0080390Y0020368D01*
X0080350Y0020369D01*
X0080310Y0020366D01*
X0080270Y0020360D01*
X0080232Y0020349D01*
X0080194Y0020335D01*
X0079397Y0019993D01*
X0079359Y0019979D01*
X0079321Y0019968D01*
X0079281Y0019962D01*
X0079241Y0019959D01*
X0079201Y0019960D01*
X0079162Y0019965D01*
X0079123Y0019974D01*
X0079084Y0019986D01*
X0079048Y0020002D01*
X0079013Y0020021D01*
X0078980Y0020044D01*
X0078949Y0020069D01*
X0078921Y0020098D01*
X0078896Y0020129D01*
X0078874Y0020162D01*
X0078855Y0020197D01*
X0078839Y0020234D01*
X0078827Y0020272D01*
X0078819Y0020311D01*
X0078815Y0020351D01*
X0078814Y0020391D01*
X0078818Y0020431D01*
X0078825Y0020470D01*
X0078835Y0020509D01*
X0078850Y0020546D01*
X0078868Y0020582D01*
X0078889Y0020616D01*
X0078913Y0020648D01*
X0078941Y0020677D01*
X0079910Y0019139D02*
X0080000Y0019184D01*
X0080088Y0019231D01*
X0080175Y0019282D01*
X0080260Y0019337D01*
X0080342Y0019394D01*
X0080423Y0019454D01*
X0080501Y0019517D01*
X0080577Y0019583D01*
X0080650Y0019652D01*
X0079568Y0021075D02*
X0079491Y0021044D01*
X0079415Y0021009D01*
X0079341Y0020971D01*
X0079269Y0020930D01*
X0079199Y0020885D01*
X0079131Y0020838D01*
X0079066Y0020787D01*
X0079002Y0020733D01*
X0078941Y0020677D01*
X0078258Y0019083D02*
X0078714Y0018627D01*
X0078713Y0018627D02*
X0078748Y0018590D01*
X0078779Y0018551D01*
X0078807Y0018508D01*
X0078832Y0018464D01*
X0078853Y0018418D01*
X0078870Y0018371D01*
X0078884Y0018322D01*
X0078894Y0018273D01*
X0078900Y0018223D01*
X0078902Y0018172D01*
X0078900Y0018121D01*
X0078894Y0018071D01*
X0078884Y0018022D01*
X0078870Y0017973D01*
X0078853Y0017926D01*
X0078832Y0017880D01*
X0078807Y0017836D01*
X0078779Y0017793D01*
X0078748Y0017754D01*
X0078713Y0017717D01*
X0078676Y0017682D01*
X0078637Y0017651D01*
X0078594Y0017623D01*
X0078550Y0017598D01*
X0078504Y0017577D01*
X0078457Y0017560D01*
X0078408Y0017546D01*
X0078359Y0017536D01*
X0078309Y0017530D01*
X0078258Y0017528D01*
X0078207Y0017530D01*
X0078157Y0017536D01*
X0078108Y0017546D01*
X0078059Y0017560D01*
X0078012Y0017577D01*
X0077966Y0017598D01*
X0077922Y0017623D01*
X0077879Y0017651D01*
X0077840Y0017682D01*
X0077803Y0017717D01*
X0077802Y0017716D02*
X0077347Y0018172D01*
X0077313Y0018208D01*
X0077282Y0018246D01*
X0077255Y0018287D01*
X0077230Y0018330D01*
X0077209Y0018375D01*
X0077192Y0018421D01*
X0077178Y0018468D01*
X0077168Y0018517D01*
X0077161Y0018565D01*
X0077158Y0018615D01*
X0077159Y0018664D01*
X0077164Y0018713D01*
X0077172Y0018762D01*
X0077184Y0018810D01*
X0077200Y0018856D01*
X0077220Y0018902D01*
X0077242Y0018945D01*
X0077268Y0018987D01*
X0077297Y0019027D01*
X0077330Y0019065D01*
X0077364Y0019099D01*
X0077402Y0019132D01*
X0077442Y0019161D01*
X0077484Y0019187D01*
X0077527Y0019209D01*
X0077573Y0019229D01*
X0077619Y0019245D01*
X0077667Y0019257D01*
X0077716Y0019265D01*
X0077765Y0019270D01*
X0077814Y0019271D01*
X0077864Y0019268D01*
X0077912Y0019261D01*
X0077961Y0019251D01*
X0078008Y0019237D01*
X0078054Y0019220D01*
X0078099Y0019199D01*
X0078142Y0019174D01*
X0078183Y0019147D01*
X0078221Y0019116D01*
X0078257Y0019082D01*
X0076564Y0017160D02*
X0075196Y0015793D01*
X0074150Y0015430D02*
X0073922Y0015658D01*
X0073238Y0014974D01*
X0074605Y0013607D01*
X0073765Y0012767D02*
X0072284Y0013223D01*
X0072170Y0012539D02*
X0072398Y0014134D01*
X0070803Y0013906D02*
X0072854Y0011856D01*
X0076637Y0012952D02*
X0078688Y0010902D01*
X0078005Y0011585D02*
X0078232Y0013180D01*
X0078118Y0012269D02*
X0079599Y0011813D01*
X0080440Y0012653D02*
X0079073Y0014020D01*
X0079756Y0014704D01*
X0079984Y0014476D01*
X0081195Y0014776D02*
X0081423Y0016371D01*
X0081309Y0015459D02*
X0082790Y0015004D01*
X0083630Y0015844D02*
X0082263Y0017211D01*
X0082946Y0017894D01*
X0083174Y0017667D01*
X0083687Y0018635D02*
X0084257Y0019205D01*
X0084256Y0019205D02*
X0084288Y0019233D01*
X0084321Y0019259D01*
X0084357Y0019281D01*
X0084394Y0019301D01*
X0084433Y0019317D01*
X0084473Y0019330D01*
X0084514Y0019339D01*
X0084556Y0019344D01*
X0084598Y0019346D01*
X0084640Y0019344D01*
X0084682Y0019339D01*
X0084723Y0019330D01*
X0084763Y0019317D01*
X0084802Y0019301D01*
X0084840Y0019281D01*
X0084875Y0019259D01*
X0084908Y0019233D01*
X0084940Y0019205D01*
X0085624Y0018521D01*
X0085652Y0018489D01*
X0085678Y0018456D01*
X0085700Y0018421D01*
X0085720Y0018383D01*
X0085736Y0018344D01*
X0085749Y0018304D01*
X0085758Y0018263D01*
X0085763Y0018221D01*
X0085765Y0018179D01*
X0085763Y0018137D01*
X0085758Y0018095D01*
X0085749Y0018054D01*
X0085736Y0018014D01*
X0085720Y0017975D01*
X0085700Y0017938D01*
X0085678Y0017902D01*
X0085652Y0017869D01*
X0085624Y0017837D01*
X0085054Y0017268D01*
X0085738Y0016584D02*
X0083687Y0018635D01*
X0085521Y0020469D02*
X0086205Y0021153D01*
X0086433Y0020925D01*
X0087322Y0021358D02*
X0087777Y0020903D01*
X0087778Y0020903D02*
X0087815Y0020868D01*
X0087854Y0020837D01*
X0087897Y0020809D01*
X0087941Y0020784D01*
X0087987Y0020763D01*
X0088034Y0020746D01*
X0088083Y0020732D01*
X0088132Y0020722D01*
X0088182Y0020716D01*
X0088233Y0020714D01*
X0088284Y0020716D01*
X0088334Y0020722D01*
X0088383Y0020732D01*
X0088432Y0020746D01*
X0088479Y0020763D01*
X0088525Y0020784D01*
X0088569Y0020809D01*
X0088612Y0020837D01*
X0088651Y0020868D01*
X0088688Y0020903D01*
X0088723Y0020940D01*
X0088754Y0020979D01*
X0088782Y0021022D01*
X0088807Y0021066D01*
X0088828Y0021112D01*
X0088845Y0021159D01*
X0088859Y0021208D01*
X0088869Y0021257D01*
X0088875Y0021307D01*
X0088877Y0021358D01*
X0088875Y0021409D01*
X0088869Y0021459D01*
X0088859Y0021508D01*
X0088845Y0021557D01*
X0088828Y0021604D01*
X0088807Y0021650D01*
X0088782Y0021694D01*
X0088754Y0021737D01*
X0088723Y0021776D01*
X0088688Y0021813D01*
X0088689Y0021814D02*
X0088233Y0022270D01*
X0088232Y0022269D02*
X0088196Y0022303D01*
X0088158Y0022334D01*
X0088117Y0022361D01*
X0088074Y0022386D01*
X0088029Y0022407D01*
X0087983Y0022424D01*
X0087936Y0022438D01*
X0087887Y0022448D01*
X0087839Y0022455D01*
X0087789Y0022458D01*
X0087740Y0022457D01*
X0087691Y0022452D01*
X0087642Y0022444D01*
X0087594Y0022432D01*
X0087548Y0022416D01*
X0087502Y0022396D01*
X0087459Y0022374D01*
X0087417Y0022348D01*
X0087377Y0022319D01*
X0087339Y0022286D01*
X0087305Y0022252D01*
X0087272Y0022214D01*
X0087243Y0022174D01*
X0087217Y0022132D01*
X0087195Y0022089D01*
X0087175Y0022043D01*
X0087159Y0021997D01*
X0087147Y0021949D01*
X0087139Y0021900D01*
X0087134Y0021851D01*
X0087133Y0021802D01*
X0087136Y0021752D01*
X0087143Y0021704D01*
X0087153Y0021655D01*
X0087167Y0021608D01*
X0087184Y0021562D01*
X0087205Y0021517D01*
X0087230Y0021474D01*
X0087257Y0021433D01*
X0087288Y0021395D01*
X0087322Y0021359D01*
X0085521Y0020469D02*
X0086888Y0019102D01*
X0089922Y0022135D02*
X0089808Y0022249D01*
X0089922Y0022363D01*
X0090035Y0022249D01*
X0089922Y0022135D01*
X0090473Y0023371D02*
X0089790Y0024054D01*
X0089762Y0024086D01*
X0089736Y0024119D01*
X0089714Y0024155D01*
X0089694Y0024192D01*
X0089678Y0024231D01*
X0089665Y0024271D01*
X0089656Y0024312D01*
X0089651Y0024354D01*
X0089649Y0024396D01*
X0089651Y0024438D01*
X0089656Y0024480D01*
X0089665Y0024521D01*
X0089678Y0024561D01*
X0089694Y0024600D01*
X0089714Y0024638D01*
X0089736Y0024673D01*
X0089762Y0024706D01*
X0089790Y0024738D01*
X0090246Y0025193D01*
X0091462Y0025499D02*
X0091918Y0025043D01*
X0091919Y0025044D02*
X0091956Y0025009D01*
X0091995Y0024978D01*
X0092038Y0024950D01*
X0092082Y0024925D01*
X0092128Y0024904D01*
X0092175Y0024887D01*
X0092224Y0024873D01*
X0092273Y0024863D01*
X0092323Y0024857D01*
X0092374Y0024855D01*
X0092425Y0024857D01*
X0092475Y0024863D01*
X0092524Y0024873D01*
X0092573Y0024887D01*
X0092620Y0024904D01*
X0092666Y0024925D01*
X0092710Y0024950D01*
X0092753Y0024978D01*
X0092792Y0025009D01*
X0092829Y0025044D01*
X0092864Y0025081D01*
X0092895Y0025120D01*
X0092923Y0025163D01*
X0092948Y0025207D01*
X0092969Y0025253D01*
X0092986Y0025300D01*
X0093000Y0025349D01*
X0093010Y0025398D01*
X0093016Y0025448D01*
X0093018Y0025499D01*
X0093016Y0025550D01*
X0093010Y0025600D01*
X0093000Y0025649D01*
X0092986Y0025698D01*
X0092969Y0025745D01*
X0092948Y0025791D01*
X0092923Y0025835D01*
X0092895Y0025878D01*
X0092864Y0025917D01*
X0092829Y0025954D01*
X0092830Y0025955D02*
X0092374Y0026410D01*
X0092373Y0026410D02*
X0092337Y0026444D01*
X0092299Y0026475D01*
X0092258Y0026502D01*
X0092215Y0026527D01*
X0092170Y0026548D01*
X0092124Y0026565D01*
X0092077Y0026579D01*
X0092028Y0026589D01*
X0091980Y0026596D01*
X0091930Y0026599D01*
X0091881Y0026598D01*
X0091832Y0026593D01*
X0091783Y0026585D01*
X0091735Y0026573D01*
X0091689Y0026557D01*
X0091643Y0026537D01*
X0091600Y0026515D01*
X0091558Y0026489D01*
X0091518Y0026460D01*
X0091480Y0026427D01*
X0091446Y0026393D01*
X0091413Y0026355D01*
X0091384Y0026315D01*
X0091358Y0026273D01*
X0091336Y0026230D01*
X0091316Y0026184D01*
X0091300Y0026138D01*
X0091288Y0026090D01*
X0091280Y0026041D01*
X0091275Y0025992D01*
X0091274Y0025943D01*
X0091277Y0025893D01*
X0091284Y0025845D01*
X0091294Y0025796D01*
X0091308Y0025749D01*
X0091325Y0025703D01*
X0091346Y0025658D01*
X0091371Y0025615D01*
X0091398Y0025574D01*
X0091429Y0025536D01*
X0091463Y0025500D01*
X0091613Y0023826D02*
X0091157Y0023371D01*
X0091157Y0023370D02*
X0091125Y0023342D01*
X0091092Y0023316D01*
X0091057Y0023294D01*
X0091019Y0023274D01*
X0090980Y0023258D01*
X0090940Y0023245D01*
X0090899Y0023236D01*
X0090857Y0023231D01*
X0090815Y0023229D01*
X0090773Y0023231D01*
X0090731Y0023236D01*
X0090690Y0023245D01*
X0090650Y0023258D01*
X0090611Y0023274D01*
X0090574Y0023294D01*
X0090538Y0023316D01*
X0090505Y0023342D01*
X0090473Y0023370D01*
X0094250Y0026464D02*
X0092883Y0027831D01*
X0093909Y0028856D01*
X0093908Y0028857D02*
X0093940Y0028885D01*
X0093973Y0028911D01*
X0094009Y0028933D01*
X0094046Y0028953D01*
X0094085Y0028969D01*
X0094125Y0028982D01*
X0094166Y0028991D01*
X0094208Y0028996D01*
X0094250Y0028998D01*
X0094292Y0028996D01*
X0094334Y0028991D01*
X0094375Y0028982D01*
X0094415Y0028969D01*
X0094454Y0028953D01*
X0094492Y0028933D01*
X0094527Y0028911D01*
X0094560Y0028885D01*
X0094592Y0028857D01*
X0094592Y0028856D02*
X0095617Y0027831D01*
X0094934Y0027148D02*
X0093567Y0028515D01*
X0095341Y0032111D02*
X0095442Y0032101D01*
X0095542Y0032086D01*
X0095642Y0032068D01*
X0095741Y0032046D01*
X0095839Y0032021D01*
X0095936Y0031992D01*
X0096032Y0031960D01*
X0096126Y0031924D01*
X0096220Y0031884D01*
X0096311Y0031841D01*
X0096402Y0031795D01*
X0096490Y0031746D01*
X0096577Y0031693D01*
X0096661Y0031637D01*
X0096744Y0031578D01*
X0096824Y0031516D01*
X0096902Y0031452D01*
X0096977Y0031384D01*
X0097050Y0031314D01*
X0097120Y0031241D01*
X0097188Y0031166D01*
X0097252Y0031088D01*
X0097314Y0031008D01*
X0097373Y0030925D01*
X0097429Y0030841D01*
X0097482Y0030754D01*
X0097531Y0030666D01*
X0097577Y0030575D01*
X0097620Y0030484D01*
X0097660Y0030390D01*
X0097696Y0030296D01*
X0097728Y0030200D01*
X0097757Y0030103D01*
X0097782Y0030005D01*
X0097804Y0029906D01*
X0097822Y0029806D01*
X0097837Y0029706D01*
X0097847Y0029605D01*
X0091221Y0036460D02*
X0091221Y0037266D01*
X0091222Y0037266D02*
X0091220Y0037321D01*
X0091214Y0037376D01*
X0091205Y0037430D01*
X0091192Y0037483D01*
X0091175Y0037536D01*
X0091155Y0037587D01*
X0091132Y0037637D01*
X0091105Y0037685D01*
X0091074Y0037731D01*
X0091041Y0037775D01*
X0091005Y0037816D01*
X0090966Y0037855D01*
X0090925Y0037891D01*
X0090881Y0037924D01*
X0090835Y0037955D01*
X0090787Y0037982D01*
X0090737Y0038005D01*
X0090686Y0038025D01*
X0090633Y0038042D01*
X0090580Y0038055D01*
X0090526Y0038064D01*
X0090471Y0038070D01*
X0090416Y0038072D01*
X0090361Y0038070D01*
X0090306Y0038064D01*
X0090252Y0038055D01*
X0090199Y0038042D01*
X0090146Y0038025D01*
X0090095Y0038005D01*
X0090045Y0037982D01*
X0089997Y0037955D01*
X0089951Y0037924D01*
X0089907Y0037891D01*
X0089866Y0037855D01*
X0089827Y0037816D01*
X0089791Y0037775D01*
X0089758Y0037731D01*
X0089727Y0037685D01*
X0089700Y0037637D01*
X0089677Y0037587D01*
X0089657Y0037536D01*
X0089640Y0037483D01*
X0089627Y0037430D01*
X0089618Y0037376D01*
X0089612Y0037321D01*
X0089610Y0037266D01*
X0089610Y0037105D01*
X0089611Y0037105D02*
X0089613Y0037057D01*
X0089618Y0037009D01*
X0089627Y0036962D01*
X0089640Y0036915D01*
X0089656Y0036870D01*
X0089675Y0036826D01*
X0089697Y0036783D01*
X0089723Y0036742D01*
X0089751Y0036703D01*
X0089783Y0036667D01*
X0089817Y0036633D01*
X0089853Y0036602D01*
X0089892Y0036573D01*
X0089933Y0036547D01*
X0089976Y0036525D01*
X0090020Y0036506D01*
X0090065Y0036490D01*
X0090112Y0036477D01*
X0090159Y0036468D01*
X0090207Y0036463D01*
X0090255Y0036461D01*
X0090255Y0036460D02*
X0091221Y0036460D01*
X0091219Y0036390D01*
X0091213Y0036321D01*
X0091204Y0036251D01*
X0091191Y0036183D01*
X0091174Y0036115D01*
X0091154Y0036048D01*
X0091129Y0035983D01*
X0091102Y0035919D01*
X0091071Y0035856D01*
X0091036Y0035795D01*
X0090999Y0035737D01*
X0090958Y0035680D01*
X0090914Y0035626D01*
X0090868Y0035574D01*
X0090818Y0035524D01*
X0090766Y0035478D01*
X0090712Y0035434D01*
X0090655Y0035393D01*
X0090597Y0035356D01*
X0090536Y0035321D01*
X0090473Y0035290D01*
X0090409Y0035263D01*
X0090344Y0035238D01*
X0090277Y0035218D01*
X0090209Y0035201D01*
X0090141Y0035188D01*
X0090071Y0035179D01*
X0090002Y0035173D01*
X0089932Y0035171D01*
X0088245Y0035977D02*
X0088245Y0038071D01*
X0086634Y0038071D02*
X0086634Y0035977D01*
X0086636Y0035922D01*
X0086642Y0035867D01*
X0086651Y0035813D01*
X0086664Y0035760D01*
X0086681Y0035707D01*
X0086701Y0035656D01*
X0086724Y0035606D01*
X0086751Y0035558D01*
X0086782Y0035512D01*
X0086815Y0035468D01*
X0086851Y0035427D01*
X0086890Y0035388D01*
X0086931Y0035352D01*
X0086975Y0035319D01*
X0087021Y0035288D01*
X0087069Y0035261D01*
X0087119Y0035238D01*
X0087170Y0035218D01*
X0087223Y0035201D01*
X0087276Y0035188D01*
X0087330Y0035179D01*
X0087385Y0035173D01*
X0087440Y0035171D01*
X0087495Y0035173D01*
X0087550Y0035179D01*
X0087604Y0035188D01*
X0087657Y0035201D01*
X0087710Y0035218D01*
X0087761Y0035238D01*
X0087811Y0035261D01*
X0087859Y0035288D01*
X0087905Y0035319D01*
X0087949Y0035352D01*
X0087990Y0035388D01*
X0088029Y0035427D01*
X0088065Y0035468D01*
X0088098Y0035512D01*
X0088129Y0035558D01*
X0088156Y0035606D01*
X0088179Y0035656D01*
X0088199Y0035707D01*
X0088216Y0035760D01*
X0088229Y0035813D01*
X0088238Y0035867D01*
X0088244Y0035922D01*
X0088246Y0035977D01*
X0086031Y0029134D02*
X0085917Y0028109D01*
X0083880Y0026414D02*
X0083911Y0026330D01*
X0083946Y0026246D01*
X0083983Y0026164D01*
X0084023Y0026083D01*
X0084067Y0026004D01*
X0084113Y0025926D01*
X0084163Y0025851D01*
X0084215Y0025777D01*
X0084270Y0025705D01*
X0084327Y0025635D01*
X0084387Y0025568D01*
X0084450Y0025503D01*
X0081844Y0024377D02*
X0081875Y0024293D01*
X0081910Y0024209D01*
X0081947Y0024127D01*
X0081987Y0024046D01*
X0082031Y0023967D01*
X0082077Y0023889D01*
X0082127Y0023814D01*
X0082179Y0023740D01*
X0082234Y0023668D01*
X0082291Y0023598D01*
X0082351Y0023531D01*
X0082414Y0023466D01*
X0083553Y0024606D02*
X0083616Y0024541D01*
X0083676Y0024474D01*
X0083733Y0024404D01*
X0083788Y0024332D01*
X0083840Y0024258D01*
X0083890Y0024183D01*
X0083936Y0024105D01*
X0083980Y0024026D01*
X0084020Y0023945D01*
X0084057Y0023863D01*
X0084092Y0023779D01*
X0084123Y0023695D01*
X0086160Y0025731D02*
X0086129Y0025815D01*
X0086094Y0025899D01*
X0086057Y0025981D01*
X0086017Y0026062D01*
X0085973Y0026141D01*
X0085927Y0026219D01*
X0085877Y0026294D01*
X0085825Y0026368D01*
X0085770Y0026440D01*
X0085713Y0026510D01*
X0085653Y0026577D01*
X0085590Y0026642D01*
X0084906Y0027098D02*
X0085134Y0025047D01*
X0086045Y0025048D02*
X0086077Y0025081D01*
X0086105Y0025118D01*
X0086131Y0025156D01*
X0086154Y0025196D01*
X0086173Y0025238D01*
X0086190Y0025281D01*
X0086203Y0025326D01*
X0086212Y0025371D01*
X0086218Y0025417D01*
X0086220Y0025463D01*
X0086219Y0025509D01*
X0086214Y0025555D01*
X0086205Y0025601D01*
X0086193Y0025645D01*
X0086178Y0025689D01*
X0086159Y0025731D01*
X0086045Y0025048D02*
X0086012Y0025016D01*
X0085975Y0024988D01*
X0085937Y0024962D01*
X0085897Y0024939D01*
X0085855Y0024920D01*
X0085812Y0024903D01*
X0085767Y0024890D01*
X0085722Y0024881D01*
X0085676Y0024875D01*
X0085630Y0024873D01*
X0085584Y0024874D01*
X0085538Y0024879D01*
X0085492Y0024888D01*
X0085448Y0024900D01*
X0085404Y0024915D01*
X0085362Y0024934D01*
X0085589Y0026642D02*
X0085524Y0026705D01*
X0085457Y0026765D01*
X0085387Y0026823D01*
X0085316Y0026877D01*
X0085242Y0026930D01*
X0085166Y0026979D01*
X0085089Y0027025D01*
X0085009Y0027069D01*
X0084929Y0027109D01*
X0084846Y0027147D01*
X0084763Y0027181D01*
X0084678Y0027212D01*
X0084678Y0027211D02*
X0084636Y0027230D01*
X0084592Y0027245D01*
X0084548Y0027257D01*
X0084502Y0027266D01*
X0084456Y0027271D01*
X0084410Y0027272D01*
X0084364Y0027270D01*
X0084318Y0027264D01*
X0084273Y0027255D01*
X0084228Y0027242D01*
X0084185Y0027225D01*
X0084143Y0027206D01*
X0084103Y0027183D01*
X0084065Y0027157D01*
X0084028Y0027129D01*
X0083995Y0027097D01*
X0083963Y0027064D01*
X0083935Y0027027D01*
X0083909Y0026989D01*
X0083886Y0026949D01*
X0083867Y0026907D01*
X0083850Y0026864D01*
X0083837Y0026819D01*
X0083828Y0026774D01*
X0083822Y0026728D01*
X0083820Y0026682D01*
X0083821Y0026636D01*
X0083826Y0026590D01*
X0083835Y0026544D01*
X0083847Y0026500D01*
X0083862Y0026456D01*
X0083881Y0026414D01*
X0082642Y0025175D02*
X0082600Y0025194D01*
X0082556Y0025209D01*
X0082512Y0025221D01*
X0082466Y0025230D01*
X0082420Y0025235D01*
X0082374Y0025236D01*
X0082328Y0025234D01*
X0082282Y0025228D01*
X0082237Y0025219D01*
X0082192Y0025206D01*
X0082149Y0025189D01*
X0082107Y0025170D01*
X0082067Y0025147D01*
X0082029Y0025121D01*
X0081992Y0025093D01*
X0081959Y0025061D01*
X0081927Y0025028D01*
X0081899Y0024991D01*
X0081873Y0024953D01*
X0081850Y0024913D01*
X0081831Y0024871D01*
X0081814Y0024828D01*
X0081801Y0024783D01*
X0081792Y0024738D01*
X0081786Y0024692D01*
X0081784Y0024646D01*
X0081785Y0024600D01*
X0081790Y0024554D01*
X0081799Y0024508D01*
X0081811Y0024464D01*
X0081826Y0024420D01*
X0081845Y0024378D01*
X0079828Y0016143D02*
X0081878Y0014092D01*
X0074426Y0011196D02*
X0074436Y0011095D01*
X0074451Y0010995D01*
X0074469Y0010895D01*
X0074491Y0010796D01*
X0074516Y0010698D01*
X0074545Y0010601D01*
X0074577Y0010505D01*
X0074613Y0010411D01*
X0074653Y0010317D01*
X0074696Y0010226D01*
X0074742Y0010135D01*
X0074791Y0010047D01*
X0074844Y0009960D01*
X0074900Y0009876D01*
X0074959Y0009794D01*
X0075020Y0009713D01*
X0075085Y0009635D01*
X0075153Y0009560D01*
X0075223Y0009487D01*
X0075296Y0009417D01*
X0075371Y0009349D01*
X0075449Y0009284D01*
X0075530Y0009223D01*
X0075612Y0009164D01*
X0075697Y0009108D01*
X0075783Y0009055D01*
X0075871Y0009006D01*
X0075962Y0008960D01*
X0076053Y0008917D01*
X0076147Y0008877D01*
X0076241Y0008841D01*
X0076337Y0008809D01*
X0076434Y0008780D01*
X0076532Y0008755D01*
X0076631Y0008733D01*
X0076731Y0008715D01*
X0076831Y0008700D01*
X0076932Y0008690D01*
X0059456Y0038715D02*
X0057845Y0038715D01*
X0058650Y0038715D02*
X0058650Y0041615D01*
X0057845Y0040970D01*
X0055770Y0041615D02*
X0055770Y0038715D01*
X0054965Y0038715D02*
X0056576Y0038715D01*
X0054965Y0040970D02*
X0055770Y0041615D01*
X0053600Y0041615D02*
X0053600Y0039520D01*
X0053598Y0039465D01*
X0053592Y0039410D01*
X0053583Y0039356D01*
X0053570Y0039303D01*
X0053553Y0039250D01*
X0053533Y0039199D01*
X0053510Y0039149D01*
X0053483Y0039101D01*
X0053452Y0039055D01*
X0053419Y0039011D01*
X0053383Y0038970D01*
X0053344Y0038931D01*
X0053303Y0038895D01*
X0053259Y0038862D01*
X0053213Y0038831D01*
X0053165Y0038804D01*
X0053115Y0038781D01*
X0053064Y0038761D01*
X0053011Y0038744D01*
X0052958Y0038731D01*
X0052904Y0038722D01*
X0052849Y0038716D01*
X0052794Y0038714D01*
X0052739Y0038716D01*
X0052684Y0038722D01*
X0052630Y0038731D01*
X0052577Y0038744D01*
X0052524Y0038761D01*
X0052473Y0038781D01*
X0052423Y0038804D01*
X0052375Y0038831D01*
X0052329Y0038862D01*
X0052285Y0038895D01*
X0052244Y0038931D01*
X0052205Y0038970D01*
X0052169Y0039011D01*
X0052136Y0039055D01*
X0052105Y0039101D01*
X0052078Y0039149D01*
X0052055Y0039199D01*
X0052035Y0039250D01*
X0052018Y0039303D01*
X0052005Y0039356D01*
X0051996Y0039410D01*
X0051990Y0039465D01*
X0051988Y0039520D01*
X0051989Y0039520D02*
X0051989Y0041615D01*
X0020774Y0049350D02*
X0020774Y0049994D01*
X0020774Y0049350D02*
X0020772Y0049302D01*
X0020767Y0049254D01*
X0020758Y0049207D01*
X0020745Y0049160D01*
X0020729Y0049115D01*
X0020710Y0049071D01*
X0020688Y0049028D01*
X0020662Y0048987D01*
X0020633Y0048948D01*
X0020602Y0048912D01*
X0020568Y0048878D01*
X0020532Y0048847D01*
X0020493Y0048818D01*
X0020452Y0048792D01*
X0020409Y0048770D01*
X0020365Y0048751D01*
X0020320Y0048735D01*
X0020273Y0048722D01*
X0020226Y0048713D01*
X0020178Y0048708D01*
X0020130Y0048706D01*
X0020130Y0048705D02*
X0018519Y0048705D01*
X0018519Y0048706D02*
X0018468Y0048708D01*
X0018418Y0048714D01*
X0018369Y0048724D01*
X0018320Y0048738D01*
X0018273Y0048755D01*
X0018227Y0048776D01*
X0018183Y0048801D01*
X0018140Y0048829D01*
X0018101Y0048860D01*
X0018064Y0048895D01*
X0018029Y0048932D01*
X0017998Y0048971D01*
X0017970Y0049013D01*
X0017945Y0049058D01*
X0017924Y0049104D01*
X0017907Y0049151D01*
X0017893Y0049200D01*
X0017883Y0049249D01*
X0017877Y0049299D01*
X0017875Y0049350D01*
X0017874Y0049350D02*
X0017874Y0049994D01*
X0018519Y0051276D02*
X0018568Y0051278D01*
X0018617Y0051284D01*
X0018666Y0051293D01*
X0018713Y0051306D01*
X0018760Y0051323D01*
X0018805Y0051343D01*
X0018848Y0051366D01*
X0018890Y0051393D01*
X0018929Y0051423D01*
X0018966Y0051456D01*
X0019000Y0051492D01*
X0019031Y0051530D01*
X0019060Y0051570D01*
X0019085Y0051612D01*
X0019107Y0051657D01*
X0019125Y0051702D01*
X0019140Y0051749D01*
X0019151Y0051797D01*
X0019159Y0051846D01*
X0019163Y0051895D01*
X0019163Y0051945D01*
X0019159Y0051994D01*
X0019151Y0052043D01*
X0019140Y0052091D01*
X0019125Y0052138D01*
X0019107Y0052183D01*
X0019085Y0052228D01*
X0019060Y0052270D01*
X0019031Y0052310D01*
X0019000Y0052348D01*
X0018966Y0052384D01*
X0018929Y0052417D01*
X0018890Y0052447D01*
X0018848Y0052474D01*
X0018805Y0052497D01*
X0018760Y0052517D01*
X0018713Y0052534D01*
X0018666Y0052547D01*
X0018617Y0052556D01*
X0018568Y0052562D01*
X0018519Y0052564D01*
X0018470Y0052562D01*
X0018421Y0052556D01*
X0018372Y0052547D01*
X0018325Y0052534D01*
X0018278Y0052517D01*
X0018233Y0052497D01*
X0018190Y0052474D01*
X0018148Y0052447D01*
X0018109Y0052417D01*
X0018072Y0052384D01*
X0018038Y0052348D01*
X0018007Y0052310D01*
X0017978Y0052270D01*
X0017953Y0052228D01*
X0017931Y0052183D01*
X0017913Y0052138D01*
X0017898Y0052091D01*
X0017887Y0052043D01*
X0017879Y0051994D01*
X0017875Y0051945D01*
X0017875Y0051895D01*
X0017879Y0051846D01*
X0017887Y0051797D01*
X0017898Y0051749D01*
X0017913Y0051702D01*
X0017931Y0051657D01*
X0017953Y0051612D01*
X0017978Y0051570D01*
X0018007Y0051530D01*
X0018038Y0051492D01*
X0018072Y0051456D01*
X0018109Y0051423D01*
X0018148Y0051393D01*
X0018190Y0051366D01*
X0018233Y0051343D01*
X0018278Y0051323D01*
X0018325Y0051306D01*
X0018372Y0051293D01*
X0018421Y0051284D01*
X0018470Y0051278D01*
X0018519Y0051276D01*
X0019969Y0051114D02*
X0020024Y0051116D01*
X0020079Y0051122D01*
X0020133Y0051131D01*
X0020186Y0051144D01*
X0020239Y0051161D01*
X0020290Y0051181D01*
X0020340Y0051204D01*
X0020388Y0051231D01*
X0020434Y0051262D01*
X0020478Y0051295D01*
X0020519Y0051331D01*
X0020558Y0051370D01*
X0020594Y0051411D01*
X0020627Y0051455D01*
X0020658Y0051501D01*
X0020685Y0051549D01*
X0020708Y0051599D01*
X0020728Y0051650D01*
X0020745Y0051703D01*
X0020758Y0051756D01*
X0020767Y0051810D01*
X0020773Y0051865D01*
X0020775Y0051920D01*
X0020773Y0051975D01*
X0020767Y0052030D01*
X0020758Y0052084D01*
X0020745Y0052137D01*
X0020728Y0052190D01*
X0020708Y0052241D01*
X0020685Y0052291D01*
X0020658Y0052339D01*
X0020627Y0052385D01*
X0020594Y0052429D01*
X0020558Y0052470D01*
X0020519Y0052509D01*
X0020478Y0052545D01*
X0020434Y0052578D01*
X0020388Y0052609D01*
X0020340Y0052636D01*
X0020290Y0052659D01*
X0020239Y0052679D01*
X0020186Y0052696D01*
X0020133Y0052709D01*
X0020079Y0052718D01*
X0020024Y0052724D01*
X0019969Y0052726D01*
X0019914Y0052724D01*
X0019859Y0052718D01*
X0019805Y0052709D01*
X0019752Y0052696D01*
X0019699Y0052679D01*
X0019648Y0052659D01*
X0019598Y0052636D01*
X0019550Y0052609D01*
X0019504Y0052578D01*
X0019460Y0052545D01*
X0019419Y0052509D01*
X0019380Y0052470D01*
X0019344Y0052429D01*
X0019311Y0052385D01*
X0019280Y0052339D01*
X0019253Y0052291D01*
X0019230Y0052241D01*
X0019210Y0052190D01*
X0019193Y0052137D01*
X0019180Y0052084D01*
X0019171Y0052030D01*
X0019165Y0051975D01*
X0019163Y0051920D01*
X0019165Y0051865D01*
X0019171Y0051810D01*
X0019180Y0051756D01*
X0019193Y0051703D01*
X0019210Y0051650D01*
X0019230Y0051599D01*
X0019253Y0051549D01*
X0019280Y0051501D01*
X0019311Y0051455D01*
X0019344Y0051411D01*
X0019380Y0051370D01*
X0019419Y0051331D01*
X0019460Y0051295D01*
X0019504Y0051262D01*
X0019550Y0051231D01*
X0019598Y0051204D01*
X0019648Y0051181D01*
X0019699Y0051161D01*
X0019752Y0051144D01*
X0019805Y0051131D01*
X0019859Y0051122D01*
X0019914Y0051116D01*
X0019969Y0051114D01*
X0006787Y0063857D02*
X0006143Y0063212D01*
X0005981Y0063534D02*
X0004693Y0063534D01*
X0004693Y0063535D02*
X0004638Y0063533D01*
X0004583Y0063527D01*
X0004529Y0063518D01*
X0004476Y0063505D01*
X0004423Y0063488D01*
X0004372Y0063468D01*
X0004322Y0063445D01*
X0004274Y0063418D01*
X0004228Y0063387D01*
X0004184Y0063354D01*
X0004143Y0063318D01*
X0004104Y0063279D01*
X0004068Y0063238D01*
X0004035Y0063194D01*
X0004004Y0063148D01*
X0003977Y0063100D01*
X0003954Y0063050D01*
X0003934Y0062999D01*
X0003917Y0062946D01*
X0003904Y0062893D01*
X0003895Y0062839D01*
X0003889Y0062784D01*
X0003887Y0062729D01*
X0003889Y0062674D01*
X0003895Y0062619D01*
X0003904Y0062565D01*
X0003917Y0062512D01*
X0003934Y0062459D01*
X0003954Y0062408D01*
X0003977Y0062358D01*
X0004004Y0062310D01*
X0004035Y0062264D01*
X0004068Y0062220D01*
X0004104Y0062179D01*
X0004143Y0062140D01*
X0004184Y0062104D01*
X0004228Y0062071D01*
X0004274Y0062040D01*
X0004322Y0062013D01*
X0004372Y0061990D01*
X0004423Y0061970D01*
X0004476Y0061953D01*
X0004529Y0061940D01*
X0004583Y0061931D01*
X0004638Y0061925D01*
X0004693Y0061923D01*
X0005981Y0061923D01*
X0006036Y0061925D01*
X0006091Y0061931D01*
X0006145Y0061940D01*
X0006198Y0061953D01*
X0006251Y0061970D01*
X0006302Y0061990D01*
X0006352Y0062013D01*
X0006400Y0062040D01*
X0006446Y0062071D01*
X0006490Y0062104D01*
X0006531Y0062140D01*
X0006570Y0062179D01*
X0006606Y0062220D01*
X0006639Y0062264D01*
X0006670Y0062310D01*
X0006697Y0062358D01*
X0006720Y0062408D01*
X0006740Y0062459D01*
X0006757Y0062512D01*
X0006770Y0062565D01*
X0006779Y0062619D01*
X0006785Y0062674D01*
X0006787Y0062729D01*
X0006785Y0062784D01*
X0006779Y0062839D01*
X0006770Y0062893D01*
X0006757Y0062946D01*
X0006740Y0062999D01*
X0006720Y0063050D01*
X0006697Y0063100D01*
X0006670Y0063148D01*
X0006639Y0063194D01*
X0006606Y0063238D01*
X0006570Y0063279D01*
X0006531Y0063318D01*
X0006490Y0063354D01*
X0006446Y0063387D01*
X0006400Y0063418D01*
X0006352Y0063445D01*
X0006302Y0063468D01*
X0006251Y0063488D01*
X0006198Y0063505D01*
X0006145Y0063518D01*
X0006091Y0063527D01*
X0006036Y0063533D01*
X0005981Y0063535D01*
X0006787Y0064717D02*
X0006787Y0066328D01*
X0006787Y0064717D02*
X0005176Y0066086D01*
X0003887Y0065603D02*
X0003889Y0065544D01*
X0003894Y0065486D01*
X0003904Y0065428D01*
X0003916Y0065371D01*
X0003933Y0065315D01*
X0003952Y0065260D01*
X0003976Y0065206D01*
X0004002Y0065154D01*
X0004032Y0065104D01*
X0004065Y0065055D01*
X0004101Y0065009D01*
X0004140Y0064965D01*
X0004181Y0064924D01*
X0004225Y0064885D01*
X0004271Y0064849D01*
X0004320Y0064817D01*
X0004370Y0064787D01*
X0004422Y0064760D01*
X0004476Y0064737D01*
X0004531Y0064717D01*
X0005176Y0066086D02*
X0005139Y0066123D01*
X0005099Y0066157D01*
X0005057Y0066189D01*
X0005012Y0066217D01*
X0004966Y0066243D01*
X0004919Y0066265D01*
X0004870Y0066284D01*
X0004820Y0066300D01*
X0004769Y0066312D01*
X0004717Y0066321D01*
X0004665Y0066326D01*
X0004612Y0066328D01*
X0004560Y0066326D01*
X0004509Y0066321D01*
X0004458Y0066311D01*
X0004408Y0066299D01*
X0004359Y0066282D01*
X0004311Y0066262D01*
X0004265Y0066239D01*
X0004220Y0066213D01*
X0004178Y0066183D01*
X0004137Y0066151D01*
X0004099Y0066116D01*
X0004064Y0066078D01*
X0004032Y0066037D01*
X0004002Y0065995D01*
X0003976Y0065950D01*
X0003953Y0065904D01*
X0003933Y0065856D01*
X0003916Y0065807D01*
X0003904Y0065757D01*
X0003894Y0065706D01*
X0003889Y0065655D01*
X0003887Y0065603D01*
X0011204Y0073089D02*
X0012771Y0073089D01*
X0012249Y0071653D01*
X0012771Y0073089D02*
X0013946Y0072175D01*
X0012771Y0073089D02*
X0012249Y0074525D01*
X0012771Y0073089D02*
X0013946Y0074003D01*
X0083878Y0089359D02*
X0083878Y0090970D01*
X0083879Y0090970D02*
X0083881Y0091021D01*
X0083887Y0091071D01*
X0083897Y0091120D01*
X0083911Y0091169D01*
X0083928Y0091216D01*
X0083949Y0091262D01*
X0083974Y0091306D01*
X0084002Y0091349D01*
X0084033Y0091388D01*
X0084068Y0091425D01*
X0084105Y0091460D01*
X0084144Y0091491D01*
X0084187Y0091519D01*
X0084231Y0091544D01*
X0084277Y0091565D01*
X0084324Y0091582D01*
X0084373Y0091596D01*
X0084422Y0091606D01*
X0084472Y0091612D01*
X0084523Y0091614D01*
X0084523Y0091615D02*
X0085167Y0091615D01*
X0086383Y0091615D02*
X0087995Y0088715D01*
X0087995Y0091615D01*
X0089359Y0090970D02*
X0090165Y0091615D01*
X0090165Y0088715D01*
X0089359Y0088715D02*
X0090971Y0088715D01*
X0086383Y0088715D02*
X0086383Y0091615D01*
X0083879Y0089359D02*
X0083881Y0089311D01*
X0083886Y0089263D01*
X0083895Y0089216D01*
X0083908Y0089169D01*
X0083924Y0089124D01*
X0083943Y0089080D01*
X0083965Y0089037D01*
X0083991Y0088996D01*
X0084020Y0088957D01*
X0084051Y0088921D01*
X0084085Y0088887D01*
X0084121Y0088856D01*
X0084160Y0088827D01*
X0084201Y0088801D01*
X0084244Y0088779D01*
X0084288Y0088760D01*
X0084333Y0088744D01*
X0084380Y0088731D01*
X0084427Y0088722D01*
X0084475Y0088717D01*
X0084523Y0088715D01*
X0085167Y0088715D01*
D13*
X0080866Y0064088D02*
X0069268Y0064088D01*
X0069268Y0060285D01*
X0080866Y0060285D01*
X0080866Y0064088D01*
X0096039Y0058183D02*
X0096039Y0054380D01*
X0107638Y0054380D01*
X0107638Y0058183D01*
X0096039Y0058183D01*
X0062376Y0060700D02*
X0062376Y0061700D01*
X0061376Y0061700D01*
X0050176Y0061700D02*
X0049176Y0061700D01*
X0049176Y0060700D01*
X0047008Y0061072D02*
X0047008Y0064876D01*
X0035409Y0064876D01*
X0035409Y0061072D01*
X0047008Y0061072D01*
X0047008Y0058970D02*
X0047008Y0055167D01*
X0035409Y0055167D01*
X0035409Y0058970D01*
X0047008Y0058970D01*
X0047008Y0052277D02*
X0047008Y0048474D01*
X0035409Y0048474D01*
X0035409Y0052277D01*
X0047008Y0052277D01*
X0049176Y0049500D02*
X0049176Y0048500D01*
X0050176Y0048500D01*
X0061376Y0048500D02*
X0062376Y0048500D01*
X0062376Y0049500D01*
X0039567Y0034915D02*
X0035764Y0034915D01*
X0035764Y0023317D01*
X0039567Y0023317D01*
X0039567Y0034915D01*
X0035236Y0038458D02*
X0027496Y0038458D01*
X0027496Y0022923D01*
X0035236Y0022923D01*
X0035236Y0038458D01*
X0026969Y0032553D02*
X0023165Y0032553D01*
X0023165Y0020954D01*
X0026969Y0020954D01*
X0026969Y0032553D01*
X0016693Y0046899D02*
X0016693Y0050702D01*
X0005094Y0050702D01*
X0005094Y0046899D01*
X0016693Y0046899D01*
X0016100Y0058043D02*
X0016100Y0061243D01*
X0013900Y0061243D01*
X0012969Y0067765D02*
X0012969Y0071569D01*
X0024567Y0071569D01*
X0024567Y0067765D01*
X0012969Y0067765D01*
X0007100Y0061243D02*
X0004900Y0061243D01*
X0004900Y0058043D01*
X0013349Y0075903D02*
X0013349Y0083903D01*
X0018549Y0083903D02*
X0021349Y0083903D01*
X0026549Y0083903D02*
X0026549Y0075903D01*
X0027496Y0076466D02*
X0031299Y0076466D01*
X0031299Y0088065D01*
X0027496Y0088065D01*
X0027496Y0076466D01*
X0033047Y0085482D02*
X0033047Y0089285D01*
X0044646Y0089285D01*
X0044646Y0085482D01*
X0033047Y0085482D01*
X0030866Y0088632D02*
X0030866Y0092435D01*
X0019268Y0092435D01*
X0019268Y0088632D01*
X0030866Y0088632D01*
X0037946Y0090270D02*
X0039746Y0090270D01*
X0041646Y0093970D02*
X0041646Y0094970D01*
X0039746Y0098670D02*
X0037946Y0098670D01*
X0038346Y0097670D02*
X0038410Y0097644D01*
X0038474Y0097622D01*
X0038540Y0097603D01*
X0038607Y0097587D01*
X0038675Y0097576D01*
X0038743Y0097568D01*
X0038812Y0097564D01*
X0038880Y0097564D01*
X0038949Y0097568D01*
X0039017Y0097576D01*
X0039085Y0097587D01*
X0039152Y0097603D01*
X0039218Y0097622D01*
X0039282Y0097644D01*
X0039346Y0097670D01*
X0037378Y0099655D02*
X0037378Y0103458D01*
X0048976Y0103458D01*
X0048976Y0099655D01*
X0037378Y0099655D01*
D14*
X0050910Y0098136D02*
X0087166Y0084940D01*
X0079491Y0063852D01*
X0043235Y0077048D01*
X0050910Y0098136D01*
X0043965Y0036990D02*
X0043965Y0017305D01*
X0063650Y0017305D01*
X0063650Y0036990D01*
X0043965Y0036990D01*
D15*
X0046476Y0053563D02*
X0047476Y0053563D01*
X0047476Y0055063D01*
X0046476Y0055063D01*
X0046476Y0053563D01*
X0046476Y0053622D02*
X0047476Y0053622D01*
X0047476Y0053721D02*
X0046476Y0053721D01*
X0046476Y0053819D02*
X0047476Y0053819D01*
X0047476Y0053918D02*
X0046476Y0053918D01*
X0046476Y0054016D02*
X0047476Y0054016D01*
X0047476Y0054115D02*
X0046476Y0054115D01*
X0046476Y0054213D02*
X0047476Y0054213D01*
X0047476Y0054312D02*
X0046476Y0054312D01*
X0046476Y0054410D02*
X0047476Y0054410D01*
X0047476Y0054509D02*
X0046476Y0054509D01*
X0046476Y0054607D02*
X0047476Y0054607D01*
X0047476Y0054706D02*
X0046476Y0054706D01*
X0046476Y0054805D02*
X0047476Y0054805D01*
X0047476Y0054903D02*
X0046476Y0054903D01*
X0046476Y0055002D02*
X0047476Y0055002D01*
X0064076Y0053488D02*
X0064076Y0051988D01*
X0065076Y0051988D01*
X0065076Y0053488D01*
X0064076Y0053488D01*
X0064076Y0053425D02*
X0065076Y0053425D01*
X0065076Y0053327D02*
X0064076Y0053327D01*
X0064076Y0053228D02*
X0065076Y0053228D01*
X0065076Y0053130D02*
X0064076Y0053130D01*
X0064076Y0053031D02*
X0065076Y0053031D01*
X0065076Y0052933D02*
X0064076Y0052933D01*
X0064076Y0052834D02*
X0065076Y0052834D01*
X0065076Y0052736D02*
X0064076Y0052736D01*
X0064076Y0052637D02*
X0065076Y0052637D01*
X0065076Y0052539D02*
X0064076Y0052539D01*
X0064076Y0052440D02*
X0065076Y0052440D01*
X0065076Y0052342D02*
X0064076Y0052342D01*
X0064076Y0052243D02*
X0065076Y0052243D01*
X0065076Y0052145D02*
X0064076Y0052145D01*
X0064076Y0052046D02*
X0065076Y0052046D01*
D16*
X0075466Y0055182D02*
X0080266Y0059982D01*
X0087266Y0059982D01*
X0087266Y0039982D01*
X0075466Y0039982D01*
X0075466Y0055182D01*
M02*
