G75*
%MOIN*%
%OFA0B0*%
%FSLAX25Y25*%
%IPPOS*%
%LPD*%
%AMOC8*
5,1,8,0,0,1.08239X$1,22.5*
%
%ADD10C,0.00000*%
%ADD11R,0.04724X0.04724*%
%ADD12C,0.04724*%
%ADD13C,0.08661*%
%ADD14C,0.10630*%
%ADD15C,0.15748*%
D10*
X0055134Y0001000D02*
X0053816Y0001016D01*
X0052498Y0001064D01*
X0051182Y0001144D01*
X0049869Y0001257D01*
X0048559Y0001401D01*
X0047252Y0001577D01*
X0045950Y0001785D01*
X0044654Y0002024D01*
X0043364Y0002295D01*
X0042080Y0002597D01*
X0040805Y0002931D01*
X0039538Y0003295D01*
X0038280Y0003690D01*
X0037033Y0004116D01*
X0035796Y0004572D01*
X0034570Y0005058D01*
X0033357Y0005573D01*
X0032156Y0006118D01*
X0030970Y0006693D01*
X0029797Y0007295D01*
X0028640Y0007926D01*
X0027498Y0008586D01*
X0026373Y0009272D01*
X0025265Y0009986D01*
X0024174Y0010727D01*
X0023102Y0011494D01*
X0022049Y0012287D01*
X0021015Y0013105D01*
X0020002Y0013949D01*
X0019009Y0014817D01*
X0018038Y0015708D01*
X0017089Y0016623D01*
X0016163Y0017561D01*
X0015259Y0018521D01*
X0014380Y0019503D01*
X0013524Y0020506D01*
X0012693Y0021529D01*
X0011887Y0022573D01*
X0011107Y0023636D01*
X0010353Y0024717D01*
X0009626Y0025817D01*
X0008926Y0026933D01*
X0008253Y0028067D01*
X0007607Y0029217D01*
X0006990Y0030382D01*
X0006402Y0031561D01*
X0005842Y0032755D01*
X0005312Y0033962D01*
X0004811Y0035181D01*
X0004340Y0036413D01*
X0003899Y0037655D01*
X0003489Y0038908D01*
X0003109Y0040170D01*
X0002760Y0041442D01*
X0002442Y0042721D01*
X0002156Y0044008D01*
X0001900Y0045301D01*
X0001677Y0046600D01*
X0001485Y0047905D01*
X0001325Y0049213D01*
X0001197Y0050525D01*
X0001100Y0051840D01*
X0001036Y0053157D01*
X0001004Y0054475D01*
X0001004Y0055793D01*
X0001036Y0057111D01*
X0001100Y0058428D01*
X0001197Y0059743D01*
X0001325Y0061055D01*
X0001485Y0062363D01*
X0001677Y0063668D01*
X0001900Y0064967D01*
X0002156Y0066260D01*
X0002442Y0067547D01*
X0002760Y0068826D01*
X0003109Y0070098D01*
X0003489Y0071360D01*
X0003899Y0072613D01*
X0004340Y0073855D01*
X0004811Y0075087D01*
X0005312Y0076306D01*
X0005842Y0077513D01*
X0006402Y0078707D01*
X0006990Y0079886D01*
X0007607Y0081051D01*
X0008253Y0082201D01*
X0008926Y0083335D01*
X0009626Y0084451D01*
X0010353Y0085551D01*
X0011107Y0086632D01*
X0011887Y0087695D01*
X0012693Y0088739D01*
X0013524Y0089762D01*
X0014380Y0090765D01*
X0015259Y0091747D01*
X0016163Y0092707D01*
X0017089Y0093645D01*
X0018038Y0094560D01*
X0019009Y0095451D01*
X0020002Y0096319D01*
X0021015Y0097163D01*
X0022049Y0097981D01*
X0023102Y0098774D01*
X0024174Y0099541D01*
X0025265Y0100282D01*
X0026373Y0100996D01*
X0027498Y0101682D01*
X0028640Y0102342D01*
X0029797Y0102973D01*
X0030970Y0103575D01*
X0032156Y0104150D01*
X0033357Y0104695D01*
X0034570Y0105210D01*
X0035796Y0105696D01*
X0037033Y0106152D01*
X0038280Y0106578D01*
X0039538Y0106973D01*
X0040805Y0107337D01*
X0042080Y0107671D01*
X0043364Y0107973D01*
X0044654Y0108244D01*
X0045950Y0108483D01*
X0047252Y0108691D01*
X0048559Y0108867D01*
X0049869Y0109011D01*
X0051182Y0109124D01*
X0052498Y0109204D01*
X0053816Y0109252D01*
X0055134Y0109268D01*
X0056452Y0109252D01*
X0057770Y0109204D01*
X0059086Y0109124D01*
X0060399Y0109011D01*
X0061709Y0108867D01*
X0063016Y0108691D01*
X0064318Y0108483D01*
X0065614Y0108244D01*
X0066904Y0107973D01*
X0068188Y0107671D01*
X0069463Y0107337D01*
X0070730Y0106973D01*
X0071988Y0106578D01*
X0073235Y0106152D01*
X0074472Y0105696D01*
X0075698Y0105210D01*
X0076911Y0104695D01*
X0078112Y0104150D01*
X0079298Y0103575D01*
X0080471Y0102973D01*
X0081628Y0102342D01*
X0082770Y0101682D01*
X0083895Y0100996D01*
X0085003Y0100282D01*
X0086094Y0099541D01*
X0087166Y0098774D01*
X0088219Y0097981D01*
X0089253Y0097163D01*
X0090266Y0096319D01*
X0091259Y0095451D01*
X0092230Y0094560D01*
X0093179Y0093645D01*
X0094105Y0092707D01*
X0095009Y0091747D01*
X0095888Y0090765D01*
X0096744Y0089762D01*
X0097575Y0088739D01*
X0098381Y0087695D01*
X0099161Y0086632D01*
X0099915Y0085551D01*
X0100642Y0084451D01*
X0101342Y0083335D01*
X0102015Y0082201D01*
X0102661Y0081051D01*
X0103278Y0079886D01*
X0103866Y0078707D01*
X0104426Y0077513D01*
X0104956Y0076306D01*
X0105457Y0075087D01*
X0105928Y0073855D01*
X0106369Y0072613D01*
X0106779Y0071360D01*
X0107159Y0070098D01*
X0107508Y0068826D01*
X0107826Y0067547D01*
X0108112Y0066260D01*
X0108368Y0064967D01*
X0108591Y0063668D01*
X0108783Y0062363D01*
X0108943Y0061055D01*
X0109071Y0059743D01*
X0109168Y0058428D01*
X0109232Y0057111D01*
X0109264Y0055793D01*
X0109264Y0054475D01*
X0109232Y0053157D01*
X0109168Y0051840D01*
X0109071Y0050525D01*
X0108943Y0049213D01*
X0108783Y0047905D01*
X0108591Y0046600D01*
X0108368Y0045301D01*
X0108112Y0044008D01*
X0107826Y0042721D01*
X0107508Y0041442D01*
X0107159Y0040170D01*
X0106779Y0038908D01*
X0106369Y0037655D01*
X0105928Y0036413D01*
X0105457Y0035181D01*
X0104956Y0033962D01*
X0104426Y0032755D01*
X0103866Y0031561D01*
X0103278Y0030382D01*
X0102661Y0029217D01*
X0102015Y0028067D01*
X0101342Y0026933D01*
X0100642Y0025817D01*
X0099915Y0024717D01*
X0099161Y0023636D01*
X0098381Y0022573D01*
X0097575Y0021529D01*
X0096744Y0020506D01*
X0095888Y0019503D01*
X0095009Y0018521D01*
X0094105Y0017561D01*
X0093179Y0016623D01*
X0092230Y0015708D01*
X0091259Y0014817D01*
X0090266Y0013949D01*
X0089253Y0013105D01*
X0088219Y0012287D01*
X0087166Y0011494D01*
X0086094Y0010727D01*
X0085003Y0009986D01*
X0083895Y0009272D01*
X0082770Y0008586D01*
X0081628Y0007926D01*
X0080471Y0007295D01*
X0079298Y0006693D01*
X0078112Y0006118D01*
X0076911Y0005573D01*
X0075698Y0005058D01*
X0074472Y0004572D01*
X0073235Y0004116D01*
X0071988Y0003690D01*
X0070730Y0003295D01*
X0069463Y0002931D01*
X0068188Y0002597D01*
X0066904Y0002295D01*
X0065614Y0002024D01*
X0064318Y0001785D01*
X0063016Y0001577D01*
X0061709Y0001401D01*
X0060399Y0001257D01*
X0059086Y0001144D01*
X0057770Y0001064D01*
X0056452Y0001016D01*
X0055134Y0001000D01*
D11*
X0063008Y0070882D03*
D12*
X0055134Y0070882D03*
X0047260Y0070882D03*
D13*
X0056724Y0025984D03*
X0063795Y0018913D03*
X0070866Y0011842D03*
D14*
X0055134Y0008874D03*
X0055134Y0101394D03*
D15*
X0014214Y0038184D03*
X0096054Y0072083D03*
M02*
